<svg width="124" height="71" viewBox="0 0 124 71" fill="none" xmlns="http://www.w3.org/2000/svg">
<g clip-path="url(#clip0_958_112)">
<path d="M46.0814 20.2694L44.6475 18.8726L60.4048 3.81716L57.755 1.22619L59.009 0L61.8715 2.7989V5.42719L46.0814 20.2694Z" fill="white"/>
<path d="M77.6616 20.2694L79.0958 18.8726L63.3437 3.81716L65.9882 1.22619L64.7395 0L61.8716 2.7989V5.42719L77.6616 20.2694Z" fill="white"/>
<path d="M51.1685 30.3721L55.6612 34.765H51.1685V30.3721Z" fill="white"/>
<path d="M51.1685 19.6404C51.1685 19.6404 52.2208 23.3722 55.1324 23.3722H60.3339L53.8402 17.0227L51.1685 19.6404Z" fill="white"/>
<path d="M54.7017 16.2977L61.1954 22.6419V18.91C61.2018 17.884 60.9326 16.8744 60.415 15.9819C59.8974 15.0894 59.1494 14.3454 58.2457 13.824C57.9865 13.6752 57.7101 13.5571 57.4224 13.4722L54.7017 16.2977Z" fill="white"/>
<path d="M51.1685 28.6182C51.1685 28.6182 52.2208 24.8862 55.1324 24.8862H60.3339L53.8402 31.2304L51.1685 28.6182Z" fill="white"/>
<path d="M54.7017 31.9608L61.1954 25.6113V29.3432C61.2041 30.3689 60.936 31.3787 60.4181 32.2707C59.9001 33.1627 59.1508 33.9054 58.2457 34.4238C57.9877 34.5764 57.7111 34.6964 57.4224 34.781L54.7017 31.9608Z" fill="white"/>
<path d="M58.5127 12.4324C58.5127 12.4324 61.0534 13.4613 61.8822 15.5352V9.1377L58.5127 12.4324Z" fill="white"/>
<path d="M72.5962 30.3721L68.1035 34.765H72.5962V30.3721Z" fill="white"/>
<path d="M72.6181 19.6404C72.6181 19.6404 71.5713 23.3722 68.6597 23.3722H63.4526L69.9464 17.0227L72.6181 19.6404Z" fill="white"/>
<path d="M69.0631 16.2977L62.5694 22.6419V18.91C62.5631 17.884 62.8322 16.8744 63.3498 15.9819C63.8674 15.0894 64.6154 14.3454 65.5192 13.824C65.7783 13.6752 66.0547 13.5571 66.3425 13.4722L69.0631 16.2977Z" fill="white"/>
<path d="M72.6181 28.6182C72.6181 28.6182 71.5713 24.8862 68.6597 24.8862H63.4526L69.9464 31.2304L72.6181 28.6182Z" fill="white"/>
<path d="M69.0628 31.9608L62.5691 25.6113V29.3432C62.5604 30.3689 62.8285 31.3787 63.3464 32.2707C63.8643 33.1627 64.6136 33.9054 65.5188 34.4238C65.7767 34.5764 66.0533 34.6964 66.3421 34.781L69.0628 31.9608Z" fill="white"/>
<path d="M65.2519 12.4324C65.2519 12.4324 62.7111 13.4613 61.8823 15.5352V9.1377L65.2519 12.4324Z" fill="white"/>
<path d="M7.15454 57.5446C8.83062 57.4536 9.89562 56.8049 10.3611 56.1846L10.4542 56.2585C9.96573 57.0388 9.28186 57.6843 8.4672 58.1344C7.65264 58.5844 6.73419 58.824 5.79858 58.8306C5.09049 58.8623 4.38334 58.7506 3.72158 58.5021C3.05982 58.2538 2.45776 57.8743 1.95326 57.3874C1.44878 56.9005 1.05276 56.3169 0.790105 55.6731C0.527458 55.0293 0.403853 54.3394 0.427075 53.6467C0.427075 50.8015 2.10313 48.4629 5.5658 48.4629C6.72972 48.4629 9.81997 48.8157 10.1109 50.9836C10.1109 51.0406 10.1109 51.1088 10.1109 51.1601C10.1109 52.0933 9.15653 52.6054 8.1264 52.7135C8.19643 52.3955 8.23347 52.0714 8.23698 51.7461C8.23698 49.9821 7.07308 48.6563 5.69383 48.6563C3.90722 48.6563 2.62689 50.4545 2.62689 52.5542V52.8557C2.78983 55.7635 4.55899 57.5446 6.91594 57.5446H7.15454Z" fill="white"/>
<path d="M20.6559 56.2585C20.6559 57.5617 21.0691 57.8063 21.3775 57.8063C21.4507 57.8062 21.5233 57.7946 21.5928 57.7722C21.4536 58.1064 21.2097 58.3888 20.8959 58.579C20.5823 58.7692 20.215 58.8572 19.847 58.8306C18.4386 58.8306 18.2582 57.6299 18.2582 56.5886V55.9229C17.4086 57.5446 15.75 58.8306 13.9517 58.8306C13.6433 58.8514 13.334 58.8088 13.0435 58.7055C12.753 58.6022 12.4879 58.4405 12.2653 58.2309C12.0426 58.0212 11.8674 57.7683 11.751 57.4884C11.6345 57.2084 11.5792 56.9078 11.589 56.6057C11.589 53.5044 17.2514 52.9753 18.2582 52.907V50.8471C18.2582 49.453 17.3562 48.6563 16.2912 48.6563C16.0287 48.6314 15.7638 48.6586 15.5124 48.7364C15.261 48.8141 15.0282 48.9408 14.8281 49.1088C14.6281 49.2767 14.4649 49.4825 14.3483 49.7138C14.2316 49.945 14.1641 50.197 14.1496 50.4545C14.1323 50.7853 14.207 51.1145 14.3659 51.4071C14.5247 51.6997 14.7617 51.9446 15.0516 52.116C14.7818 52.1946 14.5007 52.2292 14.2194 52.2185C13.4279 52.2185 12.3455 51.9738 12.3455 50.8471C12.3455 48.9579 15.4997 48.4629 16.4192 48.4629H16.4891C19.1602 48.4629 20.6209 49.7546 20.6209 51.8144V52.6054V56.2017L20.6559 56.2585ZM18.2757 55.6895V53.0151C17.0477 53.1687 13.9692 53.9313 13.9692 56.2017C13.9692 56.7707 14.33 57.5218 15.5929 57.5218C16.8557 57.5218 17.7868 56.5887 18.2757 55.6724V55.6895Z" fill="white"/>
<path d="M31.5796 55.9401C31.5447 58.1251 28.9492 58.7852 27.2557 58.7852H26.9472C26.1383 58.7852 22.5127 58.5349 22.5127 56.4408C22.5127 55.206 23.9385 54.8874 24.7125 54.8874H24.8929C24.5709 55.3171 24.3938 55.8342 24.3866 56.3669C24.3866 57.5334 25.306 58.5918 26.9472 58.6089C27.007 58.5997 27.0679 58.5997 27.1276 58.6089C27.3429 58.6089 29.4554 58.5179 29.4554 56.7026C29.4554 54.1989 22.8211 53.8119 22.8211 50.9383C22.8211 48.998 25.341 48.4517 27.0403 48.4517H27.1276C28.2916 48.4517 31.2014 48.9638 31.2014 50.8189C31.2014 51.8374 29.7814 52.0309 29.2576 52.0309C29.1645 52.0309 29.1121 52.0309 29.0772 52.0309C29.3046 51.6196 29.4283 51.1611 29.438 50.6937C29.438 49.6182 28.6989 48.6679 27.0403 48.6451H26.8017C26.1907 48.6451 24.7648 48.9809 24.7474 50.2327C24.7648 52.3097 31.5796 52.8559 31.5796 55.9401Z" fill="white"/>
<path d="M41.915 56.2585C41.915 57.5617 42.3282 57.8063 42.6367 57.8063C42.7099 57.8066 42.7826 57.7951 42.852 57.7722C42.7127 58.1064 42.4688 58.3888 42.1551 58.579C41.8413 58.7692 41.4742 58.8572 41.1061 58.8306C39.6977 58.8306 39.5173 57.6299 39.5173 56.5886V55.9229C38.6735 57.5446 37.0149 58.8306 35.2109 58.8306C34.9027 58.8505 34.5937 58.8073 34.3036 58.7037C34.0135 58.6001 33.7488 58.4383 33.5263 58.2289C33.3039 58.0194 33.1287 57.7669 33.0119 57.4873C32.8951 57.2078 32.8393 56.9075 32.8481 56.6057C32.8481 53.5044 38.5106 52.9753 39.5173 52.907V50.8471C39.5173 49.453 38.6153 48.6563 37.5562 48.6563C37.2932 48.6305 37.0276 48.6572 36.7756 48.7345C36.5235 48.8119 36.29 48.9384 36.0893 49.1065C35.8886 49.2746 35.7248 49.4807 35.6078 49.7123C35.4908 49.944 35.4231 50.1965 35.4087 50.4545C35.3914 50.7853 35.4661 51.1145 35.625 51.4071C35.7838 51.6996 36.0208 51.9446 36.3107 52.116C36.041 52.195 35.7598 52.2297 35.4785 52.2185C34.6871 52.2185 33.6046 51.9738 33.6046 50.8471C33.6046 48.9579 36.7588 48.4629 37.6784 48.4629H37.754C40.4194 48.4629 41.8801 49.7546 41.8801 51.8144V52.6054V56.2017L41.915 56.2585ZM39.5348 55.6895V53.0151C38.3126 53.1687 35.2283 53.9313 35.2283 56.2017C35.2283 56.7707 35.5891 57.5218 36.8519 57.5218C37.4236 57.4734 37.9717 57.2764 38.4393 56.9512C38.9069 56.6261 39.277 56.1846 39.5115 55.6724L39.5348 55.6895Z" fill="white"/>
<path d="M54.8522 53.368C54.8522 56.4124 53.019 58.8307 49.5563 58.8307C48.6332 58.7941 47.7236 58.6016 46.8676 58.2616C46.4661 58.1168 46.0292 58.0937 45.614 58.1951C45.1987 58.2967 44.8245 58.5182 44.5398 58.8307H44.243V46.3462C44.243 44.2636 43.8473 44.2465 43.2886 44.2465V44.053C43.9078 43.9763 44.5142 43.8214 45.0927 43.592C45.5757 43.411 46.0348 43.1741 46.4602 42.8865H46.6232V51.8771C46.8021 50.9354 47.3093 50.0833 48.0584 49.466C48.8075 48.8486 49.7523 48.5043 50.7319 48.4914C53.1412 48.463 54.8522 50.6537 54.8522 53.368ZM52.4603 53.6468C52.4603 51.4959 51.4826 49.4019 49.6087 49.4019C48.113 49.4019 46.6523 50.7903 46.6523 53.3851V56.7993C46.9316 57.3236 47.3481 57.7662 47.8592 58.0821C48.3703 58.398 48.9579 58.5758 49.5621 58.5974C51.6805 58.6373 52.4603 56.1676 52.4603 53.6468Z" fill="white"/>
<path d="M67.0614 53.6467C67.0614 56.4918 65.2224 58.8306 61.7773 58.8306C58.332 58.8306 56.4756 56.5032 56.4756 53.6467C56.4756 50.7902 58.3145 48.4629 61.7773 48.4629C65.2399 48.4629 67.0614 50.7902 67.0614 53.6467ZM64.6638 53.6467C64.6638 50.8983 63.9072 48.6563 61.7539 48.6563C59.6007 48.6563 58.8441 50.8983 58.8441 53.6467C58.8441 56.3951 59.624 58.6371 61.7539 58.6371C63.8839 58.6371 64.6638 56.3951 64.6638 53.6467Z" fill="white"/>
<path d="M71.4032 56.236C71.4032 57.5619 71.8571 57.8065 72.183 57.8065C72.2503 57.8045 72.3169 57.7929 72.3809 57.7723C72.2513 58.099 72.0195 58.3773 71.7184 58.5674C71.4174 58.7575 71.0626 58.8497 70.7048 58.8308C69.3663 58.8308 69.0463 57.6301 69.0463 56.5888V48.6565H67.4575V48.463C70.3673 48.0078 71.1879 45.0488 71.1879 45.0488H71.4032V48.463H73.0618V48.6565H71.4032V56.236Z" fill="white"/>
<path d="M82.6931 56.2585C82.6931 57.5617 83.1065 57.8063 83.4145 57.8063C83.4878 57.8057 83.5604 57.7941 83.6298 57.7722C83.4909 58.1064 83.2468 58.3888 82.9333 58.579C82.619 58.7692 82.2525 58.8572 81.8844 58.8306C80.4814 58.8306 80.3013 57.6299 80.3013 56.5886V55.9229C79.4512 57.5446 77.7929 58.8306 75.9889 58.8306C75.681 58.8506 75.3722 58.8074 75.0825 58.7037C74.7927 58.6 74.5283 58.4382 74.3063 58.2287C74.0843 58.0191 73.9096 57.7665 73.7935 57.4869C73.6774 57.2074 73.6223 56.9072 73.6319 56.6057C73.6319 53.5044 79.289 52.9753 80.3013 52.907V50.8471C80.3013 49.453 79.3989 48.6563 78.3344 48.6563C78.0716 48.6305 77.8063 48.6572 77.5545 48.7347C77.3027 48.8121 77.0697 48.9387 76.8694 49.1069C76.6692 49.275 76.5059 49.4811 76.3896 49.7127C76.2733 49.9444 76.2062 50.1967 76.1926 50.4545C76.1753 50.7846 76.2494 51.1133 76.4072 51.4056C76.5649 51.698 76.8004 51.9435 77.0888 52.116C76.8211 52.1947 76.5418 52.2294 76.2624 52.2185C75.471 52.2185 74.3885 51.9738 74.3885 50.8471C74.3885 48.9579 77.5427 48.4629 78.4623 48.4629H78.5317C81.2036 48.4629 82.6643 49.7546 82.6643 51.8144V52.6054V56.2017L82.6931 56.2585ZM80.313 55.6895V53.0151C79.0847 53.1687 76.0005 53.9313 76.0005 56.2017C76.0005 56.7707 76.3613 57.5218 77.6242 57.5218C78.2026 57.4785 78.7579 57.284 79.2336 56.9586C79.7086 56.6333 80.0852 56.1891 80.3247 55.6724L80.313 55.6895Z" fill="white"/>
<path d="M95.2749 56.2585C95.2749 57.5617 95.7054 57.8063 96.0314 57.8063C96.1047 57.8062 96.1772 57.7946 96.2466 57.7722C96.1172 58.0989 95.8856 58.3772 95.5845 58.5672C95.2835 58.7573 94.9287 58.8495 94.5707 58.8306C93.2379 58.8306 92.9127 57.6299 92.9127 56.5886V52.0363C92.9127 50.5569 92.7146 49.0604 91.1665 49.0604C89.9382 49.0604 88.6054 50.3805 87.8841 52.0534V56.5488C87.849 57.1037 87.9464 57.6591 88.1695 58.1705C88.2241 58.3065 88.3184 58.4241 88.4401 58.5089C88.5625 58.5938 88.7068 58.6422 88.8558 58.6485V58.8419H84.5493V58.6485C85.0905 58.6485 85.521 58.0794 85.521 56.5488V51.9226C85.521 49.8399 85.1085 49.8228 84.5493 49.8228V49.6294C85.1693 49.5541 85.7753 49.3991 86.3539 49.1685C86.8367 48.9874 87.296 48.7505 87.7211 48.4629H87.8903V51.5698C88.8269 49.7147 90.2182 48.4629 92.2139 48.4629C94.2104 48.4629 95.2983 49.8058 95.2983 51.8144L95.2749 56.2585Z" fill="white"/>
<path d="M101.438 58.6373V58.8308H97.1489V58.6373C97.6722 58.6373 98.1035 58.0683 98.1035 56.5376V51.9227C98.1035 49.8401 97.7073 49.823 97.1489 49.823V49.6296C97.7666 49.568 98.3718 49.4204 98.9473 49.1914C99.4308 49.0245 99.8863 48.7867 100.297 48.4859H100.477V56.5604C100.442 57.1159 100.541 57.6718 100.768 58.1821C100.821 58.3146 100.913 58.4288 101.032 58.51C101.151 58.5911 101.292 58.6355 101.438 58.6373ZM99.2788 46.9153C98.959 46.9142 98.6471 46.8206 98.3819 46.6463C98.1168 46.4721 97.9109 46.2249 97.7892 45.9361C97.6668 45.6473 97.6356 45.3297 97.698 45.0233C97.7611 44.7171 97.9148 44.4357 98.1409 44.2149C98.3663 43.9939 98.6541 43.8434 98.9676 43.7821C99.2811 43.7209 99.6055 43.7518 99.9011 43.8709C100.197 43.9899 100.449 44.1917 100.627 44.451C100.806 44.7103 100.902 45.0153 100.902 45.3277C100.898 45.7474 100.725 46.1486 100.422 46.4454C100.119 46.7422 99.7077 46.9109 99.2788 46.9153Z" fill="white"/>
<path d="M109.155 57.5446C110.831 57.4536 111.896 56.8049 112.367 56.1846L112.455 56.2585C111.967 57.0392 111.283 57.685 110.468 58.1352C109.653 58.5852 108.735 58.8245 107.799 58.8306C107.091 58.8623 106.383 58.7506 105.722 58.5021C105.06 58.2538 104.458 57.8743 103.953 57.3874C103.449 56.9005 103.053 56.3169 102.791 55.6731C102.528 55.0293 102.404 54.3394 102.427 53.6467C102.427 50.8015 104.103 48.4629 107.566 48.4629C108.73 48.4629 111.82 48.8157 112.105 50.9836C112.105 51.0406 112.105 51.1088 112.105 51.1601C112.105 52.0933 111.151 52.6054 110.127 52.7135C110.195 52.3953 110.23 52.0712 110.231 51.7461C110.231 49.9821 109.068 48.6563 107.688 48.6563C105.908 48.6563 104.627 50.4545 104.627 52.5542V52.8557C104.79 55.7635 106.553 57.5446 108.916 57.5446H109.155Z" fill="white"/>
<path d="M122.662 56.2585C122.662 57.5617 123.075 57.8063 123.378 57.8063C123.453 57.8061 123.527 57.7946 123.599 57.7722C123.459 58.1064 123.215 58.3888 122.902 58.579C122.588 58.7692 122.221 58.8572 121.853 58.8306C120.451 58.8306 120.27 57.6299 120.27 56.5886V55.9229C119.42 57.5446 117.762 58.8306 115.958 58.8306C115.652 58.8464 115.346 58.8002 115.06 58.6947C114.774 58.5892 114.514 58.4267 114.294 58.2176C114.076 58.0085 113.904 57.7573 113.789 57.4798C113.675 57.2023 113.621 56.9047 113.63 56.6057C113.63 53.5044 119.286 52.9753 120.299 52.907V50.8471C120.299 49.453 119.397 48.6563 118.333 48.6563C118.069 48.6305 117.804 48.6572 117.552 48.7345C117.299 48.8119 117.066 48.9384 116.866 49.1065C116.664 49.2746 116.501 49.4807 116.384 49.7123C116.267 49.944 116.199 50.1965 116.185 50.4545C116.168 50.7853 116.243 51.1145 116.401 51.4071C116.56 51.6996 116.797 51.9446 117.087 52.116C116.819 52.1947 116.54 52.2294 116.26 52.2185C115.463 52.2185 114.386 51.9738 114.386 50.8471C114.386 48.9579 117.541 48.4629 118.46 48.4629H118.53C121.201 48.4629 122.656 49.7546 122.656 51.8144V52.6054V56.2017L122.662 56.2585ZM120.281 55.6895V53.0151C119.054 53.1687 115.97 53.9313 115.97 56.2017C115.97 56.7707 116.331 57.5218 117.593 57.5218C118.17 57.4765 118.723 57.2811 119.196 56.9559C119.668 56.6306 120.044 56.1875 120.281 55.6724V55.6895Z" fill="white"/>
<path d="M22.8984 70.5188V66.5356H24.7258C25.1072 66.5115 25.4865 66.6072 25.8082 66.8087C25.9308 66.894 26.0297 67.008 26.0958 67.1401C26.1618 67.2723 26.193 67.4186 26.1865 67.5655C26.1986 67.7653 26.1479 67.9639 26.041 68.1346C25.9421 68.2825 25.803 68.4007 25.6395 68.476C25.4712 68.5569 25.2858 68.5979 25.0982 68.5955L25.203 68.4248C25.4151 68.4203 25.6256 68.4611 25.8198 68.5443C25.9927 68.6175 26.1403 68.7381 26.2447 68.8914C26.3533 69.0618 26.408 69.2598 26.4019 69.4604C26.4093 69.6135 26.3775 69.7661 26.3094 69.9042C26.2413 70.0424 26.1391 70.1617 26.0119 70.2514C25.6637 70.4624 25.2568 70.5619 24.848 70.5359L22.8984 70.5188ZM23.4804 70.0579H24.8189C25.0755 70.0721 25.3313 70.0169 25.558 69.8986C25.6376 69.8397 25.7021 69.7635 25.7465 69.6762C25.7909 69.5888 25.8141 69.4926 25.8141 69.395C25.8141 69.2974 25.7909 69.2012 25.7465 69.1138C25.7021 69.0264 25.6376 68.9503 25.558 68.8914C25.3322 68.7705 25.0758 68.7152 24.8189 68.7321H23.4281V68.2712H24.6734C24.9132 68.2832 25.1515 68.228 25.3601 68.1118C25.4378 68.0578 25.5007 67.986 25.5433 67.9027C25.586 67.8193 25.6069 67.727 25.6045 67.6339C25.6108 67.5401 25.5915 67.4464 25.5486 67.3624C25.5056 67.2785 25.4406 67.2072 25.3601 67.1559C25.1525 67.0372 24.9134 66.9817 24.6734 66.9965H23.4804V70.0579Z" fill="white"/>
<path d="M31.1214 70.5644C30.8269 70.5669 30.5347 70.5147 30.2601 70.4108C30.0029 70.3118 29.7676 70.1649 29.5676 69.9783C29.3751 69.7947 29.221 69.5763 29.1136 69.3353C29.0056 69.079 28.9503 68.8045 28.9507 68.5273C28.949 68.25 29.0045 67.9751 29.1136 67.7192C29.2194 67.4756 29.3737 67.2551 29.5676 67.0705C29.7668 66.887 29.9998 66.7422 30.2543 66.6438C30.5307 66.539 30.825 66.4869 31.1214 66.4901C31.4156 66.485 31.708 66.5352 31.9827 66.6381C32.2372 66.7365 32.4702 66.8813 32.6694 67.0648C32.8669 67.2464 33.0218 67.4678 33.1234 67.7135C33.333 68.2366 33.333 68.8178 33.1234 69.3409C33.0203 69.5843 32.8655 69.8034 32.6694 69.984C32.4702 70.1675 32.2372 70.3123 31.9827 70.4108C31.7084 70.5156 31.4159 70.5677 31.1214 70.5644ZM31.1214 70.058C31.3364 70.0593 31.5497 70.0206 31.7499 69.9441C31.9366 69.8686 32.1066 69.7585 32.2504 69.6198C32.3908 69.4802 32.5034 69.3161 32.5821 69.1361C32.653 68.9449 32.6847 68.7419 32.6752 68.5386C32.68 68.33 32.6403 68.1226 32.5589 67.9298C32.4816 67.7473 32.369 67.5811 32.2271 67.4404C32.0846 67.3016 31.9142 67.1932 31.7267 67.1218C31.3222 66.9692 30.8741 66.9692 30.4696 67.1218C30.2811 67.1944 30.109 67.3027 29.9633 67.4404C29.8215 67.5811 29.7088 67.7473 29.6316 67.9298C29.5481 68.1223 29.5065 68.3296 29.5093 68.5386C29.5077 68.7476 29.5493 68.9547 29.6316 69.1475C29.7103 69.3275 29.8229 69.4916 29.9633 69.6312C30.1103 69.7688 30.282 69.8787 30.4696 69.9555C30.6779 70.031 30.8994 70.0658 31.1214 70.058Z" fill="white"/>
<path d="M37.9711 70.5643C37.6785 70.5672 37.3881 70.5151 37.1157 70.4106C36.8635 70.3147 36.6333 70.1708 36.4385 69.9871C36.2436 69.8035 36.0881 69.5838 35.9808 69.3409C35.8722 69.0828 35.8168 68.8063 35.8179 68.5271C35.8162 68.248 35.8716 67.9714 35.9808 67.7135C36.0866 67.4699 36.2409 67.2494 36.4348 67.0648C36.634 66.8812 36.867 66.7364 37.1215 66.638C37.3943 66.5356 37.6848 66.4853 37.977 66.4901C38.2752 66.4872 38.5714 66.5393 38.8499 66.6437C39.1099 66.7441 39.3414 66.9041 39.525 67.1103L39.1467 67.4688C39.001 67.3134 38.8222 67.191 38.623 67.1103C38.4253 67.0317 38.2135 66.993 38.0002 66.9964C37.7832 66.993 37.5676 67.0317 37.3659 67.1103C37.175 67.1816 37.0007 67.29 36.8538 67.4289C36.7121 67.5676 36.5994 67.7319 36.5221 67.9127C36.3593 68.3049 36.3593 68.7437 36.5221 69.136C36.5993 69.3185 36.712 69.4847 36.8538 69.6254C37.0022 69.7625 37.1761 69.8706 37.3659 69.9441C37.5683 70.0202 37.7834 70.0588 38.0002 70.0578C38.2139 70.0595 38.4257 70.0189 38.623 69.9384C38.8222 69.8577 39.001 69.7353 39.1467 69.5799L39.525 69.9384C39.3399 70.1429 39.1088 70.3026 38.8499 70.405C38.5699 70.5117 38.2717 70.5658 37.9711 70.5643Z" fill="white"/>
<path d="M41.626 70.5188L43.465 66.5356H44.0469L45.8976 70.5188H45.2866L43.6338 66.8315H43.8666L42.2196 70.4961L41.626 70.5188ZM42.4058 69.5231L42.5629 69.0678H44.8559L45.0246 69.5231H42.4058Z" fill="white"/>
<path d="M49.6627 70.5644C49.36 70.5635 49.0595 70.5155 48.7722 70.4222C48.5259 70.35 48.2978 70.2279 48.103 70.0637L48.3184 69.6198C48.4925 69.7603 48.6891 69.8718 48.9003 69.9499C49.141 70.0356 49.3949 70.0799 49.651 70.0808C49.8482 70.0866 50.045 70.0596 50.2329 70.0011C50.361 69.9589 50.4741 69.882 50.5588 69.7791C50.6277 69.6887 50.6644 69.5789 50.6636 69.4662C50.6676 69.405 50.6577 69.3436 50.6346 69.2865C50.6115 69.2295 50.5756 69.1781 50.5298 69.1362C50.4271 69.0447 50.3063 68.9749 50.1748 68.9313C50.0173 68.8761 49.8559 68.8324 49.6918 68.8004L49.168 68.6639C49.0003 68.6168 48.8383 68.5519 48.685 68.4704C48.5416 68.3919 48.4198 68.2806 48.33 68.1461C48.236 67.9894 48.1895 67.8098 48.1961 67.6282C48.1955 67.4267 48.2541 67.2292 48.3649 67.0592C48.4906 66.8749 48.6686 66.7306 48.8771 66.6438C49.1556 66.5328 49.455 66.4805 49.7557 66.4902C49.9936 66.4892 50.2305 66.5198 50.46 66.5812C50.668 66.6348 50.8649 66.7234 51.0419 66.8429L50.8498 67.2982C50.6811 67.1852 50.4943 67.1005 50.297 67.0478C50.1075 66.9969 49.9116 66.972 49.715 66.9739C49.5173 66.9664 49.3199 66.9953 49.1331 67.0592C49.0059 67.1027 48.8945 67.1819 48.813 67.2868C48.743 67.3788 48.7061 67.4909 48.7082 67.6055C48.706 67.6679 48.7174 67.7301 48.7414 67.7879C48.7655 67.8458 48.8018 67.898 48.8479 67.9412C48.9524 68.0289 49.0728 68.0964 49.203 68.1403C49.3484 68.1859 49.5056 68.2314 49.6801 68.2713C49.8547 68.311 50.0351 68.3566 50.2097 68.4078C50.3783 68.4524 50.5406 68.5174 50.6928 68.6013C50.8352 68.6764 50.9554 68.7862 51.0419 68.92C51.1394 69.0731 51.1861 69.252 51.1757 69.4321C51.1806 69.6342 51.1217 69.8329 51.007 70.0011C50.8797 70.1862 50.6996 70.3306 50.4891 70.4165C50.2261 70.5179 49.9453 70.5682 49.6627 70.5644Z" fill="white"/>
<path d="M57.6123 70.5188V66.5355H59.3291C59.7323 66.5236 60.1322 66.6096 60.493 66.7859C60.814 66.9423 61.0826 67.1851 61.267 67.4858C61.4564 67.8009 61.5512 68.1618 61.5405 68.5272C61.55 68.8923 61.4552 69.2529 61.267 69.5684C61.0795 69.8666 60.8117 70.1088 60.493 70.2684C60.1312 70.442 59.732 70.5279 59.3291 70.5188H57.6123ZM58.1942 70.0237H59.2942C59.5983 70.0315 59.8999 69.9671 60.1729 69.8359C60.4156 69.7189 60.6179 69.5349 60.7549 69.3067C60.8883 69.0665 60.9583 68.7976 60.9583 68.5243C60.9583 68.251 60.8883 67.982 60.7549 67.7419C60.6179 67.5152 60.4154 67.333 60.1729 67.2184C59.8999 67.0872 59.5983 67.0227 59.2942 67.0306H58.1942V70.0237Z" fill="white"/>
<path d="M64.9799 70.0237H67.3543V70.5188H64.3979V66.5356H67.2728V67.0307H64.9799V70.0237ZM64.9275 68.2541H67.0109V68.7378H64.9159L64.9275 68.2541Z" fill="white"/>
<path d="M70.2759 70.5188V66.5356H70.8578V70.0237H73.0635V70.5188H70.2759Z" fill="white"/>
<path d="M80.0643 70.5188V67.0307H78.6504V66.5356H82.0202V67.0307H80.6235V70.5188H80.0643Z" fill="white"/>
<path d="M86.4312 70.5644C86.1372 70.5669 85.8447 70.5147 85.5702 70.4108C85.3128 70.3118 85.0773 70.1649 84.8777 69.9783C84.685 69.7947 84.5306 69.5763 84.4238 69.3353C84.3154 69.079 84.26 68.8045 84.2608 68.5273C84.2592 68.25 84.3146 67.9751 84.4238 67.7192C84.5291 67.4756 84.6835 67.2551 84.8777 67.0705C85.0765 66.887 85.3097 66.7422 85.5639 66.6438C85.8408 66.539 86.1348 66.4869 86.4312 66.4901C86.7252 66.485 87.0176 66.5352 87.2921 66.6381C87.5472 66.7365 87.7803 66.8813 87.9792 67.0648C88.1765 67.2464 88.3317 67.4678 88.4331 67.7135C88.6429 68.2366 88.6429 68.8178 88.4331 69.3409C88.3302 69.5843 88.1757 69.8034 87.9792 69.984C87.7803 70.1675 87.5472 70.3123 87.2921 70.4108C87.0184 70.5156 86.726 70.5677 86.4312 70.5644ZM86.4312 70.058C86.6464 70.0593 86.8593 70.0206 87.0597 69.9441C87.2461 69.8686 87.4161 69.7585 87.5604 69.6198C87.7008 69.4802 87.8131 69.3161 87.8919 69.1361C87.9722 68.9429 88.012 68.7358 88.0081 68.5273C88.0127 68.3186 87.9738 68.1113 87.8919 67.9184C87.8147 67.7359 87.7024 67.5697 87.5604 67.429C87.4177 67.2902 87.2469 67.1818 87.0597 67.1103C86.655 66.9578 86.2073 66.9578 85.8026 67.1103C85.6139 67.183 85.4423 67.2913 85.2964 67.429C85.1545 67.5697 85.0422 67.7359 84.965 67.9184C84.8816 68.1109 84.8394 68.3182 84.8426 68.5273C84.841 68.7362 84.8823 68.9433 84.965 69.1361C85.0438 69.3161 85.1561 69.4802 85.2964 69.6198C85.4431 69.7573 85.6146 69.8673 85.8026 69.9441C86.003 70.0206 86.2159 70.0593 86.4312 70.058Z" fill="white"/>
<path d="M91.4536 70.5189V66.5357H93.0422C93.3549 66.525 93.6669 66.5814 93.9555 66.7007C94.1964 66.7965 94.4 66.9637 94.538 67.1787C94.6714 67.4044 94.7416 67.6606 94.7416 67.9213C94.7416 68.182 94.6714 68.438 94.538 68.6639C94.3961 68.876 94.1941 69.0422 93.9555 69.1419C93.6661 69.2585 93.3549 69.3147 93.0422 69.3068H91.7734L92.0354 69.0451V70.5189H91.4536ZM92.0354 69.102L91.7734 68.8232H93.0243C93.3277 68.8442 93.6287 68.7595 93.8743 68.5842C93.964 68.4983 94.0358 68.3957 94.0849 68.2823C94.134 68.1689 94.159 68.0472 94.159 67.9241C94.159 67.8011 94.134 67.6793 94.0849 67.5659C94.0358 67.4525 93.964 67.3499 93.8743 67.264C93.6279 67.0907 93.3269 67.008 93.0243 67.0307H91.7734L92.0354 66.7462V69.102ZM94.1769 70.5189L93.1413 69.0735H93.7808L94.8289 70.5189H94.1769Z" fill="white"/>
<path d="M99.5073 70.5644C99.2133 70.5669 98.9209 70.5147 98.6464 70.4108C98.389 70.3118 98.1543 70.1649 97.9538 69.9783C97.7612 69.7947 97.6076 69.5763 97.4999 69.3353C97.3915 69.079 97.3362 68.8045 97.3369 68.5273C97.3354 68.25 97.3908 67.9751 97.4999 67.7192C97.606 67.4756 97.7596 67.2551 97.9538 67.0705C98.1527 66.887 98.3859 66.7422 98.6409 66.6438C98.917 66.539 99.211 66.4869 99.5073 66.4901C99.8021 66.485 100.095 66.5352 100.369 66.6381C100.623 66.7365 100.857 66.8813 101.055 67.0648C101.251 67.248 101.406 67.4689 101.509 67.7135C101.719 68.2366 101.719 68.8178 101.509 69.3409C101.405 69.5832 101.25 69.802 101.055 69.984C100.857 70.1675 100.623 70.3123 100.369 70.4108C100.095 70.5156 99.8021 70.5677 99.5073 70.5644ZM99.5073 70.058C99.7226 70.0593 99.9363 70.0206 100.136 69.9441C100.323 69.8686 100.493 69.7585 100.637 69.6198C100.777 69.4802 100.889 69.3161 100.968 69.1361C101.048 68.9429 101.088 68.7358 101.085 68.5273C101.09 68.3186 101.05 68.1113 100.968 67.9184C100.891 67.7359 100.779 67.5697 100.637 67.429C100.494 67.2902 100.324 67.1818 100.136 67.1103C99.7319 66.9578 99.2835 66.9578 98.8795 67.1103C98.6908 67.183 98.5185 67.2913 98.3726 67.429C98.2307 67.5697 98.1184 67.7359 98.0412 67.9184C97.9577 68.1109 97.9164 68.3182 97.9187 68.5273C97.9172 68.7362 97.9585 68.9433 98.0412 69.1361C98.1199 69.3161 98.2322 69.4802 98.3726 69.6198C98.52 69.7573 98.6916 69.8673 98.8795 69.9441C99.0792 70.0206 99.2929 70.0593 99.5073 70.058Z" fill="white"/>
</g>
<defs>
<clipPath id="clip0_958_112">
<rect width="124" height="71" fill="white"/>
</clipPath>
</defs>
</svg>
