<svg width="107" height="26" viewBox="0 0 107 26" fill="none" xmlns="http://www.w3.org/2000/svg">
<path d="M4.17352 25.2144H0V1.11206H14.8547V4.67817H4.17352V11.7801H13.1168V15.325H4.17352V25.2144Z" fill="white"/>
<path d="M31.7487 25.2145H28.4337L28.1356 23.0421C26.97 24.7873 25.0383 25.5569 22.9038 25.5569C18.7064 25.5569 16.8433 22.5634 16.8433 18.5398V8.26562H20.8975V18.3216C20.8975 20.4213 21.8783 22.0211 24.1022 22.0211C26.5318 22.0211 27.6944 20.088 27.6944 17.7278V8.26562H31.7487V25.2145Z" fill="white"/>
<path d="M35.9961 0.727159L40.0265 0V19.9423C40.0265 21.2724 40.268 21.939 41.2488 22.448L40.7151 25.5566C38.2826 25.5566 35.9961 24.2265 35.9961 21.4391V0.727159Z" fill="white"/>
<path d="M43.0347 8.26551H45.8697V3.05724L49.9031 2.33008V8.26551H53.8351V11.5983H49.9031V18.3821C49.9031 21.3786 51.2326 21.9088 53.4208 22.3663L52.9438 25.5568C49.4649 25.5568 45.8697 24.0085 45.8697 19.5486V11.6044H43.0347V8.26551Z" fill="white"/>
<path d="M86.9674 25.2141V15.149C86.9674 13.0705 85.9091 11.4375 83.7061 11.4375C81.3213 11.4375 80.0245 13.4129 80.0245 15.7307V25.2141H75.9702V8.26522H79.2733L79.5952 10.48C80.7638 8.78635 82.7253 7.92285 84.9612 7.92285C89.0929 7.92285 91.0217 10.9284 91.0217 14.9096V25.2111L86.9674 25.2141Z" fill="white"/>
<path d="M100.165 22.3449C101.614 22.3449 102.967 21.7935 102.967 20.4816C102.967 17.1882 94.4857 19.2697 94.4857 13.11C94.4857 9.54392 97.3088 7.92296 100.666 7.92296C102.759 7.89915 104.799 8.587 106.464 9.8772L104.973 12.3011C103.778 11.5353 102.405 11.1017 100.993 11.0437C99.643 11.0437 98.4536 11.6254 98.4536 12.8434C98.4536 16.1065 107 14.2038 107 20.318C107 23.875 104.133 25.5475 100.442 25.5475C97.6636 25.5475 95.8868 24.581 93.9253 23.0539L95.6931 20.7119C97.0465 21.636 98.4834 22.3449 100.165 22.3449Z" fill="white"/>
<path d="M66.776 8.18042L64.3584 10.5649L64.1527 10.7709L63.944 10.5649L61.5383 8.18042C59.591 8.81506 57.9309 10.136 56.8574 11.9049C55.7839 13.6739 55.3676 15.7745 55.6836 17.828C55.9996 19.8814 57.0271 21.7525 58.5808 23.1038C60.1346 24.4551 62.1122 25.1977 64.1572 25.1977C66.2021 25.1977 68.1798 24.4551 69.7335 23.1038C71.2872 21.7525 72.3147 19.8814 72.6307 17.828C72.9467 15.7745 72.5304 13.6739 71.4569 11.9049C70.3834 10.136 68.7233 8.81506 66.776 8.18042ZM64.1736 21.7934C63.1418 21.7934 62.1331 21.4825 61.2752 20.8999C60.4173 20.3173 59.7486 19.4892 59.3538 18.5203C58.9589 17.5515 58.8556 16.4854 59.0569 15.4568C59.2582 14.4283 59.7551 13.4835 60.4847 12.742C61.2143 12.0005 62.1438 11.4955 63.1558 11.2909C64.1678 11.0863 65.2167 11.1913 66.17 11.5926C67.1232 11.994 67.938 12.6736 68.5112 13.5455C69.0845 14.4174 69.3905 15.4426 69.3905 16.4912C69.3908 17.1877 69.2562 17.8773 68.9941 18.5208C68.7321 19.1643 68.3478 19.7489 67.8633 20.2414C67.3788 20.7338 66.8036 21.1243 66.1704 21.3907C65.5373 21.657 64.8588 21.7938 64.1736 21.7934Z" fill="white"/>
<path d="M64.1536 10.347L61.2351 7.46867L60.1738 6.42035L62.2576 4.59033H64.1536H66.0317L68.1721 6.38096L68.023 6.52942L67.0691 7.46867L64.1536 10.347Z" fill="white"/>
</svg>
