<svg width="125" height="60" viewBox="0 0 125 60" fill="none" xmlns="http://www.w3.org/2000/svg">
<path d="M122.21 38.1564V37.2015H121.793V37.0354H122.834V37.2015H122.418V38.1564H122.21ZM123.001 38.1564V37.0354H123.292L123.542 37.8242L123.833 37.0354H124.083V38.1564H123.875V37.326L123.625 38.0733H123.458L123.209 37.2845V38.1149L123.001 38.1564Z" fill="white"/>
<path d="M0.541371 57.0886H0.25V59.206H0.541371V57.0886Z" fill="white" stroke="white" stroke-width="0.5" stroke-miterlimit="10"/>
<path d="M4.95392 58.7908L3.58031 57.0886H3.33057V59.206H3.58031V57.5453L4.95392 59.206H5.20367V57.0886H4.95392V58.7908Z" fill="white" stroke="white" stroke-width="0.5" stroke-miterlimit="10"/>
<path d="M8.8663 57.0886H7.99219V59.206H8.82468C9.15767 59.206 9.44904 59.123 9.65717 58.9154C9.86529 58.7078 9.99016 58.4587 9.99016 58.1266C9.99016 57.7944 9.90691 57.5453 9.69879 57.3792C9.44904 57.1717 9.1993 57.0886 8.8663 57.0886ZM9.44904 58.7493C9.32417 58.9154 9.11605 58.9569 8.8663 58.9569H8.28356V57.3377H8.82468C9.07442 57.3377 9.28255 57.4208 9.44904 57.5453C9.61554 57.6699 9.69879 57.8775 9.69879 58.1266C9.65717 58.3757 9.61554 58.5832 9.44904 58.7493Z" fill="white" stroke="white" stroke-width="0.5" stroke-miterlimit="10"/>
<path d="M12.9452 57.0886H12.6538V59.206H12.9452V57.0886Z" fill="white" stroke="white" stroke-width="0.5" stroke-miterlimit="10"/>
<path d="M16.7336 58.3336C16.692 58.3752 16.692 58.4582 16.6503 58.4997L16.6087 58.6658C16.6087 58.7073 16.5671 58.7488 16.5671 58.7903C16.5255 58.7073 16.4839 58.6243 16.4422 58.4997C16.4006 58.4582 16.4006 58.3752 16.359 58.3336L15.8179 57.1296H15.4849L16.4839 59.2885H16.6087L17.6077 57.1296H17.3163L16.7336 58.3336Z" fill="white" stroke="white" stroke-width="0.5" stroke-miterlimit="10"/>
<path d="M20.4798 57.0886H20.1885V59.206H20.4798V57.0886Z" fill="white" stroke="white" stroke-width="0.5" stroke-miterlimit="10"/>
<path d="M24.1417 57.0886H23.2676V59.206H24.1001C24.4331 59.206 24.7244 59.123 24.9326 58.9154C25.1407 58.7078 25.2655 58.4587 25.2655 58.1266C25.2655 57.7944 25.1823 57.5453 24.9742 57.3792C24.7244 57.1717 24.4747 57.0886 24.1417 57.0886ZM24.7244 58.7493C24.5996 58.9154 24.3914 58.9569 24.1417 58.9569H23.5589V57.3377H24.1001C24.3498 57.3377 24.5579 57.4208 24.7244 57.5453C24.8909 57.6699 24.9742 57.8775 24.9742 58.1266C24.9326 58.3757 24.8909 58.5832 24.7244 58.7493Z" fill="white" stroke="white" stroke-width="0.5" stroke-miterlimit="10"/>
<path d="M29.5537 58.2511C29.5537 58.5002 29.512 58.6663 29.3872 58.7908C29.3455 58.8739 29.2623 58.9154 29.179 58.9569C29.0958 58.9984 29.0125 58.9984 28.8877 58.9984C28.7628 58.9984 28.6795 58.9984 28.5547 58.9569C28.3049 58.8323 28.18 58.5832 28.18 58.2096V57.0886H27.8887V58.2511C27.8887 58.5832 27.9719 58.8324 28.1384 58.9984C28.2217 59.0815 28.3049 59.1645 28.4298 59.206C28.5547 59.2475 28.6795 59.289 28.846 59.289C29.0125 59.289 29.1374 59.2475 29.2623 59.206C29.6369 59.0399 29.8034 58.7493 29.8034 58.2096V57.0886H29.512L29.5537 58.2511Z" fill="white" stroke="white" stroke-width="0.5" stroke-miterlimit="10"/>
<path d="M33.3418 57.0886L32.3428 59.206H32.6341L32.8423 58.7493H33.9245L34.1326 59.206H34.424L33.5083 57.0886H33.3418ZM33.5915 58.0435L33.7996 58.5002H32.9671L33.1753 58.002C33.2169 57.9605 33.2169 57.8775 33.2585 57.8359L33.3418 57.6283C33.3834 57.5453 33.3834 57.5038 33.3834 57.4623C33.3834 57.5038 33.425 57.5868 33.4666 57.6699L33.5083 57.8359C33.5499 57.9605 33.5915 58.002 33.5915 58.0435Z" fill="white" stroke="white" stroke-width="0.5" stroke-miterlimit="10"/>
<path d="M37.2543 57.0886H36.9629V59.206H38.4198V58.9569H37.2543V57.0886Z" fill="white" stroke="white" stroke-width="0.5" stroke-miterlimit="10"/>
<path d="M41.3329 57.0886H41.0415V59.206H42.4984V58.9569H41.3329V57.0886Z" fill="white" stroke="white" stroke-width="0.5" stroke-miterlimit="10"/>
<path d="M45.8294 58.085L45.2051 57.0886H44.8721L45.6629 58.3341V59.206H45.9543V58.2926L46.7036 57.0886H46.4538L45.8294 58.085Z" fill="white" stroke="white" stroke-width="0.5" stroke-miterlimit="10"/>
<path d="M54.0285 58.2511H52.6965V57.0886H52.4468V59.206H52.6965V58.5002H54.0285V59.206H54.3199V57.0886H54.0285V58.2511Z" fill="white" stroke="white" stroke-width="0.5" stroke-miterlimit="10"/>
<path d="M57.8584 57.0886L56.8594 59.206H57.1508L57.3589 58.7493H58.4411L58.6492 59.206H58.9406L58.0249 57.0886H57.8584ZM58.1497 58.0435L58.3579 58.5002H57.5254L57.7335 58.002C57.7751 57.9605 57.7751 57.8775 57.8167 57.8359L57.9 57.6283C57.9416 57.5453 57.9416 57.5038 57.9416 57.4623C57.9416 57.5038 57.9832 57.5868 58.0249 57.6699L58.0665 57.8359C58.0665 57.9605 58.1081 58.002 58.1497 58.0435Z" fill="white" stroke="white" stroke-width="0.5" stroke-miterlimit="10"/>
<path d="M63.1027 58.7908L61.7291 57.0886H61.521V59.206H61.7707V57.5453L63.1443 59.206H63.3525V57.0886H63.1027V58.7908Z" fill="white" stroke="white" stroke-width="0.5" stroke-miterlimit="10"/>
<path d="M67.0572 57.0886H66.1831V59.206H67.0156C67.3486 59.206 67.64 59.123 67.8481 58.9154C68.0562 58.7078 68.1811 58.4587 68.1811 58.1266C68.1811 57.7944 68.0978 57.5453 67.8897 57.3792C67.64 57.1717 67.3902 57.0886 67.0572 57.0886ZM67.64 58.7493C67.5151 58.9154 67.307 58.9569 67.0572 58.9569H66.4745V57.3377H67.0156C67.2653 57.3377 67.4735 57.4208 67.64 57.5453C67.8065 57.6699 67.8897 57.8775 67.8897 58.1266C67.8481 58.3757 67.7648 58.5832 67.64 58.7493Z" fill="white" stroke="white" stroke-width="0.5" stroke-miterlimit="10"/>
<path d="M75.5899 58.8729C75.4234 58.9559 75.2153 58.9975 75.0488 58.9975C74.799 58.9975 74.5909 58.9144 74.4244 58.7483C74.2579 58.5823 74.1747 58.3747 74.1747 58.1256C74.1747 57.8765 74.2579 57.7104 74.4244 57.5443C74.5909 57.3783 74.799 57.2952 75.0488 57.2952C75.2985 57.2952 75.5066 57.3783 75.6731 57.5028L75.798 57.2952C75.5899 57.1292 75.3402 57.0461 75.0488 57.0461C74.8407 57.0461 74.6325 57.0877 74.466 57.1707C74.3828 57.2122 74.2995 57.2537 74.2163 57.3368C74.133 57.4198 74.0914 57.4613 74.0498 57.5443C74.0082 57.6274 73.9665 57.7104 73.9249 57.835C73.8833 57.918 73.8833 58.0426 73.8833 58.1671C73.8833 58.2917 73.9249 58.4162 73.9665 58.5823C74.0082 58.7068 74.0914 58.8314 74.2163 58.9144C74.3412 58.9975 74.4244 59.0805 74.5909 59.122C74.7158 59.1635 74.8823 59.205 75.0488 59.205C75.132 59.205 75.2153 59.205 75.2985 59.205C75.5483 59.1635 75.7148 59.0805 75.8813 58.9559L75.7564 58.7483C75.7148 58.8314 75.6315 58.8314 75.5899 58.8729Z" fill="white" stroke="white" stroke-width="0.5" stroke-miterlimit="10"/>
<path d="M80.336 57.7529C80.336 57.5038 80.2527 57.3377 80.0446 57.2132C79.8781 57.1301 79.67 57.0886 79.337 57.0886H78.4629V59.206H78.7543V58.5002H79.2954C79.4203 58.5002 79.5035 58.5002 79.5867 58.4587L79.9614 59.206H80.2944L79.8781 58.3757C80.1695 58.2926 80.336 58.085 80.336 57.7529ZM79.8365 58.1681C79.7116 58.2096 79.5451 58.2511 79.337 58.2511H78.7543V57.3377H79.2954C79.3786 57.3377 79.4619 57.3377 79.5867 57.3377C79.8781 57.3792 80.0446 57.5038 80.0446 57.7529C80.0446 57.9605 79.9614 58.085 79.8365 58.1681Z" fill="white" stroke="white" stroke-width="0.5" stroke-miterlimit="10"/>
<path d="M83.79 57.0886L82.791 59.206H83.0824L83.2905 58.7493H84.3728L84.5809 59.206H84.8722L83.9565 57.0886H83.79ZM84.0814 58.0435L84.2895 58.5002H83.457L83.6651 58.002C83.7068 57.9605 83.7068 57.8775 83.7484 57.8359L83.8316 57.6283C83.8733 57.5453 83.8733 57.5038 83.8733 57.4623C83.8733 57.5038 83.9149 57.5868 83.9565 57.6699L83.9981 57.8359C84.0398 57.9605 84.0398 58.002 84.0814 58.0435Z" fill="white" stroke="white" stroke-width="0.5" stroke-miterlimit="10"/>
<path d="M87.4536 59.206H87.7034V58.5002H88.7856V58.2511H87.7034V57.3377H88.8688V57.0886H87.4536V59.206Z" fill="white" stroke="white" stroke-width="0.5" stroke-miterlimit="10"/>
<path d="M91.4072 57.3377H92.1981V59.206H92.4895V57.3377H93.2803V57.0886H91.4072V57.3377Z" fill="white" stroke="white" stroke-width="0.5" stroke-miterlimit="10"/>
<path d="M96.1947 58.1681H97.3602V57.919H96.1947V57.3377H97.485V57.0886H95.9033V59.206H97.5267V58.9569H96.1947V58.1681Z" fill="white" stroke="white" stroke-width="0.5" stroke-miterlimit="10"/>
<path d="M101.106 57.0886H100.232V59.206H101.064C101.397 59.206 101.689 59.123 101.897 58.9154C102.105 58.7078 102.23 58.4587 102.23 58.1266C102.23 57.7944 102.147 57.5453 101.939 57.3792C101.689 57.1717 101.397 57.0886 101.106 57.0886ZM101.689 58.7493C101.564 58.9154 101.356 58.9569 101.106 58.9569H100.523V57.3377H101.064C101.314 57.3377 101.522 57.4208 101.689 57.5453C101.855 57.6699 101.939 57.8775 101.939 58.1266C101.897 58.3757 101.814 58.5832 101.689 58.7493Z" fill="white" stroke="white" stroke-width="0.5" stroke-miterlimit="10"/>
<path d="M109.348 58.0015C109.431 57.96 109.472 57.9185 109.556 57.877C109.597 57.7939 109.639 57.7109 109.639 57.6278C109.639 57.4203 109.556 57.2957 109.389 57.2127C109.264 57.1712 109.056 57.1296 108.807 57.1296H108.016V59.247H108.848C109.015 59.247 109.181 59.247 109.348 59.2055C109.681 59.1225 109.847 58.9149 109.847 58.5827C109.847 58.4582 109.805 58.3336 109.722 58.2091C109.597 58.0845 109.472 58.043 109.348 58.0015ZM108.265 57.3372H108.723C108.89 57.3372 109.015 57.3372 109.098 57.3787C109.139 57.3787 109.223 57.4203 109.223 57.4618C109.264 57.5033 109.264 57.5448 109.264 57.6278C109.264 57.7109 109.264 57.7524 109.223 57.7939C109.14 57.8769 108.973 57.96 108.765 57.96H108.224V57.3372H108.265ZM109.472 58.7903C109.389 58.9149 109.181 58.9979 108.89 58.9979H108.307V58.2091H108.89C109.348 58.2091 109.556 58.3336 109.556 58.6243C109.514 58.6658 109.514 58.7073 109.472 58.7903Z" fill="white" stroke="white" stroke-width="0.5" stroke-miterlimit="10"/>
<path d="M112.802 58.1681H113.968V57.919H112.802V57.3377H114.134V57.0886H112.553V59.206H114.176V58.9569H112.802V58.1681Z" fill="white" stroke="white" stroke-width="0.5" stroke-miterlimit="10"/>
<path d="M117.714 57.0886H116.84V59.206H117.673C118.006 59.206 118.297 59.123 118.505 58.9154C118.713 58.7078 118.838 58.4587 118.838 58.1266C118.838 57.7944 118.755 57.5453 118.547 57.3792C118.297 57.1717 118.047 57.0886 117.714 57.0886ZM118.297 58.7493C118.172 58.9154 117.964 58.9569 117.714 58.9569H117.132V57.3377H117.673C117.923 57.3377 118.131 57.4208 118.297 57.5453C118.464 57.6699 118.547 57.8775 118.547 58.1266C118.505 58.3757 118.464 58.5832 118.297 58.7493Z" fill="white" stroke="white" stroke-width="0.5" stroke-miterlimit="10"/>
<path d="M123.168 58.3341C123.126 58.2511 123.043 58.2096 122.96 58.1681C122.876 58.1266 122.71 58.085 122.502 58.0435L122.252 58.002C122.169 58.002 122.085 57.9605 122.002 57.9605C121.836 57.919 121.794 57.8359 121.794 57.7114C121.794 57.5868 121.836 57.5038 121.961 57.4623C122.044 57.4208 122.169 57.3792 122.335 57.3792C122.377 57.3792 122.46 57.3792 122.502 57.3792C122.71 57.4208 122.876 57.4623 123.001 57.5453L123.084 57.2962C123.001 57.2547 122.96 57.2132 122.876 57.2132C122.71 57.1301 122.502 57.0886 122.294 57.0886C122.085 57.0886 121.877 57.1301 121.711 57.2547C121.544 57.3792 121.419 57.5453 121.419 57.7114C121.419 57.8359 121.461 57.9605 121.586 58.0435C121.711 58.1266 121.877 58.2096 122.169 58.2511L122.377 58.2926C122.46 58.2926 122.502 58.3341 122.585 58.3341C122.793 58.3757 122.918 58.5002 122.918 58.6248C122.918 58.7493 122.876 58.8739 122.751 58.9154C122.71 58.9569 122.627 58.9569 122.543 58.9984C122.46 58.9984 122.418 58.9984 122.335 58.9984C122.252 58.9984 122.21 58.9984 122.127 58.9984C121.919 58.9569 121.752 58.8739 121.544 58.7493L121.419 58.9984C121.461 59.0399 121.544 59.0815 121.628 59.123C121.836 59.2475 122.085 59.289 122.294 59.289C122.543 59.289 122.751 59.2475 122.918 59.123C123.001 59.0815 123.084 58.9984 123.126 58.9154C123.168 58.8324 123.209 58.7493 123.209 58.6248C123.209 58.4587 123.209 58.3757 123.168 58.3341Z" fill="white" stroke="white" stroke-width="0.5" stroke-miterlimit="10"/>
<path d="M33.0496 37.7002C33.7988 37.7002 34.2983 37.8247 34.5897 38.1153C34.8811 38.4059 35.0059 38.6966 35.0059 39.0702C35.0059 39.4439 34.7562 40.0666 34.2151 40.98L30.9267 46.4188L26.9724 39.9006C26.5562 39.2363 26.348 38.7796 26.348 38.5305C26.348 37.9493 26.9724 37.6586 28.2211 37.6586V37.0774H23.9338H21.5196H18.8973V37.7002C20.2292 37.7417 20.8952 38.1984 20.8952 39.1533C20.8952 39.6099 20.5622 40.6064 19.9379 42.1425L16.1084 51.2763L11.3216 40.3157C10.947 39.4439 10.7389 38.9042 10.7389 38.6551C10.7389 38.2814 10.9054 38.0323 11.1967 37.9077C11.4881 37.7832 12.1125 37.7002 12.9866 37.7002V37.1189H7.65866H5.86881H0.0830078V37.7002H0.457628C1.29012 37.7002 1.83123 37.7832 2.08098 37.9077C2.33073 38.0738 2.49723 38.3229 2.58048 38.6966C2.66372 39.0702 2.70535 39.9421 2.70535 41.2291V49.325C2.70535 50.6951 2.66372 51.5669 2.58048 51.9821C2.49723 52.3558 2.33073 52.6464 2.08098 52.8125C1.78961 52.9785 1.33174 53.0616 0.624126 53.0616H0.0830078V53.6428H7.65866V53.0616H7.15916C6.40992 53.0616 5.91043 52.9785 5.61906 52.7709C5.36931 52.5634 5.20282 52.2727 5.11957 51.8576C5.07794 51.4424 5.03632 50.612 5.03632 49.325V41.2706C5.03632 39.9006 5.07794 39.0287 5.16119 38.6551C5.24444 38.2814 5.41094 38.0323 5.66068 37.9077C5.78556 37.8247 6.0353 37.7832 6.3683 37.7417C6.86779 37.7832 7.24241 37.9493 7.49216 38.1153C7.82516 38.3644 8.15815 38.9042 8.49115 39.693C8.69927 40.2742 8.86577 40.6894 8.99064 40.897L14.6932 54.0165H15.4424L20.479 42.3916L21.6029 39.776C21.8942 39.1117 22.2272 38.572 22.6018 38.2399C22.6851 38.1568 22.81 38.0738 22.8932 38.0323C22.9348 38.0738 22.9765 38.0738 23.0181 38.1153C23.3095 38.3644 23.8506 39.1948 24.6831 40.5648L28.8039 47.3322V49.3665C28.8039 50.7366 28.7623 51.6085 28.679 52.0236C28.5958 52.3973 28.4293 52.6879 28.1795 52.854C27.8881 53.02 27.4303 53.1031 26.7227 53.1031H26.4729V53.6843H33.5491V53.1031C32.7166 53.1031 32.1755 53.02 31.8841 52.854C31.5927 52.6879 31.4262 52.4388 31.343 52.0236C31.2597 51.65 31.2181 50.7366 31.2181 49.325V47.1246L34.9227 40.9385C35.6303 39.7345 36.213 38.9457 36.6709 38.489C37.1288 38.0323 37.7531 37.7417 38.5024 37.6586V37.0774H33.0912L33.0496 37.7002Z" fill="white"/>
<path d="M54.9021 52.9364C54.361 52.9364 53.8198 52.7703 53.3203 52.4382C52.8209 52.106 52.1549 51.3172 51.2807 50.0717C51.6554 49.5735 52.03 48.8262 52.4879 47.7882C53.029 46.5012 53.5285 45.6709 53.9863 45.2142C54.4858 44.7575 55.0686 44.4253 55.7346 44.2593V43.678H50.4899V44.2593C51.7802 44.4253 52.4046 44.9651 52.4046 45.8785C52.4046 46.2936 52.2797 46.8333 51.9884 47.4976C51.7386 48.2034 51.364 48.8677 50.9061 49.4905C50.2818 48.5771 49.6158 47.6222 48.9082 46.7088C48.2422 45.7539 47.5345 44.799 46.7853 43.8026C49.1163 42.6401 50.3234 41.3946 50.3234 40.1491C50.3234 39.3602 49.9488 38.696 49.2411 38.1977C48.5335 37.6995 47.7427 37.4504 46.8686 37.4504C45.8696 37.4504 45.0371 37.7826 44.4127 38.4469C43.7467 39.1111 43.4553 39.8584 43.4553 40.6888C43.4553 41.7682 43.9132 42.9722 44.8706 44.3008C43.2889 45.3802 42.2066 46.2521 41.6655 46.9164C41.1244 47.6222 40.833 48.4525 40.833 49.4905C40.833 50.1547 40.9579 50.7775 41.2076 51.3172C41.4574 51.8569 41.832 52.3552 42.2899 52.7703C42.7477 53.1855 43.2472 53.4761 43.7883 53.6837C44.3295 53.8913 44.9122 54.0158 45.4949 54.0158C47.1183 54.0158 48.6168 53.227 50.032 51.6078C51.2391 53.1855 52.6544 54.0158 54.2361 54.0158C54.9853 54.0158 55.6097 53.8083 56.1508 53.3931C56.7336 52.9779 57.0666 52.4382 57.233 51.7739H56.6919C56.2757 52.5627 55.6513 52.9364 54.9021 52.9364ZM45.4949 38.6544C45.8279 38.2808 46.3274 38.0732 46.9102 38.0732C47.2016 38.0732 47.4929 38.1147 47.701 38.2393C47.9508 38.3638 48.1589 38.4884 48.3254 38.696C48.4919 38.9035 48.6168 39.1111 48.7417 39.4018C48.8249 39.6924 48.8665 39.983 48.8665 40.3151C48.8665 41.4361 48.034 42.4325 46.4107 43.3874C45.4117 42.0173 44.9122 40.9379 44.9122 40.1491C44.9538 39.5263 45.162 39.0281 45.4949 38.6544ZM46.4939 52.8534C45.4949 52.8534 44.5792 52.3967 43.7467 51.5248C42.9559 50.6529 42.5396 49.698 42.5396 48.7016C42.5396 48.0789 42.7894 47.3731 43.2472 46.7088C43.7051 46.003 44.3711 45.4218 45.2036 44.882C45.8279 45.7124 46.4939 46.6258 47.2432 47.6637C47.9924 48.7016 48.7833 49.9056 49.6574 51.1927C48.7 52.2721 47.6178 52.8534 46.4939 52.8534Z" fill="white"/>
<path d="M72.0935 38.0734C70.7199 37.3261 68.8052 36.9524 66.3493 36.9524C65.5585 36.9524 64.0184 36.9939 61.7706 37.1185L59.0651 37.243V37.7827H59.5646C60.397 37.7827 60.9382 37.8658 61.1879 37.9903C61.4377 38.1149 61.6042 38.4055 61.6874 38.7792C61.7706 39.1528 61.8123 40.0247 61.8123 41.3117V49.283C61.8123 50.6531 61.7706 51.525 61.6874 51.9401C61.6042 52.3138 61.4377 52.6044 61.1463 52.7705C60.8549 52.9366 60.397 53.0196 59.6894 53.0196H59.0234V53.6008H66.2661C67.6397 53.6008 68.7219 53.5593 69.4712 53.4763C70.2204 53.3933 71.0113 53.1857 71.8854 52.812C72.7179 52.4799 73.4671 51.9817 74.0915 51.3174C74.7159 50.6531 75.2153 49.8228 75.59 48.8263C75.9646 47.8299 76.1311 46.709 76.1311 45.505C76.1311 43.8443 75.7981 42.3496 75.1321 41.0626C74.5077 39.8586 73.4671 38.8207 72.0935 38.0734ZM72.593 50.1549C71.9686 51.3174 71.1778 52.1062 70.262 52.4799C69.3463 52.8535 68.1392 53.0611 66.724 53.0611C65.725 53.0611 65.1006 52.9781 64.7676 52.7705C64.4762 52.5629 64.2681 52.2308 64.2265 51.7741C64.1849 51.3174 64.1432 50.2379 64.1432 48.6188V37.6167C64.7676 37.5752 65.392 37.5752 66.0163 37.5752C67.3067 37.5752 68.3473 37.6997 69.1798 37.9488C70.0123 38.1979 70.7615 38.6546 71.4275 39.3604C72.0935 40.0662 72.6346 40.9381 72.9676 42.0175C73.3423 43.097 73.5087 44.3425 73.5087 45.7541C73.5087 47.5393 73.2174 49.0339 72.593 50.1549Z" fill="white"/>
<path d="M123.042 48.5362C122.75 49.7402 122.334 50.6951 121.835 51.4009C121.335 52.1067 120.794 52.5634 120.211 52.7709C119.629 52.9785 118.921 53.1031 118.047 53.1031H116.798C115.674 53.1031 115.008 52.937 114.759 52.6049C114.509 52.2727 114.384 51.1102 114.384 49.1589V45.2563H116.215C116.923 45.2563 117.423 45.2978 117.714 45.3809C118.005 45.4639 118.255 45.6715 118.38 46.0036C118.546 46.3358 118.63 46.917 118.63 47.8304H119.212V42.184H118.63C118.63 43.0144 118.588 43.5541 118.463 43.8032C118.38 44.0938 118.13 44.3014 117.839 44.426C117.506 44.5505 116.965 44.6335 116.132 44.6335H114.384V37.7002H116.673C117.839 37.7002 118.671 37.7832 119.171 37.9077C119.712 38.0323 120.128 38.3229 120.503 38.8211C120.877 39.3193 121.21 40.1082 121.46 41.2706H122.043L121.668 37.1604H109.847V37.7002C110.638 37.7002 111.179 37.7832 111.429 37.9493C111.678 38.1153 111.845 38.4059 111.886 38.7796C111.97 39.1948 112.011 40.0251 112.011 41.2706V49.3665C112.011 50.7366 111.97 51.6085 111.928 51.9406C111.845 52.2727 111.72 52.5634 111.47 52.7709C111.304 52.8955 111.012 53.02 110.638 53.0616C110.138 53.02 109.722 52.854 109.389 52.6464C108.89 52.3558 107.974 51.4839 106.559 50.0308L100.357 43.7617L103.353 40.98C104.519 39.9006 105.31 39.1533 105.768 38.8211C106.184 38.489 106.683 38.1984 107.183 37.9908C107.682 37.7832 108.224 37.6586 108.723 37.6586V37.0774H102.479V37.7002C103.645 37.7417 104.228 38.0738 104.228 38.7796C104.228 39.2363 103.645 39.9836 102.479 41.0215L97.4428 45.5469V41.2706C97.4428 39.9006 97.4844 39.0287 97.5677 38.6551C97.6509 38.2814 97.8174 38.0323 98.0672 37.9077C98.3169 37.7832 98.858 37.7002 99.6489 37.7002H99.9403V37.1189H93.655H92.6144H88.1189V37.7002C88.8682 37.7417 89.4093 37.8662 89.7839 38.1153C90.1169 38.3229 90.3666 38.6135 90.4499 38.9872C90.5748 39.3608 90.6164 40.0251 90.6164 40.9385V46.5849C90.6164 47.8719 90.5748 48.8268 90.4915 49.408C90.4083 49.9893 90.1585 50.5705 89.7423 51.1518C89.326 51.733 88.7433 52.1897 87.9108 52.5634C87.0783 52.937 86.1626 53.1446 85.1636 53.1446C83.8732 53.1446 82.8326 52.854 82.0834 52.3142C81.2925 51.733 80.8346 51.1102 80.6681 50.3214C80.5017 49.5741 80.4184 48.2871 80.4184 46.5018V41.2706C80.4184 39.9006 80.46 39.0287 80.5433 38.6551C80.6265 38.2814 80.793 38.0323 81.0428 37.9077C81.2925 37.7832 81.8336 37.7002 82.6245 37.7002H82.9575V37.1189H75.3818V37.7002H75.7565C76.5889 37.7002 77.1301 37.7832 77.3798 37.9077C77.6296 38.0738 77.7961 38.3229 77.8793 38.6966C77.9626 39.0702 78.0042 39.9421 78.0042 41.2291V46.4188V48.121C78.0042 49.4496 78.2123 50.529 78.6702 51.3178C79.0864 52.1067 79.8357 52.7709 80.8763 53.2691C81.9169 53.7674 83.1656 54.0165 84.6225 54.0165C85.8712 54.0165 86.9534 53.8089 87.9108 53.4352C88.8682 53.0616 89.6174 52.5218 90.1169 51.8576C90.658 51.1933 90.9494 50.529 91.0743 49.8647C91.1991 49.2005 91.2408 48.121 91.2408 46.7509V41.1876C91.2408 40.1912 91.2824 39.4854 91.3656 39.1533C91.4489 38.8211 91.657 38.489 92.0316 38.1984C92.3646 37.9493 92.8225 37.7832 93.4885 37.7417C93.9463 37.7832 94.2793 37.8247 94.4458 37.9077C94.6956 38.0323 94.8621 38.2814 94.9453 38.6551C95.0286 39.0287 95.0702 39.9006 95.0702 41.2706V49.3665C95.0702 50.7366 95.0286 51.6085 94.9453 52.0236C94.8621 52.3973 94.6956 52.6879 94.4042 52.854C94.1129 53.02 93.655 53.1031 92.9474 53.1031H92.4479V53.6843H99.8987V53.1031H99.5657C98.8164 53.1031 98.3169 53.02 98.0256 52.8125C97.7758 52.6049 97.6093 52.3142 97.5261 51.8991C97.4428 51.4839 97.4428 50.6536 97.4428 49.3665V46.3773L98.6083 45.3393L103.27 50.0308C104.436 51.1933 105.06 51.9821 105.06 52.3142C105.06 52.5218 104.935 52.7294 104.727 52.8955C104.519 53.0616 103.936 53.1446 102.979 53.1446H102.646V53.7258H109.556H111.262H123.292L123.666 48.5777H123.042V48.5362Z" fill="white"/>
<path d="M46.7856 32.0108C46.7856 32.0108 46.8263 32.0108 46.7856 32.0108C46.8263 31.9703 46.7856 31.9703 46.7856 32.0108C46.7856 32.0108 46.7856 31.9703 46.7856 32.0108Z" fill="white"/>
<path d="M88.494 28.8149C87.8696 28.8564 87.3285 29.147 86.7874 29.3961C86.496 29.5207 86.2047 29.6868 85.9549 29.8113C85.9965 29.7698 85.9965 29.7283 85.9965 29.6868C85.9965 29.4377 85.9965 29.1885 85.9965 28.8979C86.3712 28.7319 86.6625 28.3997 86.8707 27.943C86.6209 27.6524 86.2879 27.4863 85.9549 27.4033C85.83 27.3618 85.7884 27.3203 85.7468 27.1957C85.6635 26.6145 85.497 26.0747 85.1641 25.5765C85.1224 25.535 85.1224 25.4935 85.0808 25.452C84.5813 25.9502 84.1651 26.4899 83.9986 27.1542C83.9569 27.2788 83.8737 27.3203 83.7904 27.3203C83.5823 27.3618 83.3742 27.4448 83.1245 27.5279C83.0412 27.5694 82.9996 27.6524 82.9996 27.777C83.0412 28.1091 83.1661 28.3997 83.4158 28.6488C83.4991 28.7734 83.5407 28.8564 83.4991 28.981C83.4574 29.1055 83.4574 29.2716 83.4158 29.3961C83.2493 29.147 82.9996 28.9394 82.7082 28.8149C82.5833 28.7319 82.5001 28.6488 82.5001 28.4828C82.5001 28.3167 82.4585 28.1506 82.4168 27.943C82.3752 27.8185 82.292 27.7354 82.1255 27.777C81.5844 27.943 81.1681 28.2336 81.0432 28.8564C80.8351 28.7319 80.7519 28.7734 80.7102 28.7319C80.3356 28.5243 79.961 28.3167 79.5031 28.3167C79.2118 28.3167 79.0869 28.3997 79.0869 28.5243C79.0453 28.5243 79.0453 28.4828 79.0036 28.4828C78.8371 28.4412 78.629 28.4412 78.4625 28.4412C78.2544 28.4828 78.0046 28.5243 77.8381 28.6073C77.63 28.5658 77.4219 28.4828 77.2554 28.3582C77.0889 28.2337 77.0057 28.0261 77.0057 27.8185C77.0057 27.6109 77.1305 27.4448 77.3387 27.4033C77.5468 27.3618 77.7549 27.4448 77.7965 27.6524C77.8381 27.86 77.6716 28.0261 77.5051 27.943C77.4219 27.9015 77.3387 27.8185 77.3387 27.7354C77.3387 27.6524 77.4219 27.5694 77.5051 27.5694C77.5468 27.5694 77.5468 27.5279 77.5468 27.5279C77.5468 27.4863 77.5051 27.4863 77.5051 27.4863C77.4219 27.4863 77.3387 27.5279 77.297 27.5694C77.2554 27.6109 77.2138 27.6524 77.2138 27.7354C77.2138 27.86 77.297 27.9845 77.4219 28.0676C77.5468 28.1091 77.7133 28.1091 77.7965 28.0261C77.8798 27.943 77.9214 27.777 77.9214 27.6524C77.8798 27.3618 77.5468 27.2372 77.297 27.2788C77.1722 27.2788 77.0473 27.3618 76.964 27.4863C76.8808 27.6109 76.8392 27.7354 76.8392 27.86C76.8392 28.1091 76.964 28.3582 77.1305 28.5243C77.2554 28.6073 77.3803 28.6903 77.5051 28.7319C77.5051 28.7319 77.5468 28.7319 77.5468 28.7734C77.2554 28.8979 76.964 29.064 76.7143 29.1055C76.4229 29.147 76.0899 29.1885 75.7569 29.147C75.7153 28.8979 75.6737 28.6903 75.6321 28.4412C75.5904 28.3167 75.6321 28.2336 75.7569 28.1506C76.0067 27.9845 76.2564 27.8185 76.3397 27.5694C76.3813 27.4448 76.3813 27.3203 76.298 27.2372C76.0067 26.9466 75.6737 26.7805 75.2574 26.6975C75.0909 26.656 75.0077 26.6145 74.9661 26.4484C74.9244 26.3239 74.8828 26.2408 74.8412 26.1163C74.7579 25.9917 74.5914 25.9502 74.4666 26.0748C74.0503 26.4069 73.5924 27.0296 73.6341 27.2372C73.5092 27.1957 73.426 27.1542 73.3427 27.1542C72.8848 27.0296 72.4686 26.9466 71.9691 27.1127C71.6361 27.2372 71.5945 27.2788 71.761 27.5279C71.8858 27.7354 72.0523 27.9015 72.2188 28.1091C72.1772 28.1506 72.1772 28.1921 72.1356 28.2336C71.6777 28.0261 71.2199 27.8185 70.7204 27.7354C70.8036 27.3618 70.9285 26.9466 71.0534 26.4484C71.1366 26.4899 71.2199 26.5314 71.3447 26.5314C71.6361 26.6145 71.9275 26.656 72.2188 26.5314C72.3437 26.4899 72.427 26.4069 72.3437 26.3239C72.2188 26.0747 72.1356 25.8672 72.0107 25.5765C72.3853 25.2029 72.5518 24.7877 72.5935 24.2895C72.3437 24.2065 72.0523 24.1234 71.761 24.1234C72.3853 22.1721 73.0097 20.3454 73.093 20.1378C73.2595 19.6811 74.1336 19.432 75.0077 18.1034C75.8818 16.8164 76.298 15.82 76.2564 14.4914C76.2148 13.578 76.0899 11.7098 76.0483 10.2982C76.0067 9.88299 75.965 8.80354 75.965 8.42989C75.965 8.2223 75.965 8.01471 76.0067 7.80713C76.1315 7.84864 76.298 7.89016 76.4229 7.93168C77.1722 8.09775 77.63 7.47499 77.4635 6.64464C77.3387 5.98037 77.3387 5.68974 77.0889 5.02547C77.4219 4.61029 77.7965 4.31967 78.2128 4.19512C79.5447 3.73843 82.0006 2.65898 82.1671 1.82863C82.3336 0.998286 82.292 0.0433877 82.0006 0.00187041C81.7092 -0.0396469 78.3376 0.62463 78.0463 0.541596C77.7549 0.458561 76.298 -0.205716 74.6331 0.541596C72.9681 1.28891 72.8432 3.11567 72.6351 3.82146C72.5518 4.1536 71.8858 5.31609 71.4696 6.52009C71.3031 6.93526 71.095 7.39195 70.8869 7.76561C70.6787 8.13927 70.4706 8.4714 70.3457 8.63747C69.763 9.30175 69.5549 9.13568 65.5589 10.7133C61.7711 12.1664 55.6107 12.6231 52.5721 13.5365C51.2401 13.7856 50.9904 13.6196 50.5325 13.2044C50.366 12.8722 50.2827 12.5401 50.1995 12.208C50.1579 11.8758 50.1163 11.5022 50.1579 11.1285C50.1995 10.4227 50.5325 9.67541 50.9071 9.05265C51.3234 8.38837 51.8645 7.84864 52.5305 7.43347C53.3213 6.93526 54.2371 6.60312 55.2361 6.56161C55.4442 6.56161 55.4442 6.22947 55.2361 6.22947C54.1954 6.14643 53.1548 6.35402 52.1975 6.81071C50.6157 7.59954 49.3254 9.13568 48.9924 11.004C48.7426 12.4156 49.1589 13.9517 50.0746 15.1142C49.034 16.3182 48.8259 17.8543 48.7426 19.0583C48.6178 20.802 47.8269 21.923 46.7863 23.3761C45.7457 24.8292 43.6645 25.4935 43.1233 25.6596C42.6238 25.8256 42.6238 27.0712 42.3741 27.943C42.3325 28.1091 42.2492 28.3582 42.2076 28.6073C42.166 28.6073 42.166 28.6073 42.1243 28.6073C42.0827 28.6073 42.0827 28.6488 42.0411 28.6488C42.0411 28.4828 41.9162 28.4412 41.6249 28.4412C41.167 28.4412 40.7924 28.6488 40.4177 28.8564C40.3761 28.8979 40.2929 28.8564 40.0847 28.981C39.9183 28.3582 39.502 28.0676 38.9609 27.9015C38.7944 27.86 38.7111 27.9015 38.6695 28.0676C38.6279 28.2337 38.5863 28.3997 38.5863 28.6073C38.5863 28.7734 38.5446 28.8564 38.3781 28.9394C38.0868 29.1055 37.837 29.3131 37.6705 29.5622C37.6289 29.3961 37.6289 29.2716 37.5873 29.147C37.5457 29.0225 37.5457 28.9394 37.6705 28.8149C37.9203 28.5658 38.0452 28.2752 38.0452 27.943C38.0452 27.8185 38.0452 27.7354 37.9203 27.6939C37.7122 27.6109 37.504 27.5694 37.2543 27.5279C37.1294 27.4863 37.0462 27.4863 37.0045 27.3618C36.7964 26.6975 36.3802 26.1578 35.8807 25.6596C35.8391 25.7011 35.8391 25.7426 35.7974 25.7841C35.5061 26.2823 35.3396 26.8636 35.2563 27.4448C35.2563 27.5694 35.1731 27.6524 35.0482 27.6939C34.6736 27.777 34.3822 27.9845 34.1325 28.2752C34.3822 28.6903 34.6319 29.0225 35.0482 29.1885C35.0482 29.4792 35.0482 29.7283 35.0898 29.9774C35.0898 30.0189 35.0898 30.0604 35.1314 30.1019C34.8401 29.9774 34.5487 29.8528 34.2573 29.7283C33.7162 29.4792 33.1335 29.2301 32.5507 29.1885C31.968 29.147 31.2604 29.2301 30.8857 29.6868C31.0939 29.4792 31.3852 29.3546 31.6766 29.3131C31.968 29.2716 32.2593 29.2716 32.5507 29.3131C33.1335 29.3961 33.6746 29.6452 34.1741 29.9359C34.7152 30.2265 35.2563 30.5171 35.8391 30.6832C36.2137 30.8077 36.5883 30.8492 37.0045 30.8908C37.0045 30.8908 37.0045 30.8908 36.9629 30.8908C36.838 30.9323 36.7132 31.0153 36.6299 31.0983C36.5467 31.1399 36.4634 31.2229 36.3802 31.2644C36.2969 31.3059 36.2553 31.389 36.172 31.4305C36.1304 31.472 36.0888 31.5135 36.0472 31.5135C35.9639 31.5966 35.8807 31.6796 35.8391 31.8041L35.7974 31.8457C35.7558 31.9287 35.7142 31.9702 35.7142 32.0532C35.7142 32.0948 35.6726 32.0948 35.6726 32.1363C35.6309 32.2193 35.6309 32.3439 35.6309 32.4684C35.6309 32.3854 35.6726 32.2608 35.6726 32.1778C35.6309 32.2608 35.6309 32.3854 35.6309 32.4684V32.5099C35.6309 32.5515 35.6309 32.593 35.6309 32.676C35.6309 32.676 35.6309 32.676 35.6309 32.7175C35.6309 32.759 35.6309 32.8006 35.6309 32.8421V32.8836C35.6309 32.9251 35.6309 32.9251 35.6309 32.9666C35.6309 33.0081 35.6726 33.0497 35.6726 33.0912C35.6726 33.0912 35.6726 33.0912 35.6726 33.1327C35.7142 33.2157 35.7558 33.2988 35.8391 33.3818L35.8807 33.4233C35.9223 33.4648 35.9223 33.4648 35.9639 33.5064C36.0056 33.5479 36.0888 33.5894 36.1304 33.5894C36.1304 33.5894 36.1304 33.5894 36.172 33.5894C36.2137 33.5894 36.2553 33.6309 36.2969 33.6309C36.3802 33.6309 36.4634 33.6309 36.5467 33.6309C36.7548 33.5894 36.9629 33.5479 37.1294 33.3818C37.2959 33.2572 37.3792 33.0081 37.3792 32.8006C37.3792 32.593 37.2543 32.3854 37.0462 32.2608C36.838 32.1363 36.5883 32.2193 36.4218 32.3439C36.2553 32.4684 36.1721 32.7175 36.2137 32.9251C36.2137 33.0081 36.2969 33.0912 36.3385 33.1327C36.3385 33.1327 36.3385 33.1327 36.3802 33.1742C36.3802 33.1742 36.3802 33.1742 36.4218 33.1742C36.4634 33.2157 36.505 33.2157 36.5467 33.2157H36.5883C36.6299 33.2157 36.7132 33.2157 36.7548 33.2157C36.7964 33.2157 36.7964 33.1742 36.7964 33.1742C36.7964 33.1327 36.7548 33.1327 36.7548 33.1327C36.5883 33.1742 36.4218 33.0912 36.3802 32.9251C36.3385 32.759 36.4218 32.593 36.5467 32.4684C36.6715 32.3439 36.8797 32.3439 37.0045 32.4269C37.1294 32.5099 37.2543 32.676 37.2543 32.8421C37.2959 33.1742 36.9213 33.4648 36.5883 33.5064C36.2137 33.5479 35.9223 33.2988 35.7974 32.9666C35.6726 32.6345 35.7558 32.2608 35.9223 31.9287C36.1304 31.6381 36.4218 31.389 36.7548 31.2229C37.0045 31.0983 37.2543 30.9738 37.5457 30.8908H37.5873C37.7538 30.8908 37.9619 30.8908 38.1284 30.8492C38.17 30.8492 38.17 30.8908 38.2116 30.8908C38.2949 30.9323 38.3781 30.9738 38.3781 31.1399C38.3781 31.555 38.3781 31.9702 38.4614 32.3439C38.5863 32.8421 38.7944 33.2988 38.9609 33.8385C39.6685 33.2572 40.168 32.6345 40.5426 31.8872C40.6259 31.7211 40.7091 31.6796 40.8756 31.7211C41.0837 31.7626 41.2502 31.7211 41.4167 31.7211C41.4167 31.8457 41.3751 31.9702 41.3751 32.0948C41.3751 32.2193 41.3751 32.3024 41.3751 32.4269C41.4584 33.0081 41.9579 33.3818 42.5406 33.4233C42.4157 33.6724 42.3325 33.963 42.2492 34.2121C42.2908 34.2121 42.3741 34.2121 42.4157 34.2121C42.9985 34.2121 43.5812 34.0876 44.1223 33.88C44.2472 33.8385 44.3304 33.8385 44.4137 33.963C44.6634 34.2537 44.9964 34.4197 45.3711 34.5028C45.6208 34.0876 45.7873 33.6724 45.7457 33.2572C45.9954 33.1327 46.2035 33.0081 46.4117 32.8421C46.4949 32.8006 46.5365 32.7175 46.4533 32.6345C46.3284 32.5099 46.2035 32.3854 46.0371 32.3023C45.9122 32.2193 45.6624 32.1778 45.6624 32.1778H45.6208L45.4127 32.1363C45.9538 31.6381 46.2868 31.0153 46.4533 30.4756C46.7863 30.268 47.0777 30.0189 47.369 29.7283C47.4107 29.6868 47.5355 29.6868 47.6188 29.6868C48.035 29.8113 48.4513 29.8528 48.8675 29.8113C49.1173 29.9359 49.367 30.0604 49.5751 30.2265C49.7 30.3095 49.7833 30.4341 49.8665 30.5586C49.3254 30.185 48.7843 30.2265 48.2015 30.3926C48.2848 30.6832 48.368 30.9323 48.4929 31.1399C48.5345 31.2644 48.5761 31.3474 48.4929 31.472C48.2015 31.8872 48.0767 32.3023 48.1183 32.8006C48.1183 32.8836 48.2015 33.0081 48.2848 33.0912C48.5761 33.3403 48.9508 33.2988 49.2838 33.2572C49.4503 33.2572 49.4919 33.2988 49.5751 33.4233C49.7416 33.7555 49.9081 34.0461 50.1579 34.3367C50.5325 34.8349 50.9904 35.2086 51.4899 35.5822C51.5315 35.5407 51.5315 35.4992 51.5315 35.4577C51.8645 34.6688 51.9893 33.88 51.9893 33.0497C51.9893 32.8421 52.031 32.759 52.2391 32.676C52.6553 32.5099 52.9883 32.2608 53.2797 31.8872C53.363 31.7626 53.363 31.6796 53.2797 31.5966C52.9051 31.1814 52.4888 30.8077 51.9477 30.6417C51.9061 30.268 51.8228 29.9359 51.7812 29.5622C51.7396 29.3961 51.6564 29.3546 51.4899 29.3961C51.1569 29.4377 50.9487 29.6037 50.7406 29.8528C50.5325 30.1019 50.366 30.3926 50.1995 30.6832C50.1162 30.4341 49.9914 30.185 49.8249 29.9774C49.6168 29.7698 49.367 29.6037 49.1173 29.4377C49.1173 29.2301 49.0756 29.0225 48.9924 28.8149C49.1173 28.7319 49.2838 28.6903 49.4086 28.6073C49.9498 28.3582 50.4909 28.1921 51.032 28.1506C51.5731 28.1091 52.1558 28.2337 52.6553 28.5243C52.8635 28.7734 52.9883 29.1055 53.03 29.3961C53.0716 29.6037 53.0716 29.7698 52.9883 29.9774C52.9467 30.1434 52.7802 30.268 52.6137 30.3095C52.4472 30.351 52.2807 30.3095 52.1558 30.185C52.0726 30.0604 52.0726 29.8528 52.1975 29.7698C52.3223 29.6868 52.5305 29.7698 52.5305 29.9359C52.5305 30.0189 52.4888 30.1019 52.4056 30.1019C52.3223 30.1434 52.2391 30.1019 52.1975 30.0189C52.1975 29.9774 52.1558 29.9774 52.1142 29.9774C52.0726 29.9774 52.0726 30.0189 52.1142 30.0604C52.1558 30.185 52.2807 30.268 52.4472 30.2265C52.5721 30.185 52.6553 30.0604 52.6553 29.9359C52.6553 29.8113 52.6137 29.6868 52.4888 29.6037C52.364 29.5622 52.2391 29.5622 52.1142 29.6452C51.9893 29.7283 51.9477 29.8113 51.9061 29.9359C51.9061 30.0604 51.9477 30.185 51.9893 30.268C52.1142 30.4756 52.4056 30.5586 52.6137 30.4756C52.8218 30.3925 53.03 30.2265 53.0716 30.0189C53.1132 29.8528 53.1132 29.6868 53.1132 29.5622C53.1132 29.4377 53.1132 29.3546 53.0716 29.2301C53.03 29.064 52.9883 28.8979 52.9051 28.7319C53.2797 28.981 53.6127 29.2716 53.9457 29.6037C53.9873 29.6452 54.029 29.6868 54.029 29.6868C54.0706 29.7698 54.1538 29.8528 54.1954 29.8943C54.1954 30.3095 54.1954 30.4756 54.4452 30.4756C54.4868 30.6001 54.5284 30.7662 54.5284 30.8908C54.5701 31.0983 54.5284 31.3474 54.4452 31.555C54.3619 31.7626 54.1954 31.9287 53.9873 31.9702C53.7792 32.0532 53.5295 31.9702 53.4462 31.7626C53.3213 31.5966 53.363 31.3059 53.5295 31.1814C53.6127 31.1399 53.7376 31.0983 53.8208 31.1814C53.9041 31.2229 53.9457 31.3474 53.9457 31.4305C53.9457 31.555 53.8625 31.6381 53.7792 31.6796C53.696 31.7211 53.5711 31.6381 53.5295 31.555C53.5295 31.555 53.4878 31.5135 53.4878 31.555C53.4878 31.555 53.4462 31.5966 53.4878 31.5966C53.4878 31.6381 53.5295 31.6796 53.5295 31.6796L53.5711 31.7211L53.6127 31.7626H53.6543C53.696 31.7626 53.696 31.7626 53.7376 31.7626C53.7376 31.7626 53.7376 31.7626 53.7792 31.7626H53.8208C53.8208 31.7626 53.8625 31.7626 53.8625 31.7211C53.9457 31.6796 54.029 31.555 54.029 31.4305C54.029 31.3059 53.9873 31.1399 53.8625 31.0983C53.8625 31.0983 53.8625 31.0983 53.8208 31.0983C53.7792 31.0983 53.7376 31.0568 53.696 31.0568C53.6543 31.0568 53.6543 31.0568 53.6127 31.0568C53.5711 31.0568 53.5295 31.0568 53.5295 31.0983H53.4878L53.4462 31.1399L53.4046 31.1814C53.2797 31.3059 53.2797 31.472 53.2797 31.6381C53.2797 31.6796 53.3213 31.7211 53.3213 31.7626C53.3213 31.8041 53.363 31.8457 53.4046 31.8457L53.4462 31.8872C53.4462 31.8872 53.4462 31.9287 53.4878 31.9287C53.5295 31.9287 53.5295 31.9287 53.5711 31.9702C53.6127 31.9702 53.6127 32.0117 53.6543 32.0117C53.696 32.0117 53.696 32.0117 53.7376 32.0117C53.7792 32.0117 53.8208 32.0117 53.8625 32.0117H53.9041C53.9457 32.0117 53.9457 32.0117 53.9873 32.0117C54.0289 32.0117 54.0289 32.0117 54.0706 31.9702C54.1122 31.9702 54.1122 31.9702 54.1538 31.9287C54.1954 31.9287 54.1954 31.8872 54.2371 31.8872C54.2787 31.8872 54.2787 31.8457 54.3203 31.8457C54.4868 31.7211 54.6117 31.5135 54.6949 31.2644C54.7366 31.0568 54.7366 30.8077 54.7366 30.6001C54.7366 30.5171 54.6949 30.4341 54.6949 30.351C54.6949 30.351 54.6949 30.351 54.7366 30.351C54.8614 30.5171 54.9863 30.6832 55.1112 30.8908C55.4442 31.389 55.8604 31.8457 56.3183 32.2193C55.9021 31.8041 55.5274 31.3474 55.2361 30.8077C55.1528 30.6417 55.0279 30.4756 54.9031 30.3095C54.9447 30.3095 54.9863 30.268 55.0696 30.268C55.2361 30.185 55.3609 30.2265 55.4858 30.3095C55.8604 30.6001 56.2767 30.7247 56.7345 30.7247C56.901 30.7247 56.9843 30.6417 57.0675 30.5171C57.234 30.268 57.2757 29.9359 57.234 29.6452C57.234 29.4377 57.2757 29.3546 57.4838 29.2716C58.3579 28.9394 59.0239 28.3167 59.6483 27.5694C59.565 27.5279 59.5234 27.4863 59.4818 27.4863C58.7325 27.1127 57.9833 26.9881 57.1508 26.9466C56.9843 26.9466 56.8594 26.9051 56.8178 26.6975C56.6513 26.1993 56.3599 25.8256 55.9437 25.535C55.5274 25.7841 55.1112 26.1163 54.9447 26.573C54.8198 26.9051 54.6533 26.9051 54.3619 26.9051C54.1122 26.9051 53.7376 26.9466 53.6127 27.0712C53.4462 27.3203 53.696 27.6524 53.8625 27.86C53.9457 27.9845 54.0706 28.0676 54.1954 28.1506C54.2787 28.2336 54.6117 28.4828 54.6117 28.4828L54.7366 28.5658C54.6949 28.5658 54.6117 28.6073 54.5701 28.6073C54.1538 28.6903 53.7376 28.6903 53.3213 28.6073C53.1548 28.4412 52.9467 28.3167 52.7386 28.1921C52.2807 27.9015 51.7812 27.7354 51.2401 27.6939C50.9071 27.4448 50.6574 27.1542 50.4909 26.8221V26.7805C50.699 27.0712 51.0736 27.2372 51.5315 27.3618C51.5731 27.1542 51.6147 26.9881 51.6564 26.7805C51.6564 26.656 51.698 26.573 51.8645 26.5314C52.2391 26.4069 52.5305 26.1578 52.697 25.8672C52.7386 25.7841 52.7386 25.6596 52.697 25.5765C52.5721 25.3274 52.3223 25.2029 52.031 25.0783C51.8645 25.0368 51.8229 24.9538 51.8645 24.8292C51.9061 24.4556 51.8645 24.1234 51.7812 23.7913C52.1142 23.5007 52.4056 23.1685 52.7802 22.7534C54.029 21.3003 55.1944 20.2623 56.5264 19.515C57.8584 18.7677 60.0229 19.0583 61.7295 19.432C63.1447 19.7641 67.9731 20.0547 69.4716 20.3869C69.763 20.4284 69.9295 20.719 69.9295 21.0096C69.8879 21.4248 69.763 22.1721 69.6381 23.0025C69.5965 22.961 69.5549 22.961 69.5549 22.9194C69.5132 22.9194 69.4716 22.8779 69.43 22.8364C69.097 23.5422 68.8473 24.248 68.9721 24.9538C68.9721 25.0783 68.9305 25.1614 68.8056 25.2029C68.5559 25.3274 68.2645 25.452 68.1813 25.7011C68.1396 25.7841 68.1396 25.9087 68.1813 25.9917C68.3478 26.3239 68.6391 26.5314 69.0138 26.656C69.0554 26.656 69.097 26.6975 69.097 26.6975C69.0138 27.1127 68.9721 27.5279 68.9305 27.9015C68.6391 27.9845 68.3478 28.1091 68.098 28.2752C67.8899 28.3997 67.7234 28.5658 67.5569 28.6903C67.1407 28.7734 66.7244 28.8149 66.3082 28.7319C66.2665 28.7319 66.1833 28.6903 66.1417 28.6903L66.2665 28.6073C66.2665 28.6073 66.5995 28.3582 66.6828 28.2752C66.8077 28.1921 66.8909 28.0676 67.0158 27.943C67.2239 27.6939 67.432 27.4033 67.2655 27.1542C67.1823 26.9881 66.766 26.9881 66.5163 26.9881C66.2249 26.9881 66.0584 26.9881 65.9335 26.656C65.7254 26.1993 65.3508 25.9087 64.9346 25.6596C64.5183 25.9502 64.2269 26.3654 64.1021 26.8636C64.0604 27.0712 63.9356 27.1127 63.7691 27.1127C62.9782 27.1542 62.1873 27.3203 61.4797 27.6939C61.4381 27.7354 61.3965 27.7354 61.3132 27.777C61.9376 28.5243 62.6036 29.1055 63.4777 29.4377C63.6858 29.5207 63.7274 29.6037 63.7274 29.8113C63.6858 30.1019 63.7275 30.4341 63.894 30.6832C63.9772 30.8077 64.0604 30.8908 64.2269 30.8492C64.6848 30.8492 65.1011 30.6832 65.4757 30.3926C65.6006 30.268 65.7254 30.268 65.8919 30.3095C65.9335 30.351 65.9752 30.351 66.0584 30.351C65.9335 30.5171 65.8503 30.6832 65.767 30.8908C65.4757 31.389 65.1427 31.8872 64.6848 32.3023C65.1427 31.9287 65.5589 31.472 65.8503 30.9738C65.9752 30.8077 66.1 30.6001 66.2249 30.4341C66.2249 30.4341 66.2249 30.4341 66.2665 30.4341C66.2665 30.5171 66.2249 30.6001 66.2249 30.6832C66.1833 30.8908 66.1833 31.1399 66.2665 31.3474C66.3082 31.555 66.433 31.7626 66.6412 31.9287C66.6828 31.9287 66.6828 31.9702 66.7244 31.9702C66.766 31.9702 66.766 32.0117 66.8077 32.0117C66.8493 32.0117 66.8493 32.0532 66.8909 32.0532C66.9325 32.0532 66.9325 32.0532 66.9742 32.0948C66.9742 32.0948 67.0158 32.0948 67.0574 32.0948H67.099C67.1407 32.0948 67.1823 32.0948 67.2239 32.0948C67.2655 32.0948 67.2655 32.0948 67.3072 32.0948C67.3488 32.0948 67.3488 32.0948 67.3904 32.0532C67.432 32.0532 67.432 32.0532 67.4737 32.0117C67.4737 32.0117 67.4737 31.9702 67.5153 31.9702L67.5569 31.9287C67.5985 31.8872 67.5985 31.8872 67.6402 31.8457C67.6818 31.8041 67.6818 31.7626 67.6818 31.7211C67.7234 31.555 67.6818 31.389 67.5569 31.2644L67.5153 31.2229L67.4737 31.1814H67.432C67.3904 31.1814 67.3488 31.1399 67.3488 31.1399C67.3072 31.1399 67.3072 31.1399 67.2655 31.1399C67.2239 31.1399 67.1823 31.1399 67.1407 31.1814C67.1407 31.1814 67.1407 31.1814 67.099 31.1814C66.9742 31.2644 66.9325 31.389 66.9325 31.5135C66.9325 31.6381 67.0158 31.7211 67.099 31.8041C67.099 31.8041 67.1407 31.8041 67.1407 31.8457H67.1823C67.1823 31.8457 67.1823 31.8457 67.2239 31.8457C67.2655 31.8457 67.2655 31.8457 67.3072 31.8457H67.3488C67.3488 31.8457 67.3904 31.8457 67.3904 31.8041L67.432 31.7626C67.4737 31.7211 67.4737 31.7211 67.4737 31.6796V31.6381H67.432C67.3904 31.7211 67.3072 31.8041 67.1823 31.7626C67.099 31.7211 67.0158 31.6381 67.0158 31.5135C67.0158 31.389 67.0574 31.3059 67.1407 31.2644C67.2239 31.2229 67.3488 31.2229 67.432 31.2644C67.6402 31.389 67.6402 31.6381 67.5569 31.8457C67.4737 32.0532 67.2239 32.1363 67.0158 32.0532C66.8077 32.0117 66.6412 31.8457 66.5579 31.6381C66.4747 31.4305 66.4747 31.1814 66.4747 30.9738C66.4747 30.8492 66.5163 30.6832 66.5579 30.5586C66.8077 30.5586 66.8077 30.3926 66.8077 29.9774C66.8493 29.8943 66.9325 29.8113 66.9742 29.7698C67.0158 29.7283 67.0574 29.6868 67.0574 29.6868C67.3904 29.3546 67.7234 29.064 68.098 28.8149C68.0148 28.981 67.9731 29.147 67.9315 29.3131C67.9315 29.3961 67.8899 29.5207 67.8899 29.6452C67.8899 29.8113 67.8899 29.9774 67.9315 30.1019C68.0148 30.3095 68.1813 30.4756 68.431 30.5586C68.5559 30.6001 68.764 30.6001 68.8889 30.5171C68.8889 30.6001 68.9305 30.6832 68.9305 30.7662C68.5143 30.9323 68.1813 31.2644 67.8899 31.6381C67.8066 31.7626 67.8066 31.8457 67.8899 31.9287C68.1813 32.2608 68.5143 32.5515 68.9721 32.676C69.1803 32.759 69.2219 32.8421 69.2219 33.0497C69.2219 33.88 69.3468 34.7104 69.7214 35.4577C69.7214 35.4992 69.763 35.4992 69.763 35.5822C70.2625 35.2086 70.7204 34.8349 71.095 34.3367C71.2615 34.0876 71.428 33.797 71.5945 33.5479C72.094 33.5479 72.4686 33.5479 72.4686 33.5479C72.4686 33.5479 72.427 33.4233 72.3853 33.2988C72.5935 33.2988 72.8016 33.2572 72.9681 33.0912C73.0513 33.0081 73.1346 32.8836 73.1346 32.8006C73.1762 32.3023 73.0097 31.8457 72.76 31.472C72.6767 31.3474 72.6767 31.2644 72.7183 31.1399C72.8016 30.8908 72.8848 30.6417 73.0097 30.3926C72.3853 30.268 71.8442 30.185 71.3447 30.6001C71.428 30.4756 71.5112 30.351 71.6361 30.268C71.8442 30.1019 72.094 29.9359 72.3437 29.8113C72.76 29.8528 73.1762 29.8113 73.5925 29.6868C73.6757 29.6452 73.8006 29.6452 73.8422 29.6868C74.1336 29.9774 74.4249 30.185 74.7579 30.4341C74.9661 30.9738 75.2574 31.5966 75.8402 32.0948L75.6321 32.1363H75.5904C75.5904 32.1363 75.2991 32.2193 75.2158 32.3023C75.0493 32.3854 74.9244 32.5515 74.7996 32.676C74.7163 32.759 74.7579 32.8421 74.8412 32.8836C75.0493 33.0081 75.2574 33.1327 75.5072 33.2572C75.4656 33.6724 75.6321 34.0876 75.8818 34.5028C76.2564 34.4197 76.5894 34.2537 76.8392 33.963C76.9224 33.8385 77.0057 33.8385 77.1305 33.88C77.6717 34.0876 78.2544 34.2121 78.8371 34.1706C78.8788 34.1706 78.9204 34.1706 79.0036 34.1706C78.8371 33.5063 78.5458 32.8836 78.0463 32.3854C77.963 32.3023 77.963 32.2193 78.0046 32.0948C78.0879 31.8872 78.1295 31.6796 78.1295 31.4305C78.1295 31.3059 78.0879 31.2644 77.963 31.1814C77.63 31.0568 77.3387 31.0153 77.0057 31.0983C76.8808 31.1399 76.7975 31.0983 76.6727 31.0153C76.5478 30.8908 76.4229 30.8077 76.2148 30.6417C76.0899 30.9323 75.965 31.1399 75.9234 31.389C75.8818 31.5966 75.965 31.8041 76.0067 32.0117C75.5072 31.6381 75.2158 31.0983 75.0077 30.6001C75.2574 30.7247 75.5072 30.8492 75.7569 30.9738L75.8402 30.9323C75.8818 30.5586 75.965 30.2265 76.0067 29.8528C76.3397 29.8528 76.7143 29.8528 77.0889 29.7698C77.4219 29.6868 77.6717 29.5207 77.963 29.3961C78.2128 29.2716 78.5041 29.1885 78.7539 29.147C79.0036 29.1055 79.2118 29.1885 79.4199 29.3546C79.4615 29.3961 79.5031 29.3961 79.5031 29.4377C79.5447 29.5622 79.628 29.6868 79.6696 29.8113C79.2534 30.2265 79.0453 30.7662 78.962 31.389C79.4199 31.6381 79.8777 31.7211 80.3772 31.6381C80.5437 31.5966 80.627 31.6796 80.7102 31.8041C81.0849 32.5515 81.626 33.1742 82.3336 33.7555C82.5001 33.2157 82.7082 32.759 82.7915 32.2608C82.8747 31.8872 82.8747 31.472 82.8747 31.0568C82.8747 30.8908 82.958 30.8908 83.0412 30.8077C83.0828 30.8077 83.0828 30.7662 83.1245 30.7662C83.291 30.7662 83.4991 30.7662 83.6656 30.7662H83.7072C83.9986 30.8492 84.2483 30.9323 84.4981 31.0568C84.8311 31.2229 85.1224 31.4305 85.3306 31.7626C85.5387 32.0532 85.5803 32.4269 85.497 32.8006C85.4138 33.1327 85.0808 33.4233 84.7478 33.3818C84.4148 33.3818 84.0402 33.0912 84.0818 32.759C84.0818 32.593 84.1651 32.4269 84.3316 32.3439C84.4564 32.2608 84.6646 32.3023 84.7894 32.3854C84.9143 32.4684 84.9976 32.676 84.9559 32.8006C84.9143 32.9666 84.7478 33.0497 84.5813 33.0081C84.5397 33.0081 84.5397 33.0081 84.5397 33.0497C84.5397 33.0912 84.5397 33.0912 84.5813 33.0912C84.6229 33.0912 84.7062 33.0912 84.7478 33.0912H84.7894C84.8311 33.0912 84.8727 33.0497 84.9143 33.0497C84.9143 33.0497 84.9143 33.0497 84.9559 33.0497C84.9559 33.0497 84.9559 33.0497 84.9976 33.0081C85.0808 32.9666 85.1224 32.8836 85.1224 32.8006C85.1641 32.593 85.0808 32.3439 84.9143 32.2193C84.7478 32.0948 84.4981 32.0532 84.2899 32.1363C84.0818 32.2608 83.9986 32.4684 83.9569 32.676C83.9569 32.8836 84.0402 33.0912 84.2067 33.2572C84.3732 33.3818 84.5813 33.4648 84.7894 33.5064C84.8727 33.5064 84.9559 33.5064 85.0392 33.5064C85.0808 33.5064 85.1224 33.4648 85.1641 33.4648C85.1641 33.4648 85.1641 33.4648 85.2057 33.4648C85.2473 33.4233 85.3305 33.4233 85.3722 33.3818C85.4138 33.3403 85.4138 33.3403 85.4554 33.2988L85.497 33.2572C85.5803 33.1742 85.6219 33.0912 85.6636 33.0081C85.6636 33.0081 85.6636 33.0081 85.6636 32.9666C85.6636 32.9251 85.7052 32.8836 85.7052 32.8421C85.7052 32.8006 85.7052 32.8006 85.7052 32.759V32.7175C85.7052 32.676 85.7052 32.6345 85.7052 32.593C85.7052 32.5515 85.7052 32.5099 85.7052 32.4684C85.7052 32.4269 85.7052 32.3854 85.7052 32.3439C85.7052 32.2193 85.6636 32.1363 85.6636 32.0532C85.7052 32.1363 85.7052 32.2608 85.7052 32.3439C85.7052 32.2193 85.6635 32.1363 85.6219 32.0117C85.6219 31.9702 85.5803 31.9702 85.5803 31.9287C85.5387 31.8457 85.4971 31.7626 85.4554 31.7211L85.4138 31.6796C85.3306 31.5966 85.2889 31.472 85.2057 31.389C85.1641 31.3475 85.1224 31.3059 85.0808 31.3059C85.0392 31.2644 84.9559 31.1814 84.8727 31.1399C84.7062 31.0153 84.4981 30.8908 84.2899 30.8077C84.2899 30.8077 84.2899 30.8077 84.2483 30.8077C84.6229 30.7662 85.0392 30.7247 85.4138 30.6001C85.9965 30.4341 86.5377 30.1434 87.0788 29.8528C87.5783 29.5622 88.1194 29.2716 88.7021 29.1885C88.9935 29.147 89.2849 29.147 89.5762 29.1885C89.8676 29.2301 90.159 29.3546 90.3671 29.5622C89.7844 28.8564 89.0768 28.7734 88.494 28.8149ZM75.8402 3.03264C76.0483 3.24022 76.1732 3.44781 76.3397 3.6554C76.5062 3.86298 76.631 4.11209 76.7559 4.36119C76.8808 4.61029 76.964 4.8594 77.0057 5.1085C76.9224 4.8594 76.7559 4.65181 76.631 4.40271C76.5062 4.19512 76.3397 3.94602 76.1732 3.73843C76.0067 3.53084 75.8818 3.32326 75.7153 3.07415C75.5488 2.86657 75.3823 2.65898 75.2158 2.45139C75.4656 2.65898 75.6737 2.82505 75.8402 3.03264ZM73.9254 6.3125C74.1336 6.52009 74.3417 6.68616 74.5498 6.89375C74.7579 7.05981 74.9661 7.2674 75.2158 7.43347C75.4239 7.59954 75.6737 7.76561 75.8818 7.93168C75.5904 7.84864 75.3407 7.68257 75.0909 7.55802C74.8412 7.39195 74.6331 7.22588 74.3833 7.0183C74.1752 6.81071 73.9671 6.64464 73.7589 6.39554C73.5508 6.18795 73.3843 5.93885 73.2595 5.68974C73.5092 5.93885 73.7173 6.14643 73.9254 6.3125ZM44.7051 27.777C44.8299 27.943 45.0381 28.0676 45.2046 28.1921C45.3294 28.2752 45.3711 28.3582 45.3294 28.4828C45.2878 28.7319 45.2462 28.9394 45.2046 29.1885C44.8716 29.1885 44.5386 29.1885 44.2472 29.147C44.1223 29.1055 43.9558 29.064 43.7893 28.981C43.7893 28.9394 43.831 28.8979 43.831 28.8564C44.0391 28.5243 44.3304 28.1506 44.7051 27.777ZM37.504 29.6868C37.4624 29.7283 37.4208 29.8113 37.4208 29.8528C37.3792 29.9359 37.3375 30.0604 37.3792 30.1019C37.2959 30.0604 37.2127 30.0189 37.1294 29.9774C36.8797 29.8113 36.6299 29.6037 36.505 29.3546C36.6299 29.4377 36.7132 29.5622 36.8797 29.6037C37.0462 29.6868 37.2543 29.6868 37.504 29.6868ZM35.1314 30.0189C35.3396 29.9774 35.5061 29.8943 35.6726 29.8113C35.7974 29.7283 36.0056 29.5622 36.0056 29.5622L36.0472 29.5207L36.2969 29.1885C36.3385 29.2716 36.3385 29.3546 36.3802 29.4377C36.505 29.7283 36.7548 29.9774 37.0462 30.185C37.2127 30.268 37.3792 30.351 37.5457 30.3926C36.9629 30.4341 36.3802 30.3926 35.8391 30.268C35.5893 30.185 35.3396 30.1019 35.1314 30.0189ZM35.7142 31.8041C35.7142 31.8457 35.6726 31.8872 35.6726 31.9287C35.6726 31.8457 35.6726 31.8041 35.7142 31.8041ZM41.5832 29.7283C41.6249 29.6037 41.7081 29.4792 41.7497 29.3546C41.7914 29.3131 41.833 29.3131 41.833 29.2716C41.8746 29.2301 41.9162 29.2301 41.9162 29.1885C41.8746 29.4377 41.7914 29.6452 41.7497 29.8943C41.7081 29.8528 41.6665 29.7698 41.5832 29.7283ZM45.2462 31.8457C45.2878 31.6381 45.3711 31.4305 45.3294 31.2229C45.2878 30.9738 45.1629 30.7662 45.0381 30.5171C44.8716 30.6832 44.7051 30.7662 44.5802 30.8908C44.4969 30.9738 44.4137 31.0153 44.2472 30.9738C43.9142 30.8908 43.5812 30.9323 43.2898 31.0568C43.2482 31.0153 43.165 31.0153 43.1233 30.9738C43.165 30.5586 43.3315 30.0604 43.5812 29.4377C43.7477 29.5207 43.9142 29.5622 44.1223 29.6452C44.4969 29.7283 44.8716 29.7283 45.2046 29.6868C45.2462 30.0604 45.3294 30.3926 45.3711 30.7662H45.4543C45.7041 30.6417 45.9538 30.5171 46.2035 30.3926C46.0371 30.8908 45.7457 31.4305 45.2462 31.8457ZM54.6949 28.7734C54.7366 28.7734 54.7782 28.7319 54.8198 28.7319C54.7782 28.7734 54.7366 28.7734 54.7366 28.8149C54.5284 28.981 54.4036 29.1885 54.3619 29.4377C54.3203 29.3961 54.2787 29.3546 54.2371 29.3131C54.029 29.1055 53.8208 28.8979 53.6127 28.6903C53.9457 28.8149 54.3619 28.8149 54.6949 28.7734ZM48.9091 25.6181C48.7843 25.8672 48.701 26.1163 48.5761 26.3654C48.5345 26.4899 48.5761 26.5314 48.7426 26.573C49.034 26.6975 49.3254 26.656 49.6168 26.573C49.8249 26.4899 50.033 26.4069 50.2411 26.3239C50.2411 26.3239 50.2827 26.3239 50.2827 26.3654C50.3244 26.5314 50.366 26.6975 50.4492 26.8636C50.6157 27.1957 50.8655 27.4448 51.1569 27.6524C51.1152 27.6524 51.1152 27.6524 51.0736 27.6524C50.2411 27.6524 49.5335 27.943 48.8259 28.2752C48.7843 28.2337 48.7843 28.1921 48.7426 28.1506C48.9091 27.943 49.0756 27.777 49.2005 27.5694C49.367 27.3203 49.3254 27.2788 48.9924 27.1542C48.5345 26.9881 48.0766 27.1127 47.6188 27.2372C47.5355 27.2788 47.4523 27.2788 47.3274 27.3203C47.3274 27.1542 47.0777 26.7805 46.7863 26.4484C47.2858 26.1993 47.8685 25.9087 48.4929 25.6596C48.5761 25.6181 48.6594 25.5765 48.7843 25.535C48.8259 25.535 48.8675 25.5765 48.9091 25.6181ZM68.6808 29.9774C68.6391 30.1019 68.5559 30.1434 68.5143 30.1019C68.431 30.0604 68.3894 30.0189 68.3894 29.9359C68.3894 29.7698 68.5559 29.6868 68.6808 29.7698C68.6808 29.8528 68.6808 29.9359 68.6808 29.9774ZM68.7224 29.6037C68.6391 29.5622 68.5143 29.5622 68.431 29.6037C68.3061 29.6452 68.2645 29.8113 68.2645 29.9359C68.2645 30.0604 68.3478 30.185 68.4726 30.2265C68.5559 30.268 68.6391 30.2265 68.7224 30.1434C68.7224 30.185 68.7224 30.2265 68.7224 30.2265C68.6391 30.3095 68.4726 30.351 68.3478 30.3095C68.1813 30.268 68.0148 30.1434 67.9732 29.9774C67.8899 29.8113 67.8899 29.6037 67.9315 29.3961C67.9731 29.064 68.098 28.7734 68.3061 28.5243C68.5143 28.3997 68.7224 28.3167 68.9305 28.2752C68.8056 28.8149 68.7224 29.3131 68.7224 29.6037ZM66.7244 29.4792C66.6828 29.5207 66.6412 29.5622 66.5995 29.6037C66.5579 29.3546 66.433 29.147 66.2249 28.981C66.1833 28.9394 66.1417 28.9394 66.1417 28.8979C66.1833 28.8979 66.2249 28.9394 66.2665 28.9394C66.6412 28.981 67.0158 28.981 67.3488 28.8564C67.1407 29.064 66.9325 29.2716 66.7244 29.4792ZM71.1366 29.8943C70.9701 30.1019 70.8452 30.351 70.762 30.6001C70.6371 30.3926 70.4706 30.185 70.3457 30.0189C70.3874 29.6037 70.429 29.1886 70.5122 28.6903C70.5122 28.5658 70.5539 28.3997 70.5955 28.2336C70.8869 28.3167 71.2199 28.3997 71.5112 28.5243C71.6777 28.5658 71.8026 28.6488 71.9275 28.7319C71.8442 28.9394 71.8442 29.147 71.8442 29.3546C71.5945 29.5207 71.3447 29.6868 71.1366 29.8943ZM84.1234 29.4377C84.2483 29.3961 84.3732 29.2716 84.4564 29.1885C84.3316 29.4377 84.0818 29.6868 83.8321 29.8528C83.7488 29.8943 83.6656 29.9359 83.5823 29.9774C83.5823 29.8943 83.5823 29.8113 83.5407 29.7283C83.4991 29.6868 83.4575 29.6037 83.4575 29.5622C83.7072 29.5207 83.9569 29.5207 84.1234 29.4377ZM85.1641 31.389L85.2057 31.4305C85.2057 31.4305 85.2057 31.4305 85.1641 31.389ZM85.1641 30.0604C84.6229 30.2265 84.0402 30.268 83.4575 30.2265C83.6239 30.185 83.7904 30.1019 83.9569 30.0189C84.2483 29.8528 84.4981 29.6037 84.6229 29.2716C84.6646 29.1885 84.6646 29.1055 84.7062 29.0225L84.9559 29.3131L84.9976 29.3546C84.9976 29.3546 85.2057 29.5622 85.3306 29.6037C85.4971 29.6868 85.6635 29.7283 85.83 29.7698C85.8717 29.7698 85.8717 29.7698 85.8717 29.7698C85.6219 29.9359 85.4138 30.0189 85.1641 30.0604Z" fill="white"/>
</svg>
