<svg width="123" height="71" viewBox="0 0 123 71" fill="none" xmlns="http://www.w3.org/2000/svg">
<path d="M0 55.898H0.452352C0.457139 56.3528 0.552875 56.7621 0.73956 57.1259C0.931032 57.4849 1.1967 57.7721 1.53656 57.9875C1.88121 58.2029 2.2833 58.3202 2.74283 58.3393H2.85772C3.09227 58.3393 3.32204 58.301 3.54702 58.2244C3.76721 58.1431 3.96347 58.0186 4.13579 57.8511C4.36556 57.6261 4.53788 57.3604 4.65277 57.0541C4.77244 56.7477 4.85142 56.4366 4.88971 56.1206C4.92801 55.8478 4.94715 55.5725 4.94715 55.2949L4.95433 48.3445H6.72784V55.3165C6.72784 55.6707 6.68716 56.0153 6.60578 56.3504C6.52919 56.6855 6.40473 57.0014 6.23241 57.2982C6.06008 57.5902 5.8375 57.8535 5.56465 58.088C5.23436 58.3561 4.86817 58.5523 4.46608 58.6768C4.06878 58.8012 3.65951 58.8659 3.23827 58.8706H3.1162C2.99175 58.8706 2.86729 58.8659 2.74283 58.8563C2.20193 58.8084 1.72564 58.6552 1.31398 58.3968C0.902311 58.1335 0.581596 57.7888 0.35183 57.3628C0.122063 56.9368 0.0047868 56.4485 0 55.898Z" fill="white"/>
<path d="M11.517 50.3837L9.5353 54.6415H13.4988L11.517 50.3837ZM9.31989 55.0939L7.66845 58.6409H7.16583L11.9622 48.3517H12.4648L17.2612 58.6409H15.3656L13.7142 55.0939H9.31989Z" fill="white"/>
<path d="M18.5536 58.6409V48.3517H23.4505C23.9866 48.3517 24.4749 48.4833 24.9153 48.7466C25.3557 49.0098 25.7075 49.3617 25.9708 49.8021C26.234 50.2424 26.3657 50.7307 26.3657 51.2668C26.3657 51.8029 26.234 52.2912 25.9708 52.7316C25.7075 53.172 25.3557 53.5238 24.9153 53.7871C24.4749 54.0503 23.9866 54.182 23.4505 54.182L26.696 58.6409H24.5706L21.3252 54.182H20.2697V58.6409H18.5536ZM20.2697 53.7296H22.194C22.8737 53.7296 23.4529 53.4879 23.9316 53.0044C24.4151 52.521 24.6568 51.9418 24.6568 51.2668C24.6568 50.5871 24.4151 50.0079 23.9316 49.5292C23.4529 49.0457 22.8737 48.804 22.194 48.804H20.2697V53.7296Z" fill="white"/>
<path d="M37.2652 53.4999C37.2652 54.4429 37.0331 55.3045 36.5687 56.0847C36.1044 56.8602 35.4821 57.4801 34.7019 57.9444C33.9264 58.4087 33.0648 58.6409 32.117 58.6409H27.9884V48.3517H32.117C33.0648 48.3517 33.9264 48.5838 34.7019 49.0481C35.4821 49.5125 36.1044 50.1347 36.5687 50.915C37.0331 51.6905 37.2652 52.5521 37.2652 53.4999ZM29.7045 58.1813H31.4349C32.105 58.1813 32.6962 58.0545 33.2084 57.8008C33.7206 57.5471 34.149 57.2024 34.4937 56.7669C34.8431 56.3313 35.1064 55.831 35.2835 55.2662C35.4606 54.7013 35.5491 54.1102 35.5491 53.4927C35.5491 52.6311 35.384 51.846 35.0537 51.1376C34.7282 50.4291 34.2591 49.8643 33.6464 49.4431C33.0337 49.017 32.2965 48.804 31.4349 48.804H29.7045V58.1813Z" fill="white"/>
<path d="M38.7013 58.6409V48.3517H40.4173V58.6409H38.7013Z" fill="white"/>
<path d="M42.6504 48.3517L50.5629 56.2571V48.3517H51.0153V58.6409H50.5127L42.6073 50.7283V58.6409H42.1477V48.3517H42.6504Z" fill="white"/>
<path d="M65.6126 53.4999C65.6126 54.4429 65.3805 55.3045 64.9161 56.0847C64.4518 56.8602 63.8295 57.4801 63.0493 57.9444C62.2738 58.4087 61.4122 58.6409 60.4644 58.6409H56.3358V48.3517H60.4644C61.4122 48.3517 62.2738 48.5838 63.0493 49.0481C63.8295 49.5125 64.4518 50.1347 64.9161 50.915C65.3805 51.6905 65.6126 52.5521 65.6126 53.4999ZM58.0519 58.1813H59.7823C60.4525 58.1813 61.0436 58.0545 61.5558 57.8008C62.068 57.5471 62.4964 57.2024 62.8411 56.7669C63.1905 56.3313 63.4538 55.831 63.6309 55.2662C63.808 54.7013 63.8966 54.1102 63.8966 53.4927C63.8966 52.6311 63.7314 51.846 63.4011 51.1376C63.0756 50.4291 62.6065 49.8643 61.9938 49.4431C61.3811 49.017 60.6439 48.804 59.7823 48.804H58.0519V58.1813Z" fill="white"/>
<path d="M67.0487 48.3517H73.9129V48.804H68.7647V52.8034H72.1897V53.2629H68.7647V58.1813H73.9129V58.6409H67.0487V48.3517Z" fill="white"/>
<path d="M78.9391 58.6409V48.3517H80.6551V54.1389L86.4496 48.3517H87.0958L83.0246 52.4157L87.5553 58.6409H85.43L81.7968 53.6435L80.6551 54.7851V58.6409H78.9391Z" fill="white"/>
<path d="M88.9483 58.6409V51.8125H90.5494V58.6409H88.9483ZM89.7524 48.3445C90.0205 48.3445 90.2479 48.4402 90.4346 48.6317C90.626 48.8184 90.7218 49.0457 90.7218 49.3138C90.7218 49.5867 90.626 49.8188 90.4346 50.0103C90.2479 50.197 90.0205 50.2903 89.7524 50.2903C89.4796 50.2903 89.2474 50.197 89.056 50.0103C88.8693 49.8188 88.7759 49.5867 88.7759 49.3138C88.7759 49.0457 88.8693 48.8184 89.056 48.6317C89.2474 48.4402 89.4796 48.3445 89.7524 48.3445Z" fill="white"/>
<path d="M96.1572 50.3837L94.1754 54.6415H98.1389L96.1572 50.3837ZM93.96 55.0939L92.3086 58.6409H91.806L96.6023 48.3517H97.105L101.901 58.6409H100.006L98.3543 55.0939H93.96Z" fill="white"/>
<path d="M103.194 58.6409V48.3517H108.091C108.627 48.3517 109.115 48.4833 109.555 48.7466C109.996 49.0098 110.348 49.3617 110.611 49.8021C110.874 50.2424 111.006 50.7307 111.006 51.2668C111.006 51.8029 110.874 52.2912 110.611 52.7316C110.348 53.172 109.996 53.5238 109.555 53.7871C109.115 54.0503 108.627 54.182 108.091 54.182L111.336 58.6409H109.211L105.965 54.182H104.91V58.6409H103.194ZM104.91 53.7296H106.834C107.514 53.7296 108.093 53.4879 108.572 53.0044C109.055 52.521 109.297 51.9418 109.297 51.2668C109.297 50.5871 109.055 50.0079 108.572 49.5292C108.093 49.0457 107.514 48.804 106.834 48.804H104.91V53.7296Z" fill="white"/>
<path d="M116.693 50.3837L114.711 54.6415H118.674L116.693 50.3837ZM114.495 55.0939L112.844 58.6409H112.341L117.138 48.3517H117.64L122.437 58.6409H120.541L118.89 55.0939H114.495Z" fill="white"/>
<path d="M26.2414 66.9655V67.1336H24.8058V70.7894H24.1681V67.1336H22.7324V66.9655H26.2414Z" fill="white"/>
<path d="M26.6711 70.7894V66.9655H27.3088V68.7934H29.2221V66.9655H29.8599V70.7894H29.2221V68.9615H27.3088V70.7894H26.6711Z" fill="white"/>
<path d="M30.503 66.9655H33.054V67.1336H31.1407V68.6199H32.4136V68.7907H31.1407V70.6186H33.054V70.7894H30.503V66.9655Z" fill="white"/>
<path d="M35.5597 70.6186H37.473V70.7894H34.9219V66.9655H35.5597V70.6186Z" fill="white"/>
<path d="M38.0067 70.7894V66.9655H38.6444V70.7894H38.0067Z" fill="white"/>
<path d="M39.2875 66.9655H41.8359V67.1336H39.9253V68.6199H41.1982V68.7907H39.9253V70.7894H39.2875V66.9655Z" fill="white"/>
<path d="M42.3723 66.9655H44.9233V67.1336H43.01V68.6199H44.2829V68.7907H43.01V70.6186H44.9233V70.7894H42.3723V66.9655Z" fill="white"/>
<path d="M45.457 66.9655H48.0054V67.1336H46.0948V68.6199H47.3676V68.7907H46.0948V70.7894H45.457V66.9655Z" fill="white"/>
<path d="M50.0601 66.8774C50.2807 66.8774 50.4906 66.9112 50.6899 66.9788C50.8909 67.0464 51.0741 67.1416 51.2396 67.2644C51.4068 67.3853 51.5518 67.5294 51.6745 67.6967C51.7973 67.8621 51.8924 68.0453 51.96 68.2464C52.0276 68.4456 52.0614 68.6555 52.0614 68.8761C52.0614 69.0967 52.0276 69.3075 51.96 69.5085C51.8924 69.7078 51.7973 69.891 51.6745 70.0582C51.5518 70.2237 51.4068 70.3678 51.2396 70.4905C51.0741 70.6133 50.8909 70.7085 50.6899 70.7761C50.4906 70.8419 50.2807 70.8748 50.0601 70.8748C49.8395 70.8748 49.6287 70.8419 49.4277 70.7761C49.2284 70.7085 49.0452 70.6133 48.878 70.4905C48.7125 70.3678 48.5684 70.2237 48.4457 70.0582C48.3247 69.891 48.2304 69.7078 48.1628 69.5085C48.0952 69.3075 48.0614 69.0967 48.0614 68.8761C48.0614 68.6555 48.0952 68.4456 48.1628 68.2464C48.2304 68.0453 48.3247 67.8621 48.4457 67.6967C48.5684 67.5294 48.7125 67.3853 48.878 67.2644C49.0452 67.1416 49.2284 67.0464 49.4277 66.9788C49.6287 66.9112 49.8395 66.8774 50.0601 66.8774ZM50.0601 67.0456C49.9765 67.0456 49.8929 67.0562 49.8093 67.0776C49.642 67.1238 49.4926 67.203 49.361 67.3151C49.2311 67.4271 49.1217 67.5561 49.0327 67.702C48.926 67.8781 48.8468 68.0676 48.7952 68.2704C48.7454 68.4714 48.7205 68.6733 48.7205 68.8761C48.7205 69.0789 48.7454 69.2817 48.7952 69.4845C48.8468 69.6855 48.926 69.8741 49.0327 70.0502C49.1217 70.1961 49.2311 70.3251 49.361 70.4372C49.4926 70.5492 49.642 70.6284 49.8093 70.6747C49.8929 70.696 49.9765 70.7067 50.0601 70.7067C50.1455 70.7067 50.2291 70.696 50.3109 70.6747C50.4782 70.6284 50.6267 70.5492 50.7566 70.4372C50.8882 70.3251 50.9985 70.1961 51.0875 70.0502C51.1942 69.8741 51.2725 69.6855 51.3223 69.4845C51.3739 69.2817 51.3997 69.0789 51.3997 68.8761C51.3997 68.6733 51.3739 68.4714 51.3223 68.2704C51.2725 68.0676 51.1942 67.8781 51.0875 67.702C50.9985 67.5561 50.8882 67.4271 50.7566 67.3151C50.6267 67.203 50.4782 67.1238 50.3109 67.0776C50.2291 67.0562 50.1455 67.0456 50.0601 67.0456Z" fill="white"/>
<path d="M52.5444 70.7894V66.9655H54.3643C54.5636 66.9655 54.745 67.0144 54.9087 67.1123C55.0724 67.2101 55.2031 67.3409 55.3009 67.5045C55.3988 67.6682 55.4477 67.8496 55.4477 68.0489C55.4477 68.2481 55.3988 68.4296 55.3009 68.5933C55.2031 68.7569 55.0724 68.8877 54.9087 68.9855C54.745 69.0834 54.5636 69.1323 54.3643 69.1323L55.5705 70.7894H54.7806L53.5745 69.1323H53.1822V70.7894H52.5444ZM53.1822 68.9642H53.8973C54.15 68.9642 54.3652 68.8743 54.5431 68.6947C54.7228 68.515 54.8126 68.2997 54.8126 68.0489C54.8126 67.7963 54.7228 67.581 54.5431 67.4031C54.3652 67.2235 54.15 67.1336 53.8973 67.1336H53.1822V68.9642Z" fill="white"/>
<path d="M59.1195 67.5552C58.9719 67.3969 58.8029 67.2733 58.6125 67.1843C58.4222 67.0936 58.2194 67.0482 58.0041 67.0482C57.8013 67.0482 57.6056 67.09 57.417 67.1736C57.2623 67.243 57.1226 67.3346 56.9981 67.4485C56.8736 67.5606 56.7668 67.6887 56.6779 67.8327C56.5818 67.9911 56.5098 68.1592 56.4617 68.3371C56.4137 68.5132 56.3897 68.6929 56.3897 68.8761C56.3897 69.0594 56.4137 69.2399 56.4617 69.4178C56.5098 69.5939 56.5818 69.7612 56.6779 69.9195C56.7668 70.0636 56.8736 70.1926 56.9981 70.3064C57.1226 70.4185 57.2623 70.5092 57.417 70.5786C57.6056 70.6622 57.8013 70.704 58.0041 70.704C58.2194 70.704 58.4222 70.6595 58.6125 70.5706C58.8029 70.4799 58.9719 70.3553 59.1195 70.197L59.2396 70.3198C59.0421 70.5012 58.8198 70.6391 58.5725 70.7334C58.327 70.8276 58.0708 70.8748 57.804 70.8748C57.4677 70.8748 57.1502 70.801 56.8513 70.6533C56.5525 70.5039 56.3016 70.2913 56.0988 70.0155C55.8533 69.6669 55.7306 69.2871 55.7306 68.8761C55.7306 68.4652 55.8533 68.0854 56.0988 67.7367C56.3016 67.4609 56.5525 67.2492 56.8513 67.1016C57.1502 66.9522 57.4677 66.8774 57.804 66.8774C58.0708 66.8774 58.327 66.9246 58.5725 67.0189C58.8198 67.1132 59.0421 67.251 59.2396 67.4325L59.1195 67.5552Z" fill="white"/>
<path d="M59.776 66.9655H62.327V67.1336H60.4137V68.6199H61.6866V68.7907H60.4137V70.6186H62.327V70.7894H59.776V66.9655Z" fill="white"/>
<path d="M65.7053 67.7207L64.9688 69.3031H66.4418L65.7053 67.7207ZM64.8887 69.4712L64.275 70.7894H64.0882L65.8707 66.9655H66.0575L67.84 70.7894H67.1356L66.5218 69.4712H64.8887Z" fill="white"/>
<path d="M71.8214 68.8788C71.8214 69.2292 71.7351 69.5495 71.5625 69.8394C71.39 70.1276 71.1587 70.358 70.8687 70.5306C70.5805 70.7031 70.2603 70.7894 69.9081 70.7894H68.3737V66.9655H69.9081C70.2603 66.9655 70.5805 67.0518 70.8687 67.2243C71.1587 67.3969 71.39 67.6282 71.5625 67.9181C71.7351 68.2063 71.8214 68.5265 71.8214 68.8788ZM69.0115 70.6186H69.6546C69.9036 70.6186 70.1233 70.5715 70.3137 70.4772C70.504 70.3829 70.6633 70.2548 70.7913 70.0929C70.9212 69.931 71.0191 69.7451 71.0849 69.5352C71.1507 69.3253 71.1836 69.1056 71.1836 68.8761C71.1836 68.5559 71.1222 68.2642 70.9995 68.0009C70.8785 67.7376 70.7042 67.5277 70.4765 67.3711C70.2488 67.2128 69.9748 67.1336 69.6546 67.1336H69.0115V70.6186Z" fill="white"/>
<path d="M74.247 66.8774C74.4676 66.8774 74.6775 66.9112 74.8768 66.9788C75.0778 67.0464 75.261 67.1416 75.4265 67.2644C75.5937 67.3853 75.7387 67.5294 75.8614 67.6967C75.9842 67.8621 76.0793 68.0453 76.1469 68.2464C76.2145 68.4456 76.2483 68.6555 76.2483 68.8761C76.2483 69.0967 76.2145 69.3075 76.1469 69.5085C76.0793 69.7078 75.9842 69.891 75.8614 70.0582C75.7387 70.2237 75.5937 70.3678 75.4265 70.4905C75.261 70.6133 75.0778 70.7085 74.8768 70.7761C74.6775 70.8419 74.4676 70.8748 74.247 70.8748C74.0264 70.8748 73.8156 70.8419 73.6146 70.7761C73.4153 70.7085 73.2321 70.6133 73.0649 70.4905C72.8994 70.3678 72.7553 70.2237 72.6326 70.0582C72.5116 69.891 72.4173 69.7078 72.3497 69.5085C72.2821 69.3075 72.2483 69.0967 72.2483 68.8761C72.2483 68.6555 72.2821 68.4456 72.3497 68.2464C72.4173 68.0453 72.5116 67.8621 72.6326 67.6967C72.7553 67.5294 72.8994 67.3853 73.0649 67.2644C73.2321 67.1416 73.4153 67.0464 73.6146 66.9788C73.8156 66.9112 74.0264 66.8774 74.247 66.8774ZM74.247 67.0456C74.1634 67.0456 74.0798 67.0562 73.9962 67.0776C73.8289 67.1238 73.6795 67.203 73.5479 67.3151C73.418 67.4271 73.3086 67.5561 73.2196 67.702C73.1129 67.8781 73.0337 68.0676 72.9821 68.2704C72.9323 68.4714 72.9074 68.6733 72.9074 68.8761C72.9074 69.0789 72.9323 69.2817 72.9821 69.4845C73.0337 69.6855 73.1129 69.8741 73.2196 70.0502C73.3086 70.1961 73.418 70.3251 73.5479 70.4372C73.6795 70.5492 73.8289 70.6284 73.9962 70.6747C74.0798 70.696 74.1634 70.7067 74.247 70.7067C74.3324 70.7067 74.416 70.696 74.4978 70.6747C74.6651 70.6284 74.8136 70.5492 74.9435 70.4372C75.0751 70.3251 75.1854 70.1961 75.2744 70.0502C75.3811 69.8741 75.4594 69.6855 75.5092 69.4845C75.5608 69.2817 75.5866 69.0789 75.5866 68.8761C75.5866 68.6733 75.5608 68.4714 75.5092 68.2704C75.4594 68.0676 75.3811 67.8781 75.2744 67.702C75.1854 67.5561 75.0751 67.4271 74.9435 67.3151C74.8136 67.203 74.6651 67.1238 74.4978 67.0776C74.416 67.0562 74.3324 67.0456 74.247 67.0456Z" fill="white"/>
<path d="M76.7313 70.7894V66.9655H78.5512C78.7505 66.9655 78.9319 67.0144 79.0956 67.1123C79.2593 67.2101 79.39 67.3409 79.4878 67.5045C79.5857 67.6682 79.6346 67.8496 79.6346 68.0489C79.6346 68.2481 79.5857 68.4296 79.4878 68.5933C79.39 68.7569 79.2593 68.8877 79.0956 68.9855C78.9319 69.0834 78.7505 69.1323 78.5512 69.1323L79.7574 70.7894H78.9675L77.7614 69.1323H77.3691V70.7894H76.7313ZM77.3691 68.9642H78.0842C78.3369 68.9642 78.5521 68.8743 78.73 68.6947C78.9097 68.515 78.9995 68.2997 78.9995 68.0489C78.9995 67.7963 78.9097 67.581 78.73 67.4031C78.5521 67.2235 78.3369 67.1336 78.0842 67.1336H77.3691V68.9642Z" fill="white"/>
<path d="M80.4245 66.9655L83.3651 69.9035V66.9655H83.5332V70.7894H83.3464L80.4085 67.8488V70.7894H80.2377V66.9655H80.4245Z" fill="white"/>
<path d="M86.7621 67.4992C86.6678 67.4245 86.569 67.3595 86.4659 67.3044C86.3289 67.2315 86.1857 67.1772 86.0362 67.1416C85.8904 67.1096 85.7427 67.0936 85.5933 67.0936H85.5292C85.4385 67.0936 85.3478 67.1043 85.2571 67.1256C85.1681 67.147 85.0836 67.1808 85.0036 67.227C84.9413 67.2626 84.8853 67.3071 84.8354 67.3604C84.7874 67.4138 84.7527 67.4761 84.7314 67.5472C84.7207 67.5917 84.7154 67.6353 84.7154 67.678C84.7154 67.6993 84.718 67.7313 84.7234 67.774C84.7305 67.8167 84.75 67.8674 84.7821 67.9261C84.8283 68.008 84.887 68.0827 84.9582 68.1503C85.0293 68.2179 85.1041 68.2766 85.1823 68.3264C85.3318 68.4207 85.4848 68.5088 85.6413 68.5906C85.6627 68.603 85.6831 68.6146 85.7027 68.6253C85.8165 68.6858 85.9286 68.748 86.0389 68.8121C86.1492 68.8743 86.256 68.9428 86.3591 69.0175C86.4427 69.078 86.521 69.1465 86.594 69.223C86.6669 69.2977 86.7283 69.3805 86.7781 69.4712C86.8492 69.5975 86.8848 69.7318 86.8848 69.8741C86.8848 69.8919 86.8839 69.9106 86.8821 69.9302C86.8733 70.0476 86.8412 70.1588 86.7861 70.2637C86.7345 70.3616 86.6678 70.4478 86.5859 70.5226C86.5041 70.5955 86.4134 70.656 86.3138 70.704C86.1981 70.7627 86.0754 70.8054 85.9455 70.8321C85.8174 70.8588 85.6885 70.873 85.5586 70.8748H85.4972C85.3691 70.8748 85.2419 70.8659 85.1156 70.8481C84.9733 70.8285 84.8345 70.7947 84.6993 70.7467C84.4645 70.6631 84.2546 70.5386 84.0696 70.3731L84.1897 70.253C84.2822 70.3278 84.3809 70.3927 84.4859 70.4478C84.6211 70.5208 84.7643 70.575 84.9155 70.6106C85.0685 70.6444 85.2233 70.6613 85.3798 70.6613H85.4225C85.5132 70.6595 85.6031 70.648 85.692 70.6266C85.7827 70.6053 85.8681 70.5715 85.9482 70.5252C86.0105 70.4896 86.0656 70.4452 86.1136 70.3918C86.1617 70.3384 86.1972 70.2762 86.2204 70.205C86.2328 70.1641 86.2391 70.1241 86.2391 70.0849C86.2391 70.06 86.2355 70.0253 86.2284 69.9809C86.2213 69.9364 86.2017 69.8848 86.1697 69.8261C86.1234 69.7443 86.0647 69.6704 85.9936 69.6046C85.9224 69.537 85.8468 69.4774 85.7667 69.4258C85.6191 69.3315 85.467 69.2435 85.3104 69.1616C85.2891 69.1492 85.2668 69.1367 85.2437 69.1243C85.1316 69.0656 85.0205 69.0051 84.9102 68.9428C84.8016 68.8788 84.6958 68.8094 84.5926 68.7347C84.509 68.6742 84.4307 68.6066 84.3578 68.5319C84.2848 68.4554 84.2235 68.3718 84.1737 68.2811C84.1043 68.1547 84.0696 68.0204 84.0696 67.8781C84.0696 67.8603 84.0696 67.8416 84.0696 67.8221C84.0785 67.7047 84.1096 67.5935 84.163 67.4885C84.2164 67.3907 84.2831 67.3053 84.3631 67.2323C84.445 67.1576 84.5357 67.0963 84.6353 67.0482C84.7527 66.9895 84.8755 66.9468 85.0036 66.9201C85.1316 66.8935 85.2615 66.8792 85.3931 66.8774H85.4572C85.5835 66.8774 85.7089 66.8863 85.8334 66.9041C85.9758 66.9237 86.1154 66.9575 86.2524 67.0055C86.4854 67.0891 86.6954 67.2137 86.8821 67.3791L86.7621 67.4992Z" fill="white"/>
<path d="M90.0122 70.7894V69.1643L88.5419 66.9655H89.3078L90.61 68.9108L91.9202 66.9655H92.1177L90.65 69.1643V70.7894H90.0122Z" fill="white"/>
<path d="M93.9562 66.8774C94.1768 66.8774 94.3867 66.9112 94.586 66.9788C94.787 67.0464 94.9702 67.1416 95.1357 67.2644C95.3029 67.3853 95.4479 67.5294 95.5706 67.6967C95.6934 67.8621 95.7886 68.0453 95.8562 68.2464C95.9238 68.4456 95.9576 68.6555 95.9576 68.8761C95.9576 69.0967 95.9238 69.3075 95.8562 69.5085C95.7886 69.7078 95.6934 69.891 95.5706 70.0582C95.4479 70.2237 95.3029 70.3678 95.1357 70.4905C94.9702 70.6133 94.787 70.7085 94.586 70.7761C94.3867 70.8419 94.1768 70.8748 93.9562 70.8748C93.7356 70.8748 93.5248 70.8419 93.3238 70.7761C93.1246 70.7085 92.9413 70.6133 92.7741 70.4905C92.6087 70.3678 92.4646 70.2237 92.3418 70.0582C92.2208 69.891 92.1266 69.7078 92.059 69.5085C91.9913 69.3075 91.9576 69.0967 91.9576 68.8761C91.9576 68.6555 91.9913 68.4456 92.059 68.2464C92.1266 68.0453 92.2208 67.8621 92.3418 67.6967C92.4646 67.5294 92.6087 67.3853 92.7741 67.2644C92.9413 67.1416 93.1246 67.0464 93.3238 66.9788C93.5248 66.9112 93.7356 66.8774 93.9562 66.8774ZM93.9562 67.0456C93.8726 67.0456 93.789 67.0562 93.7054 67.0776C93.5382 67.1238 93.3887 67.203 93.2571 67.3151C93.1272 67.4271 93.0178 67.5561 92.9289 67.702C92.8221 67.8781 92.743 68.0676 92.6914 68.2704C92.6416 68.4714 92.6167 68.6733 92.6167 68.8761C92.6167 69.0789 92.6416 69.2817 92.6914 69.4845C92.743 69.6855 92.8221 69.8741 92.9289 70.0502C93.0178 70.1961 93.1272 70.3251 93.2571 70.4372C93.3887 70.5492 93.5382 70.6284 93.7054 70.6747C93.789 70.696 93.8726 70.7067 93.9562 70.7067C94.0416 70.7067 94.1252 70.696 94.2071 70.6747C94.3743 70.6284 94.5228 70.5492 94.6527 70.4372C94.7843 70.3251 94.8946 70.1961 94.9836 70.0502C95.0903 69.8741 95.1686 69.6855 95.2184 69.4845C95.27 69.2817 95.2958 69.0789 95.2958 68.8761C95.2958 68.6733 95.27 68.4714 95.2184 68.2704C95.1686 68.0676 95.0903 67.8781 94.9836 67.702C94.8946 67.5561 94.7843 67.4271 94.6527 67.3151C94.5228 67.203 94.3743 67.1238 94.2071 67.0776C94.1252 67.0562 94.0416 67.0456 93.9562 67.0456Z" fill="white"/>
<path d="M96.4939 66.9628H97.153V69.4605C97.153 69.5726 97.161 69.6864 97.1771 69.8021C97.1948 69.9177 97.226 70.0289 97.2705 70.1356C97.3149 70.2406 97.3763 70.3349 97.4546 70.4185C97.5613 70.5252 97.6832 70.5973 97.8202 70.6346C97.9322 70.6667 98.047 70.6827 98.1644 70.6827C98.1911 70.6827 98.2178 70.6818 98.2444 70.68C98.5166 70.6675 98.7559 70.5715 98.9623 70.3918C99.1064 70.2619 99.2158 70.1081 99.2905 69.9302C99.367 69.7523 99.4052 69.5664 99.4052 69.3724V66.9628H99.576V69.3671C99.576 69.5859 99.5351 69.795 99.4533 69.9942C99.3732 70.1934 99.2513 70.3678 99.0877 70.5172C98.9685 70.6222 98.8368 70.704 98.6927 70.7627C98.5504 70.8196 98.401 70.8543 98.2444 70.8668C98.1786 70.8721 98.1119 70.8748 98.0443 70.8748C97.9322 70.8748 97.8024 70.8641 97.6547 70.8428C97.5071 70.8232 97.3532 70.7734 97.1931 70.6933C97.0899 70.64 96.9947 70.575 96.9075 70.4985C96.8097 70.4078 96.7296 70.3073 96.6674 70.197C96.6069 70.0867 96.5624 69.9693 96.534 69.8448C96.5073 69.7202 96.4939 69.5922 96.4939 69.4605V66.9628Z" fill="white"/>
<path d="M71.7123 18.4782C74.6547 16.9717 79.5979 13.4644 79.5979 6.92049V6.44971L79.1271 6.37909C78.9388 6.35555 76.1847 5.97893 73.1246 6.42617C73.36 4.68428 73.4071 2.73053 73.3129 0.517856L73.2894 0H72.7715C72.7009 0 64.6505 0.18831 61.1197 8.89778C61.0726 9.01547 60.9549 9.03901 60.9078 9.03901C60.8607 9.03901 60.743 9.01547 60.696 8.89778C57.1651 0.211849 49.1147 0 49.0441 0H48.5262L48.5027 0.517856C48.385 2.73053 48.4556 4.68428 48.691 6.42617C45.6309 5.97893 42.8769 6.35555 42.6886 6.37909L42.2178 6.44971V6.92049C42.2178 13.4879 47.161 16.9717 50.1034 18.4782C50.1975 18.5253 50.2211 18.6194 50.2211 18.6665C50.2211 18.7136 50.1975 18.8077 50.1034 18.8548C47.7259 20.0788 42.2178 23.6097 42.2178 30.4125V30.8833L42.6886 30.9539C42.8769 30.9775 45.6309 31.3541 48.691 30.9068C48.4556 32.6487 48.4086 34.6025 48.5027 36.8151L48.5262 37.333H49.0441C49.1383 37.333 57.1651 37.1447 60.696 28.4352C60.743 28.3175 60.8372 28.294 60.9078 28.294C60.9549 28.294 61.0726 28.3175 61.1197 28.4352C64.6505 37.1212 72.7009 37.333 72.7715 37.333H73.2894L73.3129 36.8151C73.4306 34.6025 73.36 32.6487 73.1246 30.9068C76.1847 31.3541 78.9388 30.9775 79.1271 30.9539L79.5979 30.8833V30.4125C79.5979 26.9993 78.2091 24.4336 76.5378 22.5269C74.8665 20.6438 72.8892 19.4433 71.7123 18.8313C71.6181 18.7842 71.5946 18.69 71.5946 18.643C71.5946 18.5959 71.5946 18.5253 71.7123 18.4782ZM71.2179 19.8199C73.8779 21.1852 78.2561 24.2688 78.4915 29.9417C77.5264 30.0359 75.2902 30.1771 72.9363 29.777C72.4184 27.0464 71.3827 24.975 69.8762 23.6097C68.252 22.1267 66.4866 21.9149 65.5921 21.8914C65.239 21.8914 65.0272 21.9149 64.9801 21.9149L64.8624 21.9384L64.5328 21.9855V22.4563C64.5328 22.7152 64.5328 22.9742 64.5564 23.2095C64.7212 25.3751 65.545 27.1406 67.0515 28.4352C68.4403 29.6357 70.2293 30.3183 71.9947 30.695C72.2537 32.2956 72.3243 34.1317 72.2537 36.2031C70.5118 36.0148 64.9095 34.8849 62.1083 28.0115C61.9671 27.6584 61.7082 27.3995 61.3786 27.2818C61.2374 27.2112 61.0726 27.1877 60.9078 27.1877C60.7431 27.1877 60.5783 27.2112 60.437 27.2818C60.1075 27.3995 59.8486 27.6584 59.7073 28.0115C56.9297 34.8614 51.3039 36.0148 49.562 36.2031C49.4914 34.1552 49.562 32.3192 49.8209 30.695C51.5863 30.3183 53.3753 29.6357 54.7641 28.4352C56.2706 27.117 57.118 25.3751 57.2593 23.2095C57.2828 22.9742 57.2828 22.7152 57.2828 22.4563V21.9855L56.9297 21.962L56.812 21.9384C56.7885 21.9384 56.5531 21.8914 56.2 21.9149C55.3055 21.9149 53.5401 22.1503 51.8923 23.6333C50.3858 24.9985 49.3501 27.07 48.8323 29.8005C46.4784 30.1771 44.2186 30.0359 43.277 29.9653C43.5124 24.2923 47.9142 21.2087 50.5506 19.8435C50.9979 19.6316 51.2568 19.1844 51.2568 18.69C51.2568 18.1957 50.9743 17.7485 50.5506 17.5366C47.9142 16.1714 43.5124 13.0877 43.277 7.41482C44.2421 7.32066 46.4784 7.17942 48.8323 7.57958C49.3501 10.3101 50.3858 12.3816 51.8923 13.7468C52.5279 14.3118 53.1635 14.7119 53.799 14.9709C53.9873 15.0415 54.1521 15.1121 54.3169 15.1592C54.5052 15.2298 54.6935 15.2769 54.8583 15.3004L55.4938 14.3118C55.3055 14.2882 55.1172 14.2412 54.9289 14.1941C54.7641 14.147 54.5758 14.0999 54.3875 14.0293C53.8226 13.8174 53.2105 13.4644 52.6221 12.9465C51.3745 11.8402 50.5035 10.0983 50.0092 7.81498C51.4686 8.16806 52.9045 8.75654 54.0109 9.72164C54.7641 10.3807 55.3055 11.1575 55.6821 12.052C55.7763 12.2639 55.8469 12.4757 55.894 12.7111C55.9646 12.9465 56.0117 13.2054 56.0588 13.4644L56.4589 12.8523H57.0474C57.0003 12.664 56.9533 12.4993 56.9062 12.3109C56.8591 12.1226 56.7885 11.9343 56.7179 11.7695C56.2941 10.6632 55.6351 9.6981 54.717 8.89778C53.3282 7.69728 51.5393 7.01465 49.7738 6.63802C49.5149 5.01382 49.4443 3.17778 49.5149 1.12987C51.2568 1.31819 56.8591 2.44806 59.6602 9.32148C59.8721 9.8158 60.3429 10.1453 60.8843 10.1453C61.4257 10.1453 61.8965 9.8158 62.0848 9.32148C64.8624 2.4716 70.4882 1.31819 72.2301 1.12987C72.3007 3.17778 72.2301 5.01382 71.9712 6.63802C70.2058 7.01465 68.4168 7.69728 67.028 8.89778C66.11 9.6981 65.4509 10.6397 65.0272 11.7695C64.9566 11.9579 64.8859 12.1226 64.8388 12.3109C64.7918 12.4993 64.7447 12.664 64.6976 12.8523H65.239L65.6863 13.5114C65.7333 13.2525 65.7804 13.0171 65.851 12.7817C65.9217 12.5463 65.9923 12.3345 66.0629 12.1226C66.416 11.1811 66.9809 10.3807 67.7342 9.72164C68.8405 8.75654 70.2764 8.16806 71.7358 7.81498C71.2415 10.0747 70.3705 11.8166 69.123 12.923C68.5109 13.4879 67.8754 13.8174 67.3104 14.0293C67.1221 14.0999 66.9338 14.147 66.7691 14.1941C66.5572 14.2412 66.3689 14.2882 66.2041 14.3118L66.8397 15.3004C67.028 15.2533 67.1928 15.2063 67.3811 15.1592C67.5459 15.1121 67.7342 15.0415 67.8989 14.9709C68.5109 14.7119 69.17 14.3353 69.8056 13.7468C71.3121 12.3816 72.3478 10.3101 72.8657 7.57958C75.2196 7.20296 77.4793 7.3442 78.4209 7.41482C78.1855 13.0877 73.7837 16.1714 71.1473 17.5366C70.7001 17.7485 70.4412 18.1957 70.4412 18.69C70.4412 19.1844 70.7707 19.6081 71.2179 19.8199ZM71.7593 29.5416C70.2999 29.1885 68.864 28.6 67.7577 27.6349C66.4395 26.4815 65.7098 24.9279 65.6156 22.9742C66.3454 22.9742 67.8048 23.186 69.1465 24.41C70.3705 25.5399 71.265 27.2583 71.7593 29.5416ZM50.0092 29.5416C50.5035 27.2818 51.3745 25.5399 52.6221 24.4336C53.9873 23.186 55.4467 22.9977 56.1765 22.9742C56.0823 24.9279 55.3526 26.4815 54.0344 27.6349C52.9045 28.6 51.4686 29.1885 50.0092 29.5416Z" fill="white"/>
<path d="M60.8843 14.6883C60.8843 16.289 59.5661 17.6072 57.9655 17.6072C59.5897 17.6072 60.8843 18.9018 60.8843 20.526C60.8843 18.9018 62.179 17.6072 63.8032 17.6072C62.179 17.6072 60.8843 16.3125 60.8843 14.6883ZM60.8843 14.6883C60.8843 16.289 59.5661 17.6072 57.9655 17.6072C59.5897 17.6072 60.8843 18.9018 60.8843 20.526C60.8843 18.9018 62.179 17.6072 63.8032 17.6072C62.179 17.6072 60.8843 16.3125 60.8843 14.6883ZM67.4282 15.1356L66.7926 14.194L65.8511 12.7581L65.5451 12.2874H56.153L55.894 12.6875L54.9289 14.1705L54.3169 15.112L53.0693 17.0187L56.9062 21.9619L57.2358 22.3856L60.8608 27.0464L64.4858 22.3856L64.8153 21.9619L68.6522 17.0187L67.4282 15.1356ZM60.8843 26.1519L53.752 16.9952L54.8818 15.2768L55.5174 14.2882L56.0823 13.4408L56.4825 12.8288H65.2861L65.7334 13.4878L66.2748 14.2882L66.9103 15.2768L68.0637 16.9952L60.8843 26.1519ZM60.8843 14.6883C60.8843 16.289 59.5661 17.6072 57.9655 17.6072C59.5897 17.6072 60.8843 18.9018 60.8843 20.526C60.8843 18.9018 62.179 17.6072 63.8032 17.6072C62.179 17.6072 60.8843 16.3125 60.8843 14.6883Z" fill="white"/>
<path d="M67.9461 14.9237L67.334 14.0057L66.0629 12.0755L65.8275 11.7224H55.847L55.6586 12.0049L54.3875 13.9822L53.7755 14.9002L52.3867 17.0187L56.1765 21.8678L57.2122 23.186L60.39 27.2582L60.8608 27.8702L61.3316 27.2582L64.5094 23.186L65.5451 21.8678L69.3349 17.0187L67.9461 14.9237ZM60.8843 26.1519L53.752 16.9952L54.8819 15.2768L55.5174 14.2882L56.0824 13.4408L56.4825 12.8288H65.2861L65.7334 13.4878L66.2748 14.2882L66.9103 15.2768L68.0638 16.9952L60.8843 26.1519Z" fill="white"/>
<path d="M63.8035 17.6073C62.1793 17.6073 60.8847 18.902 60.8847 20.5262C60.8847 18.902 59.5665 17.6073 57.9658 17.6073C59.59 17.6073 60.8847 16.2891 60.8847 14.6885C60.8847 16.3127 62.1793 17.6073 63.8035 17.6073Z" fill="white"/>
</svg>
