<svg width="181" height="32" viewBox="0 0 181 32" fill="none" xmlns="http://www.w3.org/2000/svg">
<path d="M15.2056 24.3538C14.7393 24.3538 14.3608 24.7435 14.3608 25.2237V30.4431C14.3608 30.9234 14.7393 31.313 15.2056 31.313C15.6719 31.313 16.0504 30.9234 16.0504 30.4431V25.2237C16.0504 24.7435 15.6719 24.3538 15.2056 24.3538Z" fill="white"/>
<path d="M15.2055 6.95934C15.6719 6.95934 16.0503 6.56961 16.0503 6.08942V0.869916C16.0503 0.389723 15.6719 0 15.2055 0C14.7392 0 14.3608 0.389723 14.3608 0.869916V6.08942C14.3608 6.56961 14.7392 6.95934 15.2055 6.95934Z" fill="white"/>
<path d="M29.566 14.7861H24.4976C24.0312 14.7861 23.6528 15.1758 23.6528 15.6559C23.6528 16.1361 24.0312 16.5259 24.4976 16.5259H29.566C30.0323 16.5259 30.4108 16.1361 30.4108 15.6559C30.4108 15.1758 30.0323 14.7861 29.566 14.7861Z" fill="white"/>
<path d="M6.75802 15.6563C6.75802 15.1761 6.37958 14.7864 5.91327 14.7864H0.84475C0.37845 14.7864 0 15.1761 0 15.6563C0 16.1365 0.37845 16.5263 0.84475 16.5263H5.91327C6.37958 16.5263 6.75802 16.1365 6.75802 15.6563Z" fill="white"/>
<path d="M22.9714 22.4214C22.6419 22.0822 22.1063 22.0822 21.7769 22.4214C21.4474 22.7607 21.4474 23.3121 21.7769 23.6514L24.7639 26.7274C25.0934 27.0667 25.629 27.0667 25.9584 26.7274C26.2879 26.3882 26.2879 25.8366 25.9584 25.4974L22.9714 22.4214Z" fill="white"/>
<path d="M21.7769 8.89184C22.1063 9.23111 22.6419 9.23111 22.9714 8.89184L25.9584 5.81582C26.2879 5.47655 26.2879 4.92503 25.9584 4.58575C25.629 4.24648 25.0934 4.24648 24.7639 4.58575L21.7769 7.66178C21.4474 8.00105 21.4474 8.55257 21.7769 8.89184Z" fill="white"/>
<path d="M7.44263 8.89184C7.77209 9.23111 8.30767 9.23111 8.63713 8.89184C8.96657 8.55257 8.96657 8.00105 8.63713 7.66178L5.65007 4.58575C5.32061 4.24648 4.78505 4.24648 4.45559 4.58575C4.12613 4.92503 4.12613 5.47655 4.45559 5.81582L7.44263 8.89184Z" fill="white"/>
<path d="M8.63711 22.4214C8.30766 22.0822 7.77207 22.0822 7.44263 22.4214L4.45559 25.4974C4.12613 25.8366 4.12613 26.3882 4.45559 26.7274C4.78504 27.0667 5.32061 27.0667 5.65007 26.7274L8.63711 23.6514C8.96657 23.3121 8.96657 22.7607 8.63711 22.4214Z" fill="white"/>
<path d="M20.1871 25.769C20.0079 25.3253 19.5147 25.1148 19.0838 25.2975C18.653 25.4802 18.4485 25.99 18.6259 26.4336L19.9185 29.6488C20.0975 30.0924 20.5908 30.303 21.0216 30.1204C21.4524 29.9359 21.657 29.4279 21.4796 28.9842L20.1871 25.769Z" fill="white"/>
<path d="M28.7952 20.511L25.673 19.18C25.2421 18.9957 24.7472 19.2061 24.5698 19.6515C24.3906 20.0953 24.5951 20.6049 25.0276 20.7876L28.1499 22.1187C28.5807 22.3031 29.0756 22.0926 29.253 21.6471C29.4322 21.2035 29.2277 20.6937 28.7952 20.511Z" fill="white"/>
<path d="M24.5688 11.663C24.748 12.1067 25.2412 12.3172 25.6721 12.1345L28.7943 10.8036C29.2251 10.6191 29.4295 10.1111 29.2521 9.66744C29.0747 9.22379 28.5797 9.01327 28.1489 9.19594L25.0267 10.5269C24.5959 10.7113 24.3914 11.2194 24.5688 11.663Z" fill="white"/>
<path d="M19.0848 6.01533C19.5156 6.19976 20.0105 5.98924 20.188 5.54384L21.4805 2.32863C21.6595 1.88497 21.4551 1.3752 21.0226 1.19252C20.5917 1.0081 20.0967 1.21862 19.9193 1.66402L18.6268 4.87923C18.4478 5.32288 18.6522 5.83266 19.0848 6.01533Z" fill="white"/>
<path d="M10.4893 1.66305C10.3102 1.21939 9.81686 1.00887 9.38603 1.19155C8.9552 1.37597 8.75078 1.884 8.92817 2.32766L10.2207 5.54288C10.3997 5.98654 10.8931 6.19705 11.3239 6.01437C11.7547 5.83169 11.9592 5.32191 11.7818 4.87826L10.4893 1.66305Z" fill="white"/>
<path d="M1.61623 10.8018L4.73844 12.1328C5.16927 12.3172 5.66429 12.1067 5.8417 11.6613C6.02078 11.2176 5.81635 10.7079 5.38384 10.5252L2.26163 9.19423C1.83082 9.0098 1.33578 9.22033 1.15839 9.66572C0.980982 10.1111 1.18372 10.6191 1.61623 10.8018Z" fill="white"/>
<path d="M5.84147 19.6514C5.66238 19.2076 5.16903 18.9972 4.73822 19.1798L1.61601 20.5108C1.18518 20.6953 0.980759 21.2033 1.15815 21.6469C1.33725 22.0906 1.83059 22.3012 2.26141 22.1185L5.38362 20.7874C5.81445 20.603 6.01887 20.0951 5.84147 19.6514Z" fill="white"/>
<path d="M11.3238 25.2985C10.893 25.1141 10.398 25.3246 10.2206 25.77L8.92813 28.9852C8.74905 29.4288 8.95347 29.9386 9.38599 30.1213C9.81682 30.3057 10.3118 30.0952 10.4892 29.6499L11.7817 26.4346C11.9608 25.9909 11.7564 25.4811 11.3238 25.2985Z" fill="white"/>
<path d="M16.9376 13.3L13.1024 14.9354C12.8219 15.0554 12.7509 15.4295 12.9638 15.6487L15.2109 17.9628C15.4254 18.1837 15.7887 18.1089 15.9036 17.8201L17.4917 13.8706C17.637 13.5105 17.2857 13.1504 16.9359 13.2982L16.9376 13.3Z" fill="white"/>
<path d="M37.1782 8.94434H41.0963L46.6585 18.3055H46.6959V8.94434H49.5782V22.4155H45.8082L40.0978 12.8261H40.0606V22.4155H37.1782V8.94434Z" fill="white"/>
<path d="M51.3677 8.94434H60.2557V11.684H54.25V14.1955H59.9232V16.9351H54.25V19.6748H60.5881V22.4145H51.3667V8.94434H51.3677Z" fill="white"/>
<path d="M62.3779 8.94434H65.5192L67.6078 17.5825H67.645L70.3803 8.94434H73.0602L75.7764 17.8107H75.8137L78.012 8.94434H80.9317L77.1062 22.4155H74.5372L71.6548 13.0917H71.6175L68.7351 22.4155H66.2588L62.3779 8.94434Z" fill="white"/>
<path d="M95.412 11.8953C95.1287 11.5405 94.7803 11.2677 94.3685 11.0768C93.9552 10.887 93.4777 10.7915 92.9366 10.7915C92.3956 10.7915 91.8931 10.8994 91.4307 11.1152C90.9683 11.331 90.5685 11.6318 90.23 12.0187C89.8915 12.4057 89.6263 12.8652 89.4351 13.3984C89.2432 13.9306 89.1487 14.5084 89.1487 15.1298C89.1487 15.7512 89.2447 16.3446 89.4351 16.8705C89.6263 17.3975 89.887 17.8539 90.221 18.2408C90.5534 18.6278 90.9441 18.9286 91.3944 19.1444C91.844 19.3602 92.3276 19.468 92.8452 19.468C93.4361 19.468 93.9605 19.3415 94.4154 19.0873C94.871 18.8332 95.2466 18.4784 95.5428 18.022L97.9449 19.8674C97.391 20.6662 96.6883 21.2565 95.8382 21.6372C94.9881 22.0179 94.1131 22.2077 93.214 22.2077C92.1908 22.2077 91.2486 22.0428 90.3872 21.7129C89.5243 21.383 88.7793 20.911 88.1513 20.2948C87.5227 19.6797 87.033 18.9338 86.6824 18.0593C86.3311 17.1837 86.1558 16.2076 86.1558 15.1287C86.1558 14.0499 86.3311 13.0737 86.6824 12.1982C87.033 11.3227 87.5227 10.5779 88.1513 9.9627C88.78 9.34754 89.5243 8.87554 90.3872 8.54462C91.2494 8.21474 92.1908 8.0498 93.214 8.0498C93.5834 8.0498 93.9681 8.08507 94.3685 8.15457C94.7683 8.22408 95.1634 8.33508 95.5511 8.48757C95.9387 8.64006 96.312 8.84234 96.6694 9.0965C97.026 9.35065 97.3464 9.66082 97.6305 10.0291L95.4128 11.8943L95.412 11.8953Z" fill="white"/>
<path d="M99.7339 15.1288C99.7339 14.051 99.9092 13.0737 100.261 12.1982C100.612 11.3227 101.102 10.5779 101.73 9.9627C102.359 9.34755 103.103 8.87555 103.965 8.54463C104.828 8.21475 105.77 8.0498 106.793 8.0498C107.815 8.0498 108.757 8.21475 109.62 8.54463C110.482 8.87451 111.228 9.34755 111.855 9.9627C112.484 10.5779 112.974 11.3237 113.324 12.1982C113.675 13.0737 113.851 14.0499 113.851 15.1288C113.851 16.2077 113.676 17.1838 113.324 18.0593C112.972 18.9349 112.483 19.6797 111.855 20.2948C111.227 20.91 110.481 21.383 109.62 21.7129C108.757 22.0428 107.814 22.2077 106.793 22.2077C105.771 22.2077 104.827 22.0428 103.965 21.7129C103.103 21.383 102.357 20.911 101.73 20.2948C101.102 19.6797 100.612 18.9338 100.261 18.0593C99.9092 17.1838 99.7339 16.2077 99.7339 15.1288ZM102.728 15.1288C102.728 15.7636 102.823 16.3435 103.013 16.8694C103.205 17.3964 103.478 17.8529 103.835 18.2398C104.192 18.6268 104.621 18.9276 105.12 19.1434C105.619 19.3591 106.176 19.467 106.793 19.467C107.409 19.467 107.966 19.3591 108.465 19.1434C108.964 18.9276 109.392 18.6268 109.75 18.2398C110.107 17.8529 110.381 17.3964 110.572 16.8694C110.762 16.3435 110.858 15.7626 110.858 15.1288C110.858 14.4949 110.762 13.9296 110.572 13.3974C110.38 12.8642 110.106 12.4046 109.75 12.0177C109.392 11.6308 108.964 11.3299 108.465 11.1142C107.966 10.8984 107.408 10.7905 106.793 10.7905C106.177 10.7905 105.619 10.8984 105.12 11.1142C104.621 11.3299 104.194 11.6308 103.835 12.0177C103.478 12.4046 103.204 12.8642 103.013 13.3974C102.822 13.9296 102.728 14.5073 102.728 15.1288Z" fill="white"/>
<path d="M115.64 8.94434H120.002L123.014 17.735H123.051L126.082 8.94434H130.424V22.4155H127.542V12.0844H127.504L124.067 22.4165H121.867L118.56 12.0844H118.523V22.4165H115.64V8.94434Z" fill="white"/>
<path d="M132.212 8.94434H137.072C137.749 8.94434 138.39 9.00761 138.994 9.13417C139.598 9.26073 140.125 9.47961 140.574 9.79082C141.024 10.102 141.381 10.5201 141.647 11.0471C141.911 11.574 142.043 12.2359 142.043 13.0357C142.043 13.8355 141.92 14.4818 141.674 15.015C141.427 15.5471 141.088 15.9725 140.657 16.2899C140.226 16.6073 139.715 16.8325 139.124 16.9652C138.532 17.098 137.891 17.1654 137.201 17.1654H135.095V22.4165H132.212V8.94434ZM135.095 14.653H137.017C137.276 14.653 137.525 14.6281 137.766 14.5772C138.005 14.5264 138.221 14.4413 138.412 14.32C138.603 14.1996 138.757 14.0347 138.875 13.8251C138.991 13.6156 139.05 13.3531 139.05 13.0357C139.05 12.6934 138.973 12.4174 138.819 12.2079C138.665 11.9983 138.468 11.8365 138.228 11.7224C137.988 11.6083 137.72 11.5357 137.424 11.5035C137.129 11.4724 136.845 11.4558 136.573 11.4558H135.095V14.6519L135.095 14.653Z" fill="white"/>
<path d="M149.488 8.94434H151.871L157.562 22.4155H154.31L153.182 19.5617H148.101L147.011 22.4155H143.833L149.488 8.94434ZM150.595 12.8645L149.007 17.0503H152.203L150.595 12.8645Z" fill="white"/>
<path d="M166.798 11.6837C166.563 11.3797 166.247 11.1546 165.846 11.0084C165.445 10.8631 165.066 10.7895 164.71 10.7895C164.5 10.7895 164.284 10.8154 164.063 10.8652C163.841 10.916 163.631 10.9959 163.434 11.1028C163.237 11.2106 163.077 11.3538 162.954 11.5312C162.83 11.7086 162.769 11.9244 162.769 12.1785C162.769 12.5852 162.917 12.8953 163.213 13.1111C163.509 13.3269 163.881 13.5105 164.331 13.6629C164.78 13.8154 165.264 13.9679 165.782 14.1194C166.299 14.2719 166.782 14.4876 167.232 14.7667C167.682 15.0458 168.054 15.4203 168.35 15.8891C168.646 16.359 168.794 16.9867 168.794 17.773C168.794 18.5593 168.658 19.1745 168.386 19.7326C168.116 20.2907 167.749 20.7533 167.288 21.1216C166.825 21.4898 166.29 21.7627 165.68 21.9401C165.07 22.1175 164.426 22.2067 163.749 22.2067C162.898 22.2067 162.11 22.0739 161.383 21.8073C160.656 21.5407 159.979 21.1102 159.35 20.5137L161.401 18.1921C161.696 18.5988 162.069 18.912 162.519 19.134C162.969 19.356 163.434 19.467 163.915 19.467C164.148 19.467 164.386 19.4379 164.626 19.3809C164.866 19.3239 165.081 19.2377 165.273 19.1236C165.463 19.0096 165.617 18.8643 165.735 18.6859C165.852 18.5085 165.91 18.299 165.91 18.0583C165.91 17.6527 165.759 17.3321 165.458 17.0977C165.156 16.8632 164.777 16.663 164.322 16.4981C163.866 16.3331 163.373 16.1682 162.844 16.0032C162.314 15.8383 161.821 15.6163 161.366 15.3373C160.91 15.0583 160.53 14.6899 160.23 14.2335C159.927 13.7771 159.777 13.1744 159.777 12.4264C159.777 11.6785 159.916 11.0696 160.193 10.5239C160.47 9.97827 160.84 9.52182 161.301 9.15356C161.764 8.78633 162.295 8.5104 162.9 8.32575C163.504 8.14213 164.126 8.0498 164.767 8.0498C165.507 8.0498 166.221 8.15769 166.911 8.37346C167.601 8.58924 168.223 8.95128 168.778 9.45854L166.8 11.6847L166.798 11.6837Z" fill="white"/>
<path d="M178.032 11.6837C177.797 11.3797 177.481 11.1546 177.08 11.0084C176.678 10.8631 176.3 10.7895 175.943 10.7895C175.734 10.7895 175.518 10.8154 175.296 10.8652C175.075 10.916 174.865 10.9959 174.668 11.1028C174.47 11.2106 174.31 11.3538 174.187 11.5312C174.064 11.7086 174.003 11.9244 174.003 12.1785C174.003 12.5852 174.151 12.8953 174.446 13.1111C174.742 13.3269 175.114 13.5105 175.565 13.6629C176.013 13.8154 176.497 13.9679 177.015 14.1194C177.533 14.2719 178.016 14.4876 178.466 14.7667C178.915 15.0458 179.288 15.4203 179.584 15.8891C179.881 16.359 180.027 16.9867 180.027 17.773C180.027 18.5593 179.891 19.1745 179.621 19.7326C179.349 20.2907 178.983 20.7533 178.521 21.1216C178.059 21.4898 177.523 21.7627 176.913 21.9401C176.303 22.1175 175.66 22.2067 174.982 22.2067C174.132 22.2067 173.344 22.0739 172.616 21.8073C171.889 21.5407 171.212 21.1102 170.583 20.5137L172.634 18.1921C172.93 18.5988 173.302 18.912 173.753 19.134C174.202 19.356 174.668 19.467 175.148 19.467C175.382 19.467 175.62 19.4379 175.859 19.3809C176.099 19.3239 176.315 19.2377 176.506 19.1236C176.696 19.0096 176.851 18.8643 176.968 18.6859C177.086 18.5085 177.144 18.299 177.144 18.0583C177.144 17.6527 176.993 17.3321 176.692 17.0977C176.39 16.8632 176.01 16.663 175.555 16.4981C175.099 16.3331 174.606 16.1682 174.077 16.0032C173.547 15.8383 173.054 15.6163 172.599 15.3373C172.143 15.0583 171.765 14.6899 171.463 14.2335C171.161 13.7771 171.01 13.1744 171.01 12.4264C171.01 11.6785 171.149 11.0696 171.427 10.5239C171.704 9.97827 172.074 9.52182 172.534 9.15356C172.997 8.78633 173.529 8.5104 174.133 8.32575C174.737 8.14213 175.36 8.0498 176 8.0498C176.74 8.0498 177.454 8.15769 178.144 8.37346C178.835 8.58924 179.456 8.95128 180.011 9.45854L178.034 11.6847L178.032 11.6837Z" fill="white"/>
</svg>
