<svg width="113" height="226" viewBox="0 0 113 226" fill="none" xmlns="http://www.w3.org/2000/svg">
<g opacity="0.4">
<mask id="mask0_1031_2" style="mask-type:alpha" maskUnits="userSpaceOnUse" x="-1" y="0" width="114" height="226">
<rect x="-0.00012207" y="4.57764e-05" width="112.745" height="225.491" fill="url(#paint0_linear_1031_2)"/>
</mask>
<g mask="url(#mask0_1031_2)">
<path d="M32.7837 31.7643C11.2631 53.0877 0.505725 79.6866 0.511684 111.561C0.504365 117.78 0.955552 123.99 1.86156 130.142C5.35992 106.498 15.6674 86.1854 32.7837 69.2044C54.1314 48.0425 80.7743 37.3777 112.712 37.2103V-0.229889C80.7802 -0.0564303 54.1374 10.6083 32.7837 31.7643Z" fill="#0051E9"/>
<path d="M32.7837 69.2044C15.6674 86.1794 5.35992 106.492 1.86156 130.142C3.87146 143.896 8.41889 157.153 15.2709 169.233C24.8124 186.32 38.8329 200.46 55.812 210.119C72.8926 219.946 91.8593 224.884 112.712 224.931V170.803C97.6581 170.714 84.9222 165.055 74.5046 153.828C73.3126 152.518 72.1742 151.173 71.0896 149.791C62.9546 139.342 58.8513 126.861 58.7798 112.351H112.712L112.712 37.2103C80.7802 37.3837 54.1374 48.0484 32.7837 69.2044Z" fill="#3078FF"/>
</g>
</g>
<defs>
<linearGradient id="paint0_linear_1031_2" x1="56.3726" y1="4.53773e-05" x2="69.7624" y2="191.76" gradientUnits="userSpaceOnUse">
<stop stop-color="#D9D9D9"/>
<stop offset="1" stop-color="#D9D9D9" stop-opacity="0"/>
</linearGradient>
</defs>
</svg>
