<svg width="228" height="24" viewBox="0 0 228 24" fill="none" xmlns="http://www.w3.org/2000/svg">
<path d="M96.6797 17.112C95.653 17.112 94.7944 16.8927 94.1037 16.454C93.413 16.0153 92.8904 15.4133 92.5357 14.648C92.1904 13.8827 92.0177 13.0193 92.0177 12.058C92.0177 11.0873 92.1904 10.2193 92.5357 9.454C92.8904 8.68867 93.413 8.08667 94.1037 7.648C94.7944 7.20933 95.653 6.99 96.6797 6.99C97.7064 6.99 98.5604 7.20933 99.2417 7.648C99.9324 8.08667 100.45 8.68867 100.796 9.454C101.15 10.2193 101.328 11.0873 101.328 12.058C101.328 13.0193 101.15 13.8827 100.796 14.648C100.45 15.4133 99.9324 16.0153 99.2417 16.454C98.5604 16.8927 97.7064 17.112 96.6797 17.112ZM96.6797 16.006C97.4637 16.006 98.1077 15.8287 98.6117 15.474C99.1157 15.11 99.4844 14.6293 99.7177 14.032C99.9604 13.4347 100.082 12.7767 100.082 12.058C100.082 11.5167 100.012 11.008 99.8717 10.532C99.741 10.0467 99.5357 9.622 99.2557 9.258C98.9757 8.894 98.621 8.60933 98.1917 8.404C97.7624 8.19867 97.2584 8.096 96.6797 8.096C95.905 8.096 95.261 8.278 94.7477 8.642C94.2437 9.006 93.8657 9.48667 93.6137 10.084C93.371 10.6813 93.2497 11.3393 93.2497 12.058C93.2497 12.7673 93.371 13.4207 93.6137 14.018C93.8564 14.6153 94.2297 15.096 94.7337 15.46C95.247 15.824 95.8957 16.006 96.6797 16.006ZM103.648 17V10.672H102.444V9.622H103.648V8.838C103.648 8.28733 103.723 7.83933 103.872 7.494C104.031 7.13933 104.278 6.878 104.614 6.71C104.959 6.542 105.412 6.458 105.972 6.458H106.812V7.508H106.098C105.762 7.508 105.501 7.564 105.314 7.676C105.137 7.788 105.011 7.956 104.936 8.18C104.871 8.39467 104.838 8.66067 104.838 8.978V9.622H106.812V10.672H104.838V17H103.648ZM108.775 17V10.672H107.571V9.622H108.775V8.838C108.775 8.28733 108.85 7.83933 108.999 7.494C109.158 7.13933 109.405 6.878 109.741 6.71C110.086 6.542 110.539 6.458 111.099 6.458H111.939V7.508H111.225C110.889 7.508 110.628 7.564 110.441 7.676C110.264 7.788 110.138 7.956 110.063 8.18C109.998 8.39467 109.965 8.66067 109.965 8.978V9.622H111.939V10.672H109.965V17H108.775ZM113.188 17V9.622H114.378V17H113.188ZM113.776 8.53C113.533 8.53 113.337 8.45533 113.188 8.306C113.048 8.15667 112.978 7.96533 112.978 7.732C112.978 7.49867 113.053 7.312 113.202 7.172C113.351 7.02267 113.543 6.948 113.776 6.948C113.991 6.948 114.177 7.02267 114.336 7.172C114.504 7.32133 114.588 7.508 114.588 7.732C114.588 7.96533 114.509 8.15667 114.35 8.306C114.191 8.45533 114 8.53 113.776 8.53ZM119.401 17.084C118.626 17.084 117.982 16.9253 117.469 16.608C116.965 16.2813 116.587 15.8333 116.335 15.264C116.092 14.6947 115.971 14.0507 115.971 13.332C115.971 12.632 116.097 11.9973 116.349 11.428C116.61 10.8493 117.002 10.392 117.525 10.056C118.057 9.71067 118.729 9.538 119.541 9.538C120.045 9.538 120.493 9.622 120.885 9.79C121.286 9.958 121.617 10.2053 121.879 10.532C122.14 10.8493 122.322 11.2507 122.425 11.736H121.207C121.067 11.3253 120.843 11.036 120.535 10.868C120.236 10.6907 119.881 10.602 119.471 10.602C118.911 10.602 118.463 10.7327 118.127 10.994C117.791 11.2553 117.543 11.596 117.385 12.016C117.235 12.4267 117.16 12.8653 117.16 13.332C117.16 13.8173 117.24 14.2653 117.399 14.676C117.557 15.0867 117.805 15.418 118.141 15.67C118.477 15.9127 118.911 16.034 119.443 16.034C119.835 16.034 120.203 15.95 120.549 15.782C120.903 15.614 121.137 15.3153 121.249 14.886H122.481C122.387 15.39 122.187 15.8053 121.879 16.132C121.58 16.4587 121.211 16.7013 120.773 16.86C120.343 17.0093 119.886 17.084 119.401 17.084ZM123.989 17V9.622H125.179V17H123.989ZM124.577 8.53C124.334 8.53 124.138 8.45533 123.989 8.306C123.849 8.15667 123.779 7.96533 123.779 7.732C123.779 7.49867 123.853 7.312 124.003 7.172C124.152 7.02267 124.343 6.948 124.577 6.948C124.791 6.948 124.978 7.02267 125.137 7.172C125.305 7.32133 125.389 7.508 125.389 7.732C125.389 7.96533 125.309 8.15667 125.151 8.306C124.992 8.45533 124.801 8.53 124.577 8.53ZM129.417 17.084C129.081 17.084 128.755 17.042 128.437 16.958C128.129 16.8647 127.849 16.7293 127.597 16.552C127.355 16.3653 127.159 16.1367 127.009 15.866C126.869 15.586 126.799 15.264 126.799 14.9C126.799 14.48 126.874 14.1253 127.023 13.836C127.182 13.5467 127.392 13.318 127.653 13.15C127.915 12.982 128.218 12.8607 128.563 12.786C128.909 12.7113 129.268 12.674 129.641 12.674H131.811C131.811 12.254 131.751 11.89 131.629 11.582C131.517 11.274 131.331 11.036 131.069 10.868C130.808 10.6907 130.463 10.602 130.033 10.602C129.772 10.602 129.529 10.63 129.305 10.686C129.081 10.742 128.89 10.8307 128.731 10.952C128.573 11.0733 128.456 11.2367 128.381 11.442H127.107C127.173 11.106 127.299 10.8213 127.485 10.588C127.681 10.3453 127.915 10.1493 128.185 10C128.465 9.84133 128.764 9.72467 129.081 9.65C129.399 9.57533 129.716 9.538 130.033 9.538C131.097 9.538 131.853 9.85067 132.301 10.476C132.749 11.1013 132.973 11.946 132.973 13.01V17H131.979L131.909 16.062C131.704 16.342 131.457 16.5567 131.167 16.706C130.878 16.8553 130.579 16.9533 130.271 17C129.973 17.056 129.688 17.084 129.417 17.084ZM129.529 16.034C129.996 16.034 130.397 15.9593 130.733 15.81C131.079 15.6513 131.345 15.4227 131.531 15.124C131.718 14.8253 131.811 14.4613 131.811 14.032V13.668H130.509C130.201 13.668 129.898 13.6727 129.599 13.682C129.301 13.6913 129.03 13.7287 128.787 13.794C128.545 13.8593 128.349 13.9713 128.199 14.13C128.059 14.2887 127.989 14.5173 127.989 14.816C127.989 15.096 128.059 15.3247 128.199 15.502C128.349 15.6793 128.54 15.8147 128.773 15.908C129.016 15.992 129.268 16.034 129.529 16.034ZM134.817 17V7.102H136.007V17H134.817ZM140.855 17L144.537 7.102H146.287L149.955 17H148.639L147.855 14.872H142.955L142.171 17H140.855ZM143.361 13.766H147.449L145.405 8.166L143.361 13.766ZM154.112 17.084C153.094 17.084 152.32 16.8133 151.788 16.272C151.265 15.7307 151.004 14.9 151.004 13.78V9.622H152.194V13.724C152.194 14.2093 152.264 14.6247 152.404 14.97C152.544 15.3153 152.754 15.5813 153.034 15.768C153.323 15.9453 153.682 16.034 154.112 16.034C154.56 16.034 154.928 15.9453 155.218 15.768C155.507 15.5813 155.717 15.3153 155.848 14.97C155.988 14.6247 156.058 14.2093 156.058 13.724V9.622H157.248V13.78C157.248 14.9 156.977 15.7307 156.436 16.272C155.904 16.8133 155.129 17.084 154.112 17.084ZM162.052 17.084C161.315 17.084 160.708 16.9207 160.232 16.594C159.756 16.258 159.401 15.81 159.168 15.25C158.935 14.6807 158.818 14.0413 158.818 13.332C158.818 12.6227 158.935 11.9833 159.168 11.414C159.401 10.8353 159.761 10.378 160.246 10.042C160.731 9.706 161.352 9.538 162.108 9.538C162.397 9.538 162.687 9.57533 162.976 9.65C163.275 9.71533 163.555 9.82267 163.816 9.972C164.077 10.112 164.301 10.3033 164.488 10.546V7.102H165.678V17H164.544L164.488 15.894C164.32 16.174 164.105 16.4027 163.844 16.58C163.592 16.748 163.312 16.874 163.004 16.958C162.696 17.042 162.379 17.084 162.052 17.084ZM162.22 16.034C162.715 16.034 163.13 15.908 163.466 15.656C163.802 15.404 164.059 15.068 164.236 14.648C164.413 14.228 164.502 13.7707 164.502 13.276C164.502 12.7627 164.413 12.3053 164.236 11.904C164.068 11.5027 163.816 11.1853 163.48 10.952C163.144 10.7187 162.719 10.602 162.206 10.602C161.674 10.602 161.245 10.7233 160.918 10.966C160.601 11.2087 160.367 11.54 160.218 11.96C160.078 12.3707 160.008 12.8327 160.008 13.346C160.008 13.7193 160.045 14.0693 160.12 14.396C160.204 14.7133 160.33 14.998 160.498 15.25C160.675 15.4927 160.904 15.684 161.184 15.824C161.464 15.964 161.809 16.034 162.22 16.034ZM167.547 17V9.622H168.737V17H167.547ZM168.135 8.53C167.893 8.53 167.697 8.45533 167.547 8.306C167.407 8.15667 167.337 7.96533 167.337 7.732C167.337 7.49867 167.412 7.312 167.561 7.172C167.711 7.02267 167.902 6.948 168.135 6.948C168.35 6.948 168.537 7.02267 168.695 7.172C168.863 7.32133 168.947 7.508 168.947 7.732C168.947 7.96533 168.868 8.15667 168.709 8.306C168.551 8.45533 168.359 8.53 168.135 8.53ZM173.382 17.084C172.607 17.084 172.061 16.874 171.744 16.454C171.436 16.034 171.282 15.4367 171.282 14.662V10.672H170.078V9.622H171.282V7.41H172.472V9.622H174.74V10.672H172.472V14.508C172.472 14.788 172.495 15.0447 172.542 15.278C172.589 15.502 172.687 15.684 172.836 15.824C172.985 15.9547 173.209 16.0247 173.508 16.034C173.723 16.034 173.909 15.9967 174.068 15.922C174.236 15.8473 174.376 15.7587 174.488 15.656L175.006 16.524C174.847 16.6547 174.679 16.762 174.502 16.846C174.334 16.93 174.157 16.9907 173.97 17.028C173.793 17.0653 173.597 17.084 173.382 17.084ZM180.214 17V7.102H183.644C184.372 7.102 184.997 7.22333 185.52 7.466C186.043 7.69933 186.439 8.05867 186.71 8.544C186.99 9.02933 187.13 9.64533 187.13 10.392C187.13 11.12 186.967 11.736 186.64 12.24C186.323 12.7347 185.884 13.108 185.324 13.36C184.764 13.612 184.12 13.738 183.392 13.738H181.432V17H180.214ZM181.432 12.632H183.336C184.092 12.632 184.703 12.4547 185.17 12.1C185.646 11.736 185.884 11.148 185.884 10.336C185.884 9.62667 185.693 9.09467 185.31 8.74C184.927 8.38533 184.353 8.208 183.588 8.208H181.432V12.632ZM190.845 17.084C190.509 17.084 190.182 17.042 189.865 16.958C189.557 16.8647 189.277 16.7293 189.025 16.552C188.782 16.3653 188.586 16.1367 188.437 15.866C188.297 15.586 188.227 15.264 188.227 14.9C188.227 14.48 188.302 14.1253 188.451 13.836C188.61 13.5467 188.82 13.318 189.081 13.15C189.342 12.982 189.646 12.8607 189.991 12.786C190.336 12.7113 190.696 12.674 191.069 12.674H193.239C193.239 12.254 193.178 11.89 193.057 11.582C192.945 11.274 192.758 11.036 192.497 10.868C192.236 10.6907 191.89 10.602 191.461 10.602C191.2 10.602 190.957 10.63 190.733 10.686C190.509 10.742 190.318 10.8307 190.159 10.952C190 11.0733 189.884 11.2367 189.809 11.442H188.535C188.6 11.106 188.726 10.8213 188.913 10.588C189.109 10.3453 189.342 10.1493 189.613 10C189.893 9.84133 190.192 9.72467 190.509 9.65C190.826 9.57533 191.144 9.538 191.461 9.538C192.525 9.538 193.281 9.85067 193.729 10.476C194.177 11.1013 194.401 11.946 194.401 13.01V17H193.407L193.337 16.062C193.132 16.342 192.884 16.5567 192.595 16.706C192.306 16.8553 192.007 16.9533 191.699 17C191.4 17.056 191.116 17.084 190.845 17.084ZM190.957 16.034C191.424 16.034 191.825 15.9593 192.161 15.81C192.506 15.6513 192.772 15.4227 192.959 15.124C193.146 14.8253 193.239 14.4613 193.239 14.032V13.668H191.937C191.629 13.668 191.326 13.6727 191.027 13.682C190.728 13.6913 190.458 13.7287 190.215 13.794C189.972 13.8593 189.776 13.9713 189.627 14.13C189.487 14.2887 189.417 14.5173 189.417 14.816C189.417 15.096 189.487 15.3247 189.627 15.502C189.776 15.6793 189.968 15.8147 190.201 15.908C190.444 15.992 190.696 16.034 190.957 16.034ZM196.245 17V9.622H197.393L197.449 10.77C197.635 10.4807 197.85 10.2473 198.093 10.07C198.345 9.89267 198.62 9.762 198.919 9.678C199.227 9.58467 199.558 9.538 199.913 9.538C199.978 9.538 200.039 9.538 200.095 9.538C200.16 9.538 200.225 9.538 200.291 9.538V10.658H199.857C199.278 10.658 198.807 10.784 198.443 11.036C198.088 11.2787 197.831 11.61 197.673 12.03C197.514 12.4407 197.435 12.898 197.435 13.402V17H196.245ZM204.887 17C204.327 17 203.874 16.916 203.529 16.748C203.193 16.58 202.946 16.3187 202.787 15.964C202.638 15.6093 202.563 15.1613 202.563 14.62V10.672H201.359V9.622H202.563V7.424H203.753V9.622H205.727V10.672H203.753V14.494C203.753 14.998 203.842 15.3713 204.019 15.614C204.206 15.8473 204.579 15.964 205.139 15.964H205.685V17H204.887ZM207.073 17V9.622H208.221L208.277 10.742C208.445 10.4713 208.659 10.2473 208.921 10.07C209.182 9.89267 209.467 9.762 209.775 9.678C210.092 9.58467 210.4 9.538 210.699 9.538C211.417 9.538 211.977 9.68733 212.379 9.986C212.789 10.2847 213.079 10.6907 213.247 11.204C213.424 11.708 213.513 12.282 213.513 12.926V17H212.323V13.248C212.323 12.9027 212.299 12.5713 212.253 12.254C212.215 11.9367 212.131 11.652 212.001 11.4C211.879 11.148 211.702 10.952 211.469 10.812C211.235 10.6627 210.923 10.588 210.531 10.588C210.045 10.588 209.63 10.7233 209.285 10.994C208.949 11.2647 208.692 11.6287 208.515 12.086C208.347 12.5433 208.263 13.0567 208.263 13.626V17H207.073ZM218.536 17.084C217.752 17.084 217.104 16.9253 216.59 16.608C216.077 16.2813 215.694 15.8333 215.442 15.264C215.19 14.6947 215.064 14.046 215.064 13.318C215.064 12.5807 215.195 11.932 215.456 11.372C215.727 10.8027 216.119 10.3547 216.632 10.028C217.146 9.70133 217.776 9.538 218.522 9.538C219.101 9.538 219.596 9.65 220.006 9.874C220.426 10.0887 220.772 10.378 221.042 10.742C221.313 11.106 221.509 11.5073 221.63 11.946C221.752 12.3753 221.803 12.8093 221.784 13.248C221.775 13.332 221.766 13.416 221.756 13.5C221.756 13.584 221.752 13.668 221.742 13.752H216.268C216.306 14.1813 216.413 14.5687 216.59 14.914C216.768 15.2593 217.02 15.5347 217.346 15.74C217.673 15.936 218.079 16.034 218.564 16.034C218.807 16.034 219.05 16.006 219.292 15.95C219.544 15.8847 219.768 15.7773 219.964 15.628C220.17 15.4787 220.314 15.278 220.398 15.026H221.616C221.504 15.502 221.294 15.894 220.986 16.202C220.678 16.5007 220.31 16.7247 219.88 16.874C219.451 17.014 219.003 17.084 218.536 17.084ZM216.296 12.716H220.566C220.557 12.296 220.464 11.9273 220.286 11.61C220.109 11.2927 219.866 11.0453 219.558 10.868C219.26 10.6907 218.9 10.602 218.48 10.602C218.023 10.602 217.636 10.7 217.318 10.896C217.01 11.092 216.772 11.3487 216.604 11.666C216.436 11.9833 216.334 12.3333 216.296 12.716ZM223.37 17V9.622H224.518L224.574 10.77C224.76 10.4807 224.975 10.2473 225.218 10.07C225.47 9.89267 225.745 9.762 226.044 9.678C226.352 9.58467 226.683 9.538 227.038 9.538C227.103 9.538 227.164 9.538 227.22 9.538C227.285 9.538 227.35 9.538 227.416 9.538V10.658H226.982C226.403 10.658 225.932 10.784 225.568 11.036C225.213 11.2787 224.956 11.61 224.798 12.03C224.639 12.4407 224.56 12.898 224.56 13.402V17H223.37Z" fill="#625C70"/>
<path d="M57.42 12C57.42 10.76 57.69 9.58 58.16 8.5L62.26 19.72C60.8082 19.0195 59.5837 17.9232 58.7275 16.5575C57.8712 15.1917 57.418 13.612 57.42 12ZM71.79 11.57C71.79 12.3 71.5 13.15 71.14 14.34L70.28 17.2L67.18 8L68.16 7.9C68.63 7.84 68.57 7.16 68.11 7.19C68.11 7.19 66.72 7.3 65.82 7.3L63.56 7.19C63.1 7.16 63.05 7.87 63.5 7.9L64.41 8L65.75 11.64L63.87 17.27L60.74 8L61.73 7.9C62.19 7.84 62.13 7.16 61.67 7.19C61.67 7.19 60.28 7.3 59.38 7.3L58.83 7.29C60.37 4.96 63 3.42 66 3.42C68.23 3.42 70.27 4.28 71.79 5.67H71.68C70.84 5.67 70.24 6.4 70.24 7.19C70.24 7.9 70.65 8.5 71.08 9.2C71.41 9.77 71.79 10.5 71.79 11.57ZM66.15 12.75L68.79 19.97L68.85 20.09C67.96 20.41 67 20.58 66 20.58C65.16 20.58 64.35 20.46 63.58 20.23L66.15 12.75ZM73.53 7.88C74.2213 9.14301 74.5825 10.5602 74.58 12C74.58 15.16 72.86 17.93 70.31 19.41L72.93 11.84C73.42 10.62 73.59 9.64 73.59 8.77L73.53 7.88ZM66 2C67.3132 2 68.6136 2.25866 69.8268 2.7612C71.0401 3.26375 72.1425 4.00035 73.0711 4.92893C73.9997 5.85752 74.7362 6.95991 75.2388 8.17317C75.7413 9.38642 76 10.6868 76 12C76 14.6522 74.9464 17.1957 73.0711 19.0711C71.1957 20.9464 68.6522 22 66 22C64.6868 22 63.3864 21.7413 62.1732 21.2388C60.9599 20.7362 59.8575 19.9997 58.9289 19.0711C57.0536 17.1957 56 14.6522 56 12C56 9.34784 57.0536 6.8043 58.9289 4.92893C60.8043 3.05357 63.3478 2 66 2ZM66 21.54C71.26 21.54 75.54 17.26 75.54 12C75.54 6.74 71.26 2.46 66 2.46C60.74 2.46 56.46 6.74 56.46 12C56.46 17.26 60.74 21.54 66 21.54Z" fill="#21759B"/>
<path fill-rule="evenodd" clip-rule="evenodd" d="M49 5.76501L42.61 18.235H36.622L39.286 13.063H39.163C36.975 15.926 33.68 17.805 29 18.236V13.14C29 13.14 32.002 12.97 33.758 11.107H29V5.76501H34.343V10.168H34.466L36.652 5.76501H40.702V10.137H40.825L43.072 5.76501H49Z" fill="#146EF5"/>
<path d="M14.8998 5.09998C14.8998 5.09998 14.6998 5.15998 14.3598 5.26998C14.2998 5.08998 14.2198 4.85998 14.0998 4.63998C13.7198 3.90998 13.1598 3.52998 12.4798 3.51998C12.4298 3.51998 12.3898 3.51998 12.3398 3.52998C12.3198 3.50998 12.2998 3.47998 12.2798 3.45998C11.9898 3.13998 11.6098 2.98998 11.1598 2.99998C10.2898 3.02998 9.4198 3.65998 8.7098 4.77998C8.2098 5.56998 7.8398 6.55998 7.7298 7.31998C6.7298 7.62998 6.0298 7.84998 6.0098 7.84998C5.4998 8.00998 5.4898 8.02998 5.4198 8.49998C5.3698 8.85998 4.0498 19.1 4.0498 19.1L15.0298 21V5.07998C14.9798 5.07998 14.9298 5.08998 14.8998 5.09998ZM12.3598 5.88998C11.7798 6.06998 11.1398 6.26998 10.5098 6.45998C10.6898 5.76998 11.0298 5.08998 11.4498 4.63998C11.6098 4.46998 11.8198 4.28998 12.0798 4.17998C12.3198 4.68998 12.3698 5.39998 12.3598 5.88998ZM11.1698 3.57998C11.3698 3.57998 11.5498 3.61998 11.6998 3.71998C11.4598 3.83998 11.2398 4.01998 11.0198 4.24998C10.4698 4.83998 10.0398 5.76998 9.8698 6.65998C9.3398 6.81998 8.8298 6.97998 8.3498 7.12998C8.64981 5.71998 9.8298 3.61998 11.1698 3.57998ZM9.4698 11.57C9.5298 12.5 11.9898 12.71 12.1298 14.9C12.2398 16.62 11.2198 17.8 9.7398 17.89C7.9798 18 6.9998 16.96 6.9998 16.96L7.3698 15.37C7.3698 15.37 8.3498 16.11 9.1298 16.06C9.6398 16.03 9.81981 15.61 9.8098 15.32C9.7298 14.1 7.7298 14.17 7.6098 12.17C7.4998 10.48 8.6098 8.77998 11.0498 8.61998C11.9998 8.55998 12.4798 8.79998 12.4798 8.79998L11.9198 10.89C11.9198 10.89 11.2998 10.61 10.5598 10.65C9.4798 10.72 9.4598 11.4 9.4698 11.57ZM12.9398 5.70998C12.9298 5.26998 12.8798 4.64998 12.6698 4.11998C13.3298 4.24998 13.6598 4.98998 13.7998 5.43998C13.5498 5.51998 13.2598 5.60998 12.9398 5.70998ZM15.3898 20.96L19.9498 19.83C19.9498 19.83 17.9898 6.56998 17.9798 6.47998C17.9698 6.38998 17.8898 6.33998 17.8198 6.32998C17.7498 6.31998 16.4698 6.29998 16.4698 6.29998C16.4698 6.29998 15.6898 5.53998 15.3898 5.24998V20.96Z" fill="#95BF46"/>
</svg>
