<svg width="143" height="133" viewBox="0 0 143 133" fill="none" xmlns="http://www.w3.org/2000/svg">
<g opacity="0.45">
<mask id="mask0_998_23" style="mask-type:alpha" maskUnits="userSpaceOnUse" x="0" y="0" width="143" height="133">
<rect width="142.426" height="132.86" fill="url(#paint0_linear_998_23)"/>
</mask>
<g mask="url(#mask0_998_23)">
<path d="M142.274 0L100.589 0L100.589 133.033L142.274 133.033L142.274 0Z" fill="#B21F81"/>
<path d="M100.589 0.0554177V9.70979C90.5478 3.58954 79.0649 0.26062 67.3184 0.0645648C55.572 -0.13149 43.985 2.81241 33.7464 8.59417C23.5078 14.3759 14.9862 22.7874 9.05583 32.9655C3.1255 43.1437 0 54.7221 0 66.5128C0 78.3034 3.1255 89.8818 9.05583 100.06C14.9862 110.238 23.5078 118.65 33.7464 124.431C43.985 130.213 55.572 133.157 67.3184 132.961C79.0649 132.765 90.5478 129.436 100.589 123.316V132.97L132.426 132.97L132.426 0.0554177L100.589 0.0554177Z" fill="#FF12A4"/>
<path d="M100.589 120.639C69.1114 120.639 43.5837 95.9269 43.5837 65.4517C43.5837 34.9765 69.1114 10.2648 100.589 10.2648" fill="#B21F81"/>
</g>
</g>
<defs>
<linearGradient id="paint0_linear_998_23" x1="71.2128" y1="0" x2="71.2128" y2="132.86" gradientUnits="userSpaceOnUse">
<stop stop-color="#D9D9D9"/>
<stop offset="1" stop-color="#D9D9D9" stop-opacity="0"/>
</linearGradient>
</defs>
</svg>
