<svg width="92" height="185" viewBox="0 0 92 185" fill="none" xmlns="http://www.w3.org/2000/svg">
<g opacity="0.32">
<mask id="mask0_964_207" style="mask-type:alpha" maskUnits="userSpaceOnUse" x="0" y="0" width="92" height="185">
<rect width="91.5234" height="184.042" fill="url(#paint0_linear_964_207)"/>
</mask>
<g mask="url(#mask0_964_207)">
<path d="M33.7893 132.499C26.1824 120.746 22.1917 107.006 22.3149 92.9914C22.3149 71.1581 30.6804 52.9364 47.4112 38.3261C59.8946 27.4203 74.7108 20.5846 91.8599 17.8192V0C65.7159 0.138486 43.9032 8.86743 26.4221 26.1869C8.81161 43.6491 0.00431206 65.4239 0 91.5113C0 108.757 4.02742 124.495 12.0824 138.724C19.8977 152.711 31.3768 164.286 45.2767 172.195C59.2607 180.24 74.7841 184.282 91.8469 184.321V169.196C82.6219 167.664 73.681 164.74 65.3278 160.523C51.956 153.75 41.4432 144.409 33.7893 132.499Z" fill="#FFD600"/>
<path d="M60.6124 126.098C52.0185 116.837 47.7216 105.412 47.7216 91.8229C47.7216 78.2339 51.9646 66.9148 60.4507 57.8656C68.8679 48.8813 79.3484 44.3567 91.8922 44.2918V17.8192C74.7474 20.589 59.931 27.4246 47.4433 38.3261C30.7082 52.9364 22.3429 71.1581 22.3472 92.9914C22.224 107.006 26.2147 120.746 33.8216 132.499C41.4712 144.413 51.9797 153.75 65.3471 160.51C73.7003 164.727 82.6413 167.651 91.8663 169.183V139.971C79.5338 139.919 69.1158 135.295 60.6124 126.098Z" fill="#ED910C"/>
</g>
</g>
<defs>
<linearGradient id="paint0_linear_964_207" x1="45.7617" y1="0" x2="45.7617" y2="184.042" gradientUnits="userSpaceOnUse">
<stop stop-color="#D9D9D9"/>
<stop offset="1" stop-color="#D9D9D9" stop-opacity="0"/>
</linearGradient>
</defs>
</svg>
