<svg width="130" height="178" viewBox="0 0 130 178" fill="none" xmlns="http://www.w3.org/2000/svg">
<g opacity="0.4">
<mask id="mask0_974_4" style="mask-type:alpha" maskUnits="userSpaceOnUse" x="0" y="0" width="130" height="178">
<rect width="129.668" height="177.213" fill="url(#paint0_linear_974_4)"/>
</mask>
<g mask="url(#mask0_974_4)">
<path d="M95.5924 57.9018C86.9298 49.7226 76.1033 49.9835 63.1059 49.9835C63.0006 49.9835 62.9022 49.8213 62.7969 49.8213C67.217 51.8357 71.2741 54.5709 74.8035 57.9159C83.3935 66.0247 87.7213 76.1313 87.7869 88.2356H108.576C108.505 76.1219 104.178 66.0106 95.5924 57.9018Z" fill="#618402"/>
<path d="M20.5798 -0.30493L-0.208984 -0.30493L-0.208984 176.677H20.5798L20.5798 -0.30493Z" fill="#618402"/>
<path d="M42.6261 -0.30493L20.5798 -0.30493L20.5798 176.677H42.008V45.6541C49.1521 45.514 56.2411 46.9359 62.7828 49.8213V49.8918C75.9137 49.8283 86.8455 49.6732 95.5783 57.9159C104.168 66.0247 108.496 76.1313 108.562 88.2356H130.18C130.053 63.0491 121.704 42.0345 105.133 25.1918C88.4169 8.18931 67.5811 -0.30963 42.6261 -0.30493Z" fill="#B3DB45"/>
</g>
</g>
<defs>
<linearGradient id="paint0_linear_974_4" x1="64.8341" y1="0" x2="64.8341" y2="177.213" gradientUnits="userSpaceOnUse">
<stop stop-color="#D9D9D9"/>
<stop offset="1" stop-color="#D9D9D9" stop-opacity="0"/>
</linearGradient>
</defs>
</svg>
