<svg width="32" height="32" viewBox="0 0 32 32" fill="none" xmlns="http://www.w3.org/2000/svg">
<path d="M12.9142 2.09404C14.2322 -0.373958 17.7682 -0.373958 19.0862 2.09404L31.2502 24.85C31.5353 25.3833 31.6773 25.9812 31.6625 26.5857C31.6477 27.1901 31.4766 27.7804 31.1658 28.2991C30.8551 28.8177 30.4152 29.247 29.8892 29.5451C29.3632 29.8432 28.7689 29.9999 28.1642 30H3.83625C3.23162 29.9999 2.63734 29.8432 2.11131 29.5451C1.58528 29.247 1.14544 28.8177 0.834661 28.2991C0.52388 27.7804 0.352755 27.1901 0.337962 26.5857C0.323169 25.9812 0.465212 25.3833 0.750249 24.85L12.9142 2.09404ZM16.4402 3.50804C16.3974 3.42867 16.3339 3.36236 16.2564 3.31614C16.179 3.26993 16.0904 3.24553 16.0002 3.24553C15.91 3.24553 15.8215 3.26993 15.7441 3.31614C15.6666 3.36236 15.6031 3.42867 15.5602 3.50804L3.39625 26.264C3.3555 26.3402 3.33515 26.4255 3.33719 26.5119C3.33923 26.5982 3.36359 26.6825 3.40789 26.7566C3.4522 26.8307 3.51494 26.8921 3.59 26.9348C3.66507 26.9774 3.74991 26.9999 3.83625 27H28.1642C28.2506 26.9999 28.3354 26.9774 28.4105 26.9348C28.4856 26.8921 28.5483 26.8307 28.5926 26.7566C28.6369 26.6825 28.6613 26.5982 28.6633 26.5119C28.6653 26.4255 28.645 26.3402 28.6042 26.264L16.4402 3.50804ZM17.5002 11.5V16.5C17.5002 16.8979 17.3422 17.2794 17.0609 17.5607C16.7796 17.842 16.3981 18 16.0002 18C15.6024 18 15.2209 17.842 14.9396 17.5607C14.6583 17.2794 14.5002 16.8979 14.5002 16.5V11.5C14.5002 11.1022 14.6583 10.7207 14.9396 10.4394C15.2209 10.1581 15.6024 10 16.0002 10C16.3981 10 16.7796 10.1581 17.0609 10.4394C17.3422 10.7207 17.5002 11.1022 17.5002 11.5ZM18.0002 22C18.0002 22.5305 17.7895 23.0392 17.4145 23.4143C17.0394 23.7893 16.5307 24 16.0002 24C15.4698 24 14.9611 23.7893 14.586 23.4143C14.211 23.0392 14.0002 22.5305 14.0002 22C14.0002 21.4696 14.211 20.9609 14.586 20.5858C14.9611 20.2108 15.4698 20 16.0002 20C16.5307 20 17.0394 20.2108 17.4145 20.5858C17.7895 20.9609 18.0002 21.4696 18.0002 22Z" fill="white"/>
</svg>
