<svg width="30" height="30" viewBox="0 0 30 30" fill="none" xmlns="http://www.w3.org/2000/svg">
<g clip-path="url(#clip0_105_646)">
<path d="M3.35754 13.3426C2.89986 12.8849 2.89986 12.1429 3.35754 11.6853L10.2188 4.82402C10.6765 4.36647 11.4185 4.36635 11.8761 4.82402L16.1902 9.13816L22.9846 2.34375H19.9743C19.3271 2.34375 18.8024 1.8191 18.8024 1.17188C18.8024 0.524649 19.3271 1.72294e-07 19.9743 1.72294e-07H25.8132C26.4709 -0.00035139 26.9856 0.537363 26.9856 1.17188V7.01133C26.9856 7.65856 26.461 8.1832 25.8138 8.1832C25.1665 8.1832 24.6419 7.65856 24.6419 7.01133V4.00107L17.0188 11.6241C16.5612 12.0818 15.8192 12.0818 15.3616 11.6241L11.0474 7.30998L5.0148 13.3426C4.55719 13.8003 3.8151 13.8002 3.35754 13.3426ZM8.3724 21.9141V28.8281C8.3724 29.4754 7.84775 30 7.20053 30H1.17188C0.524648 30 0 29.4754 0 28.8281V21.9141C0 21.2668 0.524648 20.7422 1.17188 20.7422H7.20053C7.84775 20.7422 8.3724 21.2668 8.3724 21.9141ZM6.02865 23.0859H2.34375V27.6562H6.02865V23.0859ZM19.1862 17.4566V28.8281C19.1862 29.4754 18.6615 30 18.0143 30H11.9857C11.3385 30 10.8138 29.4754 10.8138 28.8281V17.4566C10.8138 16.8094 11.3385 16.2847 11.9857 16.2847H18.0144C18.6615 16.2847 19.1862 16.8094 19.1862 17.4566ZM16.8424 18.6285H13.1575V27.6562H16.8424V18.6285ZM30 12.9992V28.8281C30 29.4754 29.4754 30 28.8281 30H22.7995C22.1522 30 21.6276 29.4754 21.6276 28.8281V12.9992C21.6276 12.352 22.1522 11.8273 22.7995 11.8273H28.8281C29.4754 11.8273 30 12.352 30 12.9992ZM27.6562 14.1711H23.9713V27.6562H27.6562V14.1711Z" fill="white"/>
</g>
<defs>
<clipPath id="clip0_105_646">
<rect width="30" height="30" fill="white"/>
</clipPath>
</defs>
</svg>
