<svg width="30" height="30" viewBox="0 0 30 30" fill="none" xmlns="http://www.w3.org/2000/svg">
<g clip-path="url(#clip0_105_4349)">
<path d="M15 0.75C22.8585 0.75 29.25 7.1638 29.25 15.0459V15.0547C28.5369 33.9783 1.46631 33.9844 0.75 15.0557V15.0459C0.75 7.16369 7.14153 0.75 15 0.75ZM27.0908 14.6807C26.144 -1.04627 3.49503 -0.924885 2.89062 15.0557C2.89593 21.7512 8.32711 27.1953 15 27.1953C21.6729 27.1953 27.1042 21.7511 27.1094 15.0557L27.0908 14.6807Z" fill="white" stroke="white" stroke-width="0.5"/>
<path d="M16.8438 6.0752C17.1607 5.74324 17.649 5.6542 18.0586 5.86035C18.4651 6.06509 18.6957 6.51054 18.6475 6.96582L17.9111 13.9043H20.1924C20.627 13.9044 21.0101 14.1786 21.1709 14.585C21.3309 14.9899 21.2441 15.4576 20.9443 15.7715L13.1562 23.9238C12.4509 24.6691 11.2507 24.0535 11.3525 23.0361V23.0352L12.0889 16.0967H9.80762C9.37301 16.0966 8.98985 15.8223 8.8291 15.416C8.66898 15.0111 8.75585 14.5435 9.05566 14.2295L16.8438 6.0752ZM12.3438 13.9043H13.2695C13.5746 13.9044 13.8622 14.0404 14.0615 14.2734C14.2603 14.5061 14.3538 14.8141 14.3213 15.1201L13.7871 20.1475L17.6562 16.0967H16.7305C16.4254 16.0966 16.1377 15.9596 15.9385 15.7266C15.7399 15.4941 15.6463 15.1866 15.6787 14.8809L16.2119 9.85254L12.3438 13.9043Z" fill="white" stroke="white" stroke-width="0.5"/>
</g>
<defs>
<clipPath id="clip0_105_4349">
<rect width="30" height="30" fill="white"/>
</clipPath>
</defs>
</svg>
