<svg width="18" height="16" viewBox="0 0 18 16" fill="none" xmlns="http://www.w3.org/2000/svg">
<path d="M16.6154 5.57576C16.6154 4.90632 16.0988 4.36364 15.4615 4.36364H2.53846C1.90121 4.36364 1.38462 4.90632 1.38462 5.57576V13.3333C1.38462 14.0028 1.90121 14.5455 2.53846 14.5455H15.4615C16.0988 14.5455 16.6154 14.0028 16.6154 13.3333V5.57576ZM10.5352 7.83523C10.8767 7.65497 11.2928 7.79944 11.4645 8.15814C11.6361 8.51697 11.4986 8.95407 11.1572 9.13447L10.9624 9.23769H10.9606C10.3518 9.55748 9.6807 9.72443 9 9.72443C8.3193 9.72443 7.64819 9.55748 7.03936 9.23769H7.03756L6.84285 9.13447C6.50139 8.95407 6.36386 8.51697 6.53546 8.15814C6.70718 7.79944 7.12327 7.65497 7.46484 7.83523L7.65956 7.9375H7.65865C8.07513 8.15618 8.53439 8.26989 9 8.26989C9.46534 8.26989 9.92416 8.15594 10.3404 7.9375L10.5352 7.83523ZM11.0769 2.66667C11.0769 2.34519 10.9553 2.03698 10.7389 1.80966C10.5496 1.61086 10.3015 1.48786 10.0376 1.46023L9.92308 1.45455H8.07692C7.7709 1.45455 7.47751 1.58234 7.26112 1.80966C7.04473 2.03698 6.92308 2.34519 6.92308 2.66667V2.90909H11.0769V2.66667ZM12.4615 2.90909H15.4615C16.8635 2.90909 18 4.103 18 5.57576V13.3333C18 14.8061 16.8635 16 15.4615 16H2.53846C1.13651 16 0 14.8061 0 13.3333V5.57576C0 4.103 1.13651 2.90909 2.53846 2.90909H5.53846V2.66667C5.53846 1.95942 5.8061 1.28135 6.28215 0.78125C6.75821 0.281153 7.40368 0 8.07692 0H9.92308C10.5963 0 11.2418 0.281153 11.7178 0.78125C12.1939 1.28135 12.4615 1.95942 12.4615 2.66667V2.90909Z" fill="#625C70"/>
</svg>
