<svg width="44" height="44" viewBox="0 0 44 44" fill="none" xmlns="http://www.w3.org/2000/svg">
<path d="M7.33335 38.5001C6.32502 38.5001 5.46213 38.1414 4.74469 37.4239C4.02724 36.7065 3.66791 35.843 3.66669 34.8334V14.6667C3.66669 13.6584 4.02602 12.7955 4.74469 12.0781C5.46335 11.3606 6.32624 11.0013 7.33335 11.0001H14.6667V7.33341C14.6667 6.32508 15.026 5.46219 15.7447 4.74475C16.4634 4.0273 17.3262 3.66797 18.3334 3.66675H25.6667C26.675 3.66675 27.5385 4.02608 28.2572 4.74475C28.9759 5.46341 29.3346 6.3263 29.3334 7.33341V11.0001H36.6667C37.675 11.0001 38.5385 11.3594 39.2572 12.0781C39.9759 12.7967 40.3346 13.6596 40.3334 14.6667V34.8334C40.3334 35.8417 39.9746 36.7052 39.2572 37.4239C38.5397 38.1426 37.6762 38.5013 36.6667 38.5001H7.33335ZM18.3334 11.0001H25.6667V7.33341H18.3334V11.0001ZM36.6667 27.5001H27.5V31.1667H16.5V27.5001H7.33335V34.8334H36.6667V27.5001ZM20.1667 27.5001H23.8334V23.8334H20.1667V27.5001ZM7.33335 23.8334H16.5V20.1667H27.5V23.8334H36.6667V14.6667H7.33335V23.8334Z" fill="white"/>
</svg>
