<svg width="15" height="18" viewBox="0 0 15 18" fill="none" xmlns="http://www.w3.org/2000/svg">
<path d="M8.33434 12.0294C9.90363 12.0294 11.1758 10.6779 11.1758 9.01072C11.1758 7.34357 9.90363 5.99209 8.33434 5.99209C6.76504 5.99209 5.49288 7.34357 5.49288 9.01072C5.49288 10.6779 6.76504 12.0294 8.33434 12.0294Z" fill="#E62415"/>
<path d="M11.7099 12.7556C10.8553 13.5727 9.72301 14.0266 8.48388 14.0266C7.85438 14.0456 7.22789 13.9275 6.64298 13.6795C6.05806 13.4316 5.52711 13.0591 5.08281 12.5849C4.63851 12.1108 4.29025 11.5451 4.05949 10.9226C3.82873 10.3001 3.72035 9.63399 3.74101 8.96533C3.74101 6.03748 5.68516 3.99479 8.48388 3.99479C9.70165 3.99479 10.8553 4.42603 11.7313 5.2431L12.3295 5.78782L14.9786 2.97345L14.3163 2.33795C12.7121 0.817812 10.6335 -0.0152815 8.48388 0.000212292C3.57009 0.000212292 0.00225114 3.76783 0.00225114 8.94263C-0.0238567 10.1356 0.177359 11.3219 0.593812 12.4301C1.01027 13.5384 1.63335 14.5458 2.42562 15.3917C3.21789 16.2376 4.16298 16.9046 5.20409 17.3526C6.24519 17.8005 7.36081 18.0203 8.48388 17.9985C10.7271 17.9985 12.8208 17.1588 14.3591 15.6381L15 15.0026L12.3081 12.1882L11.7099 12.7556Z" fill="white"/>
</svg>
