<svg width="12" height="14" viewBox="0 0 12 14" fill="none" xmlns="http://www.w3.org/2000/svg">
<path d="M3.33333 8.4C3.14444 8.4 2.98622 8.3328 2.85867 8.1984C2.73111 8.064 2.66711 7.89787 2.66667 7.7C2.66622 7.50213 2.73022 7.336 2.85867 7.2016C2.98711 7.0672 3.14533 7 3.33333 7C3.52133 7 3.67978 7.0672 3.80867 7.2016C3.93756 7.336 4.00133 7.50213 4 7.7C3.99867 7.89787 3.93467 8.06423 3.808 8.1991C3.68133 8.33397 3.52311 8.40093 3.33333 8.4ZM6 8.4C5.81111 8.4 5.65289 8.3328 5.52533 8.1984C5.39778 8.064 5.33378 7.89787 5.33333 7.7C5.33289 7.50213 5.39689 7.336 5.52533 7.2016C5.65378 7.0672 5.812 7 6 7C6.188 7 6.34644 7.0672 6.47533 7.2016C6.60422 7.336 6.668 7.50213 6.66667 7.7C6.66533 7.89787 6.60133 8.06423 6.47467 8.1991C6.348 8.33397 6.18978 8.40093 6 8.4ZM8.66667 8.4C8.47778 8.4 8.31955 8.3328 8.192 8.1984C8.06444 8.064 8.00044 7.89787 8 7.7C7.99955 7.50213 8.06355 7.336 8.192 7.2016C8.32044 7.0672 8.47867 7 8.66667 7C8.85467 7 9.01311 7.0672 9.142 7.2016C9.27089 7.336 9.33467 7.50213 9.33333 7.7C9.332 7.89787 9.268 8.06423 9.14133 8.1991C9.01467 8.33397 8.85644 8.40093 8.66667 8.4ZM1.33333 14C0.966667 14 0.652889 13.863 0.392 13.5891C0.131111 13.3152 0.000444444 12.9855 0 12.6V2.8C0 2.415 0.130667 2.08553 0.392 1.8116C0.653333 1.53767 0.967111 1.40047 1.33333 1.4H2V0H3.33333V1.4H8.66667V0H10V1.4H10.6667C11.0333 1.4 11.3473 1.5372 11.6087 1.8116C11.87 2.086 12.0004 2.41547 12 2.8V12.6C12 12.985 11.8696 13.3147 11.6087 13.5891C11.3478 13.8635 11.0338 14.0005 10.6667 14H1.33333ZM1.33333 12.6H10.6667V5.6H1.33333V12.6ZM1.33333 4.2H10.6667V2.8H1.33333V4.2Z" fill="#FF37B3"/>
</svg>
