<svg width="35" height="35" viewBox="0 0 35 35" fill="none" xmlns="http://www.w3.org/2000/svg">
<path d="M17.4987 17.3542L20.2331 20.125C20.5247 20.4167 20.8713 20.5625 21.2729 20.5625C21.6744 20.5625 22.0205 20.4167 22.3112 20.125C22.6019 19.8333 22.7477 19.4872 22.7487 19.0867C22.7497 18.6861 22.6038 18.3395 22.3112 18.0469L19.5404 15.3125L22.3112 12.5781C22.6029 12.2865 22.7487 11.9403 22.7487 11.5398C22.7487 11.1392 22.6029 10.7926 22.3112 10.5C22.0195 10.2074 21.6734 10.0615 21.2729 10.0625C20.8723 10.0635 20.5257 10.2093 20.2331 10.5L17.4987 13.2708L14.7643 10.5C14.4727 10.2083 14.1265 10.0625 13.726 10.0625C13.3254 10.0625 12.9788 10.2083 12.6862 10.5C12.3936 10.7917 12.2477 11.1383 12.2487 11.5398C12.2497 11.9413 12.3955 12.2874 12.6862 12.5781L15.457 15.3125L12.6862 18.0469C12.3945 18.3385 12.2487 18.6851 12.2487 19.0867C12.2487 19.4882 12.3945 19.8343 12.6862 20.125C12.9779 20.4157 13.3245 20.5615 13.726 20.5625C14.1275 20.5635 14.4736 20.4176 14.7643 20.125L17.4987 17.3542ZM2.91537 30.625C2.50218 30.625 2.15606 30.485 1.87704 30.205C1.59801 29.925 1.45801 29.5789 1.45704 29.1667C1.45606 28.7544 1.59606 28.4083 1.87704 28.1283C2.15801 27.8483 2.50412 27.7083 2.91537 27.7083H32.082C32.4952 27.7083 32.8418 27.8483 33.1218 28.1283C33.4018 28.4083 33.5413 28.7544 33.5404 29.1667C33.5394 29.5789 33.3994 29.9255 33.1204 30.2065C32.8413 30.4874 32.4952 30.6269 32.082 30.625H2.91537ZM5.83204 26.25C5.02995 26.25 4.34356 25.9647 3.77287 25.394C3.20218 24.8233 2.91634 24.1364 2.91537 23.3333V7.29167C2.91537 6.48958 3.2012 5.80319 3.77287 5.2325C4.34454 4.66181 5.03092 4.37597 5.83204 4.375H29.1654C29.9675 4.375 30.6543 4.66083 31.226 5.2325C31.7977 5.80417 32.083 6.49056 32.082 7.29167V23.3333C32.082 24.1354 31.7967 24.8223 31.226 25.394C30.6553 25.9656 29.9684 26.251 29.1654 26.25H5.83204ZM5.83204 23.3333H29.1654V7.29167H5.83204V23.3333Z" fill="white"/>
</svg>
