<svg width="116" height="122" viewBox="0 0 116 122" fill="none" xmlns="http://www.w3.org/2000/svg">
<path d="M106.276 0H9.71848C4.35783 0 0 4.3565 0 9.71414V98.8602C0 104.213 4.35783 108.565 9.71848 108.565H22.3395V113.561C22.3395 118.211 26.1286 122 30.7902 122H91.5446C96.2013 122 99.9953 118.216 99.9953 113.561V108.565H106.282C111.642 108.565 116 104.213 116 98.8602L115.995 9.71414C115.995 4.35638 111.637 0 106.276 0ZM9.71848 3.80762H106.276C109.535 3.80762 112.182 6.45514 112.182 9.70933V18.9951L3.81359 18.9999V9.71415C3.81359 6.45527 6.45961 3.80762 9.71848 3.80762ZM96.1778 113.561C96.1778 116.112 94.1 118.187 91.5451 118.187L30.7907 118.191C28.2358 118.191 26.1581 116.117 26.1581 113.565L26.1532 76.109C26.1532 73.5577 28.231 71.483 30.7859 71.483H91.5403C94.0952 71.483 96.1729 73.5577 96.1729 76.109L96.1778 113.561ZM106.277 104.756H99.9958V76.1097C99.9958 71.4597 96.2068 67.6712 91.5451 67.6712H30.7907C26.134 67.6712 22.34 71.4548 22.34 76.1097V104.756H9.71897C6.46023 104.756 3.81359 102.109 3.81359 98.8594V22.8116H112.182V98.8594C112.182 102.109 109.536 104.756 106.277 104.756ZM16.5351 16.2313C19.201 16.2313 21.3703 14.0651 21.3703 11.4078C21.3703 8.74578 19.201 6.57961 16.5351 6.57961C13.8692 6.57961 11.6999 8.74578 11.6999 11.4078C11.6999 14.065 13.8692 16.2313 16.5351 16.2313ZM16.5351 10.3874C17.0991 10.3874 17.5571 10.8447 17.5571 11.4079C17.5571 11.9566 17.0895 12.4187 16.5351 12.4187C15.9807 12.4187 15.5131 11.9518 15.5131 11.4079C15.5131 10.8447 15.9711 10.3874 16.5351 10.3874ZM27.8781 16.2313C30.5391 16.2313 32.7085 14.0651 32.7085 11.4078C32.7085 8.74578 30.5392 6.57961 27.8781 6.57961C25.2123 6.57961 23.043 8.74578 23.043 11.4078C23.043 14.065 25.2123 16.2313 27.8781 16.2313ZM27.8781 10.3874C28.4373 10.3874 28.8905 10.8447 28.8905 11.4079C28.8905 11.9663 28.4373 12.4187 27.8781 12.4187C27.3141 12.4187 26.8562 11.9663 26.8562 11.4079C26.861 10.8447 27.319 10.3874 27.8781 10.3874ZM39.2164 16.2313C41.8823 16.2313 44.0515 14.0651 44.0515 11.4078C44.0515 8.74578 41.8823 6.57961 39.2164 6.57961C36.5505 6.57961 34.3812 8.74578 34.3812 11.4078C34.3812 14.065 36.5505 16.2313 39.2164 16.2313ZM39.2164 10.3874C39.7804 10.3874 40.2383 10.8447 40.2383 11.4079C40.2383 11.9566 39.7707 12.4187 39.2164 12.4187C38.662 12.4187 38.1944 11.9518 38.1944 11.4079C38.1944 10.8447 38.6524 10.3874 39.2164 10.3874ZM49.87 11.4079C49.87 10.3537 50.7233 9.50159 51.7791 9.50159H102.382C103.438 9.50159 104.291 10.3536 104.291 11.4079C104.291 12.4621 103.438 13.3141 102.382 13.3141H51.7791C50.7233 13.3141 49.87 12.4573 49.87 11.4079ZM25.8966 32.9057C25.8966 33.9599 25.0433 34.812 23.9876 34.812H17.9038C16.8481 34.812 15.9948 33.9599 15.9948 32.9057C15.9948 31.8515 16.8481 30.9994 17.9038 30.9994H23.9876C25.0433 30.9994 25.8966 31.8563 25.8966 32.9057ZM28.1093 32.9057C28.1093 31.8515 28.9626 30.9994 30.0183 30.9994H36.1068C37.1626 30.9994 38.0159 31.8515 38.0159 32.9057C38.0159 33.9599 37.1626 34.812 36.1068 34.812H30.0183C28.9626 34.812 28.1093 33.9599 28.1093 32.9057ZM40.2236 32.9057C40.2236 31.8515 41.0769 30.9994 42.1327 30.9994H48.2164C49.2721 30.9994 50.1254 31.8515 50.1254 32.9057C50.1254 33.9599 49.2721 34.812 48.2164 34.812H42.1327C41.0769 34.812 40.2236 33.9599 40.2236 32.9057ZM52.3332 32.9057C52.3332 31.8515 53.1864 30.9994 54.2422 30.9994H71.1246C72.1803 30.9994 73.0336 31.8515 73.0336 32.9057C73.0336 33.9599 72.1803 34.812 71.1246 34.812H54.2373C53.1863 34.812 52.3332 33.9599 52.3332 32.9057ZM25.8964 45.2437C25.8964 46.2979 25.0432 47.15 23.9874 47.15H17.9037C16.848 47.15 15.9947 46.2979 15.9947 45.2437C15.9947 44.1895 16.848 43.3374 17.9037 43.3374H23.9874C25.0432 43.3374 25.8964 44.1895 25.8964 45.2437ZM39.6208 47.1452H30.0181C28.9623 47.1452 28.109 46.2931 28.109 45.2389C28.109 44.1847 28.9623 43.3326 30.0181 43.3326H39.6208C40.6765 43.3326 41.5298 44.1847 41.5298 45.2389C41.5298 46.2931 40.6765 47.1452 39.6208 47.1452ZM25.8964 57.5765C25.8964 58.6307 25.0432 59.4828 23.9874 59.4828H17.9037C16.848 59.4828 15.9947 58.6308 15.9947 57.5765C15.9947 56.5223 16.848 55.6702 17.9037 55.6702H23.9874C25.0432 55.6702 25.8964 56.5223 25.8964 57.5765ZM38.0108 57.5765C38.0108 58.6307 37.1575 59.4828 36.1018 59.4828H30.0133C28.9575 59.4828 28.1042 58.6308 28.1042 57.5765C28.1042 56.5223 28.9575 55.6702 30.0133 55.6702H36.1018C37.1575 55.6702 38.0108 56.5223 38.0108 57.5765ZM50.1203 57.5765C50.1203 58.6307 49.2671 59.4828 48.2113 59.4828H42.1276C41.0719 59.4828 40.2186 58.6308 40.2186 57.5765C40.2186 56.5223 41.0718 55.6702 42.1276 55.6702H48.2113C49.267 55.6702 50.1203 56.5223 50.1203 57.5765ZM65.2182 45.2435C65.2182 46.2977 64.3649 47.1497 63.3092 47.1497L45.6469 47.1449C44.5911 47.1449 43.7378 46.2929 43.7378 45.2386C43.7378 44.1844 44.5911 43.3324 45.6469 43.3324H63.3092C64.3649 43.3372 65.2182 44.1892 65.2182 45.2435ZM62.2342 57.5765C62.2342 58.6307 61.3809 59.4828 60.3252 59.4828H54.2366C53.1809 59.4828 52.3276 58.6308 52.3276 57.5765C52.3276 56.5223 53.1809 55.6702 54.2366 55.6702H60.3252C61.3809 55.6702 62.2342 56.5223 62.2342 57.5765ZM75.534 45.2435C75.534 46.2977 74.6807 47.1497 73.625 47.1497H69.3297C68.274 47.1497 67.4207 46.2977 67.4207 45.2435C67.4207 44.1892 68.274 43.3372 69.3297 43.3372H73.625C74.6807 43.3372 75.534 44.1892 75.534 45.2435ZM85.913 45.2435C85.913 46.2977 85.0597 47.1497 84.0039 47.1497H79.6461C78.5904 47.1497 77.7371 46.2977 77.7371 45.2435C77.7371 44.1892 78.5904 43.3372 79.6461 43.3372H84.0039C85.0597 43.3372 85.913 44.1892 85.913 45.2435ZM67.2954 79.3492L58.7195 111.313C58.4929 112.165 57.7216 112.723 56.878 112.723C56.7141 112.723 56.5502 112.704 56.3814 112.656C55.3643 112.382 54.7617 111.342 55.0316 110.321L63.6075 78.3575C63.8823 77.3418 64.9236 76.7401 65.9455 77.0096C66.9675 77.2888 67.5701 78.3335 67.2954 79.3492ZM49.4875 85.3279L36.5875 94.1612L49.5936 104.424C50.4228 105.074 50.5577 106.273 49.907 107.101C49.5309 107.577 48.9717 107.823 48.4078 107.823C47.9932 107.823 47.5738 107.688 47.2267 107.413L32.1905 95.5475C31.7133 95.1721 31.4482 94.5944 31.4674 93.9879C31.4867 93.3814 31.7952 92.823 32.2966 92.4812L47.3328 82.1893C48.2005 81.5972 49.3864 81.8138 49.9841 82.6851C50.577 83.5468 50.3552 84.7311 49.4875 85.3279ZM90.8728 93.983C90.8921 94.5895 90.6269 95.1672 90.1497 95.5426L75.1048 107.408C74.7529 107.683 74.3384 107.818 73.9238 107.818C73.3598 107.818 72.8006 107.572 72.4246 107.091C71.7738 106.263 71.9136 105.069 72.738 104.414L85.749 94.1514L72.8391 85.3181C71.9714 84.7212 71.7497 83.5371 72.3426 82.6706C72.9356 81.8041 74.1263 81.5827 74.9939 82.1748L90.0388 92.4667C90.545 92.8181 90.8535 93.3812 90.8728 93.983Z" fill="#EE7621"/>
</svg>
