<svg width="30" height="30" viewBox="0 0 30 30" fill="none" xmlns="http://www.w3.org/2000/svg">
<path d="M24.968 0H4.99626C2.91985 0 1.23047 1.68938 1.23047 3.76579V21.2411C1.23047 23.3176 2.91985 25.0069 4.99626 25.0069H8.71994V27.4612H7.4929C6.79184 27.4612 6.22353 28.0296 6.22353 28.7306C6.22353 29.4317 6.79184 30 7.4929 30H22.4716C23.1727 30 23.741 29.4317 23.741 28.7306C23.741 28.0296 23.1727 27.4612 22.4716 27.4612H21.2446V25.0069H24.968C27.0447 25.0069 28.7341 23.3176 28.7341 21.2411V3.76579C28.7341 1.68938 27.0447 0 24.968 0ZM4.99626 2.53876H24.968C25.6448 2.53876 26.1953 3.08922 26.1953 3.76579V17.4754H3.76923V3.76579C3.76923 3.08922 4.31969 2.53876 4.99626 2.53876ZM18.7058 27.4612H11.2587V25.0069H18.7058V27.4612ZM24.968 22.4682C22.5847 22.4682 7.05986 22.4682 4.99626 22.4682C4.31969 22.4682 3.76923 21.9177 3.76923 21.2411V20.0141H26.1953V21.2411C26.1953 21.9177 25.6448 22.4682 24.968 22.4682ZM9.45557 11.7421C8.84834 12.0925 8.64029 12.8689 8.99094 13.4761C9.3425 14.0849 10.1196 14.2902 10.7249 13.9405L11.7391 13.355L13.7128 14.4944V15.6656C13.7128 16.3667 14.2811 16.935 14.9821 16.935C15.6834 16.935 16.2515 16.3667 16.2515 15.6656V14.4946L18.2252 13.355L19.2396 13.9407C19.8441 14.2898 20.6216 14.0858 20.9736 13.4761C21.324 12.8689 21.1162 12.0927 20.509 11.7421L19.4948 11.1564V8.87741L20.509 8.29193C21.1162 7.94128 21.3242 7.16492 20.9736 6.55792C20.6229 5.9507 19.8466 5.74265 19.2396 6.09329L18.2252 6.679L16.2515 5.5394V4.36821C16.2515 3.66714 15.6834 3.09883 14.9821 3.09883C14.2811 3.09883 13.7128 3.66714 13.7128 4.36821V5.5394L11.7391 6.67877L10.7249 6.09329C10.118 5.74265 9.34158 5.9507 8.99094 6.55792C8.64052 7.16492 8.84834 7.94128 9.45557 8.2917L10.4697 8.87741V11.1564L9.45557 11.7421ZM13.0087 8.87741L14.9824 7.73804L16.956 8.87741V11.1564L14.9824 12.296L13.0087 11.1564V8.87741Z" fill="white"/>
</svg>
