<svg width="30" height="30" viewBox="0 0 30 30" fill="none" xmlns="http://www.w3.org/2000/svg">
<path d="M26.7254 20.6462C27.3726 20.6462 27.8973 20.1215 27.8973 19.4743V6.82893C27.8973 5.57684 27.4097 4.39963 26.5243 3.51439L24.3829 1.37291C23.4976 0.487559 22.3205 0 21.0683 0H9.24799C6.6633 0 4.56049 2.10281 4.56049 4.6875V13.9835L4.36918 14.0533C3.4645 14.3834 2.73465 15.085 2.36674 15.9782C1.99508 16.8805 2.02098 17.9064 2.43776 18.7928C2.85453 19.6793 3.62809 20.3537 4.56014 20.643C4.56026 20.643 4.56037 20.643 4.56049 20.6431V25.3125C4.56049 27.8972 6.6633 30 9.24799 30H23.2098C25.7793 30 27.882 27.9098 27.8972 25.3406C27.901 24.6933 27.3794 24.1656 26.7322 24.1618H26.7252C26.0812 24.1618 25.5573 24.6819 25.5535 25.3267C25.5458 26.6112 24.4945 27.6562 23.2098 27.6562H9.24799C7.95565 27.6562 6.90424 26.6048 6.90424 25.3125V20.5352C7.04662 20.4761 7.18555 20.4073 7.31985 20.3288L12.7487 17.154L13.2189 18.1539C12.9334 18.4931 12.8536 18.9804 13.0546 19.408C13.2542 19.8325 13.6759 20.0815 14.1158 20.0815C14.2829 20.0815 14.4526 20.0456 14.6137 19.9698L23.2063 15.9295C23.792 15.6542 24.0435 14.9561 23.7681 14.3704C23.5671 13.9429 23.1409 13.6934 22.6975 13.697L19.2856 6.44074C19.5711 6.10154 19.6509 5.61416 19.4499 5.1866C19.1745 4.60096 18.4764 4.34941 17.8907 4.6248L9.29821 8.66508C8.7125 8.94041 8.46096 9.6385 8.73635 10.2242C8.93598 10.6487 9.35762 10.8977 9.7976 10.8977C9.80071 10.8977 9.80387 10.8977 9.80698 10.8976L10.2771 11.8975L6.90424 13.1283V4.6875C6.90424 3.39516 7.95565 2.34375 9.24799 2.34375H21.0683C21.6944 2.34375 22.2829 2.5875 22.7256 3.03018L24.867 5.17166C25.3097 5.61434 25.5535 6.20291 25.5535 6.82893V19.4743C25.5535 20.1215 26.0782 20.6462 26.7254 20.6462ZM15.2944 17.0598L11.9734 9.99697L17.2101 7.53469L20.5311 14.5975L15.2944 17.0598ZM11.7474 15.0244L6.13672 18.3055C5.86819 18.4627 5.55506 18.4978 5.25512 18.4046C4.94557 18.3085 4.69825 18.0922 4.55879 17.7955C4.41928 17.4989 4.41043 17.1704 4.53389 16.8707C4.65348 16.5803 4.8803 16.3617 5.17256 16.255L11.2784 14.0269L11.7474 15.0244Z" fill="white"/>
<path d="M22.7229 22.7344H14.0938C13.4465 22.7344 12.9219 23.259 12.9219 23.9062C12.9219 24.5535 13.4465 25.0781 14.0938 25.0781H22.7229C23.3701 25.0781 23.8947 24.5535 23.8947 23.9062C23.8947 23.259 23.3701 22.7344 22.7229 22.7344Z" fill="white"/>
</svg>
