<svg width="125" height="114" viewBox="0 0 125 114" fill="none" xmlns="http://www.w3.org/2000/svg">
<path fill-rule="evenodd" clip-rule="evenodd" d="M52.669 88.8565H8.24661C6.06216 88.8565 3.96061 87.8882 2.41541 86.1688C0.870352 84.4431 0 82.1044 0 79.6803V9.17621C0 6.7521 0.870231 4.41365 2.41541 2.68769C3.96046 0.97504 6.06201 0 8.24661 0H116.747C118.938 0 121.033 0.974905 122.585 2.68769C124.13 4.41348 125 6.7521 125 9.17621V79.6803C125 82.1044 124.13 84.4429 122.585 86.1688C121.034 87.8881 118.938 88.8565 116.747 88.8565H72.3251V100.476H92.601C93.8738 100.476 94.9038 101.623 94.9038 103.039V111.438C94.9038 112.854 93.8737 114 92.601 114H32.4371C31.1643 114 30.1342 112.854 30.1342 111.438V103.039C30.1342 101.623 31.1643 100.476 32.4371 100.476H52.672L52.669 88.8565ZM8.24661 83.7316H116.747C117.718 83.7316 118.642 83.3034 119.329 82.5459C120.009 81.7818 120.394 80.7541 120.394 79.6805V9.17634C120.394 8.10921 120.009 7.075 119.329 6.3175C118.642 5.55338 117.718 5.12521 116.747 5.12521H8.24661C7.28166 5.12521 6.35223 5.55338 5.67146 6.3175C4.98476 7.07503 4.60588 8.10923 4.60588 9.17634V79.6805C4.60588 80.7542 4.98476 81.7818 5.67146 82.5459C6.35226 83.3034 7.28169 83.7316 8.24661 83.7316ZM67.724 100.476V88.8565H57.2754V100.476H67.724ZM70.0209 105.601H34.7385V108.875H90.2968V105.601H70.0209ZM26.8639 47.2507H13.5915C12.3187 47.2507 11.2887 46.1045 11.2887 44.6883V13.5905C11.2887 12.1743 12.3187 11.0281 13.5915 11.0281H41.5343C42.8071 11.0281 43.8371 12.1743 43.8371 13.5905V26.5806H81.0609V13.5905C81.0609 12.1743 82.091 11.0281 83.3637 11.0281H111.307C112.579 11.0281 113.609 12.1743 113.609 13.5905V44.6883C113.609 46.1045 112.579 47.2507 111.307 47.2507H98.2708L78.842 61.6571V75.7802C78.842 77.1898 77.812 78.3491 76.5392 78.3491H48.5964C47.3236 78.3491 46.2936 77.1898 46.2936 75.7802V61.6571L26.8639 47.2507ZM39.2308 42.1257V16.1528H15.895V42.1257H39.2308ZM43.8365 31.7047V44.6881C43.8365 46.1044 42.8064 47.2505 41.5337 47.2505H35.1639L46.2934 55.4977V44.688C46.2934 43.2717 47.3235 42.1256 48.5963 42.1256H76.5391C77.8119 42.1256 78.8419 43.2718 78.8419 44.688V55.4977L89.9714 47.2505H83.3648C82.092 47.2505 81.062 46.1043 81.062 44.6881V31.7047H43.8365ZM85.6674 29.8536V42.1256H109.009V16.1526H85.6674V28.418C85.7266 28.6486 85.7562 28.8857 85.7562 29.1426C85.7562 29.3797 85.7266 29.623 85.6674 29.8536ZM74.236 47.2498H50.9003V73.2228H74.236V47.2498Z" fill="#3078FF"/>
</svg>
