<svg width="35" height="35" viewBox="0 0 35 35" fill="none" xmlns="http://www.w3.org/2000/svg">
<path d="M10.207 14.0964C10.207 13.0649 10.6168 12.0756 11.3462 11.3462C12.0756 10.6168 13.0649 10.207 14.0964 10.207H26.7343C27.2451 10.207 27.7508 10.3076 28.2227 10.5031C28.6946 10.6986 29.1234 10.985 29.4845 11.3462C29.8457 11.7074 30.1322 12.1361 30.3276 12.608C30.5231 13.0799 30.6237 13.5856 30.6237 14.0964V26.7343C30.6237 27.2451 30.5231 27.7508 30.3276 28.2227C30.1322 28.6946 29.8457 29.1234 29.4845 29.4845C29.1234 29.8457 28.6946 30.1322 28.2227 30.3276C27.7508 30.5231 27.2451 30.6237 26.7343 30.6237H14.0964C13.5856 30.6237 13.0799 30.5231 12.608 30.3276C12.1361 30.1322 11.7074 29.8457 11.3462 29.4845C10.985 29.1234 10.6986 28.6946 10.5031 28.2227C10.3076 27.7508 10.207 27.2451 10.207 26.7343V14.0964Z" stroke="white" stroke-width="3" stroke-linecap="round" stroke-linejoin="round"/>
<path d="M5.85083 24.4081C5.40312 24.1538 5.03074 23.7854 4.77152 23.3405C4.5123 22.8955 4.3755 22.3899 4.375 21.875V7.29167C4.375 5.6875 5.6875 4.375 7.29167 4.375H21.875C22.9687 4.375 23.5637 4.93646 24.0625 5.83333M16.0417 20.4167L18.9583 23.3333L24.7917 17.5" stroke="white" stroke-width="3" stroke-linecap="round" stroke-linejoin="round"/>
</svg>
