<svg width="35" height="36" viewBox="0 0 35 36" fill="none" xmlns="http://www.w3.org/2000/svg">
<path d="M4.96576 20.228C3.84928 18.4327 3.26074 16.3355 3.28021 14.1956C3.28021 10.8641 4.50921 8.08217 6.96937 5.85214C8.80422 4.1875 10.9809 3.14232 13.5017 2.72109V0C9.66105 0.020273 6.45441 1.35379 3.88606 3.99829C1.29607 6.66306 0 9.98784 0 13.9704C0 16.6013 0.592862 19.0048 1.77426 21.1763C2.9232 23.3117 4.61091 25.0777 6.65347 26.2851C8.70901 27.515 10.9896 28.1299 13.4973 28.1367V25.8301C12.1407 25.5958 10.8273 25.1498 9.59831 24.5056C7.6358 23.4716 6.0909 22.0458 4.96576 20.228Z" fill="white"/>
<path d="M8.90808 19.2503C7.64446 17.838 7.01265 16.0923 7.01265 14.0177C7.01265 11.9431 7.6358 10.2153 8.88211 8.83453C10.1198 7.46272 11.6582 6.77119 13.5038 6.76218V2.72109C10.9853 3.14457 8.80638 4.1875 6.97154 5.85214C4.51354 8.08217 3.28238 10.8641 3.28238 14.1956C3.26507 16.3355 3.85144 18.4327 4.97009 20.228C6.09306 22.0458 7.63797 23.4716 9.60263 24.5033C10.8295 25.1475 12.1429 25.5935 13.4995 25.8278V21.3678C11.6885 21.3587 10.1587 20.6537 8.90808 19.2503Z" fill="white"/>
<path d="M29.5111 6.42654C30.7639 7.91999 31.5645 9.76483 31.8155 11.7291C32.2352 14.7858 31.4563 17.5046 29.483 19.8878C28.0095 21.6651 26.1422 22.9198 23.8833 23.6496L24.2251 26.1454C27.7498 25.6026 30.5216 23.9447 32.5468 21.1695C34.5851 18.3696 35.3532 15.1439 34.8512 11.4858C34.5201 9.07104 33.6763 6.94688 32.3175 5.11556C30.9954 3.31351 29.2255 1.92143 27.2003 1.09249C25.162 0.247781 22.9896 -0.00901002 20.6853 0.326621L20.9752 2.44628C22.2496 2.47556 23.5133 2.70757 24.7206 3.1288C26.655 3.81358 28.2518 4.91283 29.5111 6.42654Z" fill="white"/>
<path d="M26.0232 7.85917C27.3604 8.98545 28.1588 10.4992 28.4184 12.4026C28.6781 14.3037 28.3232 15.9751 27.3539 17.4145C26.391 18.8404 25.0625 19.6851 23.3704 19.9464L23.8789 23.6496C26.1379 22.9175 28.003 21.6651 29.4787 19.8878C31.4541 17.5069 32.2309 14.7858 31.8133 11.7291C31.5602 9.76258 30.7596 7.91999 29.5089 6.42654C28.2475 4.91057 26.6507 3.81358 24.7206 3.13331C23.5133 2.70983 22.2496 2.48006 20.9752 2.45078L21.5356 6.53917C23.1995 6.30265 24.6968 6.74415 26.0232 7.85917Z" fill="white"/>
<path d="M20.7625 0.34943L15.5272 1.12677L20.3049 36L25.5402 35.2227L20.7625 0.34943Z" fill="white"/>
</svg>
