<svg width="25" height="25" viewBox="0 0 25 25" fill="none" xmlns="http://www.w3.org/2000/svg">
<g clip-path="url(#clip0_105_2039)">
<path d="M24.0234 1.85547H19.751V0.976562C19.751 0.437164 19.3138 0 18.7744 0C18.4204 0 6.5794 0 6.22559 0C5.68619 0 5.24902 0.437164 5.24902 0.976562V1.85547H0.976562C0.437164 1.85547 0 2.29263 0 2.83203V5.41992C0 8.56171 2.34852 11.1649 5.38235 11.5669C5.82371 13.8508 7.33814 15.7949 9.47418 16.7723C9.11465 18.2533 7.78618 19.3359 6.20117 19.3359C6.13289 19.3359 5.79433 19.3359 5.66406 19.3359C5.22041 19.3359 4.83265 19.635 4.71973 20.064L3.74317 23.7749C3.58028 24.3938 4.04778 25 4.6875 25H20.3125C20.9522 25 21.4197 24.3938 21.2568 23.7749L20.2803 20.064C20.1674 19.635 19.7796 19.3359 19.3359 19.3359C19.2057 19.3359 18.8671 19.3359 18.7988 19.3359C17.2138 19.3359 15.8854 18.2533 15.5258 16.7723C17.6619 15.7949 19.1763 13.8508 19.6177 11.5669C22.6515 11.165 25 8.56171 25 5.41992V2.83203C25 2.29263 24.5628 1.85547 24.0234 1.85547ZM5.24902 9.56039C3.36361 9.12704 1.95312 7.43504 1.95312 5.41992V3.80859H5.24902V9.56039ZM18.5831 21.2891L19.0456 23.0469C18.6764 23.0469 6.32362 23.0469 5.95436 23.0469L6.41689 21.2891H18.5831ZM17.7979 10.1807C17.7979 12.4769 16.333 14.5002 14.1527 15.2155C13.7379 15.3515 13.4638 15.7463 13.4813 16.1823C13.5279 17.3468 13.9484 18.4456 14.6784 19.3359C14.1514 19.3359 10.8522 19.3359 10.3216 19.3359C11.0518 18.4456 11.4723 17.3468 11.5189 16.1823C11.5362 15.7463 11.2621 15.3515 10.8475 15.2155C8.66699 14.5002 7.20215 12.4769 7.20215 10.1807C7.20215 9.865 7.20215 2.34776 7.20215 1.95312H17.7979V10.1807ZM23.0469 5.41992C23.0469 7.43504 21.6364 9.12704 19.751 9.56039V3.80859H23.0469V5.41992Z" fill="white"/>
</g>
<defs>
<clipPath id="clip0_105_2039">
<rect width="25" height="25" fill="white"/>
</clipPath>
</defs>
</svg>
