<svg width="30" height="30" viewBox="0 0 30 30" fill="none" xmlns="http://www.w3.org/2000/svg">
<path d="M15.0008 29.9995C7.7027 30.0707 1.78372 22.6661 1.87607 15.7028V6.50378C1.87607 6.04207 2.14723 5.62336 2.56857 5.43446L14.4629 0.102525C14.7665 -0.0335864 15.1136 -0.0341723 15.4177 0.100767L27.4292 5.4327C27.8527 5.62067 28.1256 6.04049 28.1256 6.50378V15.7028C28.1256 18.282 27.392 20.8797 26.004 23.2154C25.6733 23.7718 24.9543 23.9549 24.3979 23.6242C23.8415 23.2935 23.6585 22.5745 23.9891 22.0181C25.162 20.0446 25.7819 17.8607 25.7819 15.7028V7.26572L14.9446 2.45502L4.21983 7.26267V15.7028C4.21005 24.307 13.5616 31.0969 20.6393 25.7708C21.1627 25.3899 21.8956 25.5054 22.2764 26.0287C22.6573 26.552 22.5418 27.2849 22.0185 27.6658C19.9207 29.1925 17.4941 29.9995 15.0008 29.9995ZM19.9226 21.8542H10.079C9.43183 21.8542 8.90719 21.3296 8.90719 20.6824V14.8231C8.90719 13.327 10.0345 12.0892 11.4843 11.9146V10.956C11.6606 6.3764 18.3407 6.37991 18.5154 10.956V11.9143C19.9662 12.0881 21.0945 13.3263 21.0945 14.8231V20.6824C21.0945 21.3296 20.5698 21.8542 19.9226 21.8542ZM11.2509 19.5105H18.7508V14.8231C18.7508 14.5 18.4879 14.2372 18.1648 14.2372H11.8368C11.5137 14.2372 11.2509 14.5 11.2509 14.8231V19.5105ZM13.828 11.8935H16.1718V10.956C16.1136 9.48216 13.8856 9.48328 13.828 10.956V11.8935Z" fill="white"/>
</svg>
