<svg width="30" height="30" viewBox="0 0 30 30" fill="none" xmlns="http://www.w3.org/2000/svg">
<g clip-path="url(#clip0_105_2772)">
<path d="M28.8281 20.625H24.5903L22.507 18.75H24.1406C27.3715 18.75 30 16.1215 30 12.8906C30 10.0692 28.1694 7.64789 25.4486 7.13133C24.9437 4.41047 22.5524 2.34375 19.6875 2.34375C19.2939 2.34375 18.8931 2.38893 18.4893 2.47857C16.9448 0.894551 14.8591 0 12.6562 0C8.49445 0 5.0465 3.11572 4.52209 7.13695C1.81828 7.66523 0 10.0762 0 12.8906C0 16.1276 2.38799 18.75 5.625 18.75H7.37156L5.39238 20.625H1.17188C0.524648 20.625 0 21.1496 0 21.7969V26.4844C0 27.1316 0.524648 27.6562 1.17188 27.6562H5.85938C6.5066 27.6562 7.03125 27.1316 7.03125 26.4844V22.301L10.7794 18.75H13.8281V22.9688H12.6562C12.009 22.9688 11.4844 23.4934 11.4844 24.1406V28.8281C11.4844 29.4754 12.009 30 12.6562 30H17.3438C17.991 30 18.5156 29.4754 18.5156 28.8281V24.1406C18.5156 23.4934 17.991 22.9688 17.3438 22.9688H16.1719V18.75H19.0035L22.9688 22.3188V26.4844C22.9688 27.1316 23.4934 27.6562 24.1406 27.6562H28.8281C29.4754 27.6562 30 27.1316 30 26.4844V21.7969C30 21.1496 29.4754 20.625 28.8281 20.625ZM4.6875 25.3125H2.34375V22.9688H4.6875V25.3125ZM16.1719 27.6562H13.8281V25.3125H16.1719V27.6562ZM2.34375 12.8906C2.34375 10.8864 3.75439 9.375 5.625 9.375C6.27223 9.375 6.79688 8.85035 6.79688 8.20312C6.79688 4.97227 9.42533 2.34375 12.6562 2.34375C14.4094 2.34375 16.0631 3.14613 17.1932 4.54523C17.507 4.93377 18.0325 5.08072 18.5024 4.91121C18.9198 4.76068 19.3075 4.6875 19.6875 4.6875C21.626 4.6875 23.2031 6.26461 23.2031 8.20312C23.2031 8.85035 23.7278 9.375 24.375 9.375C26.2456 9.375 27.6562 10.8864 27.6562 12.8906C27.6562 14.8291 26.0791 16.4062 24.1406 16.4062H5.625C3.75439 16.4062 2.34375 14.8949 2.34375 12.8906ZM27.6562 25.3125H25.3125V22.9688H27.6562V25.3125Z" fill="white"/>
</g>
<defs>
<clipPath id="clip0_105_2772">
<rect width="30" height="30" fill="white"/>
</clipPath>
</defs>
</svg>
