<svg width="30" height="30" viewBox="0 0 30 30" fill="none" xmlns="http://www.w3.org/2000/svg">
<g clip-path="url(#clip0_105_4695)">
<path d="M22.0312 16.4062H20.8594V8.20312C20.8594 7.5559 20.3347 7.03125 19.6875 7.03125C19.0403 7.03125 18.5156 7.5559 18.5156 8.20312V16.4062H16.1719V10.5469C16.1719 9.89965 15.6472 9.375 15 9.375C14.3528 9.375 13.8281 9.89965 13.8281 10.5469V16.4062H11.4844V12.8906C11.4844 12.2434 10.9597 11.7188 10.3125 11.7188C9.66527 11.7188 9.14062 12.2434 9.14062 12.8906V16.4062H7.96875C7.32152 16.4062 6.79688 16.9309 6.79688 17.5781C6.79688 18.2254 7.32152 18.75 7.96875 18.75H22.0312C22.6785 18.75 23.2031 18.2254 23.2031 17.5781C23.2031 16.9309 22.6785 16.4062 22.0312 16.4062Z" fill="white"/>
<path d="M24.1406 0H5.85938C2.62852 0 0 2.62852 0 5.85938V19.9219C0 23.1527 2.62852 25.7812 5.85938 25.7812H13.8281V27.6562H10.3125C9.66527 27.6562 9.14062 28.1809 9.14062 28.8281C9.14062 29.4754 9.66527 30 10.3125 30H19.6875C20.3347 30 20.8594 29.4754 20.8594 28.8281C20.8594 28.1809 20.3347 27.6562 19.6875 27.6562H16.1719V24.6094C16.1719 23.9621 15.6472 23.4375 15 23.4375H5.85938C3.92086 23.4375 2.34375 21.8604 2.34375 19.9219V5.85938C2.34375 3.92086 3.92086 2.34375 5.85938 2.34375H24.1406C26.0791 2.34375 27.6562 3.92086 27.6562 5.85938V19.9219C27.6562 21.8604 26.0791 23.4375 24.1406 23.4375H19.6875C19.0403 23.4375 18.5156 23.9621 18.5156 24.6094C18.5156 25.2566 19.0403 25.7812 19.6875 25.7812H24.1406C27.3715 25.7812 30 23.1527 30 19.9219V5.85938C30 2.62852 27.3715 0 24.1406 0Z" fill="white"/>
</g>
<defs>
<clipPath id="clip0_105_4695">
<rect width="30" height="30" fill="white"/>
</clipPath>
</defs>
</svg>
