<svg width="30" height="30" viewBox="0 0 30 30" fill="none" xmlns="http://www.w3.org/2000/svg">
<path d="M18.3398 30H6.97266C4.38789 30 2.28516 27.8973 2.28516 25.3125V4.6875C2.28516 2.10274 4.38789 0 6.97266 0H18.3398C20.9246 0 23.0273 2.10274 23.0273 4.6875V6.511C23.0273 7.15828 22.5027 7.68288 21.8555 7.68288C21.2082 7.68288 20.6836 7.15828 20.6836 6.511V4.6875C20.6836 3.39523 19.6321 2.34375 18.3398 2.34375H6.97266C5.68039 2.34375 4.62891 3.39523 4.62891 4.6875V25.3125C4.62891 26.6048 5.68039 27.6562 6.97266 27.6562H18.3398C19.6321 27.6562 20.6836 26.6048 20.6836 25.3125V23.093C20.6836 22.4458 21.2082 21.9212 21.8555 21.9212C22.5027 21.9212 23.0273 22.4458 23.0273 23.093V25.3125C23.0273 27.8973 20.9246 30 18.3398 30ZM13.8281 24.6751C13.8281 24.0278 13.3035 23.5032 12.6563 23.5032C12.009 23.5032 11.4844 24.0278 11.4844 24.6751C11.4844 25.3223 12.009 25.8469 12.6563 25.8469C13.3035 25.8469 13.8281 25.3223 13.8281 24.6751ZM15 5.33913C15 4.69185 14.4754 4.16725 13.8281 4.16725H11.4844C10.8371 4.16725 10.3125 4.69185 10.3125 5.33913C10.3125 5.9864 10.8371 6.511 11.4844 6.511H13.8281C14.4754 6.511 15 5.9864 15 5.33913ZM16.5987 20.8665C17.1309 20.8665 17.6566 20.5158 17.8008 20.0082L20.4625 10.6451C20.6763 9.89365 20.1066 9.14772 19.3192 9.14772C18.7871 9.14772 18.3199 9.49837 18.1757 10.006L15.5141 19.3694C15.3005 20.1208 15.8114 20.8665 16.5987 20.8665ZM13.5542 19.4515C13.97 18.9555 13.905 18.2162 13.409 17.8006L10.5109 15.3706C10.3894 15.266 10.3711 15.1348 10.3711 15.0657C10.3711 14.9966 10.3894 14.8654 10.5109 14.7608L13.409 12.3308C13.905 11.9151 13.97 11.1758 13.5542 10.6799C13.1385 10.1841 12.3992 10.1189 11.9032 10.5347L9.00147 12.9678C8.99963 12.9694 8.99757 12.971 8.99574 12.9728C8.38028 13.4953 8.02734 14.2582 8.02734 15.0657C8.02734 15.8732 8.38028 16.636 8.99574 17.1586C8.99757 17.1602 8.99941 17.1618 9.00147 17.1636L11.9032 19.5966C12.1227 19.7807 12.3898 19.8704 12.6556 19.8704C12.9902 19.8704 13.3225 19.7278 13.5542 19.4515ZM23.8479 19.5889L26.6879 17.1586C27.3033 16.636 27.6563 15.8732 27.6563 15.0657C27.6563 14.2582 27.3033 13.4953 26.6911 12.9755L23.8479 10.5425C23.356 10.1216 22.6163 10.1793 22.1956 10.6709C21.7747 11.1628 21.8324 11.9025 22.324 12.3232L25.1706 14.759C25.294 14.8638 25.3125 14.9961 25.3125 15.0657C25.3125 15.135 25.2942 15.2673 25.1674 15.3749L22.324 17.8082C21.8324 18.2288 21.7747 18.9686 22.1956 19.4602C22.4274 19.7312 22.7559 19.8704 23.0866 19.8704C23.356 19.8704 23.627 19.7779 23.8479 19.5889Z" fill="white"/>
</svg>
