<svg width="30" height="30" viewBox="0 0 30 30" fill="none" xmlns="http://www.w3.org/2000/svg">
<path d="M28.8281 17.4708C29.4754 17.4708 30 16.9462 30 16.2989V7.8728C30 5.28812 27.8972 3.1853 25.3125 3.1853H4.6875C2.10281 3.1853 0 5.28812 0 7.8728V22.127C0 24.7117 2.10281 26.8145 4.6875 26.8145H25.3125C27.8747 26.8145 29.9775 24.7303 29.9998 22.1684C30.0054 21.5213 29.4854 20.9921 28.8381 20.9864C28.8346 20.9864 28.8312 20.9864 28.8277 20.9864C28.1853 20.9864 27.6618 21.5043 27.6561 22.1481C27.645 23.4287 26.5937 24.4707 25.3125 24.4707H4.6875C3.39516 24.4707 2.34375 23.4193 2.34375 22.127V7.8728C2.34375 6.58046 3.39516 5.52905 4.6875 5.52905H25.3125C26.6048 5.52905 27.6562 6.58046 27.6562 7.8728V16.2989C27.6562 16.9462 28.1809 17.4708 28.8281 17.4708Z" fill="white"/>
<path d="M25.0761 9.29702C24.6632 8.79857 23.9245 8.72913 23.4262 9.14193L16.3327 15.0162C15.5604 15.6558 14.4394 15.6557 13.6671 15.0162L6.57365 9.14193C6.07508 8.72908 5.33633 8.79857 4.92365 9.29702C4.51086 9.79548 4.58029 10.5342 5.07875 10.947L10.0746 15.0842L5.09732 19.0379C4.59055 19.4404 4.50606 20.1776 4.90859 20.6844C5.13998 20.9757 5.48182 21.1275 5.82699 21.1275C6.08234 21.1275 6.33963 21.0443 6.55514 20.8732L11.9195 16.612L12.1722 16.8213C12.9914 17.4998 13.9957 17.839 14.9999 17.839C16.0041 17.839 17.0083 17.4997 17.8276 16.8213L18.0794 16.6128L23.4448 20.8733C23.6604 21.0445 23.9174 21.1275 24.1728 21.1275C24.518 21.1275 24.86 20.9756 25.0913 20.6843C25.4938 20.1775 25.4091 19.4404 24.9023 19.0378L19.9243 15.085L24.9209 10.9471C25.4195 10.5342 25.4889 9.79554 25.0761 9.29702Z" fill="white"/>
</svg>
