<svg width="40" height="30" viewBox="0 0 40 30" fill="none" xmlns="http://www.w3.org/2000/svg">
<path d="M24.9659 15.3369L27.2378 13.065C27.4031 13.6835 27.5 14.33 27.5 15C27.5 19.1357 24.1356 22.5 20 22.5C19.33 22.5 18.6834 22.4031 18.065 22.2378L20.3369 19.966C22.8209 19.7966 24.7966 17.821 24.9659 15.3369ZM39.8425 14.3929C39.6888 14.1163 37.5081 10.2954 33.2456 7.05725L31.4266 8.8763C34.5347 11.1616 36.5041 13.8269 37.2794 15.0019C35.7978 17.2578 29.9859 25 20 25C18.5025 25 17.11 24.8085 15.7997 24.5028L13.7456 26.5569C15.6341 27.1359 17.7097 27.5 20 27.5C33.0853 27.5 39.5728 16.0925 39.8425 15.6072C40.0525 15.2294 40.0525 14.7707 39.8425 14.3929ZM34.6338 2.13382L7.13375 29.6338C6.88969 29.8778 6.56969 30 6.25 30C5.93031 30 5.61031 29.8778 5.36625 29.6338C4.87781 29.1453 4.87781 28.3544 5.36625 27.8663L8.865 24.3675C3.20875 20.9528 0.334688 15.9263 0.1575 15.6072C-0.0525 15.2294 -0.0525 14.7704 0.1575 14.3925C0.427188 13.9075 6.91469 2.50007 20 2.50007C23.3834 2.50007 26.3141 3.27194 28.8194 4.41319L32.8662 0.366327C33.3547 -0.122109 34.1456 -0.122109 34.6338 0.366327C35.1219 0.854763 35.1222 1.6457 34.6338 2.13382ZM10.7291 22.5035L13.8937 19.3388C13.0197 18.1125 12.5 16.6172 12.5 15C12.5 10.8644 15.8644 7.50006 20 7.50006C21.6172 7.50006 23.1125 8.01974 24.3388 8.89349L26.8978 6.33444C24.8759 5.52475 22.5784 5.00007 20 5.00007C10.0141 5.00007 4.20219 12.7422 2.72094 14.9982C3.66156 16.4238 6.36531 20.0325 10.7291 22.5035ZM15.7084 17.5238L22.5237 10.7085C21.7803 10.2694 20.9244 10.0001 20 10.0001C17.2431 10.0001 15 12.2432 15 15C15 15.9244 15.2694 16.7803 15.7084 17.5238Z" fill="url(#paint0_linear_105_2336)"/>
<defs>
<linearGradient id="paint0_linear_105_2336" x1="0.643089" y1="2.44056" x2="41.2507" y2="10.7196" gradientUnits="userSpaceOnUse">
<stop stop-color="#FFCC40"/>
<stop offset="0.466346" stop-color="#EC9122"/>
<stop offset="1" stop-color="#FF2CAE"/>
</linearGradient>
</defs>
</svg>
