<svg width="44" height="44" viewBox="0 0 44 44" fill="none" xmlns="http://www.w3.org/2000/svg">
<path d="M26.0909 11C28.9842 11 31.759 12.1589 33.8048 14.2218C35.8507 16.2847 37 19.0826 37 22C37 24.9174 35.8507 27.7153 33.8048 29.7782C31.759 31.8411 28.9842 33 26.0909 33C23.1976 33 20.4229 31.8411 18.377 29.7782C16.3312 27.7153 15.1818 24.9174 15.1818 22C15.1818 19.0826 16.3312 16.2847 18.377 14.2218C20.4229 12.1589 23.1976 11 26.0909 11ZM26.0909 13.75C23.921 13.75 21.8399 14.6192 20.3055 16.1664C18.7711 17.7135 17.9091 19.812 17.9091 22C17.9091 24.188 18.7711 26.2865 20.3055 27.8336C21.8399 29.3808 23.921 30.25 26.0909 30.25C28.2609 30.25 30.3419 29.3808 31.8763 27.8336C33.4107 26.2865 34.2727 24.188 34.2727 22C34.2727 19.812 33.4107 17.7135 31.8763 16.1664C30.3419 14.6192 28.2609 13.75 26.0909 13.75ZM24.7273 16.5H26.7727V21.6975L29.95 24.9012L28.5045 26.3588L24.7273 22.55V16.5ZM8.36364 30.25C8.00198 30.25 7.65513 30.1051 7.3994 29.8473C7.14367 29.5894 7 29.2397 7 28.875C7 28.5103 7.14367 28.1606 7.3994 27.9027C7.65513 27.6449 8.00198 27.5 8.36364 27.5H13.5864C14.0091 28.4762 14.5545 29.3975 15.1818 30.25H8.36364ZM9.72727 23.375C9.36561 23.375 9.01877 23.2301 8.76304 22.9723C8.5073 22.7144 8.36364 22.3647 8.36364 22C8.36364 21.6353 8.5073 21.2856 8.76304 21.0277C9.01877 20.7699 9.36561 20.625 9.72727 20.625H12.5227L12.4545 22L12.5227 23.375H9.72727ZM11.0909 16.5C10.7293 16.5 10.3824 16.3551 10.1267 16.0973C9.87094 15.8394 9.72727 15.4897 9.72727 15.125C9.72727 14.7603 9.87094 14.4106 10.1267 14.1527C10.3824 13.8949 10.7293 13.75 11.0909 13.75H15.1818C14.5545 14.6025 14.0091 15.5238 13.5864 16.5H11.0909Z" fill="white"/>
</svg>
