<svg width="30" height="30" viewBox="0 0 30 30" fill="none" xmlns="http://www.w3.org/2000/svg">
<path d="M6.5625 15C6.5625 14.3528 6.03785 13.8281 5.39062 13.8281H1.17188C0.524648 13.8281 0 14.3528 0 15C0 15.6472 0.524648 16.1719 1.17188 16.1719H5.39062C6.03785 16.1719 6.5625 15.6472 6.5625 15Z" fill="white"/>
<path d="M19.4531 4.45312C15.8041 4.45312 12.5822 6.31611 10.688 9.14062H3.51562C2.8684 9.14062 2.34375 9.66527 2.34375 10.3125C2.34375 10.9597 2.8684 11.4844 3.51562 11.4844H9.50953C9.11936 12.5845 8.90625 13.7678 8.90625 15C8.90625 16.2322 9.11936 17.4155 9.50953 18.5156H3.51562C2.8684 18.5156 2.34375 19.0403 2.34375 19.6875C2.34375 20.3347 2.8684 20.8594 3.51562 20.8594H10.688C12.5823 23.6839 15.8041 25.5469 19.4531 25.5469C22.2663 25.5469 24.9138 24.4487 26.9078 22.4546C27.3654 21.997 27.3654 21.255 26.9078 20.7974C26.4502 20.3398 25.7082 20.3397 25.2505 20.7974C23.6991 22.3487 21.6403 23.2031 19.4531 23.2031C14.9299 23.2031 11.25 19.5232 11.25 15C11.25 10.4768 14.9299 6.79688 19.4531 6.79688C23.9763 6.79688 27.6562 10.4768 27.6562 15C27.6562 15.6472 28.1809 16.1719 28.8281 16.1719C29.4754 16.1719 30 15.6472 30 15C30 9.18445 25.2687 4.45312 19.4531 4.45312Z" fill="white"/>
<path d="M19.4531 9.14062C18.8059 9.14062 18.2812 9.66527 18.2812 10.3125V15C18.2812 15.6472 18.8059 16.1719 19.4531 16.1719H24.1406C24.7879 16.1719 25.3125 15.6472 25.3125 15C25.3125 14.3528 24.7879 13.8281 24.1406 13.8281H20.625V10.3125C20.625 9.66527 20.1004 9.14062 19.4531 9.14062Z" fill="white"/>
</svg>
