<svg width="30" height="30" viewBox="0 0 30 30" fill="none" xmlns="http://www.w3.org/2000/svg">
<path d="M29.1211 13.6993H26.7675C26.6963 13.6993 26.6258 13.7022 26.5558 13.7068C26.0271 13.2351 25.4423 12.8455 24.8167 12.5455C26.2434 11.5322 27.1758 9.8671 27.1758 7.9882C27.1758 4.90814 24.67 2.40234 21.59 2.40234C18.5097 2.40234 16.0039 4.90814 16.0039 7.9882C16.0039 9.46838 16.5829 10.8158 17.5259 11.8163H13.4157C14.3587 10.8158 14.9375 9.46838 14.9375 7.9882C14.9375 4.90814 12.4317 2.40234 9.35165 2.40234C6.27159 2.40234 3.76556 4.90814 3.76556 7.9882C3.76556 9.71558 4.55383 11.2621 5.78934 12.2878C4.93378 12.6075 4.14001 13.0856 3.44398 13.7068C3.37395 13.7022 3.30368 13.6993 3.2325 13.6993H0.878906C0.393448 13.6993 0 14.0927 0 14.5782V19.2851C0 19.7706 0.393448 20.164 0.878906 20.164H0.941391V26.8165C0.941391 27.3017 1.33484 27.6954 1.8203 27.6954H28.1797C28.6652 27.6954 29.0586 27.3017 29.0586 26.8165V20.164H29.1211C29.6066 20.164 30 19.7706 30 19.2851V14.5782C30 14.0927 29.6066 13.6993 29.1211 13.6993ZM28.2422 18.4062H26.7675C25.9545 18.4062 25.2928 17.7448 25.2928 16.9315C25.2928 16.1185 25.9545 15.4571 26.7675 15.4571H28.2422V18.4062ZM17.7617 7.9882C17.7617 5.87746 19.479 4.16016 21.5897 4.16016C23.7005 4.16016 25.418 5.87746 25.418 7.9882C25.418 10.0992 23.7007 11.8163 21.59 11.8163C19.479 11.8163 17.7617 10.0992 17.7617 7.9882ZM9.35165 4.16016C11.4624 4.16016 13.1797 5.87746 13.1797 7.9882C13.1797 10.099 11.4624 11.8163 9.35165 11.8163C7.24068 11.8163 5.52338 10.0992 5.52338 7.9882C5.52338 5.87746 7.24068 4.16016 9.35165 4.16016ZM1.75781 15.4571H3.2325C4.04549 15.4571 4.70718 16.1185 4.70718 16.9318C4.70718 17.7448 4.04549 18.4062 3.2325 18.4062H1.75781V15.4571ZM2.6992 20.164H3.2325C5.0148 20.164 6.465 18.7141 6.465 16.9315C6.465 15.9446 6.01959 15.06 5.32013 14.4667H5.34096C6.24939 13.8856 7.30591 13.5743 8.41026 13.5743H16.7825C15.1561 14.9453 14.1211 16.9965 14.1211 19.2851V25.9376H6.46477V22.1093C6.46477 21.6241 6.07132 21.2304 5.58586 21.2304C5.10063 21.2304 4.70695 21.6241 4.70695 22.1093V25.9373H2.6992V20.164ZM27.3008 25.9373H25.2928V22.1093C25.2928 21.6241 24.8994 21.2304 24.4139 21.2304C23.9287 21.2304 23.535 21.6241 23.535 22.1093V25.9373H15.8789V19.2851C15.8789 16.1362 18.4408 13.5743 21.59 13.5743C22.6994 13.5743 23.7602 13.8883 24.6709 14.4743C23.9765 15.0677 23.5352 15.9487 23.5352 16.9318C23.5352 18.7141 24.9852 20.164 26.7677 20.164H27.3008V25.9373Z" fill="white"/>
</svg>
