<svg width="30" height="30" viewBox="0 0 30 30" fill="none" xmlns="http://www.w3.org/2000/svg">
<g clip-path="url(#clip0_105_4215)">
<path d="M30 8.96556V14.8249C30 15.472 29.4754 15.9968 28.8281 15.9968C28.1808 15.9968 27.6562 15.472 27.6562 14.8249V8.96556C27.6562 8.75247 27.6279 8.54213 27.572 8.3398C27.3999 7.71586 27.7659 7.07065 28.3898 6.8983C29.0135 6.72618 29.6592 7.09216 29.8313 7.71609C29.9432 8.12144 30 8.5419 30 8.96556ZM28.8281 19.5124C28.1808 19.5124 27.6562 20.037 27.6562 20.6843C27.6562 21.9766 26.6048 23.0281 25.3125 23.0281H4.6875C3.39523 23.0281 2.34375 21.9766 2.34375 20.6843V8.96556C2.34375 7.67306 3.39523 6.62181 4.6875 6.62181H12.8906C13.5379 6.62181 14.0625 6.09698 14.0625 5.44993C14.0625 4.80266 13.5379 4.27806 12.8906 4.27806H4.6875C2.10274 4.27806 0 6.3808 0 8.96556V20.6843C0 23.2688 2.10274 25.3718 4.6875 25.3718H13.8281V27.7082H9.72656C9.07928 27.7082 8.55469 28.2331 8.55469 28.8801C8.55469 29.5274 9.07928 30.052 9.72656 30.052H20.2734C20.9207 30.052 21.4453 29.5274 21.4453 28.8801C21.4453 28.2331 20.9207 27.7082 20.2734 27.7082H16.1719V25.3718H25.3125C27.8973 25.3718 30 23.2688 30 20.6843C30 20.037 29.4754 19.5124 28.8281 19.5124ZM13.9227 9.49359L20.5586 1.47563C21.1102 0.73451 21.9147 0.247449 22.8289 0.102567C23.7566 -0.0441464 24.6856 0.179013 25.4453 0.730848C26.2049 1.28291 26.7043 2.09773 26.851 3.02516C26.998 3.95282 26.7748 4.88185 26.2228 5.64151L26.1765 5.70102L19.024 14.3228C19.1341 15.7892 18.6333 17.2934 17.5186 18.4127C15.5814 20.3575 13.4045 20.6257 11.3404 20.6257C8.43475 20.6257 6.12305 18.8821 6.02623 18.8079C5.69092 18.5514 5.51949 18.1343 5.57762 17.7162C5.63576 17.298 5.91431 16.9432 6.30684 16.7878C7.71126 16.2314 8.03787 15.2957 8.49014 14.0005C8.83209 13.0207 9.21982 11.9101 10.169 11.0044C11.2001 10.0207 12.5262 9.48146 13.903 9.49313C13.9096 9.4929 13.916 9.49359 13.9227 9.49359ZM15.8581 12.6792C15.3218 12.1408 14.6219 11.8415 13.8874 11.8367C13.8812 11.8367 13.8748 11.8367 13.8686 11.8367C13.1097 11.8367 12.3711 12.1429 11.787 12.7C11.2463 13.2159 10.9946 13.9373 10.7027 14.7727C10.3645 15.7423 9.97055 16.8709 9.02252 17.796C9.67552 18.0595 10.4814 18.282 11.3404 18.282C13.1927 18.282 14.5947 18.0272 15.8583 16.7585C16.9785 15.6338 16.9785 13.8039 15.8581 12.6792ZM16.4046 10.1706C16.8063 10.4011 17.1812 10.6865 17.5188 11.0253C17.7434 11.2507 17.9416 11.4926 18.1165 11.7458L24.3448 4.23823C24.5155 3.9899 24.5835 3.69052 24.5361 3.39183C24.4872 3.08261 24.3208 2.81093 24.0676 2.6269C23.8142 2.44288 23.5048 2.36873 23.1953 2.41748C22.8864 2.46646 22.6147 2.63286 22.4306 2.88623L22.3856 2.94459L16.4046 10.1706Z" fill="white"/>
</g>
<defs>
<clipPath id="clip0_105_4215">
<rect width="30" height="30" fill="white"/>
</clipPath>
</defs>
</svg>
