<svg width="30" height="30" viewBox="0 0 30 30" fill="none" xmlns="http://www.w3.org/2000/svg">
<g clip-path="url(#clip0_105_2876)">
<path d="M29.5155 16.4227C28.781 15.184 27.7353 14.1463 26.4911 13.4219C26.1457 13.2207 25.7866 13.046 25.4176 12.8968C25.4799 12.8407 25.541 12.7833 25.6007 12.7233C27.4496 10.8746 27.4496 7.86644 25.6007 6.01776C23.752 4.16885 20.7438 4.16885 18.8952 6.01776C18.0357 6.87698 17.5764 7.98706 17.5162 9.11453C16.7691 8.64487 15.9041 8.39218 15.0001 8.39218C14.0969 8.39218 13.2331 8.64441 12.4865 9.11293C12.4242 7.94334 11.9397 6.85226 11.1049 6.01776C10.2093 5.12215 9.01869 4.62891 7.75206 4.62891C6.48566 4.62891 5.29478 5.12215 4.3994 6.01776C3.50378 6.91338 3.01054 8.10402 3.01054 9.37065C3.01054 10.6371 3.50378 11.8279 4.3994 12.7233C4.45891 12.783 4.52025 12.8407 4.5825 12.8968C4.21355 13.046 3.85443 13.2207 3.50905 13.4219C2.26485 14.1463 1.21909 15.184 0.484605 16.4227C-0.152372 17.4973 -0.161986 18.7898 0.4592 19.88C1.08656 20.9814 2.21655 21.6389 3.48158 21.6389H7.26134C7.20137 22.3206 7.34946 23.0154 7.7072 23.6433C8.33456 24.7446 9.46455 25.4022 10.7296 25.4022H19.2708C20.5358 25.4022 21.6656 24.7446 22.2931 23.6433C22.6507 23.0154 22.7987 22.3206 22.7388 21.6389H26.5185C27.7836 21.6389 28.9136 20.9814 29.5409 19.88C30.1621 18.7898 30.1525 17.4973 29.5155 16.4227ZM27.9486 18.9727C27.6513 19.4948 27.1166 19.8063 26.5185 19.8063H22.0272C21.3124 18.7351 20.3577 17.8342 19.2431 17.1851C18.8977 16.9842 18.5388 16.8093 18.1698 16.6601C18.2319 16.604 18.2932 16.5466 18.3529 16.4868C18.8574 15.9824 19.2341 15.3841 19.4671 14.7313C20.3273 14.331 21.2749 14.1122 22.2481 14.1122C24.5717 14.1122 26.7525 15.3557 27.939 17.3573C28.2361 17.858 28.2395 18.4621 27.9486 18.9727ZM20.691 21.1205C20.9881 21.6215 20.9917 22.2256 20.7006 22.7362C20.4033 23.2581 19.8688 23.5698 19.2705 23.5698H10.7296C10.1313 23.5698 9.59662 23.2581 9.2993 22.7362C9.00839 22.2256 9.01205 21.6215 9.30891 21.1205C10.4957 19.119 12.6762 17.8754 15.0001 17.8754C17.3239 17.8754 19.5045 19.119 20.691 21.1205ZM2.05153 18.9729C1.76039 18.4621 1.76405 17.858 2.06114 17.3573C3.24767 15.3557 5.42822 14.1122 7.75206 14.1122C8.72504 14.1122 9.67261 14.331 10.533 14.7313C10.766 15.3838 11.1427 15.9821 11.6472 16.4868C11.7069 16.5463 11.768 16.604 11.8303 16.6601C11.4613 16.8093 11.1024 16.9842 10.7568 17.1851C9.64239 17.8342 8.68773 18.7351 7.9727 19.8063H3.48158C2.88352 19.8063 2.34885 19.4948 2.05153 18.9729ZM5.6951 11.4276C5.14578 10.8781 4.8432 10.1475 4.8432 9.37065C4.8432 8.5936 5.14578 7.86301 5.6951 7.31346C6.24464 6.76414 6.97501 6.46156 7.75206 6.46156C8.52911 6.46156 9.2597 6.76414 9.80925 7.31346C10.3586 7.86301 10.6611 8.5936 10.6611 9.37065C10.6611 10.1475 10.3586 10.8781 9.80925 11.4276C9.2597 11.9769 8.52911 12.2797 7.75206 12.2797C6.97501 12.2797 6.24464 11.9769 5.6951 11.4276ZM22.2478 6.46294C22.9928 6.46294 23.7379 6.74629 24.305 7.31346C25.4391 8.4478 25.4391 10.2933 24.305 11.4276C23.1707 12.5619 21.3252 12.5617 20.1909 11.4276C19.0568 10.2933 19.0568 8.4478 20.1909 7.31346C20.758 6.74652 21.503 6.46294 22.2478 6.46294ZM17.057 11.077C17.6066 11.6263 17.9091 12.3569 17.9091 13.1339C17.9091 13.911 17.6066 14.6413 17.057 15.1909C16.5077 15.7404 15.7771 16.043 15.0001 16.043C14.223 16.043 13.4924 15.7404 12.9431 15.1909C12.3936 14.6413 12.091 13.911 12.091 13.1339C12.091 12.3569 12.3936 11.6263 12.9431 11.077C13.4924 10.5274 14.223 10.2248 15.0001 10.2248C15.7771 10.2248 16.5077 10.5274 17.057 11.077Z" fill="white"/>
</g>
<defs>
<clipPath id="clip0_105_2876">
<rect width="30" height="30" fill="white"/>
</clipPath>
</defs>
</svg>
