<svg width="129" height="143" viewBox="0 0 129 143" fill="none" xmlns="http://www.w3.org/2000/svg">
<path fill-rule="evenodd" clip-rule="evenodd" d="M30.3136 70.4768V59.1496L20.4646 53.4931V64.8267L30.3136 70.4831V70.4768ZM32.912 74.6428C32.6387 74.8354 32.3129 74.9407 31.978 74.9447C31.6431 74.9487 31.3149 74.8512 31.037 74.6651L17.9971 67.1735C17.7479 67.0303 17.541 66.8244 17.3972 66.5764C17.2534 66.3285 17.1777 66.0472 17.1779 65.7609V50.6665C17.1777 50.3588 17.2647 50.0574 17.4288 49.7966C17.5929 49.5358 17.8275 49.3263 18.1057 49.192L31.1409 41.7052C31.4062 41.5521 31.7093 41.476 32.0158 41.4856C32.3223 41.4951 32.6201 41.5899 32.8752 41.7592L39.3545 45.4819L45.9215 49.2556C46.1708 49.3991 46.3776 49.6053 46.5214 49.8535C46.6652 50.1017 46.7409 50.3832 46.7408 50.6697V65.7641C46.741 66.0714 46.6542 66.3725 46.4904 66.633C46.3265 66.8934 46.0923 67.1028 45.8145 67.237L39.3481 70.9502C39.3177 70.9677 39.2874 70.9852 39.2571 70.9995L32.9088 74.6539L32.912 74.6428ZM43.4525 53.4931L33.6051 59.1496V70.4799L37.6217 68.1729L37.7063 68.1204L43.4557 64.8203V53.4931H43.4525ZM31.9537 56.3309L22.0952 50.6681L31.9569 45.0021L37.7063 48.3022L41.8219 50.6681L31.9633 56.3309H31.9537ZM95.3949 27.2161V139.725H3.29152V27.2161H95.3949ZM55.218 44.0122H84.1245C84.5521 43.999 84.9578 43.8207 85.2555 43.515C85.5533 43.2094 85.7198 42.8005 85.7198 42.3749C85.7198 41.9492 85.5533 41.5403 85.2555 41.2347C84.9578 40.9291 84.5521 40.7508 84.1245 40.7375H55.218C54.7903 40.7508 54.3847 40.9291 54.0869 41.2347C53.7892 41.5403 53.6227 41.9492 53.6227 42.3749C53.6227 42.8005 53.7892 43.2094 54.0869 43.515C54.3847 43.8207 54.7903 43.999 55.218 44.0122ZM55.218 54.6753H84.1245C84.5521 54.662 84.9578 54.4837 85.2555 54.1781C85.5533 53.8725 85.7198 53.4635 85.7198 53.0379C85.7198 52.6123 85.5533 52.2034 85.2555 51.8977C84.9578 51.5921 84.5521 51.4138 84.1245 51.4006H55.218C54.7903 51.4138 54.3847 51.5921 54.0869 51.8977C53.7892 52.2034 53.6227 52.6123 53.6227 53.0379C53.6227 53.4635 53.7892 53.8725 54.0869 54.1781C54.3847 54.4837 54.7903 54.662 55.218 54.6753ZM55.218 65.3367H84.1245C84.5521 65.3234 84.9578 65.1451 85.2555 64.8395C85.5533 64.5339 85.7198 64.125 85.7198 63.6993C85.7198 63.2737 85.5533 62.8648 85.2555 62.5592C84.9578 62.2536 84.5521 62.0753 84.1245 62.062H55.218C54.7903 62.0753 54.3847 62.2536 54.0869 62.5592C53.7892 62.8648 53.6227 63.2737 53.6227 63.6993C53.6227 64.125 53.7892 64.5339 54.0869 64.8395C54.3847 65.1451 54.7903 65.3234 55.218 65.3367ZM55.218 75.9997H84.1245C84.5612 75.9997 84.98 75.8271 85.2888 75.5199C85.5976 75.2127 85.7711 74.7961 85.7711 74.3616C85.7711 73.9271 85.5976 73.5105 85.2888 73.2032C84.98 72.896 84.5612 72.7234 84.1245 72.7234H55.218C54.7813 72.7234 54.3625 72.896 54.0537 73.2032C53.7449 73.5105 53.5714 73.9271 53.5714 74.3616C53.5714 74.7961 53.7449 75.2127 54.0537 75.5199C54.3625 75.8271 54.7813 75.9997 55.218 75.9997ZM14.5635 86.6612H15.2582C15.4786 86.668 15.6982 86.6307 15.9039 86.5515C16.1096 86.4723 16.2971 86.3528 16.4555 86.2001C16.6139 86.0474 16.7398 85.8645 16.8257 85.6625C16.9117 85.4604 16.956 85.2432 16.956 85.0238C16.956 84.8044 16.9117 84.5872 16.8257 84.3852C16.7398 84.1831 16.6139 84.0003 16.4555 83.8476C16.2971 83.6949 16.1096 83.5754 15.9039 83.4962C15.6982 83.4169 15.4786 83.3796 15.2582 83.3865H14.5635C14.3431 83.3796 14.1235 83.4169 13.9178 83.4962C13.7121 83.5754 13.5245 83.6949 13.3662 83.8476C13.2078 84.0003 13.0819 84.1831 12.9959 84.3852C12.91 84.5872 12.8657 84.8044 12.8657 85.0238C12.8657 85.2432 12.91 85.4604 12.9959 85.6625C13.0819 85.8645 13.2078 86.0474 13.3662 86.2001C13.5245 86.3528 13.7121 86.4723 13.9178 86.5515C14.1235 86.6307 14.3431 86.668 14.5635 86.6612ZM14.5635 97.3226H84.1245C84.5521 97.3094 84.9578 97.1311 85.2555 96.8254C85.5533 96.5198 85.7198 96.1109 85.7198 95.6853C85.7198 95.2596 85.5533 94.8507 85.2555 94.5451C84.9578 94.2395 84.5521 94.0612 84.1245 94.0479H14.5635C14.3431 94.0411 14.1235 94.0784 13.9178 94.1576C13.7121 94.2368 13.5245 94.3563 13.3662 94.509C13.2078 94.6618 13.0819 94.8446 12.9959 95.0466C12.91 95.2487 12.8657 95.4659 12.8657 95.6853C12.8657 95.9047 12.91 96.1219 12.9959 96.3239C13.0819 96.526 13.2078 96.7088 13.3662 96.8615C13.5245 97.0142 13.7121 97.1337 13.9178 97.213C14.1235 97.2922 14.3431 97.3295 14.5635 97.3226ZM14.5635 107.986H15.2582C15.4786 107.992 15.6982 107.955 15.9039 107.876C16.1096 107.797 16.2971 107.677 16.4555 107.525C16.6139 107.372 16.7398 107.189 16.8257 106.987C16.9117 106.785 16.956 106.568 16.956 106.348C16.956 106.129 16.9117 105.912 16.8257 105.71C16.7398 105.508 16.6139 105.325 16.4555 105.172C16.2971 105.019 16.1096 104.9 15.9039 104.821C15.6982 104.741 15.4786 104.704 15.2582 104.711H14.5635C14.3431 104.704 14.1235 104.741 13.9178 104.821C13.7121 104.9 13.5245 105.019 13.3662 105.172C13.2078 105.325 13.0819 105.508 12.9959 105.71C12.91 105.912 12.8657 106.129 12.8657 106.348C12.8657 106.568 12.91 106.785 12.9959 106.987C13.0819 107.189 13.2078 107.372 13.3662 107.525C13.5245 107.677 13.7121 107.797 13.9178 107.876C14.1235 107.955 14.3431 107.992 14.5635 107.986ZM14.5635 118.647H84.1245C84.5521 118.634 84.9578 118.456 85.2555 118.15C85.5533 117.844 85.7198 117.435 85.7198 117.01C85.7198 116.584 85.5533 116.175 85.2555 115.87C84.9578 115.564 84.5521 115.386 84.1245 115.372H14.5635C14.3431 115.366 14.1235 115.403 13.9178 115.482C13.7121 115.561 13.5245 115.681 13.3662 115.834C13.2078 115.986 13.0819 116.169 12.9959 116.371C12.91 116.573 12.8657 116.79 12.8657 117.01C12.8657 117.229 12.91 117.446 12.9959 117.648C13.0819 117.85 13.2078 118.033 13.3662 118.186C13.5245 118.339 13.7121 118.458 13.9178 118.537C14.1235 118.617 14.3431 118.654 14.5635 118.647ZM14.5635 129.31H84.1245C84.5521 129.297 84.9578 129.119 85.2555 128.813C85.5533 128.507 85.7198 128.098 85.7198 127.673C85.7198 127.247 85.5533 126.838 85.2555 126.533C84.9578 126.227 84.5521 126.049 84.1245 126.035H14.5635C14.3431 126.029 14.1235 126.066 13.9178 126.145C13.7121 126.224 13.5245 126.344 13.3662 126.497C13.2078 126.649 13.0819 126.832 12.9959 127.034C12.91 127.236 12.8657 127.453 12.8657 127.673C12.8657 127.892 12.91 128.109 12.9959 128.311C13.0819 128.513 13.2078 128.696 13.3662 128.849C13.5245 129.002 13.7121 129.121 13.9178 129.2C14.1235 129.28 14.3431 129.317 14.5635 129.31ZM30.3136 23.935V1.63814C30.3134 1.4231 30.3558 1.21011 30.4383 1.01137C30.5209 0.812634 30.642 0.632034 30.7948 0.479898C30.9476 0.327761 31.129 0.207071 31.3287 0.124727C31.5284 0.0423835 31.7424 -1.01352e-07 31.9585 0H127.355C127.571 -1.01352e-07 127.785 0.0423835 127.985 0.124727C128.185 0.207071 128.366 0.327761 128.519 0.479898C128.672 0.632034 128.793 0.812634 128.875 1.01137C128.958 1.21011 129 1.4231 129 1.63814V117.419C129 117.853 128.827 118.27 128.518 118.577C128.21 118.884 127.791 119.057 127.355 119.057C127.299 119.057 127.243 119.054 127.187 119.048L98.6864 118.665V141.362C98.6866 141.577 98.6442 141.79 98.5617 141.989C98.4791 142.187 98.358 142.368 98.2052 142.52C98.0524 142.672 97.871 142.793 97.6713 142.875C97.4716 142.958 97.2576 143 97.0415 143H1.64496C1.42881 143 1.21477 142.958 1.01509 142.875C0.815413 142.793 0.634004 142.672 0.481234 142.52C0.328465 142.368 0.207331 142.187 0.124758 141.989C0.042185 141.79 -0.000209083 141.577 7.75323e-07 141.362V25.5811C5.70039e-07 25.1469 0.173258 24.7305 0.481702 24.4233C0.790146 24.1162 1.20854 23.9434 1.64496 23.943L30.3136 23.935ZM87.8504 23.935L33.6051 3.98652V23.9398L87.8504 23.935ZM41.1496 3.2747L97.5254 24.0113C97.8623 24.1142 98.1572 24.322 98.3667 24.6039C98.5763 24.8859 98.6894 25.2273 98.6896 25.5779V115.406L125.712 115.768V3.2747H41.1496ZM23.2626 86.6659H84.1261C84.3466 86.6728 84.5661 86.6355 84.7718 86.5563C84.9775 86.4771 85.1651 86.3576 85.3234 86.2048C85.4818 86.0521 85.6077 85.8693 85.6937 85.6673C85.7797 85.4652 85.824 85.248 85.824 85.0286C85.824 84.8092 85.7797 84.592 85.6937 84.3899C85.6077 84.1879 85.4818 84.0051 85.3234 83.8524C85.1651 83.6996 84.9775 83.5801 84.7718 83.5009C84.5661 83.4217 84.3466 83.3844 84.1261 83.3912H23.261C23.0406 83.3844 22.821 83.4217 22.6153 83.5009C22.4097 83.5801 22.2221 83.6996 22.0637 83.8524C21.9054 84.0051 21.7795 84.1879 21.6935 84.3899C21.6075 84.592 21.5632 84.8092 21.5632 85.0286C21.5632 85.248 21.6075 85.4652 21.6935 85.6673C21.7795 85.8693 21.9054 86.0521 22.0637 86.2048C22.2221 86.3576 22.4097 86.4771 22.6153 86.5563C22.821 86.6355 23.0406 86.6728 23.261 86.6659H23.2626ZM23.2626 107.99H84.1261C84.3466 107.997 84.5661 107.96 84.7718 107.881C84.9775 107.802 85.1651 107.682 85.3234 107.529C85.4818 107.377 85.6077 107.194 85.6937 106.992C85.7797 106.79 85.824 106.572 85.824 106.353C85.824 106.134 85.7797 105.916 85.6937 105.714C85.6077 105.512 85.4818 105.33 85.3234 105.177C85.1651 105.024 84.9775 104.905 84.7718 104.825C84.5661 104.746 84.3466 104.709 84.1261 104.716H23.261C23.0406 104.709 22.821 104.746 22.6153 104.825C22.4097 104.905 22.2221 105.024 22.0637 105.177C21.9054 105.33 21.7795 105.512 21.6935 105.714C21.6075 105.916 21.5632 106.134 21.5632 106.353C21.5632 106.572 21.6075 106.79 21.6935 106.992C21.7795 107.194 21.9054 107.377 22.0637 107.529C22.2221 107.682 22.4097 107.802 22.6153 107.881C22.821 107.96 23.0406 107.997 23.261 107.99H23.2626Z" fill="#F14A58"/>
</svg>
