<svg width="45" height="45" viewBox="0 0 45 45" fill="none" xmlns="http://www.w3.org/2000/svg">
<path d="M37.5 22.4997V19.2991C37.5 10.9703 30.9769 3.99722 22.9594 3.75535C18.8269 3.65972 14.9887 5.13535 12.0544 7.98535C10.6074 9.37888 9.45788 11.0512 8.67512 12.9013C7.89235 14.7513 7.4926 16.7409 7.5 18.7497V22.4997C5.43187 22.4997 3.75 24.1816 3.75 26.2497V33.7497C3.75 35.8178 5.43187 37.4997 7.5 37.4997H11.25V18.7497C11.2445 17.2431 11.5442 15.7511 12.131 14.3634C12.7178 12.9758 13.5796 11.7215 14.6644 10.676C15.7448 9.62469 17.0261 8.80207 18.4317 8.2573C19.8373 7.71252 21.3383 7.45677 22.845 7.50535C28.86 7.68535 33.75 12.9766 33.75 19.2991V37.4997H37.5C39.5681 37.4997 41.25 35.8178 41.25 33.7497V26.2497C41.25 24.1816 39.5681 22.4997 37.5 22.4997Z" fill="white"/>
<path d="M13.125 22.5H16.875V37.5H13.125V22.5ZM28.125 22.5H31.875V37.5H28.125V22.5Z" fill="white"/>
</svg>
