<svg width="26" height="23" viewBox="0 0 26 23" fill="none" xmlns="http://www.w3.org/2000/svg">
<path d="M21.9284 12.7937L14.6214 20.102C14.137 20.5863 13.48 20.8583 12.795 20.8583C12.11 20.8583 11.4531 20.5863 10.9686 20.102L3.66165 12.795C3.05762 12.1963 2.57781 11.4841 2.24976 10.6994C1.92171 9.91473 1.75188 9.07297 1.75002 8.22248C1.74815 7.37198 1.9143 6.52949 2.23891 5.74337C2.56352 4.95725 3.04021 4.243 3.6416 3.6416C4.243 3.04021 4.95725 2.56352 5.74337 2.23891C6.52949 1.9143 7.37198 1.74815 8.22247 1.75002C9.07297 1.75188 9.91473 1.92171 10.6994 2.24976C11.4841 2.57781 12.1963 3.05762 12.795 3.66165C14.0112 2.47573 15.6457 1.81671 17.3443 1.82736C19.043 1.838 20.669 2.51745 21.8702 3.71851C23.0715 4.91957 23.7512 6.54554 23.762 8.24418C23.7729 9.94283 23.1141 11.5774 21.9284 12.7937Z" stroke="white" stroke-width="3.5" stroke-linecap="round" stroke-linejoin="round"/>
</svg>
