<svg width="30" height="30" viewBox="0 0 30 30" fill="none" xmlns="http://www.w3.org/2000/svg">
<g clip-path="url(#clip0_105_2900)">
<path d="M1.17164 30C1.02064 30 0.868416 29.9708 0.723397 29.9108C0.285468 29.7294 0 29.302 0 28.828L0.000703124 15.1408C-0.0361523 11.1218 1.50955 7.32696 4.35357 4.45546C7.19928 1.58232 10.9803 0 15 0C19.0496 0 22.8364 1.57154 25.6628 4.42511C28.4981 7.28782 30.0382 11.0956 29.9993 15.147C29.961 19.1369 28.3745 22.875 25.5319 25.6727C22.6965 28.4633 18.9369 29.9999 14.945 29.9999C14.9402 29.9999 14.9352 29.9999 14.9305 29.9999C12.5692 30 10.3148 29.4704 8.2303 28.4258C6.23858 27.4276 3.82716 27.83 2.22978 29.4275L2.00056 29.6568C1.77638 29.8809 1.47656 29.9999 1.17164 30ZM5.9336 25.5381C7.07161 25.5381 8.21653 25.7973 9.28041 26.3305C11.0358 27.2102 12.9371 27.6562 14.9315 27.6562C14.9353 27.6563 14.94 27.6562 14.9437 27.6562C21.8882 27.6567 27.5892 22.0361 27.6556 15.1245C27.6885 11.7034 26.3893 8.48934 23.9975 6.07446C21.6148 3.66866 18.4194 2.34375 15 2.34375C11.6105 2.34375 8.42096 3.67945 6.0188 6.10475C3.61675 8.53 2.31181 11.7333 2.34439 15.1245C2.34445 15.1283 2.34445 15.1321 2.34445 15.1358L2.34386 26.4483C3.45433 25.8479 4.68972 25.5381 5.9336 25.5381ZM15 21.2654C14.2138 21.2654 13.428 21.0199 12.7719 20.5286C10.0651 18.5018 8.60682 16.0742 8.5549 13.5084C8.55473 13.5004 8.55467 13.4925 8.55467 13.4847C8.55467 11.3801 10.2632 9.66795 12.3633 9.66795C13.3856 9.66795 14.3152 10.0728 15 10.7307C15.6848 10.0728 16.6143 9.66795 17.6367 9.66795C19.7367 9.66795 21.4453 11.3801 21.4453 13.4846C21.4453 13.4925 21.4452 13.5004 21.445 13.5083C21.3931 16.0742 19.9349 18.5018 17.2279 20.5286C16.5722 21.0197 15.7859 21.2653 15 21.2654ZM10.8985 13.4738C10.9513 15.7643 12.7095 17.5539 14.1767 18.6525C14.6615 19.0155 15.3385 19.0154 15.8232 18.6526C17.2905 17.5539 19.0487 15.7643 19.1015 13.4738C19.0957 12.6666 18.4408 12.0117 17.6367 12.0117C16.829 12.0117 16.1718 12.6688 16.1718 13.4765C16.1718 14.1238 15.6472 14.6484 15 14.6484C14.3527 14.6484 13.8281 14.1238 13.8281 13.4765C13.8281 12.6688 13.171 12.0117 12.3633 12.0117C11.5592 12.0117 10.9043 12.6666 10.8985 13.4738Z" fill="white"/>
</g>
<defs>
<clipPath id="clip0_105_2900">
<rect width="30" height="30" fill="white"/>
</clipPath>
</defs>
</svg>
