<svg width="129" height="155" viewBox="0 0 129 155" fill="none" xmlns="http://www.w3.org/2000/svg">
<path d="M62.0878 18.3777V2.42194C62.0878 1.08255 63.1661 0 64.5004 0C65.8347 0 66.913 1.08252 66.913 2.42194V18.3777C66.913 19.7171 65.8347 20.7997 64.5004 20.7997C63.1661 20.7997 62.0878 19.7172 62.0878 18.3777ZM126.587 62.3262H110.687C109.352 62.3262 108.274 63.4088 108.274 64.7482C108.274 66.0876 109.352 67.1701 110.687 67.1701H126.587C127.922 67.1701 129 66.0876 129 64.7482C129 63.4088 127.916 62.3262 126.587 62.3262ZM97.1613 34.3821C97.7767 34.3821 98.392 34.1436 98.8673 33.6726L110.108 22.3888C111.052 21.4408 111.052 19.9119 110.108 18.9639C109.163 18.022 107.64 18.022 106.696 18.9639L95.4555 30.2477C94.5112 31.1957 94.5112 32.7246 95.4555 33.6726C95.9307 34.1497 96.5459 34.3821 97.1613 34.3821ZM33.5382 33.6787C34.4826 32.7308 34.4826 31.2018 33.5382 30.2538L22.2978 18.97C21.3535 18.022 19.8304 18.022 18.886 18.97C17.9417 19.918 17.9417 21.4469 18.886 22.3949L30.1265 33.6787C30.5956 34.1497 31.2109 34.3882 31.8324 34.3882C32.4539 34.3882 33.069 34.1497 33.5382 33.6787ZM18.3133 62.3259H2.41263C1.07839 62.3259 0 63.4084 0 64.7478C0 66.0872 1.07836 67.1698 2.41263 67.1698H18.3133C19.6476 67.1698 20.726 66.0872 20.726 64.7478C20.726 63.4084 19.6415 62.3259 18.3133 62.3259ZM124.821 145.686C125.649 147.117 125.869 148.792 125.436 150.401C125.01 152.003 123.986 153.343 122.56 154.168C121.61 154.719 120.556 155 119.484 155C118.941 155 118.405 154.927 117.869 154.786C116.273 154.358 114.939 153.33 114.116 151.899L101.663 130.243C101.018 129.124 100.847 127.821 101.176 126.567C101.414 125.662 101.901 124.867 102.565 124.249L100.816 121.209C97.5753 122.696 94.0904 123.454 90.569 123.454C88.4063 123.454 86.2374 123.167 84.0929 122.592C81.1259 121.79 78.3905 120.475 75.9657 118.72C73.3826 120.965 70.0865 122.225 66.626 122.225H62.3673C55.16 122.225 49.1834 116.837 48.2086 109.858C48.1781 109.73 48.166 109.595 48.1599 109.461C48.0989 108.935 48.0685 108.397 48.0685 107.858V102.348C48.0685 98.0852 46.7281 94.434 43.9622 91.1865C43.1458 90.2263 42.3172 89.2906 41.5131 88.3915C36.2553 82.4836 31.29 76.9058 31.29 64.7466C31.29 46.3625 46.186 31.4087 64.4998 31.4087C82.8136 31.4087 97.7095 46.3622 97.7095 64.7466C97.7095 68.2511 97.2953 71.3885 96.4545 74.2385C96.6251 74.2814 96.7957 74.3181 96.9663 74.3609C103.382 76.0856 108.743 80.2138 112.063 85.9934C115.39 91.7668 116.267 98.5004 114.549 104.941C113.038 110.598 109.681 115.436 104.99 118.788L106.739 121.827C107.604 121.552 108.53 121.528 109.432 121.772C110.68 122.109 111.722 122.91 112.362 124.029L124.821 145.686ZM52.1439 96.4639H56.1648V71.3708H53.6608C49.6216 71.3708 46.3377 68.0743 46.3377 64.0195C46.3377 59.9647 49.6216 56.6682 53.6608 56.6682C57.7 56.6682 60.9838 59.9647 60.9838 64.0195V66.5332H68.0084V64.0195C68.0084 59.9647 71.2922 56.6682 75.3314 56.6682C79.3706 56.6682 82.6545 59.9647 82.6545 64.0195C82.6545 68.0743 79.3706 71.3708 75.3314 71.3708H72.8274V80.93C74.3749 79.3643 76.1295 77.9883 78.0852 76.8568C82.2524 74.4409 86.9131 73.3157 91.6043 73.5358C92.4572 70.9549 92.8837 68.0682 92.8837 64.7472C92.8837 49.0357 80.1505 36.2472 64.4932 36.2472C48.8421 36.2472 36.1028 49.0295 36.1028 64.7472C36.1028 75.0586 40.0751 79.5233 45.1012 85.1683C45.9237 86.0918 46.7705 87.0459 47.6235 88.0488C49.829 90.6297 51.3214 93.4121 52.1439 96.4639ZM52.8932 102.347V106.922H67.1312C66.4732 105.1 66.0345 103.216 65.8152 101.302H52.8688C52.881 101.65 52.8932 101.999 52.8932 102.347ZM56.1649 64.0134C56.1649 62.6251 55.0439 61.4997 53.6609 61.4997C52.2779 61.4997 51.1569 62.625 51.1569 64.0134C51.1569 65.4017 52.2779 66.5271 53.6609 66.5271H56.1649V64.0134ZM68.0147 87.8774V71.3705H60.9902V96.4636H65.7484C65.8702 94.9774 66.12 93.4913 66.516 92.0173C66.8877 90.5801 67.3994 89.1983 68.0147 87.8774ZM75.3378 66.5263C76.7208 66.5263 77.8418 65.401 77.8418 64.0126C77.8418 62.6242 76.7208 61.4989 75.3378 61.4989C73.9548 61.4989 72.8337 62.6242 72.8337 64.0126V66.5263H75.3378ZM66.6257 117.386C68.6971 117.386 70.6772 116.701 72.3038 115.471C71.2559 114.34 70.3116 113.098 69.4769 111.765H53.7275C55.214 115.074 58.5283 117.386 62.3727 117.386L66.6257 117.386ZM100.548 115.906C105.191 113.221 108.511 108.878 109.894 103.686C111.283 98.4936 110.57 93.0688 107.89 88.4085C105.215 83.7542 100.889 80.4271 95.7169 79.0327C94.8335 78.7942 93.9379 78.6169 93.0424 78.5006C92.9875 78.4945 92.9327 78.4884 92.8779 78.4823C92.0798 78.3844 91.2878 78.3355 90.4897 78.3355C87.017 78.3355 83.587 79.2529 80.492 81.0449C77.0193 83.0571 74.2899 85.9989 72.5537 89.5277C72.5476 89.54 72.5415 89.5583 72.5354 89.5705C71.9627 90.7387 71.4997 91.9742 71.1585 93.2646C70.665 95.1055 70.4457 96.9709 70.4762 98.824C70.4762 98.8424 70.4823 98.8607 70.4823 98.8791V98.9219C70.5554 102.267 71.4571 105.558 73.1691 108.536C75.8436 113.196 80.1693 116.53 85.3417 117.918C90.5142 119.306 95.9118 118.591 100.548 115.906ZM120.641 148.105L108.188 126.455L105.831 127.801L118.29 149.476C118.466 149.788 118.765 150.014 119.112 150.106C119.465 150.204 119.837 150.155 120.148 149.971C120.459 149.788 120.684 149.494 120.775 149.146C120.873 148.791 120.824 148.423 120.641 148.105Z" fill="#FF37B3"/>
</svg>
