<svg width="35" height="35" viewBox="0 0 35 35" fill="none" xmlns="http://www.w3.org/2000/svg">
<path d="M29.8005 16.3769C29.8005 14.6651 28.8253 13.1767 27.4013 12.4382C27.9694 10.0665 26.2399 7.63607 23.8575 7.3705C22.6157 5.01164 19.2659 4.62529 17.5102 6.60553C15.7538 4.62454 12.4042 5.01246 11.1628 7.3705C8.78073 7.63614 7.05095 10.0668 7.61915 12.4381C4.43596 14.0714 4.43773 18.6837 7.61915 20.3157C7.05102 22.6872 8.78073 25.1175 11.1628 25.3833C11.3985 25.818 11.7108 26.1982 12.0795 26.5091V31.3272H14.226V31.7326C14.4068 36.0906 20.6151 36.0873 20.7944 31.7326V31.3272H22.9408V26.5091C23.3096 26.1982 23.6219 25.818 23.8575 25.3832C26.2398 25.1178 27.9694 22.687 27.4012 20.3155C28.8254 19.5771 29.8005 18.0887 29.8005 16.3769ZM11.7977 23.3617C10.4317 23.4506 9.31892 22.1437 9.61225 20.8103C9.62607 20.8105 9.63988 20.8105 9.6537 20.8105H11.0365V18.7588H9.6537C6.493 18.6276 6.49539 14.125 9.6537 13.9949H11.0365V11.9432H9.6537C9.63988 11.9432 9.626 11.9432 9.61225 11.9434C9.31898 10.6099 10.4317 9.30321 11.7977 9.39198L12.5863 9.43124L12.8262 8.67899C13.5066 6.65826 16.4467 7.11841 16.4844 9.2487V25.3782H14.6111C13.792 25.3782 13.0747 24.8543 12.8261 24.0747L12.5862 23.3224L11.7977 23.3617ZM18.7428 31.7326C18.6749 33.3681 16.3452 33.3668 16.2779 31.7326V31.3273H18.7428V31.7326ZM20.8892 29.2755H14.1314V27.4012C14.289 27.4203 14.4491 27.4301 14.6111 27.4301H20.4095C20.5715 27.4301 20.7316 27.4204 20.8892 27.4012V29.2755ZM25.3668 18.7588H23.984V20.8106H25.3668C25.3807 20.8106 25.3945 20.8105 25.4084 20.8104C25.7016 22.1439 24.5888 23.4506 23.2228 23.3618L22.4342 23.3225L22.1944 24.0749C21.9458 24.8545 21.2285 25.3784 20.4094 25.3784H18.5361V9.24877C18.5744 7.11704 21.5148 6.65956 22.1943 8.67899L22.4341 9.43131L23.2227 9.39205C24.5887 9.30314 25.7016 10.6101 25.4083 11.9434C25.3945 11.9433 25.3806 11.9432 25.3668 11.9432H23.984V13.995H25.3668C28.5276 14.1262 28.5251 18.6288 25.3668 18.7588Z" fill="white"/>
<path d="M16.4844 0H18.5362V2.82687H16.4844V0Z" fill="white"/>
<path d="M8.43164 2.70239L10.2085 1.6765L11.6219 4.12457L9.84508 5.15046L8.43164 2.70239Z" fill="white"/>
<path d="M2.80859 9.0686L3.83448 7.29176L6.28256 8.7052L5.25667 10.482L2.80859 9.0686Z" fill="white"/>
<path d="M1.12305 15.3416H3.94999V17.3933H1.12305V15.3416Z" fill="white"/>
<path d="M2.79883 23.6682L5.2469 22.2548L6.27279 24.0316L3.82472 25.4451L2.79883 23.6682Z" fill="white"/>
<path d="M28.7168 24.0488L29.7427 22.272L32.1908 23.6854L31.1649 25.4623L28.7168 24.0488Z" fill="white"/>
<path d="M31.0508 15.3606H33.8777V17.4124H31.0508V15.3606Z" fill="white"/>
<path d="M28.7266 8.72168L31.1747 7.30821L32.2006 9.08505L29.7525 10.4985L28.7266 8.72168Z" fill="white"/>
<path d="M23.3945 4.13452L24.808 1.68645L26.5848 2.71234L25.1714 5.16041L23.3945 4.13452Z" fill="white"/>
</svg>
