<svg width="30" height="30" viewBox="0 0 30 30" fill="none" xmlns="http://www.w3.org/2000/svg">
<path d="M15 7.375C15.3447 7.375 15.6861 7.4429 16.0045 7.57482C16.323 7.70673 16.6124 7.90009 16.8562 8.14384C17.0999 8.3876 17.2933 8.67698 17.4252 8.99546C17.5571 9.31394 17.625 9.65528 17.625 10C17.625 10.3447 17.5571 10.6861 17.4252 11.0045C17.2933 11.323 17.0999 11.6124 16.8562 11.8562C16.6124 12.0999 16.323 12.2933 16.0045 12.4252C15.6861 12.5571 15.3447 12.625 15 12.625C14.3038 12.625 13.6361 12.3484 13.1438 11.8562C12.6516 11.3639 12.375 10.6962 12.375 10C12.375 9.30381 12.6516 8.63613 13.1438 8.14384C13.6361 7.65156 14.3038 7.375 15 7.375ZM15 18.625C18.7125 18.625 22.625 20.45 22.625 21.25V22.625H7.375V21.25C7.375 20.45 11.2875 18.625 15 18.625ZM15 5C12.2375 5 10 7.2375 10 10C10 12.7625 12.2375 15 15 15C17.7625 15 20 12.7625 20 10C20 7.2375 17.7625 5 15 5ZM15 16.25C11.6625 16.25 5 17.925 5 21.25V25H25V21.25C25 17.925 18.3375 16.25 15 16.25Z" fill="white"/>
</svg>
