<svg width="14" height="16" viewBox="0 0 14 16" fill="none" xmlns="http://www.w3.org/2000/svg">
<path d="M7 0C8.85652 0 10.637 0.722447 11.9497 2.00841C13.2625 3.29437 14 5.03852 14 6.85714C14 9.696 11.7911 12.6705 7.46667 15.8476C7.33204 15.9465 7.16829 16 7 16C6.83171 16 6.66796 15.9465 6.53333 15.8476C2.20889 12.6705 0 9.696 0 6.85714C0 5.03852 0.737498 3.29437 2.05025 2.00841C3.36301 0.722447 5.14348 0 7 0ZM7 1.52381C5.55604 1.52381 4.17123 2.08571 3.1502 3.08591C2.12916 4.0861 1.55556 5.44266 1.55556 6.85714C1.55556 8.9219 3.20289 11.3036 6.57067 13.9474L7 14.2796L7.42933 13.9474C10.7971 11.3036 12.4444 8.9219 12.4444 6.85714C12.4444 5.44266 11.8708 4.0861 10.8498 3.08591C9.82877 2.08571 8.44396 1.52381 7 1.52381ZM7 5.33333C7.41256 5.33333 7.80822 5.49388 8.09994 5.77965C8.39167 6.06542 8.55556 6.453 8.55556 6.85714C8.55556 7.26128 8.39167 7.64887 8.09994 7.93464C7.80822 8.22041 7.41256 8.38095 7 8.38095C6.58744 8.38095 6.19178 8.22041 5.90006 7.93464C5.60833 7.64887 5.44444 7.26128 5.44444 6.85714C5.44444 6.453 5.60833 6.06542 5.90006 5.77965C6.19178 5.49388 6.58744 5.33333 7 5.33333Z" fill="#625C70"/>
</svg>
