<svg width="30" height="30" viewBox="0 0 30 30" fill="none" xmlns="http://www.w3.org/2000/svg">
<g clip-path="url(#clip0_105_627)">
<path d="M29.5218 25.3681L24.2544 20.1007C24.2542 20.1006 24.2542 20.1005 24.254 20.1004C24.2538 20.1002 24.2538 20.1002 24.2537 20.1L22.3707 18.2171C21.7347 17.581 20.6995 17.5808 20.0633 18.2171L19.8325 18.4479L19.0373 17.6527C20.5951 15.7849 21.5338 13.3835 21.5338 10.7668C21.5337 4.83 16.7037 0 10.7668 0C4.82988 0 0 4.83 0 10.7668C0 16.7037 4.82988 21.5337 10.7668 21.5337C13.3835 21.5337 15.7848 20.595 17.6527 19.0372L18.4478 19.8323L18.217 20.0632C17.581 20.6994 17.581 21.7345 18.2171 22.3707L25.368 29.5216C26.0056 30.1593 27.0379 30.1595 27.6756 29.5217L29.5217 27.6756C30.158 27.0395 30.158 26.0044 29.5218 25.3681ZM10.7668 19.5756C5.90959 19.5756 1.95797 15.624 1.95797 10.7668C1.95797 5.90965 5.90959 1.95803 10.7668 1.95803C15.624 1.95803 19.5756 5.90965 19.5756 10.7668C19.5756 15.624 15.624 19.5756 10.7668 19.5756ZM19.8324 21.217L21.2169 19.8325L22.1771 20.7927L20.7926 22.1772L19.8324 21.217ZM26.5219 27.9064L22.1771 23.5617L23.5617 22.1771L27.9064 26.5219L26.5219 27.9064Z" fill="white"/>
<path d="M10.7681 3.91614C10.2274 3.91614 9.78906 4.35448 9.78906 4.89518C9.78906 5.43588 10.2274 5.87422 10.7681 5.87422C13.4661 5.87422 15.661 8.06897 15.661 10.7668C15.661 11.3075 16.0993 11.7458 16.64 11.7458C17.1807 11.7458 17.6191 11.3075 17.6191 10.7668C17.6191 6.98932 14.5457 3.91614 10.7681 3.91614Z" fill="white"/>
</g>
<defs>
<clipPath id="clip0_105_627">
<rect width="30" height="30" fill="white"/>
</clipPath>
</defs>
</svg>
