<svg width="30" height="30" viewBox="0 0 30 30" fill="none" xmlns="http://www.w3.org/2000/svg">
<g clip-path="url(#clip0_105_4342)">
<path d="M20.5728 18.9448C21.3439 17.8427 21.7969 16.5026 21.7969 15.0586C21.7969 11.3109 18.7477 8.26172 15 8.26172C11.2523 8.26172 8.20312 11.3109 8.20312 15.0586C8.20312 18.8065 11.2523 21.8555 15 21.8555C16.4591 21.8555 17.8123 21.3931 18.921 20.6076L23.356 25.0426C23.5847 25.2713 23.8847 25.3857 24.1846 25.3857C24.4844 25.3857 24.7845 25.2713 25.0131 25.0426C25.4709 24.5849 25.4709 23.8428 25.0131 23.3853L20.5728 18.9448ZM10.5469 15.0586C10.5469 12.6031 12.5446 10.6055 15 10.6055C17.4554 10.6055 19.4531 12.6031 19.4531 15.0586C19.4531 17.514 17.4554 19.5117 15 19.5117C12.5446 19.5117 10.5469 17.514 10.5469 15.0586ZM30 14.4141V15.5859C30 17.5246 28.423 19.1016 26.4844 19.1016H25.8941C25.7989 19.1016 25.7263 19.1375 25.6824 19.1677C25.1486 19.5339 24.4192 19.398 24.0532 18.864C23.687 18.3305 23.8229 17.6008 24.3567 17.2348C24.8119 16.9228 25.3434 16.7578 25.8941 16.7578H26.4844C27.1305 16.7578 27.6562 16.2321 27.6562 15.5859V14.4141C27.6562 13.7679 27.1305 13.2422 26.4844 13.2422H25.8941C24.7863 13.2422 23.7955 12.5755 23.3693 11.5439L23.3622 11.5267C22.934 10.4954 23.1631 9.32281 23.9463 8.53958L24.3638 8.12233C24.8206 7.66525 24.8206 6.92184 24.3638 6.465L23.535 5.63644C23.3137 5.41512 23.0193 5.29312 22.7065 5.29312C22.3933 5.29312 22.099 5.41489 21.8779 5.63644L21.4604 6.0537C20.6772 6.83693 19.5046 7.06627 18.4733 6.63757L18.4559 6.63048C17.4245 6.20453 16.7578 5.2137 16.7578 4.10591V3.51562C16.7578 2.86949 16.2321 2.34375 15.5859 2.34375H14.4141C13.7679 2.34375 13.2422 2.86949 13.2422 3.51562V4.10591C13.2422 5.2137 12.5755 6.20453 11.5439 6.63048L11.529 6.63666C10.4951 7.06604 9.32281 6.83693 8.53958 6.0537L8.1221 5.63622C7.901 5.41489 7.60666 5.29312 7.29355 5.29312C6.98067 5.29312 6.68633 5.41489 6.465 5.63622L5.63622 6.465C5.17937 6.92184 5.17937 7.66525 5.63622 8.12233L6.0537 8.53958C6.83693 9.32281 7.06604 10.4954 6.63757 11.5269L6.63048 11.5443C6.20453 12.5755 5.2137 13.2422 4.10591 13.2422H3.51562C2.86949 13.2422 2.34375 13.7679 2.34375 14.4141V15.5859C2.34375 16.2321 2.86949 16.7578 3.51562 16.7578H4.10591C5.21347 16.7578 6.20453 17.4245 6.63048 18.4561L6.63918 18.4767C7.06604 19.5046 6.83693 20.6772 6.0537 21.4604L5.63622 21.8777C5.41489 22.099 5.29312 22.3933 5.29312 22.7065C5.29312 23.0193 5.41489 23.3137 5.63622 23.535L6.465 24.3638C6.92184 24.8206 7.66525 24.8209 8.12233 24.3638L8.53958 23.9463C9.32236 23.1638 10.494 22.9342 11.5251 23.3617L11.5402 23.3679C12.5757 23.7955 13.2422 24.7865 13.2422 25.8941V26.4844C13.2422 27.1305 13.7679 27.6562 14.4141 27.6562H15.5859C16.2321 27.6562 16.7578 27.1305 16.7578 26.4844V25.8941C16.7578 25.3434 16.9228 24.8117 17.235 24.3567C17.601 23.8229 18.3305 23.687 18.8642 24.0532C19.398 24.4192 19.5339 25.1486 19.1677 25.6824C19.1375 25.7263 19.1016 25.7989 19.1016 25.8941V26.4844C19.1016 28.423 17.5246 30 15.5859 30H14.4141C12.4754 30 10.8984 28.423 10.8984 26.4844V25.8941C10.8984 25.7389 10.8007 25.5981 10.6492 25.5357L10.6279 25.5267C10.4757 25.4636 10.3065 25.4938 10.1969 25.6036L9.77943 26.0211C8.40889 27.3917 6.17844 27.3917 4.80766 26.0211L3.97888 25.1923C3.3149 24.5284 2.94937 23.6456 2.94937 22.7065C2.94937 21.7673 3.3149 20.8846 3.97911 20.2206L4.39636 19.8031C4.506 19.6935 4.53621 19.5243 4.47327 19.3723L4.46365 19.3494C4.40186 19.1993 4.26109 19.1016 4.10591 19.1016H3.51562C1.577 19.1016 0 17.5246 0 15.5859V14.4141C0 12.4754 1.577 10.8984 3.51562 10.8984H4.10591C4.26109 10.8984 4.40186 10.8007 4.46434 10.6494L4.47304 10.6281C4.53644 10.4759 4.50623 10.3068 4.39636 10.1969L3.97911 9.77966C2.60834 8.40889 2.60834 6.17844 3.97911 4.80766L4.80766 3.97911C5.47188 3.31512 6.35468 2.94937 7.29355 2.94937C8.23265 2.94937 9.11545 3.31512 9.77966 3.97911L10.1969 4.39636C10.3068 4.50623 10.4759 4.53644 10.6279 4.47327L10.649 4.46434C10.8007 4.40186 10.8984 4.26109 10.8984 4.10591V3.51562C10.8984 1.577 12.4757 0 14.4141 0H15.5859C17.5246 0 19.1016 1.577 19.1016 3.51562V4.10591C19.1016 4.26109 19.1993 4.40186 19.3506 4.46434L19.3744 4.47418C19.5243 4.53644 19.6935 4.50623 19.8031 4.39636L20.2206 3.97911C20.8846 3.3149 21.7673 2.94937 22.7065 2.94937C23.6453 2.94937 24.5284 3.3149 25.1923 3.97911L26.0209 4.80766C27.3917 6.17844 27.3917 8.40889 26.0209 9.77943L25.6036 10.1969C25.4938 10.3065 25.4636 10.4757 25.5267 10.6279L25.5354 10.649C25.5981 10.8005 25.7389 10.8984 25.8941 10.8984H26.4844C28.423 10.8984 30 12.4754 30 14.4141Z" fill="white"/>
</g>
<defs>
<clipPath id="clip0_105_4342">
<rect width="30" height="30" fill="white"/>
</clipPath>
</defs>
</svg>
