<svg width="30" height="30" viewBox="0 0 30 30" fill="none" xmlns="http://www.w3.org/2000/svg">
<path d="M25.523 1.00098C24.7074 1.00098 24.0461 1.59056 24.0461 2.31781V2.40919L12.3091 6.75113H6.99092C3.13616 6.75113 0 9.54729 0 12.9841C0 15.8559 2.19013 18.2788 5.1589 18.9985V25.0505C5.1589 27.2288 7.14659 29.001 9.58976 29.001C12.0329 29.001 14.0206 27.2288 14.0206 25.0505V19.8503L24.0461 23.5592V23.6505C24.0461 24.3778 24.7074 24.9674 25.523 24.9674C26.3387 24.9674 27 24.3778 27 23.6505V2.31789C27 1.59057 26.3387 1.00098 25.523 1.00098ZM2.95391 12.9841C2.95391 10.9995 4.76485 9.38479 6.99092 9.38479H11.1264V16.5349H6.63586C6.56752 16.5349 6.50086 16.5404 6.43499 16.5485C4.47123 16.3062 2.95391 14.8006 2.95391 12.9841ZM9.58976 26.3673C8.77537 26.3673 8.11281 25.7766 8.11281 25.0505V19.2172H11.0667V25.0505C11.0667 25.7766 10.4042 26.3673 9.58976 26.3673ZM14.0803 17.0211V8.94725L24.0461 5.26057V20.7078L14.0803 17.0211Z" fill="white"/>
</svg>
