<svg width="23" height="27" viewBox="0 0 23 27" fill="none" xmlns="http://www.w3.org/2000/svg">
<path d="M20.4167 0.25H2.08333C1.5971 0.25 1.13079 0.445663 0.786971 0.793944C0.443154 1.14223 0.25 1.6146 0.25 2.10714V5.82143C0.25 6.31397 0.443154 6.78634 0.786971 7.13463C1.13079 7.48291 1.5971 7.67857 2.08333 7.67857H10.3333V13.4079L7.95917 11.0121L6.66667 12.3214L11.25 16.9643L15.8333 12.3214L14.5408 11.0121L12.1667 13.4079V7.67857H20.4167C20.9029 7.67857 21.3692 7.48291 21.713 7.13463C22.0568 6.78634 22.25 6.31397 22.25 5.82143V2.10714C22.25 1.6146 22.0568 1.14223 21.713 0.793944C21.3692 0.445663 20.9029 0.25 20.4167 0.25ZM2.08333 2.10714H5.75V5.82143H2.08333V2.10714ZM20.4167 5.82143H7.58333V2.10714H20.4167V5.82143ZM20.4167 18.8214H2.08333C1.5971 18.8214 1.13079 19.0171 0.786971 19.3654C0.443154 19.7137 0.25 20.186 0.25 20.6786V24.3929C0.25 24.8854 0.443154 25.3578 0.786971 25.7061C1.13079 26.0543 1.5971 26.25 2.08333 26.25H20.4167C20.9029 26.25 21.3692 26.0543 21.713 25.7061C22.0568 25.3578 22.25 24.8854 22.25 24.3929V20.6786C22.25 20.186 22.0568 19.7137 21.713 19.3654C21.3692 19.0171 20.9029 18.8214 20.4167 18.8214ZM2.08333 20.6786H14.9167V24.3929H2.08333V20.6786ZM20.4167 24.3929H16.75V20.6786H20.4167V24.3929Z" fill="white" stroke="white" stroke-width="0.5"/>
</svg>
