<svg width="30" height="30" viewBox="0 0 30 30" fill="none" xmlns="http://www.w3.org/2000/svg">
<mask id="path-1-outside-1_105_3445" maskUnits="userSpaceOnUse" x="1.76562" y="3.17188" width="27" height="23" fill="black">
<rect fill="white" x="1.76562" y="3.17188" width="27" height="23"/>
<path d="M25.7775 4.17188H4.46063C4.01108 4.17188 3.57995 4.35045 3.26208 4.66833C2.9442 4.9862 2.76563 5.41733 2.76562 5.86688V23.3081C2.76562 23.7577 2.9442 24.1888 3.26208 24.5067C3.57995 24.8245 4.01108 25.0031 4.46063 25.0031H25.7756C25.9982 25.0031 26.2186 24.9593 26.4243 24.8741C26.6299 24.7889 26.8168 24.6641 26.9742 24.5067C27.1316 24.3493 27.2564 24.1624 27.3416 23.9568C27.4268 23.7511 27.4706 23.5307 27.4706 23.3081V5.86688C27.4706 5.64428 27.4268 5.42387 27.3416 5.21823C27.2564 5.01258 27.1316 4.82572 26.9742 4.66833C26.8168 4.51093 26.6299 4.38608 26.4243 4.3009C26.2186 4.21572 26.0001 4.17187 25.7775 4.17188ZM4.46063 5.625H25.7756C25.8399 5.62549 25.9015 5.65139 25.9468 5.69705C25.9921 5.74271 26.0175 5.80443 26.0175 5.86875V10.9537H4.21875V5.86688C4.21875 5.80255 4.24417 5.74084 4.28948 5.69518C4.33479 5.64952 4.3963 5.62549 4.46063 5.625ZM4.21875 23.3062V12.4031H11.4862V23.5462H4.4625C4.39818 23.5463 4.33646 23.5208 4.2908 23.4755C4.24514 23.4302 4.21924 23.3706 4.21875 23.3062ZM25.7756 23.5462H12.9375V12.405H26.0175V23.3062C26.017 23.3702 25.9914 23.4315 25.9461 23.4767C25.9009 23.522 25.8396 23.5476 25.7756 23.5481"/>
</mask>
<path d="M25.7775 4.17188H4.46063C4.01108 4.17188 3.57995 4.35045 3.26208 4.66833C2.9442 4.9862 2.76563 5.41733 2.76562 5.86688V23.3081C2.76562 23.7577 2.9442 24.1888 3.26208 24.5067C3.57995 24.8245 4.01108 25.0031 4.46063 25.0031H25.7756C25.9982 25.0031 26.2186 24.9593 26.4243 24.8741C26.6299 24.7889 26.8168 24.6641 26.9742 24.5067C27.1316 24.3493 27.2564 24.1624 27.3416 23.9568C27.4268 23.7511 27.4706 23.5307 27.4706 23.3081V5.86688C27.4706 5.64428 27.4268 5.42387 27.3416 5.21823C27.2564 5.01258 27.1316 4.82572 26.9742 4.66833C26.8168 4.51093 26.6299 4.38608 26.4243 4.3009C26.2186 4.21572 26.0001 4.17187 25.7775 4.17188ZM4.46063 5.625H25.7756C25.8399 5.62549 25.9015 5.65139 25.9468 5.69705C25.9921 5.74271 26.0175 5.80443 26.0175 5.86875V10.9537H4.21875V5.86688C4.21875 5.80255 4.24417 5.74084 4.28948 5.69518C4.33479 5.64952 4.3963 5.62549 4.46063 5.625ZM4.21875 23.3062V12.4031H11.4862V23.5462H4.4625C4.39818 23.5463 4.33646 23.5208 4.2908 23.4755C4.24514 23.4302 4.21924 23.3706 4.21875 23.3062ZM25.7756 23.5462H12.9375V12.405H26.0175V23.3062C26.017 23.3702 25.9914 23.4315 25.9461 23.4767C25.9009 23.522 25.8396 23.5476 25.7756 23.5481" fill="white"/>
<path d="M25.7775 4.17188V4.67188V4.17188ZM2.76562 5.86688H2.26562H2.76562ZM25.7756 25.0031V25.5031V25.0031ZM4.46063 5.625V5.12498L4.45678 5.12501L4.46063 5.625ZM25.7756 5.625L25.7795 5.125H25.7756V5.625ZM26.0175 5.86875L25.5175 5.86874V5.86875H26.0175ZM26.0175 10.9537V11.4537H26.5175V10.9537H26.0175ZM4.21875 10.9537H3.71875V11.4537H4.21875V10.9537ZM4.21875 5.86688H4.71875L4.71875 5.86686L4.21875 5.86688ZM4.21875 23.3062H3.71874L3.71876 23.3101L4.21875 23.3062ZM4.21875 12.4031V11.9031H3.71875V12.4031H4.21875ZM11.4862 12.4031H11.9862V11.9031H11.4862V12.4031ZM11.4862 23.5462V24.0462H11.9862V23.5462H11.4862ZM4.4625 23.5462V23.0462L4.46249 23.0463L4.4625 23.5462ZM12.9375 23.5462H12.4375V24.0462H12.9375V23.5462ZM12.9375 12.405V11.905H12.4375V12.405H12.9375ZM26.0175 12.405H26.5175V11.905H26.0175V12.405ZM26.0175 23.3062L26.5175 23.3101V23.3062H26.0175ZM25.7775 4.17188V3.67188H4.46063V4.17188V4.67188H25.7775V4.17188ZM4.46063 4.17188V3.67188C3.87847 3.67188 3.32017 3.90313 2.90853 4.31478L3.26208 4.66833L3.61563 5.02188C3.83974 4.79778 4.14369 4.67188 4.46063 4.67188V4.17188ZM3.26208 4.66833L2.90853 4.31478C2.49688 4.72642 2.26562 5.28472 2.26562 5.86688H2.76562H3.26562C3.26562 5.54994 3.39153 5.24599 3.61563 5.02188L3.26208 4.66833ZM2.76562 5.86688H2.26562V23.3081H2.76562H3.26562V5.86688H2.76562ZM2.76562 23.3081H2.26562C2.26562 23.8903 2.49688 24.4486 2.90853 24.8602L3.26208 24.5067L3.61563 24.1531C3.39153 23.929 3.26562 23.6251 3.26562 23.3081H2.76562ZM3.26208 24.5067L2.90853 24.8602C3.32017 25.2719 3.87847 25.5031 4.46063 25.5031V25.0031V24.5031C4.14369 24.5031 3.83974 24.3772 3.61563 24.1531L3.26208 24.5067ZM4.46063 25.0031V25.5031H25.7756V25.0031V24.5031H4.46063V25.0031ZM25.7756 25.0031V25.5031C26.0639 25.5031 26.3493 25.4464 26.6156 25.336L26.4243 24.8741L26.2329 24.4122C26.0879 24.4722 25.9326 24.5031 25.7756 24.5031V25.0031ZM26.4243 24.8741L26.6156 25.336C26.8819 25.2257 27.1239 25.064 27.3277 24.8602L26.9742 24.5067L26.6206 24.1531C26.5097 24.2641 26.3779 24.3521 26.2329 24.4122L26.4243 24.8741ZM26.9742 24.5067L27.3277 24.8602C27.5315 24.6564 27.6932 24.4144 27.8035 24.1481L27.3416 23.9568L26.8797 23.7654C26.8196 23.9104 26.7316 24.0422 26.6206 24.1531L26.9742 24.5067ZM27.3416 23.9568L27.8035 24.1481C27.9139 23.8818 27.9706 23.5964 27.9706 23.3081H27.4706H26.9706C26.9706 23.4651 26.9397 23.6204 26.8797 23.7654L27.3416 23.9568ZM27.4706 23.3081H27.9706V5.86688H27.4706H26.9706V23.3081H27.4706ZM27.4706 5.86688H27.9706C27.9706 5.57863 27.9139 5.2932 27.8035 5.02688L27.3416 5.21823L26.8797 5.40957C26.9397 5.55455 26.9706 5.70994 26.9706 5.86688H27.4706ZM27.3416 5.21823L27.8035 5.02688C27.6932 4.76057 27.5315 4.5186 27.3277 4.31478L26.9742 4.66833L26.6206 5.02188C26.7316 5.13285 26.8196 5.26459 26.8797 5.40957L27.3416 5.21823ZM26.9742 4.66833L27.3277 4.31478C27.1239 4.11095 26.8819 3.94927 26.6156 3.83896L26.4243 4.3009L26.2329 4.76284C26.3779 4.82289 26.5097 4.91092 26.6206 5.02188L26.9742 4.66833ZM26.4243 4.3009L26.6156 3.83896C26.3498 3.72887 26.0663 3.67188 25.7775 3.67188V4.17188V4.67188C25.9339 4.67188 26.0874 4.70257 26.2329 4.76284L26.4243 4.3009ZM4.46063 5.625V6.125H25.7756V5.625V5.125H4.46063V5.625ZM25.7756 5.625L25.7718 6.12498C25.7042 6.12446 25.6395 6.09724 25.5919 6.04924L25.9468 5.69705L26.3017 5.34487C26.1634 5.20555 25.9757 5.12652 25.7795 5.12501L25.7756 5.625ZM25.9468 5.69705L25.5919 6.04924C25.5442 6.00124 25.5175 5.93635 25.5175 5.86874L26.0175 5.86875L26.5175 5.86876C26.5175 5.6725 26.4399 5.48419 26.3017 5.34487L25.9468 5.69705ZM26.0175 5.86875H25.5175V10.9537H26.0175H26.5175V5.86875H26.0175ZM26.0175 10.9537V10.4537H4.21875V10.9537V11.4537H26.0175V10.9537ZM4.21875 10.9537H4.71875V5.86688H4.21875H3.71875V10.9537H4.21875ZM4.21875 5.86688L4.71875 5.86686C4.71875 5.93448 4.69203 5.99936 4.64439 6.04736L4.28948 5.69518L3.93456 5.34299C3.79632 5.48231 3.71874 5.67062 3.71875 5.86689L4.21875 5.86688ZM4.28948 5.69518L4.64439 6.04736C4.58989 6.10229 4.522 6.12454 4.46447 6.12498L4.46063 5.625L4.45678 5.12501C4.27061 5.12645 4.07968 5.19675 3.93456 5.34299L4.28948 5.69518ZM4.21875 23.3062H4.71875V12.4031H4.21875H3.71875V23.3062H4.21875ZM4.21875 12.4031V12.9031H11.4862V12.4031V11.9031H4.21875V12.4031ZM11.4862 12.4031H10.9862V23.5462H11.4862H11.9862V12.4031H11.4862ZM11.4862 23.5462V23.0462H4.4625V23.5462V24.0462H11.4862V23.5462ZM4.4625 23.5462L4.46249 23.0463C4.5301 23.0462 4.59499 23.073 4.64299 23.1206L4.2908 23.4755L3.93862 23.8304C4.07794 23.9687 4.26625 24.0463 4.46251 24.0462L4.4625 23.5462ZM4.2908 23.4755L4.64299 23.1206C4.68798 23.1653 4.71818 23.2306 4.71874 23.3024L4.21875 23.3062L3.71876 23.3101C3.72031 23.5105 3.80231 23.6952 3.93862 23.8304L4.2908 23.4755ZM25.7756 23.5462V23.0462H12.9375V23.5462V24.0462H25.7756V23.5462ZM12.9375 23.5462H13.4375V12.405H12.9375H12.4375V23.5462H12.9375ZM12.9375 12.405V12.905H26.0175V12.405V11.905H12.9375V12.405ZM26.0175 12.405H25.5175V23.3062H26.0175H26.5175V12.405H26.0175ZM26.0175 23.3062L25.5175 23.3024C25.518 23.2351 25.545 23.1708 25.5926 23.1232L25.9461 23.4767L26.2997 23.8303C26.4377 23.6922 26.516 23.5054 26.5175 23.3101L26.0175 23.3062ZM25.9461 23.4767L25.5926 23.1232C25.6401 23.0756 25.7045 23.0487 25.7718 23.0481L25.7756 23.5481L25.7795 24.0481C25.9747 24.0466 26.1616 23.9684 26.2997 23.8303L25.9461 23.4767Z" fill="white" mask="url(#path-1-outside-1_105_3445)"/>
</svg>
