<svg width="55" height="55" viewBox="0 0 55 55" fill="none" xmlns="http://www.w3.org/2000/svg">
<g clip-path="url(#clip0_105_3219)">
<path d="M48.8874 39.8879C51.3107 37.9279 52.8633 34.9318 52.8633 31.5799C52.8633 25.6894 48.0713 20.8973 42.1811 20.8973C40.9642 20.8973 39.7948 21.1021 38.7046 21.4785C37.4714 20.3787 36.087 19.4706 34.6029 18.7791C36.8092 16.8208 38.2023 13.9653 38.2023 10.79C38.2023 4.89944 33.4103 0.107422 27.5201 0.107422C21.6296 0.107422 16.8375 4.89944 16.8375 10.79C16.8375 13.9585 18.2248 16.809 20.4232 18.7669C18.9302 19.4593 17.5379 20.3711 16.2979 21.476C15.2065 21.1013 14.0362 20.8973 12.8189 20.8973C6.89808 20.8973 2.08088 25.7141 2.08088 31.6353C2.08088 34.9801 3.61835 37.9724 6.0236 39.9433C2.4086 42.2126 0 46.2338 0 50.808V52.6653C0 53.8452 0.956306 54.8015 2.13669 54.8015H52.8633C54.0437 54.8015 55 53.8452 55 52.6653V50.808C55 46.1969 52.552 42.1467 48.8874 39.8879ZM48.5904 31.5799C48.5904 35.1139 45.7151 37.9892 42.1811 37.9892C38.6467 37.9892 35.7715 35.1139 35.7715 31.5799C35.7715 28.0455 38.6467 25.1703 42.1811 25.1703C45.7151 25.1703 48.5904 28.0455 48.5904 31.5799ZM27.5201 4.38038C31.0542 4.38038 33.9298 7.25559 33.9298 10.79C33.9298 14.324 31.0542 17.1992 27.5201 17.1992C23.9861 17.1992 21.1105 14.324 21.1105 10.79C21.1105 7.25559 23.9861 4.38038 27.5201 4.38038ZM34.8332 23.833C32.7805 25.7808 31.4985 28.5335 31.4985 31.5799C31.4985 34.9318 33.0511 37.9279 35.4744 39.8879C31.8842 42.101 29.4621 46.0332 29.3656 50.5286H25.6344C25.5383 46.0706 23.1553 42.166 19.6141 39.9433C22.0194 37.9724 23.5569 34.9801 23.5569 31.6353C23.5569 28.5604 22.2573 25.7838 20.1794 23.8242C24.5241 20.6821 30.491 20.685 34.8332 23.833ZM6.35384 31.6353C6.35384 28.0703 9.25423 25.1703 12.8189 25.1703C16.3839 25.1703 19.2839 28.0703 19.2839 31.6353C19.2839 34.8676 16.8992 37.5536 13.797 38.0261C13.4739 38.0017 13.1479 37.9892 12.8189 37.9892C12.4899 37.9892 12.1638 38.0017 11.8412 38.0261C8.73852 37.5536 6.35384 34.8676 6.35384 31.6353ZM4.27757 50.5286C4.41437 46.2867 7.65884 42.8181 11.803 42.3246C12.1374 42.3561 12.476 42.3733 12.8189 42.3733C13.1617 42.3733 13.5003 42.3561 13.8352 42.3246C17.9793 42.8185 21.2234 46.2867 21.3606 50.5286H4.27757ZM33.6394 50.5286C33.7875 45.9451 37.5624 42.2621 42.1811 42.2621C46.7999 42.2621 50.5747 45.9451 50.7224 50.5286H33.6394Z" fill="white"/>
</g>
<defs>
<clipPath id="clip0_105_3219">
<rect width="55" height="55" fill="white"/>
</clipPath>
</defs>
</svg>
