<svg width="30" height="30" viewBox="0 0 30 30" fill="none" xmlns="http://www.w3.org/2000/svg">
<path d="M15 0C7.87523 0 2.10938 5.76586 2.10938 12.8906V19.4531C2.10938 21.3916 3.68648 22.9688 5.625 22.9688C7.56352 22.9688 9.14062 21.3916 9.14062 19.4531V15.2344C9.14062 13.2959 7.56352 11.7188 5.625 11.7188C5.23143 11.7188 4.8532 11.7847 4.49959 11.9046C4.99846 6.54967 9.51697 2.34375 15 2.34375C20.483 2.34375 25.0015 6.54967 25.5004 11.9046C25.1468 11.7847 24.7686 11.7188 24.375 11.7188C22.4365 11.7188 20.8594 13.2959 20.8594 15.2344V19.4531C20.8594 21.3916 22.4365 22.9688 24.375 22.9688C24.7298 22.9688 25.0723 22.9154 25.3954 22.8172C24.957 24.2596 23.615 25.3125 22.0312 25.3125H18.3141C17.8303 23.9486 16.5277 22.9688 15 22.9688C13.0615 22.9688 11.4844 24.5459 11.4844 26.4844C11.4844 28.4229 13.0615 30 15 30C16.5277 30 17.8303 29.0202 18.3141 27.6562H22.0312C25.2621 27.6562 27.8906 25.0277 27.8906 21.7969V12.8906C27.8906 5.76586 22.1248 0 15 0ZM5.625 14.0625C6.27117 14.0625 6.79688 14.5882 6.79688 15.2344V19.4531C6.79688 20.0993 6.27117 20.625 5.625 20.625C4.97883 20.625 4.45312 20.0993 4.45312 19.4531V15.2344C4.45312 14.5882 4.97883 14.0625 5.625 14.0625ZM15 27.6562C14.3538 27.6562 13.8281 27.1305 13.8281 26.4844C13.8281 25.8382 14.3538 25.3125 15 25.3125C15.6462 25.3125 16.1719 25.8382 16.1719 26.4844C16.1719 27.1305 15.6462 27.6562 15 27.6562ZM24.375 20.625C23.7288 20.625 23.2031 20.0993 23.2031 19.4531V15.2344C23.2031 14.5882 23.7288 14.0625 24.375 14.0625C25.0212 14.0625 25.5469 14.5882 25.5469 15.2344V19.4531C25.5469 20.0993 25.0212 20.625 24.375 20.625Z" fill="white"/>
</svg>
