<svg width="30" height="30" viewBox="0 0 30 30" fill="none" xmlns="http://www.w3.org/2000/svg">
<path d="M15 27.5C13.3585 27.5 11.733 27.1767 10.2165 26.5485C8.69989 25.9203 7.3219 24.9996 6.16117 23.8388C3.81696 21.4946 2.5 18.3152 2.5 15C2.5 11.6848 3.81696 8.50537 6.16117 6.16117C8.50537 3.81696 11.6848 2.5 15 2.5C21.875 2.5 27.5 7.5 27.5 13.75C27.5 15.7391 26.7098 17.6468 25.3033 19.0533C23.8968 20.4598 21.9891 21.25 20 21.25H17.75C17.375 21.25 17.125 21.5 17.125 21.875C17.125 22 17.25 22.125 17.25 22.25C17.75 22.875 18 23.625 18 24.375C18.125 26.125 16.75 27.5 15 27.5ZM15 5C12.3478 5 9.8043 6.05357 7.92893 7.92893C6.05357 9.8043 5 12.3478 5 15C5 17.6522 6.05357 20.1957 7.92893 22.0711C9.8043 23.9464 12.3478 25 15 25C15.375 25 15.625 24.75 15.625 24.375C15.625 24.125 15.5 24 15.5 23.875C15 23.25 14.75 22.625 14.75 21.875C14.75 20.125 16.125 18.75 17.875 18.75H20C21.3261 18.75 22.5979 18.2232 23.5355 17.2855C24.4732 16.3479 25 15.0761 25 13.75C25 8.875 20.5 5 15 5ZM8.125 12.5C9.125 12.5 10 13.375 10 14.375C10 15.375 9.125 16.25 8.125 16.25C7.125 16.25 6.25 15.375 6.25 14.375C6.25 13.375 7.125 12.5 8.125 12.5ZM11.875 7.5C12.875 7.5 13.75 8.375 13.75 9.375C13.75 10.375 12.875 11.25 11.875 11.25C10.875 11.25 10 10.375 10 9.375C10 8.375 10.875 7.5 11.875 7.5ZM18.125 7.5C19.125 7.5 20 8.375 20 9.375C20 10.375 19.125 11.25 18.125 11.25C17.125 11.25 16.25 10.375 16.25 9.375C16.25 8.375 17.125 7.5 18.125 7.5ZM21.875 12.5C22.875 12.5 23.75 13.375 23.75 14.375C23.75 15.375 22.875 16.25 21.875 16.25C20.875 16.25 20 15.375 20 14.375C20 13.375 20.875 12.5 21.875 12.5Z" fill="white"/>
</svg>
