<svg width="35" height="35" viewBox="0 0 35 35" fill="none" xmlns="http://www.w3.org/2000/svg">
<path d="M17.701 6.61729C18.1917 6.42122 18.7265 6.36216 19.2481 6.44641C19.7698 6.53066 20.2588 6.75506 20.6629 7.09562L20.8466 7.26333L27.7358 14.1525C28.1099 14.5262 28.3754 14.9946 28.5038 15.5076C28.6323 16.0206 28.6188 16.5589 28.4649 17.0648L28.3818 17.2981L24.9329 25.9212C24.7394 26.404 24.4203 26.8262 24.0088 27.1441C23.5972 27.4621 23.1082 27.6642 22.5922 27.7296L15.1854 28.6556C14.9948 28.678 14.7955 28.7052 14.5874 28.7373L13.9399 28.8423L13.6016 28.9035L12.5472 29.1077L11.8254 29.2623L10.7389 29.5058L9.34619 29.8383L7.08285 30.4158L6.14077 30.6696C5.90302 30.735 5.65267 30.7396 5.41267 30.6831C5.17266 30.6266 4.95069 30.5107 4.76709 30.3461C4.58349 30.1815 4.44415 29.9735 4.36184 29.7411C4.27953 29.5086 4.25688 29.2593 4.29598 29.0158L4.34556 28.8029L4.77577 27.1812L5.16077 25.6529L5.49327 24.2602L5.73681 23.1737L5.88994 22.4504L6.09556 21.3975L6.21223 20.731L6.30556 20.1069L7.26806 12.4069C7.32869 11.9317 7.50543 11.4787 7.78267 11.088C8.05991 10.6974 8.42911 10.381 8.85764 10.1669L9.07785 10.0662L17.701 6.61729ZM18.7831 9.32541L10.1614 12.7744L9.30973 19.5877L9.23973 20.1652C9.09659 21.238 8.90928 22.3045 8.67827 23.3619L8.42889 24.5081L13.2239 19.7131C13.0577 19.0929 13.1007 18.4352 13.3464 17.842C13.5921 17.2488 14.0266 16.7532 14.5827 16.4321C15.1387 16.1111 15.7852 15.9825 16.4218 16.0663C17.0583 16.1501 17.6495 16.4416 18.1035 16.8956C18.5575 17.3496 18.849 17.9408 18.9328 18.5773C19.0166 19.2139 18.888 19.8604 18.567 20.4164C18.2459 20.9725 17.7503 21.407 17.1571 21.6527C16.5639 21.8984 15.9062 21.9414 15.286 21.7752L10.491 26.5702L11.0626 26.4433L12.206 26.2027C12.9185 26.0572 13.6348 25.9308 14.3541 25.8235L22.2247 24.8377L25.6737 16.216L18.7831 9.32541ZM22.2291 4.52166C22.48 4.27036 22.814 4.11925 23.1685 4.0967C23.5229 4.07414 23.8733 4.18169 24.1541 4.39916L24.2912 4.52166L30.4774 10.7079C30.7418 10.9697 30.896 11.3227 30.9086 11.6945C30.9213 12.0664 30.7913 12.429 30.5453 12.7081C30.2993 12.9873 29.956 13.1619 29.5855 13.1961C29.215 13.2304 28.8454 13.1218 28.5524 12.8925L28.4154 12.77L22.2291 6.58374C21.9557 6.31027 21.8021 5.9394 21.8021 5.5527C21.8021 5.16601 21.9557 4.79514 22.2291 4.52166Z" fill="white"/>
</svg>
