<svg width="45" height="45" viewBox="0 0 45 45" fill="none" xmlns="http://www.w3.org/2000/svg">
<path d="M33.2007 23.049C32.849 22.6975 32.3722 22.5 31.875 22.5C31.3778 22.5 30.901 22.6975 30.5494 23.049L27.5606 26.0377C26.175 25.6252 23.5894 24.6877 21.9506 23.049C20.3119 21.4102 19.3744 18.8246 18.9619 17.439L21.9506 14.4502C22.3022 14.0986 22.4996 13.6218 22.4996 13.1246C22.4996 12.6274 22.3022 12.1506 21.9506 11.799L14.4506 4.29897C14.099 3.94747 13.6222 3.75 13.125 3.75C12.6278 3.75 12.151 3.94747 11.7994 4.29897L6.71439 9.38397C6.00189 10.0965 5.60064 11.0752 5.61564 12.0746C5.65877 14.7446 6.36564 24.0183 13.6744 31.3271C20.9831 38.6358 30.2569 39.3408 32.9288 39.3858H32.9813C33.9713 39.3858 34.9069 38.9958 35.6157 38.2871L40.7007 33.2021C41.0522 32.8505 41.2496 32.3737 41.2496 31.8765C41.2496 31.3793 41.0522 30.9025 40.7007 30.5508L33.2007 23.049ZM32.9625 35.634C30.6225 35.5946 22.6163 34.9665 16.3256 28.674C10.0144 22.3627 9.40314 14.3283 9.36564 12.0352L13.125 8.27585L17.9738 13.1246L15.5494 15.549C15.329 15.7692 15.167 16.0409 15.0779 16.3394C14.9889 16.638 14.9756 16.954 15.0394 17.259C15.0844 17.4746 16.185 22.5877 19.2975 25.7002C22.41 28.8127 27.5231 29.9133 27.7388 29.9583C28.0435 30.0241 28.36 30.012 28.6588 29.9232C28.9577 29.8344 29.2293 29.6717 29.4488 29.4502L31.875 27.0258L36.7238 31.8746L32.9625 35.634Z" fill="white"/>
</svg>
