<svg width="30" height="30" viewBox="0 0 30 30" fill="none" xmlns="http://www.w3.org/2000/svg">
<g clip-path="url(#clip0_105_639)">
<path d="M20.625 29.1797H9.375C7.8218 29.1221 7.82297 26.893 9.375 26.8359H20.625C22.1782 26.8935 22.177 29.1226 20.625 29.1797ZM22.9688 24.4922H7.03002C3.15369 24.4922 0 21.3386 0 17.4622V7.85156C0 3.97453 3.15422 0.820312 7.03125 0.820312H22.9688C26.8458 0.820312 30 3.97453 30 7.85156V17.4609C30 21.338 26.8458 24.4922 22.9688 24.4922ZM7.03125 3.16406C4.44656 3.16406 2.34375 5.26688 2.34375 7.85156V17.4622C2.34375 20.0462 4.44603 22.1484 7.03002 22.1484H22.9688C25.5534 22.1484 27.6562 20.0456 27.6562 17.4609V7.85156C27.6562 5.26688 25.5534 3.16406 22.9688 3.16406H7.03125ZM13.7115 18.5745C13.6043 18.5745 13.4954 18.5597 13.3871 18.5286C12.7652 18.3497 12.4059 17.7006 12.5847 17.0786L15.28 7.70355C15.4589 7.08158 16.1082 6.72258 16.7301 6.90111C17.3521 7.08 17.7114 7.72916 17.5325 8.35119L14.8372 17.7262C14.6895 18.2399 14.2207 18.5745 13.7115 18.5745ZM20.7422 17.4023C20.4392 17.4023 20.1363 17.2856 19.907 17.0525C19.453 16.5912 19.4589 15.8492 19.9202 15.3952L22.2146 13.1372C22.4425 12.8911 22.4426 12.5677 22.2127 12.3215L19.9146 10.0288C19.4564 9.5717 19.4556 8.82973 19.9127 8.37158C20.3698 7.91332 21.1118 7.91256 21.5699 8.36959L23.8678 10.662C25.0054 11.7502 25.0054 13.7106 23.8675 14.7989C23.8658 14.8007 23.8639 14.8025 23.8621 14.8043L21.5643 17.0658C21.336 17.2903 21.039 17.4023 20.7422 17.4023ZM9.37494 17.4023C9.07816 17.4023 8.78127 17.2903 8.55299 17.0657L6.25512 14.8042C6.2533 14.8025 6.25148 14.8007 6.24973 14.7988C5.11178 13.7104 5.11184 11.7502 6.24973 10.6618L8.5473 8.36959C9.00551 7.9125 9.74748 7.91344 10.2046 8.37158C10.6617 8.82973 10.6608 9.5717 10.2026 10.0288L7.90477 12.3213C7.67484 12.5674 7.67438 12.8906 7.9026 13.1372L10.197 15.3952C10.6583 15.8492 10.6642 16.5912 10.2102 17.0525C9.98086 17.2855 9.67793 17.4023 9.37494 17.4023Z" fill="white"/>
</g>
<defs>
<clipPath id="clip0_105_639">
<rect width="30" height="30" fill="white"/>
</clipPath>
</defs>
</svg>
