<svg width="30" height="30" viewBox="0 0 30 30" fill="none" xmlns="http://www.w3.org/2000/svg">
<g clip-path="url(#clip0_105_4240)">
<path d="M20.9429 12.2484C20.4103 11.7156 19.5465 11.7158 19.0138 12.2484L15.1238 16.1383C14.9313 16.0926 14.7307 16.0678 14.5244 16.0678C13.0926 16.0678 11.9277 17.2336 11.9277 18.6668C11.9277 20.0999 13.0926 21.2658 14.5244 21.2658C15.9575 21.2658 17.1234 20.0999 17.1234 18.6668C17.1234 18.4604 17.0986 18.2599 17.0529 18.0674L20.9428 14.1775C21.4757 13.6449 21.4757 12.7811 20.9429 12.2484Z" fill="white"/>
<path d="M25.6103 7.03702C19.7608 1.1873 10.2403 1.18701 4.38736 7.03731C-0.66419 12.0914 -1.447 20.0636 2.52584 25.9931C2.94513 26.619 3.79263 26.7862 4.41848 26.3671C5.04432 25.9478 5.21178 25.1004 4.79242 24.4744C3.67615 22.8083 3.01879 20.945 2.80457 19.0488H4.08713C4.84047 19.0488 5.45125 18.438 5.45125 17.6847C5.45125 16.9314 4.84047 16.3206 4.08713 16.3206H2.80023C3.04744 14.0545 3.91996 11.8547 5.39078 10.0045L6.31891 10.9328C6.58528 11.1991 6.93438 11.3324 7.28354 11.3324C7.63264 11.3324 7.9818 11.1991 8.24805 10.9328C8.78079 10.4001 8.78079 9.53634 8.24805 9.00361L7.31565 8.07138C9.19382 6.56288 11.4159 5.6879 13.6931 5.44637V6.73462C13.6931 7.48796 14.3039 8.09874 15.0572 8.09874C15.8106 8.09874 16.4214 7.48796 16.4214 6.73462V5.45874C18.6587 5.71725 20.8375 6.58848 22.6835 8.07191L21.7518 9.00366C21.2192 9.5364 21.2193 10.4001 21.7519 10.9329C22.0184 11.1992 22.3674 11.3324 22.7166 11.3324C23.0657 11.3324 23.4149 11.1991 23.6812 10.9328L24.6085 10.0054C26.0796 11.8554 26.9524 14.0549 27.1998 16.3206H25.913C25.1596 16.3206 24.5489 16.9314 24.5489 17.6848C24.5489 18.4381 25.1596 19.0489 25.913 19.0489H27.1956C26.9813 20.945 26.3237 22.8082 25.2071 24.4743C24.7877 25.1002 24.9549 25.9475 25.5807 26.3669C25.814 26.5232 26.0779 26.5981 26.339 26.5981C26.7786 26.5981 27.2102 26.3859 27.4733 25.9933C31.4478 20.0633 30.6643 12.091 25.6103 7.03702Z" fill="white"/>
<path d="M21.1484 24.6221H8.85241C8.09906 24.6221 7.48828 25.2329 7.48828 25.9862C7.48828 26.7395 8.09906 27.3503 8.85241 27.3503H21.1484C21.9017 27.3503 22.5125 26.7395 22.5125 25.9862C22.5125 25.2329 21.9017 24.6221 21.1484 24.6221Z" fill="white"/>
</g>
<defs>
<clipPath id="clip0_105_4240">
<rect width="30" height="30" fill="white"/>
</clipPath>
</defs>
</svg>
