<svg width="55" height="55" viewBox="0 0 55 55" fill="none" xmlns="http://www.w3.org/2000/svg">
<path d="M30.7324 35.6641C30.7324 37.441 29.2867 38.8867 27.5098 38.8867C25.7328 38.8867 24.2871 37.441 24.2871 35.6641V17.7246H8.17383V35.6641C8.17383 46.3259 16.8479 55 27.5098 55C38.1716 55 46.8457 46.3259 46.8457 35.6641V17.7246H30.7324V35.6641ZM21.0645 20.9473V27.3926H11.3965V20.9473H21.0645ZM43.623 20.9473V27.3926H33.9551V20.9473H43.623ZM33.9551 35.6641V30.6152H43.623V35.6641C43.623 44.5489 36.3946 51.7773 27.5098 51.7773C18.6249 51.7773 11.3965 44.5489 11.3965 35.6641V30.6152H21.0645V35.6641C21.0645 39.218 23.9558 42.1094 27.5098 42.1094C31.0637 42.1094 33.9551 39.218 33.9551 35.6641Z" fill="white"/>
<path d="M27.499 14.502C31.4973 14.502 34.75 11.2492 34.75 7.25098C34.75 3.25273 31.4973 0 27.499 0C23.5008 0 20.248 3.25273 20.248 7.25098C20.248 11.2492 23.5008 14.502 27.499 14.502ZM27.499 3.22266C29.7203 3.22266 31.5273 5.02971 31.5273 7.25098C31.5273 9.47225 29.7203 11.2793 27.499 11.2793C25.2778 11.2793 23.4707 9.47225 23.4707 7.25098C23.4707 5.02971 25.2778 3.22266 27.499 3.22266Z" fill="white"/>
<path d="M45.2236 0C41.2254 0 37.9727 3.25273 37.9727 7.25098C37.9727 11.2492 41.2254 14.502 45.2236 14.502C49.2219 14.502 52.4746 11.2492 52.4746 7.25098C52.4746 3.25273 49.2219 0 45.2236 0ZM45.2236 11.2793C43.0024 11.2793 41.1953 9.47225 41.1953 7.25098C41.1953 5.02971 43.0024 3.22266 45.2236 3.22266C47.4449 3.22266 49.252 5.02971 49.252 7.25098C49.252 9.47225 47.4449 11.2793 45.2236 11.2793Z" fill="white"/>
<path d="M17.0254 7.25098C17.0254 3.25273 13.7727 0 9.77441 0C5.77617 0 2.52344 3.25273 2.52344 7.25098C2.52344 11.2492 5.77617 14.502 9.77441 14.502C13.7727 14.502 17.0254 11.2492 17.0254 7.25098ZM5.74609 7.25098C5.74609 5.02971 7.55314 3.22266 9.77441 3.22266C11.9957 3.22266 13.8027 5.02971 13.8027 7.25098C13.8027 9.47225 11.9957 11.2793 9.77441 11.2793C7.55314 11.2793 5.74609 9.47225 5.74609 7.25098Z" fill="white"/>
</svg>
