<svg width="12" height="12" viewBox="0 0 12 12" fill="none" xmlns="http://www.w3.org/2000/svg">
<path d="M12 5.45455V6.54545L11.4545 6.54545V7.09091L10.9091 7.09091V7.63636L10.3636 7.63636V8.18182L9.81818 8.18182V8.72727L9.27273 8.72727V9.27273L8.72727 9.27273V9.81818L8.18182 9.81818V10.3636L7.63636 10.3636V10.9091L7.09091 10.9091V11.4545L6.54545 11.4545V12L6 12V11.4545L5.45455 11.4545V10.9091L4.90909 10.9091V10.3636L5.45455 10.3636V9.81818L6 9.81818V9.27273L6.54545 9.27273V8.72727L7.09091 8.72727V8.18182L7.63636 8.18182V7.63636L8.18182 7.63636V7.09091L-3.57628e-07 7.09091V4.90909L8.18182 4.90909V4.36364L7.63636 4.36364V3.81818L7.09091 3.81818V3.27273L6.54545 3.27273V2.72727L6 2.72727V2.18182L5.45455 2.18182V1.63636L4.90909 1.63636V1.09091L5.45455 1.09091V0.545454L6 0.545454V-2.62268e-07L6.54545 -2.38426e-07V0.545454L7.09091 0.545454V1.09091L7.63636 1.09091V1.63636L8.18182 1.63636V2.18182L8.72727 2.18182V2.72727L9.27273 2.72727V3.27273L9.81818 3.27273V3.81818L10.3636 3.81818V4.36364L10.9091 4.36364V4.90909L11.4545 4.90909V5.45455L12 5.45455Z" fill="black"/>
</svg>
