<svg width="30" height="30" viewBox="0 0 30 30" fill="none" xmlns="http://www.w3.org/2000/svg">
<path d="M14.9996 8.45728C12.7921 8.45728 10.9961 10.2532 10.9961 12.4608C10.9961 14.6683 12.7921 16.4642 14.9996 16.4642C17.2071 16.4642 19.003 14.6683 19.003 12.4607C19.003 10.2531 17.2071 8.45728 14.9996 8.45728ZM14.9996 14.1205C14.0844 14.1205 13.3398 13.3759 13.3398 12.4607C13.3398 11.5455 14.0844 10.801 14.9996 10.801C15.9147 10.801 16.6593 11.5455 16.6593 12.4607C16.6593 13.3759 15.9147 14.1205 14.9996 14.1205Z" fill="white"/>
<path d="M15 25.876C14.3528 25.876 13.8281 26.4006 13.8281 27.0479V28.8281C13.8281 29.4753 14.3528 30 15 30C15.6472 30 16.1719 29.4753 16.1719 28.8281V27.0479C16.1719 26.4007 15.6472 25.876 15 25.876Z" fill="white"/>
<path d="M10.0898 27.0479C9.44262 27.0479 8.91797 27.5725 8.91797 28.2197V28.8281C8.91797 29.4753 9.44262 30 10.0898 30C10.7371 30 11.2617 29.4753 11.2617 28.8281V28.2197C11.2617 27.5726 10.7371 27.0479 10.0898 27.0479Z" fill="white"/>
<path d="M19.9102 27.0479C19.2629 27.0479 18.7383 27.5725 18.7383 28.2197V28.8281C18.7383 29.4753 19.2629 30 19.9102 30C20.5574 30 21.082 29.4753 21.082 28.8281V28.2197C21.082 27.5726 20.5574 27.0479 19.9102 27.0479Z" fill="white"/>
<path d="M26.4446 17.8617L23.4484 13.6123C23.5197 12.0059 23.2926 10.3906 22.7742 8.86318C22.0725 6.79518 20.8491 4.92393 19.2361 3.4517L15.7902 0.306387C15.3427 -0.102129 14.6576 -0.102129 14.2101 0.306387L10.7642 3.4517C9.15131 4.92393 7.92782 6.79518 7.2261 8.86318C6.70778 10.3905 6.48061 12.0059 6.55192 13.6123L3.55585 17.8617C2.46418 19.4099 2.35725 21.4782 3.28333 23.1308L4.73129 25.7149C5.13471 26.4349 5.86819 26.8741 6.69331 26.8897C6.70854 26.89 6.72366 26.8901 6.73877 26.8901C7.54585 26.8901 8.27592 26.4813 8.6985 25.7902L9.75002 24.07H15.0481C15.6953 24.07 16.2199 23.5454 16.2199 22.8981C16.2199 22.2509 15.6953 21.7263 15.0481 21.7263H10.0994L9.052 14.9261C9.05065 14.9169 9.04907 14.9077 9.04743 14.8985C8.40278 11.2876 9.63524 7.65557 12.3444 5.18273L15.0002 2.75854L17.656 5.18273C20.3651 7.65557 21.5976 11.2876 20.953 14.8985C20.9513 14.9077 20.9498 14.9169 20.9483 14.9262L19.7492 22.72C19.7072 22.9935 19.7632 23.2732 19.9076 23.5094L21.3019 25.7903C21.7244 26.4814 22.4544 26.8902 23.2616 26.8902C23.2767 26.8902 23.2919 26.8901 23.307 26.8898C24.1322 26.8741 24.8656 26.4349 25.269 25.715L26.717 23.1309C27.6432 21.4782 27.5362 19.4099 26.4446 17.8617ZM6.7386 24.5026L5.32795 21.9851C4.84063 21.1154 4.89694 20.027 5.47139 19.2122L7.00567 17.0361L7.87051 22.6511L6.7386 24.5026ZM24.6724 21.9851L23.2617 24.5026L22.1309 22.6526L22.995 17.0365L24.529 19.2122C25.1035 20.027 25.1598 21.1154 24.6724 21.9851Z" fill="white"/>
</svg>
