<svg width="55" height="55" viewBox="0 0 55 55" fill="none" xmlns="http://www.w3.org/2000/svg">
<g clip-path="url(#clip0_105_3204)">
<path d="M35.0213 12.1871C32.8731 14.3356 32.8731 17.8311 35.0214 19.9793C37.1694 22.1273 40.665 22.1277 42.8136 19.9794C42.8136 19.9793 42.8136 19.9793 42.8136 19.9793C44.9619 17.8311 44.9619 14.3356 42.8136 12.187C40.6651 10.0389 37.1695 10.039 35.0213 12.1871ZM40.5347 17.7004C39.6428 18.5924 38.192 18.5921 37.3002 17.7006C36.4084 16.8088 36.4084 15.3579 37.3002 14.466C38.192 13.5743 39.6428 13.5742 40.5346 14.466C41.4264 15.3578 41.4264 16.8088 40.5347 17.7004Z" fill="white"/>
<path d="M54.4128 3.9991C54.1475 2.84754 53.9025 2.16165 53.8755 2.08721C53.7125 1.63947 53.3597 1.2867 52.912 1.12374C52.8377 1.09667 52.1518 0.851641 51.0002 0.586417C47.1714 -0.295732 43.1451 -0.18079 39.3562 0.918887C36.6864 1.69383 34.1718 2.94895 31.9421 4.60185C26.4533 4.50581 21.0093 6.15646 16.5544 9.2834C13.7512 11.2515 12.6302 12.5237 9.7257 15.428C9.09686 16.0567 9.09643 17.0778 9.7257 17.7069C16.4098 24.3909 14.0146 21.9957 18.133 26.114L13.6912 28.079C12.6566 28.5367 12.4044 29.8927 13.2037 30.692L24.307 41.7954C25.1112 42.5995 26.4647 42.3372 26.9201 41.3079L28.885 36.866C30.0391 38.02 36.1353 44.1163 37.2922 45.2733C37.9208 45.9021 38.942 45.9025 39.571 45.2733C42.4682 42.3761 43.7461 41.25 45.7157 38.4446C48.8426 33.9898 50.4946 28.5467 50.3973 23.0568C52.0501 20.8271 53.3053 18.3125 54.0802 15.6428C55.18 11.8542 55.2949 7.82783 54.4128 3.9991ZM16.3786 19.8019L13.1441 16.5675C15.0415 14.6701 16.0061 13.6059 18.4061 11.9211C21.2791 9.90451 24.6244 8.5887 28.1103 8.07007L16.3786 19.8019ZM24.9239 37.8545L17.1447 30.0753L20.5763 28.5574L26.4419 34.423L24.9239 37.8545ZM43.0779 36.5932C41.3707 39.0251 40.2401 40.0468 38.4316 41.8552L35.1971 38.6207L46.9283 26.8896C46.4096 30.3757 45.0946 33.7203 43.0779 36.5932ZM45.8695 23.3908L32.9184 36.3419L18.6574 22.0808L31.6084 9.12968C36.8781 3.8601 44.3002 2.06046 51.0717 3.92734C52.9503 10.7413 51.1062 18.1539 45.8695 23.3908Z" fill="white"/>
<path d="M14.7628 40.238C14.1336 39.6087 13.1133 39.6087 12.484 40.238L6.93298 45.789C6.30359 46.4183 6.30359 47.4386 6.93298 48.0679C7.56236 48.6973 8.58255 48.6972 9.21182 48.0679L14.7628 42.5169C15.3921 41.8876 15.3921 40.8672 14.7628 40.238Z" fill="white"/>
<path d="M7.49013 33.2453L0.776474 37.3141C0.0153899 37.7753 -0.227706 38.7662 0.233564 39.5273C0.695156 40.2889 1.68644 40.531 2.44678 40.0702L9.16032 36.0015C9.92141 35.5402 10.1645 34.5494 9.70323 33.7883C9.24218 33.0272 8.25132 32.784 7.49013 33.2453Z" fill="white"/>
<path d="M15.4718 54.7665C16.2333 55.2279 17.2239 54.9842 17.685 54.2236L21.7537 47.5099C22.215 46.7489 21.9719 45.758 21.2108 45.2967C20.4495 44.8356 19.4587 45.0787 18.9976 45.8396L14.9289 52.5532C14.4676 53.3144 14.7107 54.3052 15.4718 54.7665Z" fill="white"/>
</g>
<defs>
<clipPath id="clip0_105_3204">
<rect width="55" height="55" fill="white"/>
</clipPath>
</defs>
</svg>
