<svg width="30" height="30" viewBox="0 0 30 30" fill="none" xmlns="http://www.w3.org/2000/svg">
<path d="M23.025 3.49628L23.5075 3.56628C24.2575 3.68503 25.0975 3.88378 25.6138 4.40003C26.13 4.91628 26.33 5.75753 26.4488 6.50753L26.5188 6.98878C26.6763 8.12628 26.7175 9.61753 26.4488 11.2725C25.9188 14.5388 24.18 18.435 19.8138 21.4538C19.7946 21.677 19.7876 21.9011 19.7925 22.125L19.8138 22.8038C19.8263 23.2563 19.8188 23.7075 19.6938 24.1413C19.4563 24.9663 18.61 25.51 17.8188 25.9L17.4313 26.0838L16.9313 26.3038L16.59 26.4413C15.7063 26.7788 14.64 27.015 13.9425 26.3163C13.6263 26 13.48 25.57 13.3625 25.14L13.305 24.925C13.105 24.1663 12.8788 23.4125 12.5963 22.6825C12.5183 22.7774 12.4357 22.8683 12.3488 22.955C11.6675 23.635 10.7438 23.9775 9.82001 24.2425L9.20626 24.4113L8.59376 24.5738L7.99626 24.7238L7.45626 24.8488L6.81001 24.9863L6.40626 25.065C6.20489 25.1023 5.99748 25.0901 5.80192 25.0293C5.60635 24.9686 5.42849 24.8612 5.28368 24.7164C5.13888 24.5715 5.03147 24.3937 4.97073 24.1981C4.90998 24.0026 4.89772 23.7951 4.93501 23.5938L5.07376 22.905L5.23501 22.1825L5.39001 21.545L5.67126 20.4888C5.95001 19.4638 6.28876 18.4075 7.04626 17.6513L7.17001 17.5325L6.21626 17.19L5.25751 16.86C4.69626 16.675 4.10626 16.48 3.69876 16.0725C2.95376 15.3275 3.27001 14.165 3.64126 13.2513L3.84876 12.7675L4.02001 12.3913C4.41626 11.5488 4.97876 10.5788 5.87376 10.3213C6.30751 10.1963 6.75751 10.1888 7.21126 10.2L7.89001 10.2225C8.11501 10.2284 8.33876 10.2213 8.56126 10.2013C11.5788 5.83503 15.4763 4.09628 18.7425 3.56628C20.1588 3.33291 21.6018 3.30932 23.025 3.49628ZM19.1425 6.03378C16.395 6.48003 13.0563 7.95128 10.4513 11.87C10.135 12.345 9.60126 12.5713 9.05751 12.6575C8.75001 12.7075 8.44001 12.72 8.12876 12.72L7.19501 12.7063C7.04001 12.7054 6.88459 12.7079 6.72876 12.7138C6.34876 13.2188 6.08376 13.8188 5.88501 14.415L7.76001 15.0963L8.53126 15.3875C9.94126 15.94 11.3063 16.6088 12.3563 17.6588C14.125 19.4275 15.0238 21.7413 15.6738 24.105C16.2438 23.905 16.8163 23.65 17.3013 23.2863L17.3088 22.82L17.295 21.8875C17.295 21.5775 17.3075 21.2675 17.3575 20.9575C17.4425 20.4138 17.67 19.88 18.145 19.5638C22.0638 16.9588 23.535 13.62 23.9813 10.8725C24.2063 9.48503 24.1688 8.24503 24.0425 7.33128C23.9939 6.9522 23.9132 6.57794 23.8013 6.21253C23.4358 6.10101 23.0615 6.02072 22.6825 5.97253C21.5058 5.82004 20.3131 5.83985 19.1425 6.03378ZM8.81251 19.4188C8.37501 19.9475 8.17126 20.6413 8.00751 21.3288L7.87251 21.9138L7.80376 22.1963L8.67126 21.9925C9.35876 21.83 10.0538 21.6238 10.5813 21.1863C10.8156 20.9517 10.9473 20.6337 10.9471 20.3021C10.947 19.9705 10.8152 19.6525 10.5806 19.4182C10.3461 19.1838 10.028 19.0522 9.69644 19.0523C9.36485 19.0524 9.04689 19.1842 8.81251 19.4188ZM15.8838 10.5813C16.1159 10.3491 16.3914 10.1649 16.6947 10.0392C16.998 9.9135 17.3231 9.84877 17.6514 9.84871C17.9798 9.84866 18.3049 9.91327 18.6082 10.0389C18.9116 10.1644 19.1872 10.3485 19.4194 10.5807C19.6516 10.8128 19.8358 11.0883 19.9615 11.3916C20.0872 11.6949 20.1519 12.02 20.1519 12.3483C20.152 12.6767 20.0874 13.0018 19.9618 13.3051C19.8362 13.6084 19.6521 13.8841 19.42 14.1163C18.9511 14.5852 18.3151 14.8487 17.6519 14.8487C16.9887 14.8487 16.3527 14.5852 15.8838 14.1163C15.4148 13.6473 15.1514 13.0113 15.1514 12.3482C15.1514 11.685 15.4148 11.049 15.8838 10.58V10.5813Z" fill="white"/>
</svg>
