<svg width="30" height="30" viewBox="0 0 30 30" fill="none" xmlns="http://www.w3.org/2000/svg">
<path d="M25.3126 4.415C25.5352 4.35744 25.7693 4.36237 25.9892 4.42925C26.2092 4.49613 26.4064 4.62236 26.5593 4.79407C26.7121 4.96578 26.8147 5.17632 26.8556 5.40253C26.8965 5.62873 26.8743 5.86185 26.7914 6.07625L19.2914 25.4512C19.2172 25.6431 19.0968 25.8138 18.9408 25.948C18.7849 26.0822 18.5982 26.1758 18.3974 26.2206C18.1966 26.2653 17.9879 26.2598 17.7897 26.2046C17.5915 26.1493 17.41 26.046 17.2614 25.9037L13.0339 21.86L11.5301 23.3625C10.7351 24.1575 9.37512 23.595 9.37512 22.47V18.36L2.88637 12.1537C2.72537 11.9997 2.60847 11.8055 2.54777 11.5911C2.48707 11.3767 2.48477 11.15 2.54112 10.9344C2.59746 10.7189 2.7104 10.5223 2.86825 10.365C3.02609 10.2078 3.22309 10.0955 3.43887 10.04L25.3126 4.415ZM22.6701 9.79625L12.6726 18.055L17.6351 22.8025L22.6701 9.79625ZM20.6976 8.18375L6.23887 11.9L10.8539 16.3125L20.6976 8.18125V8.18375Z" fill="white"/>
</svg>
