<svg width="28" height="28" viewBox="0 0 28 28" fill="none" xmlns="http://www.w3.org/2000/svg">
<path d="M26.8785 9.5452C28.5452 7.87854 27.7852 5.93187 26.8785 4.9852L22.8785 0.985205C21.1985 -0.681462 19.2652 0.0785382 18.3185 0.985205L16.0519 3.2652H12.5985C10.0652 3.2652 8.59854 4.59854 7.85187 6.13187L1.93187 12.0519V17.3852L0.985205 18.3185C-0.681462 19.9985 0.0785382 21.9319 0.985205 22.8785L4.9852 26.8785C5.7052 27.5985 6.47854 27.8652 7.21187 27.8652C8.15854 27.8652 9.0252 27.3985 9.5452 26.8785L13.1452 23.2652H17.9319C20.1985 23.2652 21.3452 21.8519 21.7585 20.4652C23.2652 20.0652 24.0919 18.9185 24.4252 17.7985C26.4919 17.2652 27.2652 15.3052 27.2652 13.9319V9.93187H26.4785L26.8785 9.5452ZM24.5985 13.9319C24.5985 14.5319 24.3452 15.2652 23.2652 15.2652H21.9319V16.5985C21.9319 17.1985 21.6785 17.9319 20.5985 17.9319H19.2652V19.2652C19.2652 19.8652 19.0119 20.5985 17.9319 20.5985H12.0519L7.67854 24.9719C7.2652 25.3585 7.0252 25.1319 6.87854 24.9852L2.89187 21.0119C2.5052 20.5985 2.73187 20.3585 2.87854 20.2119L4.59854 18.4785V13.1452L7.2652 10.4785V12.5985C7.2652 14.2119 8.33187 16.5985 11.2652 16.5985C14.1985 16.5985 15.2652 14.2119 15.2652 12.5985H24.5985V13.9319ZM24.9852 7.65187L22.7185 9.93187H12.5985V12.5985C12.5985 13.1985 12.3452 13.9319 11.2652 13.9319C10.1852 13.9319 9.93187 13.1985 9.93187 12.5985V8.59854C9.93187 7.9852 10.1585 5.93187 12.5985 5.93187H17.1452L20.1852 2.89187C20.5985 2.5052 20.8385 2.73187 20.9852 2.87854L24.9719 6.85187C25.3585 7.2652 25.1319 7.5052 24.9852 7.65187Z" fill="white"/>
</svg>
