<svg width="22" height="28" viewBox="0 0 22 28" fill="none" xmlns="http://www.w3.org/2000/svg">
<path d="M15.4444 27.0013V4.54684M15.4444 27.0013L1 24.0468L2.11111 8.68319L15.4444 4.54684M15.4444 27.0013L21 25.2286C21 22.0814 20.7778 18.939 20.3344 15.8273L18.9222 5.90356H17.1111L15.4444 4.54684M12.1133 5.58093C12.1211 3.1972 11.2656 1.31221 9.89111 1.03566C8.15667 0.687026 6.25222 3.03411 5.63778 6.2782C5.55037 6.74383 5.49333 7.19883 5.46667 7.6432M14.1856 4.93684C13.8589 3.54111 13.17 2.55311 12.2322 2.35811C10.6956 2.03902 9.02111 3.9642 8.28333 6.76865M11.8778 10.957C10.7667 10.4606 7.87778 9.56483 7.11556 11.9521C6.70444 13.2403 7.44222 14.6135 9.01889 15.9313C11.2267 17.7749 10.8522 19.3479 10.4478 19.9104C9.02 21.9006 6.16222 20.7401 5.21 19.9104" stroke="white" stroke-width="2" stroke-linecap="round" stroke-linejoin="round"/>
</svg>
