<svg width="55" height="55" viewBox="0 0 55 55" fill="none" xmlns="http://www.w3.org/2000/svg">
<g clip-path="url(#clip0_105_3184)">
<path d="M44.4777 16.0778L35.3974 14.7584L31.3366 6.53028C29.7681 3.35199 25.2326 3.35296 23.6647 6.53017L19.6038 14.7583L10.5236 16.0778C7.01594 16.5874 5.6158 20.901 8.15289 23.3742L14.7235 29.779L13.1724 38.8223C12.5733 42.3157 16.2427 44.9802 19.3791 43.3318L27.5008 39.0618L35.6225 43.3318C38.7545 44.9783 42.4282 42.3152 41.8292 38.8223L40.2782 29.7788L46.8488 23.3741C49.3863 20.9 47.9838 16.5873 44.4777 16.0778ZM44.2891 20.7486L37.0283 27.826C36.5963 28.2472 36.3991 28.8541 36.5011 29.4487L38.2151 39.4423C38.3012 39.9442 37.779 40.3232 37.3285 40.0865L28.3537 35.3682C27.8197 35.0875 27.1815 35.0875 26.6475 35.3682L17.6727 40.0865C17.222 40.3234 16.7 39.9441 16.7861 39.4423L18.5001 29.4487C18.602 28.8541 18.4049 28.2472 17.9729 27.826L10.7121 20.7486C10.3474 20.3932 10.5469 19.7796 11.0508 19.7062L21.0849 18.2482C21.6819 18.1614 22.1982 17.7865 22.4652 17.2454L26.9527 8.15289C27.1779 7.69656 27.8232 7.69624 28.0486 8.153L32.536 17.2454C32.8031 17.7865 33.3194 18.1615 33.9164 18.2482L43.9505 19.7062C44.4543 19.7796 44.6537 20.3933 44.2891 20.7486Z" fill="white"/>
<path d="M14.474 5.06514L12.2814 2.04734C11.6861 1.22835 10.5397 1.0466 9.72067 1.64193C8.90158 2.23704 8.71993 3.38356 9.31515 4.20265L11.5077 7.22035C12.1033 8.03976 13.2497 8.22077 14.0685 7.62576C14.8876 7.03075 15.0692 5.88423 14.474 5.06514Z" fill="white"/>
<path d="M7.19702 32.1092C6.88431 31.1463 5.85005 30.6189 4.88691 30.9321L1.26722 32.1083C0.30429 32.4212 -0.222614 33.4554 0.0901984 34.4184C0.403548 35.383 1.43952 35.908 2.40031 35.5954L6.01999 34.4193C6.98303 34.1064 7.50994 33.0721 7.19702 32.1092Z" fill="white"/>
<path d="M45.2794 1.64205C44.4604 1.04693 43.3139 1.22837 42.7187 2.04746L40.5261 5.06515C39.9309 5.88425 40.1125 7.03087 40.9316 7.62588C41.751 8.22121 42.8974 8.03924 43.4923 7.22047L45.6849 4.20277C46.28 3.38368 46.0985 2.23706 45.2794 1.64205Z" fill="white"/>
<path d="M53.7329 32.1083L50.1132 30.9321C49.1503 30.6187 48.1161 31.1462 47.8031 32.1091C47.4902 33.0721 48.0171 34.1064 48.9802 34.4192L52.5998 35.5954C53.5607 35.9079 54.5966 35.3828 54.91 34.4184C55.2229 33.4555 54.6959 32.4212 53.7329 32.1083Z" fill="white"/>
<path d="M27.4993 46.3209C26.4868 46.3209 25.666 47.1417 25.666 48.1541V51.875C25.666 52.8875 26.4868 53.7083 27.4993 53.7083C28.5117 53.7083 29.3325 52.8875 29.3325 51.875V48.1541C29.3326 47.1416 28.5118 46.3209 27.4993 46.3209Z" fill="white"/>
</g>
<defs>
<clipPath id="clip0_105_3184">
<rect width="55" height="55" fill="white"/>
</clipPath>
</defs>
</svg>
