<svg width="20" height="19" viewBox="0 0 20 19" fill="none" xmlns="http://www.w3.org/2000/svg">
<path d="M9.37238 0.278606C9.55579 -0.0930161 10.0857 -0.0930156 10.2691 0.278606L12.9166 5.64288C12.9894 5.79045 13.1302 5.89274 13.293 5.9164L19.2129 6.7766C19.623 6.83619 19.7867 7.34018 19.49 7.62945L15.2063 11.8049C15.0885 11.9198 15.0347 12.0853 15.0625 12.2475L16.0738 18.1434C16.1438 18.5519 15.7151 18.8634 15.3483 18.6705L10.0534 15.8868C9.90776 15.8103 9.73374 15.8103 9.58808 15.8868L4.29321 18.6705C3.92639 18.8634 3.49768 18.5519 3.56773 18.1434L4.57896 12.2475C4.60678 12.0853 4.55301 11.9198 4.43516 11.8049L0.151525 7.62945C-0.145234 7.34018 0.018521 6.83619 0.428632 6.7766L6.34848 5.9164C6.51133 5.89274 6.65211 5.79045 6.72495 5.64288L9.37238 0.278606Z" fill="#FF37B3"/>
</svg>
