<svg width="32" height="32" viewBox="0 0 32 32" fill="none" xmlns="http://www.w3.org/2000/svg">
<path d="M25.5307 3.96129C25.2929 3.5675 24.9578 3.24154 24.5575 3.0148C24.1573 2.78805 23.7054 2.66815 23.2454 2.66663H8.75469C7.82402 2.66663 6.94802 3.16263 6.46935 3.96129L2.85735 9.97996C2.73267 10.1873 2.66676 10.4247 2.66669 10.6666C2.67201 11.9536 3.14601 13.1945 4.00002 14.1573V25.3333C4.00002 26.804 5.19602 28 6.66669 28H25.3334C26.804 28 28 26.804 28 25.3333V14.1573C28.854 13.1945 29.328 11.9536 29.3334 10.6666C29.3333 10.4247 29.2674 10.1873 29.1427 9.97996L25.5307 3.96129ZM26.6454 11.0013C26.5639 11.6454 26.2502 12.2377 25.7632 12.667C25.2762 13.0963 24.6493 13.3332 24 13.3333C22.5294 13.3333 21.3334 12.1373 21.3334 10.6666C21.3334 10.576 21.3 10.496 21.2814 10.4106L21.308 10.4053L20.2934 5.33329H23.2454L26.6454 11.0013ZM14.4254 5.33329H17.5734L18.6574 10.7533C18.6107 12.1826 17.44 13.3333 16 13.3333C14.56 13.3333 13.3894 12.1826 13.3427 10.7533L14.4254 5.33329ZM8.75469 5.33329H11.7067L10.6934 10.4053L10.72 10.4106C10.7 10.496 10.6667 10.576 10.6667 10.6666C10.6667 12.1373 9.47069 13.3333 8.00002 13.3333C7.35078 13.3332 6.72386 13.0963 6.23685 12.667C5.74983 12.2377 5.43617 11.6454 5.35469 11.0013L8.75469 5.33329ZM13.3334 25.3333V21.3333H18.6667V25.3333H13.3334ZM21.3334 25.3333V21.3333C21.3334 19.8626 20.1374 18.6666 18.6667 18.6666H13.3334C11.8627 18.6666 10.6667 19.8626 10.6667 21.3333V25.3333H6.66669V15.8106C7.09469 15.9213 7.53602 16 8.00002 16C8.75697 15.9995 9.50515 15.8379 10.1948 15.526C10.8845 15.214 11.4999 14.7588 12 14.1906C12.9774 15.3 14.4094 16 16 16C17.5907 16 19.0227 15.3 20 14.1906C20.5002 14.7588 21.1155 15.214 21.8052 15.526C22.4949 15.8379 23.2431 15.9995 24 16C24.464 16 24.9054 15.9213 25.3334 15.8106V25.3333H21.3334Z" fill="white"/>
</svg>
