<svg width="28" height="28" viewBox="0 0 28 28" fill="none" xmlns="http://www.w3.org/2000/svg">
<path fill-rule="evenodd" clip-rule="evenodd" d="M15.75 2.625H12.25C12.0179 2.625 11.7954 2.71719 11.6313 2.88128C11.4672 3.04538 11.375 3.26794 11.375 3.5V5.25H16.625V3.5C16.625 3.26794 16.5328 3.04538 16.3687 2.88128C16.2046 2.71719 15.9821 2.625 15.75 2.625ZM8.75 3.5V5.25C7.35761 5.25 6.02226 5.80312 5.03769 6.78769C4.05312 7.77226 3.5 9.10761 3.5 10.5V21C3.5 22.3924 4.05312 23.7277 5.03769 24.7123C6.02226 25.6969 7.35761 26.25 8.75 26.25H19.25C20.6424 26.25 21.9777 25.6969 22.9623 24.7123C23.9469 23.7277 24.5 22.3924 24.5 21V10.5C24.5 9.10761 23.9469 7.77226 22.9623 6.78769C21.9777 5.80312 20.6424 5.25 19.25 5.25V3.5C19.25 2.57174 18.8813 1.6815 18.2249 1.02513C17.5685 0.368749 16.6783 0 15.75 0L12.25 0C11.3217 0 10.4315 0.368749 9.77513 1.02513C9.11875 1.6815 8.75 2.57174 8.75 3.5ZM16.625 7.875H19.25C19.9462 7.875 20.6139 8.15156 21.1062 8.64384C21.5984 9.13613 21.875 9.80381 21.875 10.5V21C21.875 21.6962 21.5984 22.3639 21.1062 22.8562C20.6139 23.3484 19.9462 23.625 19.25 23.625H8.75C8.05381 23.625 7.38613 23.3484 6.89384 22.8562C6.40156 22.3639 6.125 21.6962 6.125 21V10.5C6.125 9.80381 6.40156 9.13613 6.89384 8.64384C7.38613 8.15156 8.05381 7.875 8.75 7.875H16.625ZM10.0625 10.5C9.7144 10.5 9.38056 10.6383 9.13442 10.8844C8.88828 11.1306 8.75 11.4644 8.75 11.8125C8.75 12.1606 8.88828 12.4944 9.13442 12.7406C9.38056 12.9867 9.7144 13.125 10.0625 13.125H17.9375C18.2856 13.125 18.6194 12.9867 18.8656 12.7406C19.1117 12.4944 19.25 12.1606 19.25 11.8125C19.25 11.4644 19.1117 11.1306 18.8656 10.8844C18.6194 10.6383 18.2856 10.5 17.9375 10.5H10.0625Z" fill="white"/>
</svg>
