<svg width="30" height="30" viewBox="0 0 30 30" fill="none" xmlns="http://www.w3.org/2000/svg">
<g clip-path="url(#clip0_105_4222)">
<path d="M29.4888 5.34185C30.6024 8.34188 29.8611 11.7413 27.6001 14.0022C26.8161 14.7862 25.903 15.3902 24.9131 15.7968L23.0463 13.93C24.1294 13.696 25.1326 13.1548 25.9426 12.3447C27.2579 11.0296 27.8531 9.1746 27.5989 7.37355L25.114 9.85853C24.4583 10.5142 23.5866 10.8798 22.6594 10.8882C22.6487 10.8883 22.6379 10.8883 22.627 10.8883C21.7132 10.8883 20.8488 10.5403 20.1901 9.90617C19.5139 9.25535 19.1365 8.37293 19.1273 7.42166C19.1182 6.46383 19.4997 5.52773 20.1741 4.85329L22.6264 2.40102C22.3538 2.36251 22.08 2.34353 21.807 2.34353C20.2761 2.34353 18.7714 2.94108 17.6553 4.05732C16.3655 5.34695 15.7569 7.12608 15.9854 8.93849C16.0686 9.59805 16.0148 10.251 15.8365 10.8639L13.6068 8.6343C13.4809 6.30789 14.3342 4.06323 15.9978 2.39978C18.2587 0.138897 21.6581 -0.602524 24.658 0.511131L24.8979 0.600204L26.3201 2.02239L21.8317 6.51083C21.5995 6.74306 21.4681 7.06689 21.4714 7.39934C21.4744 7.71613 21.5967 8.00668 21.8156 8.21747C22.2721 8.65674 23.0083 8.64941 23.4565 8.20112L27.9777 3.67998L29.3998 5.10212L29.4888 5.34185ZM1.19955 22.9991C-0.39985 24.5985 -0.39985 27.2009 1.19955 28.8003C1.99928 29.6 3.0497 29.9999 4.10019 29.9999C5.15067 29.9999 6.20109 29.6001 7.00076 28.8003L13.3425 22.4586L11.685 20.8011L5.34329 27.1428C5.01126 27.4749 4.56981 27.6577 4.10019 27.6577C3.63056 27.6577 3.18911 27.4749 2.85708 27.1428C2.52499 26.8108 2.34215 26.3693 2.34215 25.8997C2.34215 25.4301 2.52499 24.9886 2.85708 24.6566L11.2707 16.243L9.6132 14.5855L1.19955 22.9991ZM28.8004 22.9991C30.3998 24.5985 30.3998 27.2009 28.8004 28.8003C28.0007 29.6 26.9503 29.9999 25.8998 29.9999C24.8493 29.9999 23.7988 29.6001 22.9992 28.8003L13.3425 19.1436L15.4144 17.0718L7.04887 8.70637L4.01439 9.17647L0.0115884 4.04612L4.04615 0.0115565L9.17656 4.01436L8.70647 7.04884L17.0719 15.4143L19.1437 13.3425L28.8004 22.9991ZM6.64939 5.01568L4.23819 3.13447L3.1345 4.23816L5.01577 6.64936L6.43028 6.43025L6.64939 5.01568ZM27.1429 24.6566L19.1437 16.6574L16.6575 19.1437L24.6567 27.1429C25.342 27.8283 26.4575 27.8283 27.1429 27.1429C27.8283 26.4574 27.8283 25.342 27.1429 24.6566Z" fill="white"/>
</g>
<defs>
<clipPath id="clip0_105_4222">
<rect width="30" height="30" fill="white"/>
</clipPath>
</defs>
</svg>
