<svg width="28" height="24" viewBox="0 0 28 24" fill="none" xmlns="http://www.w3.org/2000/svg">
<path d="M14.1325 13.7825C15.0559 13.8772 15.9114 14.311 16.5335 15C17.1555 15.689 17.4999 16.5842 17.5 17.5125C17.5 19.44 16.325 21.035 14.745 22.0875C13.1575 23.1475 11.0325 23.7625 8.75 23.7625C6.4675 23.7625 4.3425 23.1475 2.755 22.0875C1.1725 21.0375 0 19.44 0 17.5125C0 16.5179 0.395088 15.5641 1.09835 14.8608C1.80161 14.1576 2.75544 13.7625 3.75 13.7625H13.75L14.1325 13.7825ZM23.745 13.7625C24.7396 13.7625 25.6934 14.1576 26.3967 14.8608C27.0999 15.5641 27.495 16.5179 27.495 17.5125C27.495 19.25 26.4175 20.54 25.0375 21.3325C23.6675 22.12 21.875 22.5125 19.995 22.5125C19.3633 22.5108 18.7467 22.465 18.145 22.375C18.73 21.685 19.22 20.8925 19.5475 20C19.6958 20.0083 19.845 20.0125 19.995 20.0125C21.5675 20.0125 22.9 19.68 23.7925 19.1675C24.675 18.66 24.995 18.075 24.995 17.5125C24.995 17.181 24.8633 16.863 24.6289 16.6286C24.3945 16.3942 24.0765 16.2625 23.745 16.2625H19.87C19.6816 15.3553 19.294 14.5014 18.735 13.7625H23.745ZM3.75 16.2625C3.41848 16.2625 3.10054 16.3942 2.86612 16.6286C2.6317 16.863 2.5 17.181 2.5 17.5125C2.5 18.345 3.0075 19.2525 4.14 20.0075C5.265 20.7575 6.89 21.2625 8.75 21.2625C10.6075 21.2625 12.235 20.7575 13.36 20.0075C14.4925 19.2525 15 18.345 15 17.5125C15.0001 17.2243 14.9006 16.945 14.7183 16.7218C14.5361 16.4985 14.2823 16.3451 14 16.2875L13.75 16.2625H3.75ZM9.3275 0.0349998C10.714 0.177282 11.9984 0.82856 12.9326 1.86292C13.8668 2.89728 14.3842 4.24125 14.385 5.635L14.355 6.21C14.2116 7.59557 13.5598 8.87884 12.5255 9.81196C11.4913 10.7451 10.148 11.2619 8.755 11.2625L8.18 11.2325C6.89208 11.1011 5.6889 10.5295 4.77347 9.61403C3.85805 8.6986 3.28641 7.49542 3.155 6.2075L3.125 5.6325C3.125 4.1391 3.71808 2.70683 4.77384 1.6506C5.8296 0.594378 7.2616 0.000662849 8.755 0L9.3275 0.0349998ZM20.625 2.505C21.1995 2.505 21.7684 2.61816 22.2992 2.83803C22.83 3.05789 23.3123 3.38015 23.7186 3.78641C24.1248 4.19266 24.4471 4.67496 24.667 5.20576C24.8868 5.73656 25 6.30547 25 6.88C25 7.45453 24.8868 8.02344 24.667 8.55424C24.4471 9.08504 24.1248 9.56734 23.7186 9.97359C23.3123 10.3798 22.83 10.7021 22.2992 10.922C21.7684 11.1418 21.1995 11.255 20.625 11.255C19.4647 11.255 18.3519 10.7941 17.5314 9.97359C16.7109 9.15312 16.25 8.04032 16.25 6.88C16.25 5.71968 16.7109 4.60688 17.5314 3.78641C18.3519 2.96594 19.4647 2.505 20.625 2.505ZM8.755 2.505C8.34396 2.505 7.93695 2.58596 7.5572 2.74326C7.17745 2.90055 6.8324 3.13111 6.54176 3.42176C6.25111 3.7124 6.02055 4.05745 5.86326 4.4372C5.70596 4.81695 5.625 5.22396 5.625 5.635C5.625 6.04604 5.70596 6.45305 5.86326 6.8328C6.02055 7.21255 6.25111 7.5576 6.54176 7.84824C6.8324 8.13889 7.17745 8.36945 7.5572 8.52674C7.93695 8.68404 8.34396 8.765 8.755 8.765C9.58513 8.765 10.3813 8.43523 10.9682 7.84824C11.5552 7.26126 11.885 6.46513 11.885 5.635C11.885 4.80487 11.5552 4.00874 10.9682 3.42176C10.3813 2.83477 9.58513 2.505 8.755 2.505ZM20.625 5.005C20.1277 5.005 19.6508 5.20254 19.2992 5.55417C18.9475 5.90581 18.75 6.38272 18.75 6.88C18.75 7.37728 18.9475 7.85419 19.2992 8.20582C19.6508 8.55746 20.1277 8.755 20.625 8.755C21.1223 8.755 21.5992 8.55746 21.9508 8.20582C22.3025 7.85419 22.5 7.37728 22.5 6.88C22.5 6.38272 22.3025 5.90581 21.9508 5.55417C21.5992 5.20254 21.1223 5.005 20.625 5.005Z" fill="white"/>
</svg>
