<svg width="28" height="17" viewBox="0 0 28 17" fill="none" xmlns="http://www.w3.org/2000/svg">
<path d="M27.888 0.877909C27.746 0.531915 27.4742 0.256965 27.1322 0.113278C26.964 0.0407222 26.7833 0.00223723 26.6004 0H19.6024C19.2312 0 18.8752 0.149184 18.6128 0.414732C18.3503 0.68028 18.2028 1.04044 18.2028 1.41598C18.2028 1.79152 18.3503 2.15168 18.6128 2.41723C18.8752 2.68278 19.2312 2.83196 19.6024 2.83196H23.2274L15.4037 10.7473L10.799 6.07456C10.6689 5.94185 10.5141 5.83651 10.3435 5.76462C10.173 5.69273 9.99004 5.65572 9.80527 5.65572C9.62051 5.65572 9.43758 5.69273 9.26702 5.76462C9.09647 5.83651 8.94167 5.94185 8.81156 6.07456L0.413998 14.5705C0.282816 14.7021 0.178694 14.8587 0.107638 15.0313C0.0365829 15.2038 0 15.3889 0 15.5758C0 15.7627 0.0365829 15.9478 0.107638 16.1204C0.178694 16.2929 0.282816 16.4495 0.413998 16.5812C0.544108 16.7139 0.698905 16.8192 0.869458 16.8911C1.04001 16.963 1.22295 17 1.40771 17C1.59247 17 1.77541 16.963 1.94596 16.8911C2.11651 16.8192 2.27131 16.7139 2.40142 16.5812L9.80527 9.07645L14.4099 13.7492C14.54 13.8819 14.6948 13.9872 14.8654 14.0591C15.036 14.131 15.2189 14.168 15.4037 14.168C15.5884 14.168 15.7713 14.131 15.9419 14.0591C16.1125 13.9872 16.2673 13.8819 16.3974 13.7492L25.2008 4.8285V8.4959C25.2008 8.87144 25.3483 9.2316 25.6107 9.49715C25.8732 9.76269 26.2292 9.91188 26.6004 9.91188C26.9716 9.91188 27.3276 9.76269 27.5901 9.49715C27.8525 9.2316 28 8.87144 28 8.4959V1.41598C27.9978 1.23095 27.9597 1.04814 27.888 0.877909Z" fill="white"/>
</svg>
