<svg width="30" height="30" viewBox="0 0 30 30" fill="none" xmlns="http://www.w3.org/2000/svg">
<g clip-path="url(#clip0_105_653)">
<path d="M9.08096 12.7392C9.08096 13.5704 8.40472 14.2466 7.57353 14.2466C6.74235 14.2466 6.06611 13.5704 6.06611 12.7392V7.57739H4.30859V12.7392C4.30859 14.5395 5.77325 16.0042 7.57353 16.0042C9.37382 16.0042 10.8385 14.5395 10.8385 12.7392V7.57739H9.08096V12.7392Z" fill="white"/>
<path d="M18.3893 8.31305L16.8866 7.40149L15.3578 9.92171L13.8288 7.40149L12.3262 8.31305L14.3299 11.616L12.3262 14.9189L13.8288 15.8305L15.3578 13.3102L16.8866 15.8305L18.3893 14.9189L16.3856 11.616L18.3893 8.31305Z" fill="white"/>
<path d="M30 21.232L28.1874 19.3488L22.825 18.4106V0.0635986H0V22.8886H18.5542L19.4789 28.0389L21.3053 29.9365L23.3701 27.0018L26.2121 29.8437L29.9404 26.1155L27.0984 23.2735L30 21.232ZM17.5856 17.4938L18.2386 21.1311H1.75752V1.82112H21.0675V18.103L17.5856 17.4938ZM27.4549 26.1155L26.2121 27.3582L23.1353 24.2813L21.1074 27.1636L19.7599 19.6584L27.3058 20.9787L24.378 23.0386L27.4549 26.1155Z" fill="white"/>
</g>
<defs>
<clipPath id="clip0_105_653">
<rect width="30" height="30" fill="white"/>
</clipPath>
</defs>
</svg>
