<svg width="35" height="35" viewBox="0 0 35 35" fill="none" xmlns="http://www.w3.org/2000/svg">
<path d="M3.64453 17.4987C3.64453 10.9683 3.64453 7.70161 5.67307 5.67307C7.70161 3.64453 10.9668 3.64453 17.4987 3.64453C24.0291 3.64453 27.2958 3.64453 29.3243 5.67307C31.3529 7.70161 31.3529 10.9668 31.3529 17.4987C31.3529 24.0291 31.3529 27.2958 29.3243 29.3243C27.2958 31.3529 24.0306 31.3529 17.4987 31.3529C10.9683 31.3529 7.70161 31.3529 5.67307 29.3243C3.64453 27.2958 3.64453 24.0306 3.64453 17.4987Z" stroke="white" stroke-width="3"/>
<path d="M3.64453 13.125H31.3529" stroke="white" stroke-width="3" stroke-linejoin="round"/>
<path d="M18.957 18.957H24.7904M18.957 24.7904H21.8737" stroke="white" stroke-width="3" stroke-linecap="round" stroke-linejoin="round"/>
<path d="M10.207 8.75H10.2202M16.0404 8.75H16.0535" stroke="white" stroke-width="2" stroke-linecap="round" stroke-linejoin="round"/>
<path d="M13.125 13.125V31.3542" stroke="white" stroke-width="3" stroke-linecap="round" stroke-linejoin="round"/>
</svg>
