<svg width="30" height="30" viewBox="0 0 30 30" fill="none" xmlns="http://www.w3.org/2000/svg">
<g clip-path="url(#clip0_105_4255)">
<path d="M15.0003 0C6.7288 0 0 6.72849 0 14.9994C0 23.2709 6.72911 30 15 30C23.2706 30 29.9991 23.2709 29.9991 14.9994C29.9994 6.7288 23.2709 0 15.0003 0ZM1.51372 14.9994C1.51372 13.0446 1.93298 11.188 2.68142 9.51122L9.11471 27.1372C4.61627 24.9507 1.51372 20.3376 1.51372 14.9994ZM15.0003 28.4866C13.6764 28.4866 12.3987 28.2924 11.1905 27.937L15.2366 16.1792L19.3828 27.5362C19.4096 27.6032 19.4423 27.6643 19.4788 27.7219C18.077 28.2151 16.5708 28.4866 15.0003 28.4866ZM16.8585 8.67643C17.6702 8.63373 18.4024 8.54801 18.4024 8.54801C19.1287 8.46197 19.0436 7.39433 18.3161 7.43703C18.3161 7.43703 16.1319 7.60817 14.7213 7.60817C13.3965 7.60817 11.169 7.43703 11.169 7.43703C10.442 7.39433 10.3572 8.5053 11.0839 8.54801C11.0839 8.54801 11.7721 8.63373 12.4981 8.67643L14.5991 14.4336L11.6478 23.2849L6.73753 8.67675C7.5505 8.63435 8.28117 8.54832 8.28117 8.54832C9.00748 8.46259 8.92176 7.39433 8.19451 7.43797C8.19451 7.43797 6.01122 7.6091 4.60037 7.6091C4.34694 7.6091 4.04863 7.60256 3.73254 7.59289C6.14339 3.93111 10.289 1.51372 15.0003 1.51372C18.5118 1.51372 21.7082 2.85598 24.1072 5.05393C24.0489 5.05081 23.9925 5.04302 23.932 5.04302C22.6079 5.04302 21.6677 6.19701 21.6677 7.43672C21.6677 8.54769 22.3083 9.48847 22.9919 10.5994C23.5053 11.4978 24.1038 12.6521 24.1038 14.3189C24.1038 15.4735 23.6605 16.8127 23.0773 18.6786L21.7322 23.1739L16.8585 8.67643ZM21.7799 26.6571L25.8993 14.7469C26.6696 12.8233 26.9249 11.2849 26.9249 9.91615C26.9249 9.4202 26.8925 8.95916 26.8339 8.5293C27.8875 10.4504 28.4869 12.6552 28.4863 15C28.486 19.9751 25.789 24.3192 21.7799 26.6571Z" fill="white"/>
</g>
<defs>
<clipPath id="clip0_105_4255">
<rect width="30" height="30" fill="white"/>
</clipPath>
</defs>
</svg>
