<svg width="171" height="65" viewBox="0 0 171 65" fill="none" xmlns="http://www.w3.org/2000/svg">
    <path d="M77.2715 24.4542C75.8818 24.4542 74.6295 24.154 73.5145 23.5537C72.4157 22.9362 71.5512 22.0872 70.9211 21.0066C70.307 19.926 70 18.6996 70 17.3274C70 15.9552 70.307 14.7288 70.9211 13.6482C71.5512 12.5676 72.4157 11.7271 73.5145 11.1268C74.6295 10.5093 75.8818 10.2006 77.2715 10.2006C78.645 10.2006 79.8407 10.5093 80.8587 11.1268C81.8929 11.7271 82.6443 12.5933 83.1129 13.7254L80.1801 15.3977C79.5014 14.1285 78.5238 13.4938 77.2472 13.4938C76.2615 13.4938 75.4455 13.8369 74.7992 14.523C74.1528 15.2091 73.8297 16.1439 73.8297 17.3274C73.8297 18.5109 74.1528 19.4457 74.7992 20.1318C75.4455 20.8179 76.2615 21.1609 77.2472 21.1609C78.5399 21.1609 79.5176 20.5263 80.1801 19.257L83.1129 20.9551C82.6443 22.0529 81.8929 22.9105 80.8587 23.528C79.8407 24.1455 78.645 24.4542 77.2715 24.4542Z"
          fill="white"/>
    <path d="M88.9015 12.2331C89.3539 11.5642 89.9599 11.0582 90.7194 10.7152C91.495 10.3721 92.3837 10.2006 93.3856 10.2006V13.9055C92.9654 13.8712 92.6827 13.854 92.5372 13.854C91.4546 13.854 90.6062 14.1799 89.9922 14.8317C89.3782 15.4664 89.0712 16.4269 89.0712 17.7133V24.2484H85.29V10.4064H88.9015V12.2331Z"
          fill="white"/>
    <path d="M108.289 17.3788C108.289 17.4303 108.265 17.7905 108.216 18.4594H98.3514C98.5291 19.3171 98.9493 19.9946 99.6118 20.492C100.274 20.9894 101.098 21.2381 102.084 21.2381C102.763 21.2381 103.361 21.1352 103.878 20.9294C104.411 20.7064 104.904 20.3634 105.356 19.9002L107.368 22.2158C106.14 23.7081 104.346 24.4542 101.987 24.4542C100.517 24.4542 99.2159 24.154 98.0848 23.5537C96.9536 22.9362 96.0811 22.0872 95.467 21.0066C94.853 19.926 94.546 18.6996 94.546 17.3274C94.546 15.9724 94.8449 14.7545 95.4428 13.6739C96.0568 12.5762 96.889 11.7271 97.9393 11.1268C99.0058 10.5093 100.193 10.2006 101.502 10.2006C102.779 10.2006 103.934 10.4922 104.968 11.0754C106.003 11.6585 106.811 12.499 107.392 13.5968C107.99 14.6773 108.289 15.938 108.289 17.3788ZM101.527 13.2366C100.67 13.2366 99.9511 13.4938 99.3694 14.0084C98.7877 14.523 98.4322 15.2262 98.3029 16.1181H104.726C104.597 15.2434 104.241 14.5487 103.66 14.0341C103.078 13.5024 102.367 13.2366 101.527 13.2366Z"
          fill="white"/>
    <path d="M115.711 10.2006C117.731 10.2006 119.282 10.7152 120.365 11.7443C121.447 12.7563 121.989 14.2914 121.989 16.3497V24.2484H118.45V22.5246C117.739 23.811 116.414 24.4542 114.475 24.4542C113.473 24.4542 112.6 24.2741 111.857 23.9139C111.13 23.5537 110.573 23.0563 110.185 22.4216C109.797 21.787 109.603 21.0666 109.603 20.2604C109.603 18.974 110.055 17.962 110.96 17.2245C111.881 16.4869 113.295 16.1181 115.202 16.1181H118.208C118.208 15.2434 117.957 14.5744 117.456 14.1113C116.955 13.6311 116.204 13.3909 115.202 13.3909C114.507 13.3909 113.821 13.511 113.142 13.7511C112.479 13.9741 111.914 14.2828 111.445 14.6774L110.088 11.8729C110.799 11.3412 111.647 10.9296 112.633 10.638C113.635 10.3464 114.661 10.2006 115.711 10.2006ZM115.42 21.7527C116.067 21.7527 116.64 21.5983 117.141 21.2896C117.642 20.9637 117.998 20.492 118.208 19.8745V18.4594H115.614C114.063 18.4594 113.287 18.9997 113.287 20.0803C113.287 20.5949 113.473 21.0066 113.845 21.3153C114.233 21.6069 114.758 21.7527 115.42 21.7527Z"
          fill="white"/>
    <path d="M133.822 23.5794C133.45 23.871 132.989 24.094 132.44 24.2484C131.907 24.3856 131.341 24.4542 130.743 24.4542C129.192 24.4542 127.988 24.034 127.132 23.1935C126.292 22.353 125.871 21.1181 125.871 19.4886V13.8026H123.86V10.7152H125.871V7.34471H129.653V10.7152H132.901V13.8026H129.653V19.4371C129.653 20.0203 129.79 20.4749 130.065 20.8007C130.356 21.1095 130.759 21.2639 131.277 21.2639C131.874 21.2639 132.383 21.0923 132.804 20.7493L133.822 23.5794Z"
          fill="white"/>
    <path d="M135.944 10.4064H139.725V24.2484H135.944V10.4064ZM137.835 8.47677C137.14 8.47677 136.574 8.26236 136.138 7.83356C135.702 7.40475 135.484 6.87302 135.484 6.23838C135.484 5.60375 135.702 5.07202 136.138 4.64321C136.574 4.2144 137.14 4 137.835 4C138.53 4 139.095 4.20583 139.531 4.61749C139.968 5.02914 140.186 5.54371 140.186 6.1612C140.186 6.83014 139.968 7.38759 139.531 7.83356C139.095 8.26236 138.53 8.47677 137.835 8.47677Z"
          fill="white"/>
    <path d="M156.178 10.4064L150.676 24.2484H146.773L141.296 10.4064H145.198L148.809 19.8231L152.542 10.4064H156.178Z"
          fill="white"/>
    <path d="M170.139 17.3788C170.139 17.4303 170.115 17.7905 170.066 18.4594H160.202C160.379 19.3171 160.799 19.9946 161.462 20.492C162.124 20.9894 162.949 21.2381 163.934 21.2381C164.613 21.2381 165.211 21.1352 165.728 20.9294C166.261 20.7064 166.754 20.3634 167.206 19.9002L169.218 22.2158C167.99 23.7081 166.196 24.4542 163.837 24.4542C162.367 24.4542 161.066 24.154 159.935 23.5537C158.804 22.9362 157.931 22.0872 157.317 21.0066C156.703 19.926 156.396 18.6996 156.396 17.3274C156.396 15.9724 156.695 14.7545 157.293 13.6739C157.907 12.5762 158.739 11.7271 159.789 11.1268C160.856 10.5093 162.044 10.2006 163.353 10.2006C164.629 10.2006 165.784 10.4922 166.819 11.0754C167.853 11.6585 168.661 12.499 169.242 13.5968C169.84 14.6773 170.139 15.938 170.139 17.3788ZM163.377 13.2366C162.52 13.2366 161.801 13.4938 161.22 14.0084C160.638 14.523 160.282 15.2262 160.153 16.1181H166.576C166.447 15.2434 166.091 14.5487 165.51 14.0341C164.928 13.5024 164.217 13.2366 163.377 13.2366Z"
          fill="white"/>
    <path d="M78.6773 33.3805C79.8892 33.3805 80.988 33.6807 81.9737 34.281C82.9755 34.8642 83.7593 35.6961 84.3248 36.7767C84.8904 37.8401 85.1732 39.0837 85.1732 40.5073C85.1732 41.931 84.8904 43.1831 84.3248 44.2637C83.7593 45.3272 82.9755 46.1591 81.9737 46.7594C80.988 47.3426 79.8892 47.6342 78.6773 47.6342C77.0129 47.6342 75.7041 47.0767 74.7507 45.9618V52.4197H70.9695V33.5864H74.581V35.1815C75.5183 33.9809 76.8837 33.3805 78.6773 33.3805ZM78.0229 44.3409C78.9924 44.3409 79.7842 43.9979 80.3982 43.3118C81.0284 42.6085 81.3435 41.6737 81.3435 40.5073C81.3435 39.341 81.0284 38.4148 80.3982 37.7287C79.7842 37.0254 78.9924 36.6738 78.0229 36.6738C77.0533 36.6738 76.2535 37.0254 75.6233 37.7287C75.0092 38.4148 74.7022 39.341 74.7022 40.5073C74.7022 41.6737 75.0092 42.6085 75.6233 43.3118C76.2535 43.9979 77.0533 44.3409 78.0229 44.3409Z"
          fill="white"/>
    <path d="M87.7043 33.5864H91.4855V47.4283H87.7043V33.5864ZM89.5949 31.6567C88.9001 31.6567 88.3345 31.4423 87.8982 31.0135C87.462 30.5847 87.2438 30.053 87.2438 29.4183C87.2438 28.7837 87.462 28.252 87.8982 27.8232C88.3345 27.3944 88.9001 27.18 89.5949 27.18C90.2898 27.18 90.8553 27.3858 91.2916 27.7974C91.7279 28.2091 91.946 28.7237 91.946 29.3412C91.946 30.0101 91.7279 30.5675 91.2916 31.0135C90.8553 31.4423 90.2898 31.6567 89.5949 31.6567Z"
          fill="white"/>
    <path d="M103.284 47.4283L100.424 43.1831L97.4671 47.4283H93.3465L98.3639 40.4559L93.5162 33.5864H97.7579L100.521 37.6258L103.357 33.5864H107.381L102.533 40.353L107.574 47.4283H103.284Z"
          fill="white"/>
    <path d="M121.781 40.5588C121.781 40.6103 121.757 40.9705 121.708 41.6394H111.843C112.021 42.497 112.441 43.1745 113.104 43.672C113.766 44.1694 114.59 44.4181 115.576 44.4181C116.255 44.4181 116.853 44.3152 117.37 44.1093C117.903 43.8864 118.396 43.5433 118.848 43.0802L120.86 45.3958C119.632 46.888 117.838 47.6342 115.479 47.6342C114.009 47.6342 112.708 47.334 111.577 46.7337C110.446 46.1162 109.573 45.2671 108.959 44.1865C108.345 43.1059 108.038 41.8795 108.038 40.5073C108.038 39.1523 108.337 37.9345 108.935 36.8539C109.549 35.7561 110.381 34.9071 111.431 34.3068C112.498 33.6893 113.685 33.3805 114.994 33.3805C116.271 33.3805 117.426 33.6721 118.46 34.2553C119.495 34.8385 120.303 35.679 120.884 36.7767C121.482 37.8573 121.781 39.118 121.781 40.5588ZM115.019 36.4165C114.162 36.4165 113.443 36.6738 112.861 37.1884C112.28 37.7029 111.924 38.4062 111.795 39.2981H118.218C118.089 38.4233 117.733 37.7287 117.152 37.2141C116.57 36.6824 115.859 36.4165 115.019 36.4165Z"
          fill="white"/>
    <path d="M124.298 28.3377H128.08V47.4283H124.298V28.3377Z" fill="white"/>
    <path d="M135.976 47.6342C134.893 47.6342 133.835 47.4969 132.801 47.2225C131.767 46.9309 130.942 46.5707 130.328 46.1419L131.589 43.2603C132.171 43.6548 132.873 43.9807 133.698 44.238C134.522 44.4781 135.33 44.5982 136.121 44.5982C137.721 44.5982 138.521 44.178 138.521 43.3375C138.521 42.943 138.303 42.66 137.867 42.4884C137.43 42.3169 136.76 42.1711 135.855 42.0511C134.788 41.8795 133.908 41.6823 133.213 41.4593C132.518 41.2363 131.912 40.8418 131.395 40.2758C130.894 39.7098 130.644 38.9036 130.644 37.8573C130.644 36.9825 130.878 36.2107 131.346 35.5417C131.831 34.8556 132.526 34.3239 133.431 33.9466C134.352 33.5692 135.435 33.3805 136.679 33.3805C137.6 33.3805 138.513 33.492 139.418 33.715C140.339 33.9208 141.098 34.2124 141.696 34.5898L140.436 37.4456C139.289 36.7596 138.036 36.4165 136.679 36.4165C135.871 36.4165 135.265 36.5366 134.861 36.7767C134.457 37.0168 134.255 37.3256 134.255 37.7029C134.255 38.1317 134.473 38.4319 134.909 38.6034C135.346 38.775 136.041 38.9379 136.994 39.0923C138.06 39.281 138.933 39.4868 139.612 39.7098C140.29 39.9156 140.88 40.3015 141.381 40.8675C141.882 41.4336 142.132 42.2226 142.132 43.2346C142.132 44.0922 141.89 44.8555 141.405 45.5244C140.921 46.1934 140.21 46.7165 139.272 47.0939C138.351 47.4541 137.253 47.6342 135.976 47.6342Z"
          fill="white"/>
    <path d="M8.78335 36.4811C6.80853 33.2433 5.76754 29.4611 5.80199 25.6018C5.80199 19.5933 7.97582 14.5762 12.3273 10.5543C15.5727 7.55215 19.4229 5.66716 23.8815 4.90748V0C17.0883 0.0365623 11.4164 2.44155 6.87359 7.21091C2.29247 12.0168 0 18.013 0 25.1955C0 29.9405 1.04864 34.2752 3.13828 38.1914C5.1705 42.0426 8.15569 45.2276 11.7685 47.4051C15.4043 49.6232 19.4382 50.7323 23.8739 50.7445V46.5845C21.4742 46.162 19.1511 45.3576 16.9773 44.1957C13.5061 42.3311 10.7735 39.7595 8.78335 36.4811Z"
          fill="#FFE400"/>
    <path d="M15.7565 34.718C13.5214 32.1708 12.4039 29.0224 12.4039 25.2808C12.4039 21.5393 13.5061 18.4234 15.7105 15.9331C17.8997 13.459 20.6208 12.2118 23.8854 12.1956V4.90748C19.4305 5.67122 15.5766 7.55215 12.3311 10.5543C7.98347 14.5762 5.80581 19.5933 5.80581 25.6018C5.7752 29.4611 6.81236 33.2433 8.791 36.4811C10.7773 39.7595 13.5099 42.3311 16.985 44.1917C19.155 45.3536 21.4781 46.1579 23.8777 46.5804V38.5367C20.6744 38.5205 17.9686 37.2489 15.7565 34.718Z"
          fill="#EC9122"/>
    <path d="M52.1987 11.5903C54.4147 14.2837 55.8307 17.6109 56.2747 21.1533C57.0171 26.6661 55.6394 31.5696 52.149 35.8677C49.5427 39.073 46.2398 41.3358 42.2443 42.652L42.849 47.1532C49.0834 46.1742 53.986 43.1842 57.5683 38.1792C61.1735 33.1295 62.5321 27.3121 61.6442 20.7146C61.0586 16.3596 59.566 12.5287 57.1626 9.2259C54.8242 5.97591 51.6936 3.4653 48.1113 1.9703C44.5061 0.446872 40.6637 -0.0162495 36.5877 0.58906L37.1006 4.41186C39.3548 4.46467 41.5898 4.8831 43.7254 5.64279C47.1469 6.87778 49.9713 8.86027 52.1987 11.5903Z"
          fill="#EC3593"/>
    <path d="M46.0293 14.174C48.3945 16.2052 49.8068 18.9352 50.266 22.368C50.7253 25.7968 50.0976 28.8111 48.3831 31.407C46.68 33.9786 44.3301 35.502 41.3372 35.9733L42.2366 42.652C46.2322 41.3317 49.5312 39.073 52.1413 35.8677C55.6355 31.5736 57.0095 26.6661 56.2708 21.1533C55.8231 17.6068 54.407 14.2837 52.1949 11.5903C49.9637 8.85621 47.1392 6.87778 43.7254 5.65091C41.5898 4.88717 39.3548 4.47279 37.1006 4.41998L38.0918 11.7934C41.0349 11.3668 43.6833 12.1631 46.0293 14.174Z"
          fill="#B11F80"/>
    <path d="M36.7244 0.630197L27.4643 2.03213L35.915 64.9259L45.1751 63.524L36.7244 0.630197Z" fill="#EC3593"/>
</svg>
