<svg width="108" height="38" viewBox="0 0 108 38" fill="none" xmlns="http://www.w3.org/2000/svg">
<rect x="14" y="14" width="94" height="24" rx="12" fill="#FF37B3"/>
<path d="M24.9742 29.5V21.004H26.6902V24.52H30.3622V21.004H32.0902V29.5H30.3622V26.104H26.6902V29.5H24.9742ZM35.6562 29.584C35.3682 29.584 35.0882 29.548 34.8162 29.476C34.5522 29.396 34.3162 29.276 34.1082 29.116C33.9002 28.956 33.7362 28.756 33.6162 28.516C33.4962 28.276 33.4362 27.996 33.4362 27.676C33.4362 27.244 33.5242 26.9 33.7002 26.644C33.8762 26.38 34.1122 26.18 34.4082 26.044C34.7042 25.908 35.0442 25.816 35.4282 25.768C35.8202 25.72 36.2242 25.696 36.6402 25.696H37.5522C37.5522 25.464 37.5082 25.26 37.4202 25.084C37.3402 24.9 37.2162 24.76 37.0482 24.664C36.8802 24.56 36.6642 24.508 36.4002 24.508C36.2322 24.508 36.0682 24.532 35.9082 24.58C35.7562 24.62 35.6282 24.68 35.5242 24.76C35.4202 24.84 35.3522 24.944 35.3202 25.072H33.6162C33.6642 24.72 33.7762 24.42 33.9522 24.172C34.1282 23.916 34.3482 23.708 34.6122 23.548C34.8762 23.388 35.1642 23.272 35.4762 23.2C35.7962 23.12 36.1242 23.08 36.4602 23.08C37.3802 23.08 38.0602 23.344 38.5002 23.872C38.9402 24.392 39.1602 25.132 39.1602 26.092V29.5H37.6482L37.6242 28.684C37.4242 28.964 37.1962 29.168 36.9402 29.296C36.6922 29.424 36.4522 29.504 36.2202 29.536C35.9882 29.568 35.8002 29.584 35.6562 29.584ZM36.0402 28.252C36.3202 28.252 36.5762 28.196 36.8082 28.084C37.0402 27.972 37.2242 27.82 37.3602 27.628C37.4962 27.436 37.5642 27.22 37.5642 26.98V26.824H36.4122C36.2442 26.824 36.0802 26.832 35.9202 26.848C35.7682 26.864 35.6282 26.896 35.5002 26.944C35.3802 26.984 35.2842 27.052 35.2122 27.148C35.1402 27.244 35.1042 27.372 35.1042 27.532C35.1042 27.692 35.1442 27.828 35.2242 27.94C35.3122 28.044 35.4282 28.124 35.5722 28.18C35.7162 28.228 35.8722 28.252 36.0402 28.252ZM42.9445 29.584C42.6485 29.584 42.3445 29.552 42.0325 29.488C41.7205 29.424 41.4325 29.316 41.1685 29.164C40.9045 29.004 40.6805 28.792 40.4965 28.528C40.3125 28.256 40.1925 27.92 40.1365 27.52H41.8405C41.8885 27.664 41.9725 27.788 42.0925 27.892C42.2205 27.996 42.3645 28.072 42.5245 28.12C42.6925 28.168 42.8605 28.192 43.0285 28.192C43.1405 28.192 43.2525 28.184 43.3645 28.168C43.4765 28.152 43.5805 28.12 43.6765 28.072C43.7725 28.024 43.8485 27.964 43.9045 27.892C43.9605 27.812 43.9885 27.712 43.9885 27.592C43.9885 27.464 43.9485 27.364 43.8685 27.292C43.7885 27.22 43.6765 27.164 43.5325 27.124C43.3885 27.076 43.2245 27.032 43.0405 26.992C42.7125 26.92 42.3605 26.84 41.9845 26.752C41.6085 26.664 41.2845 26.536 41.0125 26.368C40.9005 26.288 40.8005 26.2 40.7125 26.104C40.6245 26.008 40.5525 25.9 40.4965 25.78C40.4405 25.66 40.3965 25.536 40.3645 25.408C40.3325 25.272 40.3165 25.128 40.3165 24.976C40.3165 24.632 40.3885 24.34 40.5325 24.1C40.6845 23.852 40.8845 23.652 41.1325 23.5C41.3805 23.348 41.6565 23.24 41.9605 23.176C42.2645 23.104 42.5765 23.068 42.8965 23.068C43.3285 23.068 43.7285 23.14 44.0965 23.284C44.4645 23.42 44.7685 23.636 45.0085 23.932C45.2485 24.22 45.3965 24.596 45.4525 25.06H43.8445C43.8125 24.884 43.7045 24.744 43.5205 24.64C43.3365 24.528 43.1085 24.472 42.8365 24.472C42.7405 24.472 42.6365 24.48 42.5245 24.496C42.4205 24.512 42.3245 24.54 42.2365 24.58C42.1485 24.62 42.0765 24.676 42.0205 24.748C41.9645 24.812 41.9365 24.9 41.9365 25.012C41.9365 25.1 41.9605 25.18 42.0085 25.252C42.0645 25.324 42.1405 25.384 42.2365 25.432C42.3405 25.48 42.4645 25.524 42.6085 25.564C42.8805 25.628 43.1525 25.688 43.4245 25.744C43.7045 25.792 43.9525 25.844 44.1685 25.9C44.4325 25.956 44.6725 26.048 44.8885 26.176C45.1125 26.304 45.2925 26.48 45.4285 26.704C45.5725 26.92 45.6445 27.204 45.6445 27.556C45.6445 27.956 45.5645 28.288 45.4045 28.552C45.2445 28.808 45.0285 29.012 44.7565 29.164C44.4925 29.316 44.2005 29.424 43.8805 29.488C43.5685 29.552 43.2565 29.584 42.9445 29.584ZM49.0968 29.584C48.8008 29.584 48.4968 29.552 48.1848 29.488C47.8728 29.424 47.5848 29.316 47.3208 29.164C47.0568 29.004 46.8328 28.792 46.6488 28.528C46.4648 28.256 46.3448 27.92 46.2888 27.52H47.9928C48.0408 27.664 48.1248 27.788 48.2448 27.892C48.3728 27.996 48.5168 28.072 48.6768 28.12C48.8448 28.168 49.0128 28.192 49.1808 28.192C49.2928 28.192 49.4048 28.184 49.5168 28.168C49.6288 28.152 49.7328 28.12 49.8288 28.072C49.9248 28.024 50.0008 27.964 50.0568 27.892C50.1128 27.812 50.1408 27.712 50.1408 27.592C50.1408 27.464 50.1008 27.364 50.0208 27.292C49.9408 27.22 49.8288 27.164 49.6848 27.124C49.5408 27.076 49.3768 27.032 49.1928 26.992C48.8648 26.92 48.5128 26.84 48.1368 26.752C47.7608 26.664 47.4368 26.536 47.1648 26.368C47.0528 26.288 46.9528 26.2 46.8648 26.104C46.7768 26.008 46.7048 25.9 46.6488 25.78C46.5928 25.66 46.5488 25.536 46.5168 25.408C46.4848 25.272 46.4688 25.128 46.4688 24.976C46.4688 24.632 46.5408 24.34 46.6848 24.1C46.8368 23.852 47.0368 23.652 47.2848 23.5C47.5328 23.348 47.8088 23.24 48.1128 23.176C48.4168 23.104 48.7288 23.068 49.0488 23.068C49.4808 23.068 49.8808 23.14 50.2488 23.284C50.6168 23.42 50.9208 23.636 51.1608 23.932C51.4008 24.22 51.5488 24.596 51.6048 25.06H49.9968C49.9648 24.884 49.8568 24.744 49.6728 24.64C49.4888 24.528 49.2608 24.472 48.9888 24.472C48.8928 24.472 48.7888 24.48 48.6768 24.496C48.5728 24.512 48.4768 24.54 48.3888 24.58C48.3008 24.62 48.2288 24.676 48.1728 24.748C48.1168 24.812 48.0888 24.9 48.0888 25.012C48.0888 25.1 48.1128 25.18 48.1608 25.252C48.2168 25.324 48.2928 25.384 48.3888 25.432C48.4928 25.48 48.6168 25.524 48.7608 25.564C49.0328 25.628 49.3048 25.688 49.5768 25.744C49.8568 25.792 50.1048 25.844 50.3208 25.9C50.5848 25.956 50.8248 26.048 51.0408 26.176C51.2648 26.304 51.4448 26.48 51.5808 26.704C51.7248 26.92 51.7968 27.204 51.7968 27.556C51.7968 27.956 51.7168 28.288 51.5568 28.552C51.3968 28.808 51.1808 29.012 50.9088 29.164C50.6448 29.316 50.3528 29.424 50.0328 29.488C49.7208 29.552 49.4088 29.584 49.0968 29.584ZM54.7812 29.584C54.4932 29.584 54.2132 29.548 53.9412 29.476C53.6772 29.396 53.4412 29.276 53.2332 29.116C53.0252 28.956 52.8612 28.756 52.7412 28.516C52.6212 28.276 52.5612 27.996 52.5612 27.676C52.5612 27.244 52.6492 26.9 52.8252 26.644C53.0012 26.38 53.2372 26.18 53.5332 26.044C53.8292 25.908 54.1692 25.816 54.5532 25.768C54.9452 25.72 55.3492 25.696 55.7652 25.696H56.6772C56.6772 25.464 56.6332 25.26 56.5452 25.084C56.4652 24.9 56.3412 24.76 56.1732 24.664C56.0052 24.56 55.7892 24.508 55.5252 24.508C55.3572 24.508 55.1932 24.532 55.0332 24.58C54.8812 24.62 54.7532 24.68 54.6492 24.76C54.5452 24.84 54.4772 24.944 54.4452 25.072H52.7412C52.7892 24.72 52.9012 24.42 53.0772 24.172C53.2532 23.916 53.4732 23.708 53.7372 23.548C54.0012 23.388 54.2892 23.272 54.6012 23.2C54.9212 23.12 55.2492 23.08 55.5852 23.08C56.5052 23.08 57.1852 23.344 57.6252 23.872C58.0652 24.392 58.2852 25.132 58.2852 26.092V29.5H56.7732L56.7492 28.684C56.5492 28.964 56.3212 29.168 56.0652 29.296C55.8172 29.424 55.5772 29.504 55.3452 29.536C55.1132 29.568 54.9252 29.584 54.7812 29.584ZM55.1652 28.252C55.4452 28.252 55.7012 28.196 55.9332 28.084C56.1652 27.972 56.3492 27.82 56.4852 27.628C56.6212 27.436 56.6892 27.22 56.6892 26.98V26.824H55.5372C55.3692 26.824 55.2052 26.832 55.0452 26.848C54.8932 26.864 54.7532 26.896 54.6252 26.944C54.5052 26.984 54.4092 27.052 54.3372 27.148C54.2652 27.244 54.2292 27.372 54.2292 27.532C54.2292 27.692 54.2692 27.828 54.3492 27.94C54.4372 28.044 54.5532 28.124 54.6972 28.18C54.8412 28.228 54.9972 28.252 55.1652 28.252ZM59.5975 29.5V23.176H61.1695L61.2535 23.908C61.4295 23.692 61.6295 23.524 61.8535 23.404C62.0855 23.276 62.3175 23.188 62.5495 23.14C62.7895 23.092 63.0055 23.068 63.1975 23.068C63.8055 23.068 64.2775 23.2 64.6135 23.464C64.9575 23.728 65.2015 24.084 65.3455 24.532C65.4975 24.972 65.5735 25.464 65.5735 26.008V29.5H63.8935V26.224C63.8935 26.032 63.8775 25.84 63.8455 25.648C63.8135 25.456 63.7535 25.28 63.6655 25.12C63.5855 24.96 63.4695 24.832 63.3175 24.736C63.1655 24.64 62.9655 24.592 62.7175 24.592C62.3975 24.592 62.1295 24.672 61.9135 24.832C61.6975 24.992 61.5375 25.208 61.4335 25.48C61.3295 25.752 61.2775 26.052 61.2775 26.38V29.5H59.5975ZM70.4898 29.5V21.004H72.2058V29.5H70.4898ZM78.2655 31.864V28.816C78.0255 29.112 77.7335 29.316 77.3895 29.428C77.0455 29.532 76.7095 29.584 76.3815 29.584C75.9015 29.584 75.4815 29.504 75.1215 29.344C74.7615 29.176 74.4615 28.948 74.2215 28.66C73.9895 28.364 73.8135 28.024 73.6935 27.64C73.5815 27.248 73.5255 26.824 73.5255 26.368C73.5255 25.72 73.6415 25.148 73.8735 24.652C74.1055 24.156 74.4415 23.768 74.8815 23.488C75.3295 23.208 75.8615 23.068 76.4775 23.068C76.8375 23.068 77.1775 23.128 77.4975 23.248C77.8255 23.368 78.0935 23.56 78.3015 23.824L78.3855 23.176H79.9455V31.864H78.2655ZM76.7415 28.072C77.0775 28.072 77.3575 27.992 77.5815 27.832C77.8055 27.672 77.9735 27.46 78.0855 27.196C78.2055 26.932 78.2655 26.644 78.2655 26.332C78.2655 26.012 78.2055 25.724 78.0855 25.468C77.9735 25.204 77.8015 24.996 77.5695 24.844C77.3455 24.684 77.0615 24.604 76.7175 24.604C76.3655 24.604 76.0775 24.684 75.8535 24.844C75.6295 25.004 75.4655 25.216 75.3615 25.48C75.2575 25.736 75.2055 26.016 75.2055 26.32C75.2055 26.624 75.2575 26.912 75.3615 27.184C75.4655 27.448 75.6295 27.664 75.8535 27.832C76.0775 27.992 76.3735 28.072 76.7415 28.072ZM84.8655 29.584C84.6575 29.584 84.4375 29.564 84.2055 29.524C83.9815 29.484 83.7575 29.408 83.5335 29.296C83.3175 29.176 83.1135 29.008 82.9215 28.792L82.9095 29.5H81.2655V21.004H82.9455V23.92C83.1855 23.632 83.4815 23.42 83.8335 23.284C84.1935 23.14 84.5655 23.068 84.9495 23.068C85.5735 23.068 86.0855 23.212 86.4855 23.5C86.8855 23.78 87.1815 24.164 87.3735 24.652C87.5735 25.14 87.6735 25.7 87.6735 26.332C87.6735 26.948 87.5735 27.504 87.3735 28C87.1735 28.488 86.8655 28.876 86.4495 29.164C86.0415 29.444 85.5135 29.584 84.8655 29.584ZM84.5055 28.084C84.8975 28.084 85.2015 27.996 85.4175 27.82C85.6335 27.644 85.7855 27.42 85.8735 27.148C85.9615 26.876 86.0055 26.592 86.0055 26.296C86.0055 26 85.9575 25.724 85.8615 25.468C85.7655 25.204 85.6055 24.996 85.3815 24.844C85.1655 24.684 84.8735 24.604 84.5055 24.604C84.1695 24.604 83.8815 24.688 83.6415 24.856C83.4095 25.016 83.2335 25.228 83.1135 25.492C82.9935 25.756 82.9335 26.04 82.9335 26.344C82.9335 26.648 82.9855 26.936 83.0895 27.208C83.2015 27.472 83.3735 27.684 83.6055 27.844C83.8375 28.004 84.1375 28.084 84.5055 28.084ZM90.7578 29.584C90.4698 29.584 90.1898 29.548 89.9178 29.476C89.6538 29.396 89.4178 29.276 89.2098 29.116C89.0018 28.956 88.8378 28.756 88.7178 28.516C88.5978 28.276 88.5378 27.996 88.5378 27.676C88.5378 27.244 88.6258 26.9 88.8018 26.644C88.9778 26.38 89.2138 26.18 89.5098 26.044C89.8058 25.908 90.1458 25.816 90.5298 25.768C90.9218 25.72 91.3258 25.696 91.7418 25.696H92.6538C92.6538 25.464 92.6098 25.26 92.5218 25.084C92.4418 24.9 92.3178 24.76 92.1498 24.664C91.9818 24.56 91.7658 24.508 91.5018 24.508C91.3338 24.508 91.1698 24.532 91.0098 24.58C90.8578 24.62 90.7298 24.68 90.6258 24.76C90.5218 24.84 90.4538 24.944 90.4218 25.072H88.7178C88.7658 24.72 88.8778 24.42 89.0538 24.172C89.2298 23.916 89.4498 23.708 89.7138 23.548C89.9778 23.388 90.2658 23.272 90.5778 23.2C90.8978 23.12 91.2258 23.08 91.5618 23.08C92.4818 23.08 93.1618 23.344 93.6018 23.872C94.0418 24.392 94.2617 25.132 94.2617 26.092V29.5H92.7498L92.7258 28.684C92.5258 28.964 92.2978 29.168 92.0418 29.296C91.7938 29.424 91.5538 29.504 91.3218 29.536C91.0898 29.568 90.9018 29.584 90.7578 29.584ZM91.1418 28.252C91.4218 28.252 91.6778 28.196 91.9098 28.084C92.1418 27.972 92.3258 27.82 92.4618 27.628C92.5978 27.436 92.6658 27.22 92.6658 26.98V26.824H91.5138C91.3458 26.824 91.1818 26.832 91.0218 26.848C90.8698 26.864 90.7298 26.896 90.6018 26.944C90.4818 26.984 90.3858 27.052 90.3138 27.148C90.2418 27.244 90.2058 27.372 90.2058 27.532C90.2058 27.692 90.2458 27.828 90.3258 27.94C90.4138 28.044 90.5298 28.124 90.6738 28.18C90.8178 28.228 90.9738 28.252 91.1418 28.252ZM95.5741 29.5V21.004H97.2541V29.5H95.5741Z" fill="white"/>
<path fill-rule="evenodd" clip-rule="evenodd" d="M1.38052 0.075227C1.19792 9.46e-05 0.997175 -0.019302 0.803574 0.0194819C0.609973 0.0582659 0.432186 0.153495 0.292623 0.293165C0.15306 0.432835 0.0579674 0.610694 0.0193317 0.804325C-0.0193039 0.997956 0.000246592 1.19869 0.0755189 1.38123L7.07552 18.3812C7.15049 18.5634 7.27757 18.7193 7.44083 18.8295C7.60408 18.9397 7.79624 18.9992 7.9932 19.0006C8.19015 19.002 8.38313 18.9452 8.54793 18.8373C8.71272 18.7294 8.84199 18.5753 8.91952 18.3942L11.6045 12.1292C11.7057 11.8933 11.8936 11.7054 12.1295 11.6042L18.3945 8.91923C18.5756 8.8417 18.7297 8.71243 18.8376 8.54764C18.9455 8.38284 19.0023 8.18986 19.0009 7.99291C18.9995 7.79595 18.94 7.60379 18.8298 7.44054C18.7196 7.27728 18.5637 7.15019 18.3815 7.07523L1.38052 0.075227Z" fill="#FF37B3"/>
</svg>
