<svg width="107" height="38" viewBox="0 0 107 38" fill="none" xmlns="http://www.w3.org/2000/svg">
<rect y="14" width="93" height="24" rx="12" fill="#EE7621"/>
<path d="M10.0667 29.5L13.3787 21.004H15.2987L18.5747 29.5H16.7267L16.1987 28.048H12.4427L11.9147 29.5H10.0667ZM12.9947 26.5H15.6587L14.3387 22.828L12.9947 26.5ZM19.7739 29.5V24.676H18.8259V23.176H19.7739V22.6C19.7739 22.12 19.8499 21.728 20.0019 21.424C20.1619 21.112 20.4019 20.884 20.7219 20.74C21.0499 20.596 21.4659 20.524 21.9699 20.524H23.0139V22.012H22.1859C22.0019 22.012 21.8539 22.04 21.7419 22.096C21.6379 22.152 21.5659 22.24 21.5259 22.36C21.4859 22.472 21.4659 22.612 21.4659 22.78V23.176H23.0139V24.676H21.4659V29.5H19.7739ZM23.6114 29.5V28.228L26.7314 24.676H23.6114V23.176H28.8914V24.436L25.7594 28H28.8914V29.5H23.6114ZM31.9726 29.584C31.6846 29.584 31.4046 29.548 31.1326 29.476C30.8686 29.396 30.6326 29.276 30.4246 29.116C30.2166 28.956 30.0526 28.756 29.9326 28.516C29.8126 28.276 29.7526 27.996 29.7526 27.676C29.7526 27.244 29.8406 26.9 30.0166 26.644C30.1926 26.38 30.4286 26.18 30.7246 26.044C31.0206 25.908 31.3606 25.816 31.7446 25.768C32.1366 25.72 32.5406 25.696 32.9566 25.696H33.8686C33.8686 25.464 33.8246 25.26 33.7366 25.084C33.6566 24.9 33.5326 24.76 33.3646 24.664C33.1966 24.56 32.9806 24.508 32.7166 24.508C32.5486 24.508 32.3846 24.532 32.2246 24.58C32.0726 24.62 31.9446 24.68 31.8406 24.76C31.7366 24.84 31.6686 24.944 31.6366 25.072H29.9326C29.9806 24.72 30.0926 24.42 30.2686 24.172C30.4446 23.916 30.6646 23.708 30.9286 23.548C31.1926 23.388 31.4806 23.272 31.7926 23.2C32.1126 23.12 32.4406 23.08 32.7766 23.08C33.6966 23.08 34.3766 23.344 34.8166 23.872C35.2566 24.392 35.4766 25.132 35.4766 26.092V29.5H33.9646L33.9406 28.684C33.7406 28.964 33.5126 29.168 33.2566 29.296C33.0086 29.424 32.7686 29.504 32.5366 29.536C32.3046 29.568 32.1166 29.584 31.9726 29.584ZM32.3566 28.252C32.6366 28.252 32.8926 28.196 33.1246 28.084C33.3566 27.972 33.5406 27.82 33.6766 27.628C33.8126 27.436 33.8806 27.22 33.8806 26.98V26.824H32.7286C32.5606 26.824 32.3966 26.832 32.2366 26.848C32.0846 26.864 31.9446 26.896 31.8166 26.944C31.6966 26.984 31.6006 27.052 31.5286 27.148C31.4566 27.244 31.4206 27.372 31.4206 27.532C31.4206 27.692 31.4606 27.828 31.5406 27.94C31.6286 28.044 31.7446 28.124 31.8886 28.18C32.0326 28.228 32.1886 28.252 32.3566 28.252ZM36.7889 29.5V21.004H38.4689V29.5H36.7889ZM42.5393 29.5L45.8513 21.004H47.7713L51.0473 29.5H49.1993L48.6713 28.048H44.9153L44.3873 29.5H42.5393ZM45.4673 26.5H48.1313L46.8113 22.828L45.4673 26.5ZM51.7186 29.5V21.004H53.3986V23.908C53.5826 23.692 53.7866 23.524 54.0106 23.404C54.2426 23.284 54.4746 23.2 54.7066 23.152C54.9466 23.096 55.1666 23.068 55.3666 23.068C55.9586 23.068 56.4226 23.2 56.7586 23.464C57.0946 23.728 57.3346 24.084 57.4786 24.532C57.6226 24.98 57.6946 25.472 57.6946 26.008V29.5H56.0146V26.248C56.0146 26.056 55.9946 25.864 55.9546 25.672C55.9226 25.48 55.8626 25.304 55.7746 25.144C55.6866 24.976 55.5626 24.844 55.4026 24.748C55.2426 24.644 55.0306 24.592 54.7666 24.592C54.5186 24.592 54.3066 24.644 54.1306 24.748C53.9546 24.852 53.8106 24.992 53.6986 25.168C53.5946 25.336 53.5186 25.524 53.4706 25.732C53.4226 25.94 53.3986 26.148 53.3986 26.356V29.5H51.7186ZM58.9842 29.5V23.176H60.4962L60.6402 23.884C60.8002 23.66 60.9762 23.492 61.1682 23.38C61.3682 23.26 61.5682 23.18 61.7682 23.14C61.9682 23.1 62.1522 23.08 62.3202 23.08C62.6962 23.08 63.0282 23.152 63.3162 23.296C63.6042 23.44 63.8362 23.672 64.0122 23.992C64.1802 23.76 64.3642 23.58 64.5642 23.452C64.7642 23.316 64.9762 23.22 65.2002 23.164C65.4242 23.108 65.6522 23.08 65.8842 23.08C66.3722 23.08 66.7642 23.184 67.0602 23.392C67.3642 23.592 67.5842 23.872 67.7202 24.232C67.8642 24.592 67.9362 25.012 67.9362 25.492V29.5H66.2562V25.936C66.2562 25.792 66.2482 25.644 66.2322 25.492C66.2162 25.34 66.1762 25.196 66.1122 25.06C66.0562 24.924 65.9682 24.812 65.8482 24.724C65.7362 24.636 65.5762 24.592 65.3682 24.592C65.1682 24.592 65.0002 24.636 64.8642 24.724C64.7282 24.812 64.6202 24.932 64.5402 25.084C64.4602 25.228 64.4002 25.388 64.3602 25.564C64.3282 25.732 64.3122 25.904 64.3122 26.08V29.5H62.6322V25.924C62.6322 25.788 62.6242 25.644 62.6082 25.492C62.5922 25.34 62.5562 25.196 62.5002 25.06C62.4442 24.924 62.3522 24.812 62.2242 24.724C62.1042 24.636 61.9362 24.592 61.7202 24.592C61.4242 24.592 61.1962 24.68 61.0362 24.856C60.8842 25.024 60.7842 25.228 60.7362 25.468C60.6882 25.7 60.6642 25.916 60.6642 26.116V29.5H58.9842ZM72.095 29.584C71.431 29.584 70.867 29.452 70.403 29.188C69.939 28.924 69.583 28.552 69.335 28.072C69.087 27.584 68.963 27.016 68.963 26.368C68.963 25.712 69.091 25.14 69.347 24.652C69.603 24.156 69.963 23.768 70.427 23.488C70.899 23.208 71.455 23.068 72.095 23.068C72.575 23.068 72.995 23.148 73.355 23.308C73.723 23.468 74.031 23.692 74.279 23.98C74.535 24.268 74.723 24.604 74.843 24.988C74.971 25.364 75.031 25.772 75.023 26.212C75.023 26.324 75.019 26.432 75.011 26.536C75.003 26.64 74.987 26.744 74.963 26.848H70.631C70.655 27.088 70.723 27.308 70.835 27.508C70.947 27.708 71.103 27.868 71.303 27.988C71.511 28.1 71.767 28.156 72.071 28.156C72.271 28.156 72.455 28.136 72.623 28.096C72.791 28.048 72.935 27.976 73.055 27.88C73.175 27.784 73.259 27.672 73.307 27.544H74.963C74.859 28.016 74.663 28.404 74.375 28.708C74.095 29.012 73.755 29.236 73.355 29.38C72.955 29.516 72.535 29.584 72.095 29.584ZM70.667 25.672H73.415C73.407 25.456 73.351 25.256 73.247 25.072C73.151 24.88 73.003 24.728 72.803 24.616C72.611 24.496 72.363 24.436 72.059 24.436C71.755 24.436 71.499 24.496 71.291 24.616C71.091 24.736 70.939 24.892 70.835 25.084C70.739 25.268 70.683 25.464 70.667 25.672ZM78.7093 29.584C78.0693 29.584 77.5373 29.44 77.1133 29.152C76.6973 28.856 76.3853 28.464 76.1773 27.976C75.9693 27.48 75.8653 26.932 75.8653 26.332C75.8653 25.7 75.9773 25.14 76.2013 24.652C76.4253 24.156 76.7573 23.768 77.1973 23.488C77.6373 23.208 78.1853 23.068 78.8413 23.068C79.0653 23.068 79.2853 23.096 79.5013 23.152C79.7253 23.2 79.9293 23.276 80.1133 23.38C80.3053 23.476 80.4693 23.604 80.6053 23.764V21.004H82.2853V29.5H80.6533L80.6293 28.792C80.4853 28.976 80.3093 29.128 80.1013 29.248C79.9013 29.36 79.6853 29.444 79.4533 29.5C79.2213 29.556 78.9733 29.584 78.7093 29.584ZM79.0453 28.072C79.4053 28.072 79.6973 27.988 79.9213 27.82C80.1533 27.652 80.3253 27.436 80.4373 27.172C80.5493 26.908 80.6053 26.624 80.6053 26.32C80.6053 26.008 80.5493 25.724 80.4373 25.468C80.3333 25.204 80.1653 24.996 79.9333 24.844C79.7093 24.684 79.4133 24.604 79.0453 24.604C78.6773 24.604 78.3813 24.688 78.1573 24.856C77.9333 25.024 77.7733 25.244 77.6773 25.516C77.5893 25.78 77.5453 26.064 77.5453 26.368C77.5453 26.592 77.5693 26.808 77.6173 27.016C77.6733 27.216 77.7613 27.396 77.8813 27.556C78.0013 27.716 78.1573 27.844 78.3493 27.94C78.5413 28.028 78.7733 28.072 79.0453 28.072Z" fill="white"/>
<path fill-rule="evenodd" clip-rule="evenodd" d="M105.62 0.075227C105.803 9.46e-05 106.004 -0.019302 106.197 0.0194819C106.391 0.0582659 106.569 0.153495 106.708 0.293165C106.848 0.432835 106.943 0.610694 106.982 0.804325C107.02 0.997956 107.001 1.19869 106.925 1.38123L99.9254 18.3812C99.8504 18.5634 99.7233 18.7193 99.5601 18.8295C99.3968 18.9397 99.2047 18.9992 99.0077 19.0006C98.8108 19.002 98.6178 18.9452 98.453 18.8373C98.2882 18.7294 98.1589 18.5753 98.0814 18.3942L95.3964 12.1292C95.2953 11.8933 95.1073 11.7054 94.8714 11.6042L88.6064 8.91923C88.4253 8.8417 88.2712 8.71243 88.1633 8.54764C88.0555 8.38284 87.9987 8.18986 88 7.99291C88.0014 7.79595 88.061 7.60379 88.1711 7.44054C88.2813 7.27728 88.4373 7.15019 88.6194 7.07523L105.62 0.075227Z" fill="#EE7621"/>
</svg>
