<svg width="35" height="35" viewBox="0 0 35 35" fill="none" xmlns="http://www.w3.org/2000/svg">
<path d="M11.9634 4.67676H22.3151C26.2586 4.67676 29.4627 7.88086 29.4627 11.8244V22.1761C29.4627 24.0717 28.7097 25.8898 27.3692 27.2302C26.0288 28.5706 24.2108 29.3237 22.3151 29.3237H11.9634C8.0199 29.3237 4.8158 26.1196 4.8158 22.1761V11.8244C4.8158 9.9287 5.56885 8.11068 6.90928 6.77024C8.24972 5.42981 10.0677 4.67676 11.9634 4.67676ZM11.7169 7.14145C10.5403 7.14145 9.41189 7.60886 8.57989 8.44086C7.7479 9.27285 7.28049 10.4013 7.28049 11.5779V22.4225C7.28049 24.8749 9.26456 26.859 11.7169 26.859H22.5616C23.7382 26.859 24.8666 26.3916 25.6986 25.5596C26.5306 24.7276 26.998 23.5992 26.998 22.4225V11.5779C26.998 9.12553 25.0139 7.14145 22.5616 7.14145H11.7169ZM23.6091 8.98997C24.0176 8.98997 24.4094 9.15226 24.6983 9.44115C24.9872 9.73004 25.1495 10.1219 25.1495 10.5304C25.1495 10.9389 24.9872 11.3308 24.6983 11.6197C24.4094 11.9085 24.0176 12.0708 23.6091 12.0708C23.2005 12.0708 22.8087 11.9085 22.5198 11.6197C22.2309 11.3308 22.0686 10.9389 22.0686 10.5304C22.0686 10.1219 22.2309 9.73004 22.5198 9.44115C22.8087 9.15226 23.2005 8.98997 23.6091 8.98997ZM17.1393 10.8385C18.7734 10.8385 20.3407 11.4877 21.4963 12.6432C22.6518 13.7988 23.301 15.366 23.301 17.0002C23.301 18.6344 22.6518 20.2017 21.4963 21.3572C20.3407 22.5128 18.7734 23.1619 17.1393 23.1619C15.5051 23.1619 13.9378 22.5128 12.7823 21.3572C11.6267 20.2017 10.9775 18.6344 10.9775 17.0002C10.9775 15.366 11.6267 13.7988 12.7823 12.6432C13.9378 11.4877 15.5051 10.8385 17.1393 10.8385ZM17.1393 13.3032C16.1587 13.3032 15.2184 13.6927 14.5251 14.386C13.8317 15.0793 13.4422 16.0197 13.4422 17.0002C13.4422 17.9807 13.8317 18.9211 14.5251 19.6144C15.2184 20.3077 16.1587 20.6973 17.1393 20.6973C18.1198 20.6973 19.0601 20.3077 19.7535 19.6144C20.4468 18.9211 20.8363 17.9807 20.8363 17.0002C20.8363 16.0197 20.4468 15.0793 19.7535 14.386C19.0601 13.6927 18.1198 13.3032 17.1393 13.3032Z" fill="white"/>
</svg>
