<svg width="35" height="35" viewBox="0 0 35 35" fill="none" xmlns="http://www.w3.org/2000/svg">
<path d="M10.9762 8.24957C10.9758 8.91268 10.7149 9.54851 10.2507 10.0172C9.78657 10.4858 9.15722 10.7489 8.50113 10.7486C7.84504 10.7483 7.21594 10.4845 6.75225 10.0154C6.28855 9.54627 6.02824 8.91018 6.02856 8.24707C6.02889 7.58396 6.28984 6.94813 6.754 6.47948C7.21816 6.01082 7.84751 5.74772 8.5036 5.74805C9.15969 5.74838 9.78878 6.01212 10.2525 6.48124C10.7162 6.95037 10.9765 7.58646 10.9762 8.24957ZM11.0504 12.6H6.10278V28.2518H11.0504V12.6ZM18.8676 12.6H13.9447V28.2518H18.8181V20.0384C18.8181 15.4629 24.7181 15.0378 24.7181 20.0384V28.2518H29.6039V18.3382C29.6039 10.6248 20.8714 10.9124 18.8181 14.7003L18.8676 12.6Z" fill="white"/>
</svg>
